  0
SECTION
  2
HEADER
  9
$INSUNITS
 70
     4
  9
$MEASUREMENT
 70
     1
  9
$ACADVER
  1
AC1012
  9
$HANDSEED
  5
85
  0
ENDSEC
  0
SECTION
  2
TABLES
  0
TABLE
  2
LAYER
  5
4
330
0
100
AcDbSymbolTable
 70
     4
  0
LAYER
  5
5
330
4
100
AcDbSymbolTableRecord
100
AcDbLayerTableRecord
  2
1
 70
     0
 62
     7
  0
LAYER
  5
6
330
4
100
AcDbSymbolTableRecord
100
AcDbLayerTableRecord
  2
Spur
 70
     0
 62
     7
  6
Continuous
  0
LAYER
  5
9
330
4
100
AcDbSymbolTableRecord
100
AcDbLayerTableRecord
  2
decor
 70
     0
 62
     6
  6
Dash
  0
LAYER
  5
74
330
4
100
AcDbSymbolTableRecord
100
AcDbLayerTableRecord
  2
0
 70
     0
  6
Continuous
  0
ENDTAB
  0
TABLE
  2
LTYPE
  5
7
330
0
100
AcDbSymbolTable
 70
     4
  0
LTYPE
  5
8
330
7
100
AcDbSymbolTableRecord
100
AcDbLinetypeTableRecord
  2
Continuous
 70
     0
  3
_
 72
    65
 73
     0
 40
0
  0
LTYPE
  5
A
330
7
100
AcDbSymbolTableRecord
100
AcDbLinetypeTableRecord
  2
Dash
 70
     0
  3
_
 72
    65
 73
     0
 40
0
  0
LTYPE
  5
72
330
7
100
AcDbSymbolTableRecord
100
AcDbLinetypeTableRecord
  2
BYBLOCK
 70
     0
  3
 
 72
    65
 73
     0
 40
0
  0
LTYPE
  5
73
330
7
100
AcDbSymbolTableRecord
100
AcDbLinetypeTableRecord
  2
BYLAYER
 70
     0
  3
 
 72
    65
 73
     0
 40
0
  0
ENDTAB
  0
TABLE
  2
VPORT
  5
6F
330
0
100
AcDbSymbolTable
 70
     0
  0
ENDTAB
  0
TABLE
  2
VIEW
  5
70
330
0
100
AcDbSymbolTable
 70
     0
  0
ENDTAB
  0
TABLE
  2
UCS
  5
71
330
0
100
AcDbSymbolTable
 70
     0
  0
ENDTAB
  0
TABLE
  2
STYLE
  5
75
330
0
100
AcDbSymbolTable
 70
     1
  0
STYLE
  5
76
330
75
100
AcDbSymbolTableRecord
100
AcDbTextStyleTableRecord
  2
STANDARD
 70
     0
 40
0
 41
1
 50
0
 71
     0
 42
1
  0
ENDTAB
  0
TABLE
  2
APPID
  5
77
330
0
100
AcDbSymbolTable
 70
     1
  0
APPID
  5
78
330
77
100
AcDbSymbolTableRecord
100
AcDbRegAppTableRecord
  2
ACAD
 70
     0
  0
ENDTAB
  0
TABLE
  2
DIMSTYLE
  5
79
330
0
100
AcDbSymbolTable
 70
     0
  0
ENDTAB
  0
TABLE
  2
BLOCK_RECORD
  5
7A
330
0
100
AcDbSymbolTable
 70
     2
  0
BLOCK_RECORD
  5
7B
330
7A
100
AcDbSymbolTableRecord
100
AcDbBlockTableRecord
  2
*MODEL_SPACE
  0
BLOCK_RECORD
  5
7C
330
7A
100
AcDbSymbolTableRecord
100
AcDbBlockTableRecord
  2
*PAPER_SPACE
  0
ENDTAB
  0
ENDSEC
  0
SECTION
  2
BLOCKS
  0
BLOCK
  5
7E
330
7B
100
AcDbEntity
  8
0
100
AcDbBlockBegin
  2
*MODEL_SPACE
 70
     0
 10
0
 20
0
 30
0
  0
ENDBLK
  5
7F
330
7B
100
AcDbEntity
  8
0
100
AcDbBlockEnd
  0
BLOCK
  5
80
330
7C
100
AcDbEntity
  8
0
100
AcDbBlockBegin
  2
*PAPER_SPACE
 70
     0
 10
0
 20
0
 30
0
  0
ENDBLK
  5
81
330
7C
100
AcDbEntity
  8
0
100
AcDbBlockEnd
  0
ENDSEC
  0
SECTION
  2
ENTITIES
  0
ARC
  5
B
330
0
100
AcDbEntity
  8
Spur
 62
     7
100
AcDbCircle
 10
-0.0000000001
 20
-0.0000000005
 30
0
 40
3.7499999999
100
AcDbArc
 50
339.092219
 51
344.907781
  0
ARC
  5
C
330
0
100
AcDbEntity
  8
Spur
 62
     7
100
AcDbCircle
 10
4.00685808
 20
-1.0805496636
 30
0
 40
0.3999999096
100
AcDbArc
 50
80.438835
 51
164.907766
  0
LINE
  5
D
330
0
100
AcDbEntity
  8
Spur
 62
     7
100
AcDbLine
 10
4.0732982232
 20
-0.6861062138
 30
0
 11
4.6485694136
 21
-0.7830048734
 31
0
  0
SPLINE
  5
E
330
0
100
AcDbEntity
  8
Spur
 62
     7
100
AcDbSpline
 70
     8
 71
     3
 72
     8
 73
     4
 74
     0
 40
0
 40
0
 40
0
 40
0
 40
1
 40
1
 40
1
 40
1
 10
4.6485694136
 20
-0.7830048734
 30
0
 10
4.6886691654
 20
-0.7864703236
 30
0
 10
4.808891418
 20
-0.7904948919
 30
0
 10
5.0125371705
 20
-0.7420843891
 30
0
  0
SPLINE
  5
F
330
0
100
AcDbEntity
  8
Spur
 62
     7
100
AcDbSpline
 70
     8
 71
     3
 72
     8
 73
     4
 74
     0
 40
0
 40
0
 40
0
 40
0
 40
1
 40
1
 40
1
 40
1
 10
5.0125371705
 20
-0.7420843891
 30
0
 10
5.2525595107
 20
-0.6842217171
 30
0
 10
5.5935266432
 20
-0.5530472313
 30
0
 10
5.9957436301
 20
-0.2635110681
 30
0
  0
ARC
  5
10
330
0
100
AcDbEntity
  8
Spur
 62
     7
100
AcDbCircle
 10
0
 20
0
 30
0
 40
6.0015314513
100
AcDbArc
 50
357.483488
 51
2.516512
  0
SPLINE
  5
11
330
0
100
AcDbEntity
  8
Spur
 62
     7
100
AcDbSpline
 70
     8
 71
     3
 72
     8
 73
     4
 74
     0
 40
0
 40
0
 40
0
 40
0
 40
1
 40
1
 40
1
 40
1
 10
5.9957436301
 20
0.2635110681
 30
0
 10
5.5935266432
 20
0.5530472313
 30
0
 10
5.2525595107
 20
0.6842217171
 30
0
 10
5.0125371705
 20
0.7420843891
 30
0
  0
SPLINE
  5
12
330
0
100
AcDbEntity
  8
Spur
 62
     7
100
AcDbSpline
 70
     8
 71
     3
 72
     8
 73
     4
 74
     0
 40
0
 40
0
 40
0
 40
0
 40
1
 40
1
 40
1
 40
1
 10
5.0125371705
 20
0.7420843891
 30
0
 10
4.808891418
 20
0.7904948919
 30
0
 10
4.6886691654
 20
0.7864703236
 30
0
 10
4.6485694136
 20
0.7830048734
 30
0
  0
LINE
  5
13
330
0
100
AcDbEntity
  8
Spur
 62
     7
100
AcDbLine
 10
4.6485694136
 20
0.7830048734
 30
0
 11
4.0732982232
 21
0.6861062138
 31
0
  0
ARC
  5
14
330
0
100
AcDbEntity
  8
Spur
 62
     7
100
AcDbCircle
 10
4.0068580801
 20
1.0805496636
 30
0
 40
0.3999999096
100
AcDbArc
 50
195.092234
 51
279.561165
  0
ARC
  5
15
330
0
100
AcDbEntity
  8
Spur
 62
     7
100
AcDbCircle
 10
0.0000000001
 20
-0.0000000004
 30
0
 40
3.75
100
AcDbArc
 50
15.092219
 51
20.907781
  0
ARC
  5
16
330
0
100
AcDbEntity
  8
Spur
 62
     7
100
AcDbCircle
 10
3.8767474374
 20
1.4809890464
 30
0
 40
0.3999999096
100
AcDbArc
 50
116.438835
 51
200.907766
  0
LINE
  5
17
330
0
100
AcDbEntity
  8
Spur
 62
     7
100
AcDbLine
 10
3.6986505997
 20
1.8391530369
 30
0
 11
4.2210103722
 21
2.0988962963
 31
0
  0
SPLINE
  5
18
330
0
100
AcDbEntity
  8
Spur
 62
     7
100
AcDbSpline
 70
     8
 71
     3
 72
     8
 73
     4
 74
     0
 40
0
 40
0
 40
0
 40
0
 40
1
 40
1
 40
1
 40
1
 10
4.2210103722
 20
2.0988962963
 30
0
 10
4.2554886934
 20
2.1196627309
 30
0
 10
4.3551161207
 20
2.1870716539
 30
0
 10
4.4914140157
 20
2.3459365433
 30
0
  0
SPLINE
  5
19
330
0
100
AcDbEntity
  8
Spur
 62
     7
100
AcDbSpline
 70
     8
 71
     3
 72
     8
 73
     4
 74
     0
 40
0
 40
0
 40
0
 40
0
 40
1
 40
1
 40
1
 40
1
 10
4.4914140157
 20
2.3459365433
 30
0
 10
4.6515853427
 20
2.5338300201
 30
0
 10
4.8503311192
 20
2.8403678604
 30
0
 10
5.0055464103
 20
3.31102475
 30
0
  0
ARC
  5
1A
330
0
100
AcDbEntity
  8
Spur
 62
     7
100
AcDbCircle
 10
0
 20
-0.0000000001
 30
0
 40
6.0015314513
100
AcDbArc
 50
33.483488
 51
38.516512
  0
SPLINE
  5
1B
330
0
100
AcDbEntity
  8
Spur
 62
     7
100
AcDbSpline
 70
     8
 71
     3
 72
     8
 73
     4
 74
     0
 40
0
 40
0
 40
0
 40
0
 40
1
 40
1
 40
1
 40
1
 10
4.695770571
 20
3.7373946146
 30
0
 10
4.2001851065
 20
3.735217078
 30
0
 10
3.8472344735
 20
3.6409240142
 30
0
 10
3.619041496
 20
3.5466543074
 30
0
  0
SPLINE
  5
1C
330
0
100
AcDbEntity
  8
Spur
 62
     7
100
AcDbSpline
 70
     8
 71
     3
 72
     8
 73
     4
 74
     0
 40
0
 40
0
 40
0
 40
0
 40
1
 40
1
 40
1
 40
1
 10
3.619041496
 20
3.5466543074
 30
0
 10
3.4258336418
 20
3.4661192569
 30
0
 10
3.3309373782
 20
3.3921984457
 30
0
 10
3.3005329381
 20
3.3658247948
 30
0
  0
LINE
  5
1D
330
0
100
AcDbEntity
  8
Spur
 62
     7
100
AcDbLine
 10
3.3005329381
 20
3.3658247948
 30
0
 11
2.8920843717
 21
2.9492962107
 31
0
  0
ARC
  5
1E
330
0
100
AcDbEntity
  8
Spur
 62
     7
100
AcDbCircle
 10
2.6064851242
 20
3.2293551287
 30
0
 40
0.3999999096
100
AcDbArc
 50
231.092234
 51
315.561165
  0
ARC
  5
1F
330
0
100
AcDbEntity
  8
Spur
 62
     7
100
AcDbCircle
 10
0.0000000003
 20
-0.0000000001
 30
0
 40
3.7499999999
100
AcDbArc
 50
51.092219
 51
56.907781
  0
ARC
  5
20
330
0
100
AcDbEntity
  8
Spur
 62
     7
100
AcDbCircle
 10
2.2658510395
 20
3.4768402777
 30
0
 40
0.3999999096
100
AcDbArc
 50
152.438835
 51
236.907766
  0
LINE
  5
21
330
0
100
AcDbEntity
  8
Spur
 62
     7
100
AcDbLine
 10
1.9112441596
 20
3.661918338
 30
0
 11
2.1811688355
 21
4.1790904197
 31
0
  0
SPLINE
  5
22
330
0
100
AcDbEntity
  8
Spur
 62
     7
100
AcDbSpline
 70
     8
 71
     3
 72
     8
 73
     4
 74
     0
 40
0
 40
0
 40
0
 40
0
 40
1
 40
1
 40
1
 40
1
 10
2.1811688355
 20
4.1790904197
 30
0
 10
2.1968561792
 20
4.2161566669
 30
0
 10
2.2378344903
 20
4.3292511637
 30
0
 10
2.2547233645
 20
4.5378894517
 30
0
  0
SPLINE
  5
23
330
0
100
AcDbEntity
  8
Spur
 62
     7
100
AcDbSpline
 70
     8
 71
     3
 72
     8
 73
     4
 74
     0
 40
0
 40
0
 40
0
 40
0
 40
1
 40
1
 40
1
 40
1
 10
2.2547233645
 20
4.5378894517
 30
0
 10
2.2738636754
 20
4.7840448114
 30
0
 10
2.2544739644
 20
5.1488589699
 30
0
 10
2.103400594
 20
5.6208616512
 30
0
  0
ARC
  5
24
330
0
100
AcDbEntity
  8
Spur
 62
     7
100
AcDbCircle
 10
-0.0000000003
 20
0.0000000001
 30
0
 40
6.0015314513
100
AcDbArc
 50
69.483488
 51
74.516512
  0
SPLINE
  5
25
330
0
100
AcDbEntity
  8
Spur
 62
     7
100
AcDbSpline
 70
     8
 71
     3
 72
     8
 73
     4
 74
     0
 40
0
 40
0
 40
0
 40
0
 40
1
 40
1
 40
1
 40
1
 10
1.6021727572
 20
5.7837204477
 30
0
 10
1.2025156181
 20
5.4906609562
 30
0
 10
0.9723966301
 20
5.2069170884
 30
0
 10
0.8431949767
 20
4.9965228267
 30
0
  0
SPLINE
  5
26
330
0
100
AcDbEntity
  8
Spur
 62
     7
100
AcDbSpline
 70
     8
 71
     3
 72
     8
 73
     4
 74
     0
 40
0
 40
0
 40
0
 40
0
 40
1
 40
1
 40
1
 40
1
 10
0.8431949767
 20
4.9965228267
 30
0
 10
0.7342238542
 20
4.8178038748
 30
0
 10
0.700900727
 20
4.7022220581
 30
0
 10
0.6918050612
 20
4.6630140448
 30
0
  0
LINE
  5
27
330
0
100
AcDbEntity
  8
Spur
 62
     7
100
AcDbLine
 10
0.6918050612
 20
4.6630140448
 30
0
 11
0.6061925886
 21
4.085955298
 31
0
  0
ARC
  5
28
330
0
100
AcDbEntity
  8
Spur
 62
     7
100
AcDbCircle
 10
0.2105234421
 20
4.1446566963
 30
0
 40
0.3999999096
100
AcDbArc
 50
267.092234
 51
351.561165
  0
ARC
  5
29
330
0
100
AcDbEntity
  8
Spur
 62
     7
100
AcDbCircle
 10
0
 20
0
 30
0
 40
3.75
100
AcDbArc
 50
87.092219
 51
92.907781
  0
ARC
  5
2A
330
0
100
AcDbEntity
  8
Spur
 62
     7
100
AcDbCircle
 10
-0.2105234421
 20
4.1446566963
 30
0
 40
0.3999999096
100
AcDbArc
 50
188.438835
 51
272.907766
  0
LINE
  5
2B
330
0
100
AcDbEntity
  8
Spur
 62
     7
100
AcDbLine
 10
-0.6061925886
 20
4.085955298
 30
0
 11
-0.6918050612
 21
4.6630140448
 31
0
  0
SPLINE
  5
2C
330
0
100
AcDbEntity
  8
Spur
 62
     7
100
AcDbSpline
 70
     8
 71
     3
 72
     8
 73
     4
 74
     0
 40
0
 40
0
 40
0
 40
0
 40
1
 40
1
 40
1
 40
1
 10
-0.6918050612
 20
4.6630140448
 30
0
 10
-0.700900727
 20
4.7022220581
 30
0
 10
-0.7342238542
 20
4.8178038748
 30
0
 10
-0.8431949767
 20
4.9965228267
 30
0
  0
SPLINE
  5
2D
330
0
100
AcDbEntity
  8
Spur
 62
     7
100
AcDbSpline
 70
     8
 71
     3
 72
     8
 73
     4
 74
     0
 40
0
 40
0
 40
0
 40
0
 40
1
 40
1
 40
1
 40
1
 10
-0.8431949767
 20
4.9965228267
 30
0
 10
-0.9723966301
 20
5.2069170884
 30
0
 10
-1.2025156181
 20
5.4906609562
 30
0
 10
-1.6021727572
 20
5.7837204477
 30
0
  0
ARC
  5
2E
330
0
100
AcDbEntity
  8
Spur
 62
     7
100
AcDbCircle
 10
0.0000000003
 20
0.0000000001
 30
0
 40
6.0015314513
100
AcDbArc
 50
105.483488
 51
110.516512
  0
SPLINE
  5
2F
330
0
100
AcDbEntity
  8
Spur
 62
     7
100
AcDbSpline
 70
     8
 71
     3
 72
     8
 73
     4
 74
     0
 40
0
 40
0
 40
0
 40
0
 40
1
 40
1
 40
1
 40
1
 10
-2.103400594
 20
5.6208616512
 30
0
 10
-2.2544739644
 20
5.1488589699
 30
0
 10
-2.2738636754
 20
4.7840448114
 30
0
 10
-2.2547233645
 20
4.5378894517
 30
0
  0
SPLINE
  5
30
330
0
100
AcDbEntity
  8
Spur
 62
     7
100
AcDbSpline
 70
     8
 71
     3
 72
     8
 73
     4
 74
     0
 40
0
 40
0
 40
0
 40
0
 40
1
 40
1
 40
1
 40
1
 10
-2.2547233645
 20
4.5378894517
 30
0
 10
-2.2378344903
 20
4.3292511637
 30
0
 10
-2.1968561792
 20
4.2161566669
 30
0
 10
-2.1811688355
 20
4.1790904197
 30
0
  0
LINE
  5
31
330
0
100
AcDbEntity
  8
Spur
 62
     7
100
AcDbLine
 10
-2.1811688355
 20
4.1790904197
 30
0
 11
-1.9112441596
 21
3.661918338
 31
0
  0
ARC
  5
32
330
0
100
AcDbEntity
  8
Spur
 62
     7
100
AcDbCircle
 10
-2.2658510395
 20
3.4768402777
 30
0
 40
0.3999999096
100
AcDbArc
 50
303.092234
 51
27.561165
  0
ARC
  5
33
330
0
100
AcDbEntity
  8
Spur
 62
     7
100
AcDbCircle
 10
0.0000000009
 20
0.0000000007
 30
0
 40
3.7499999999
100
AcDbArc
 50
123.092219
 51
128.907781
  0
ARC
  5
34
330
0
100
AcDbEntity
  8
Spur
 62
     7
100
AcDbCircle
 10
-2.6064851241
 20
3.2293551286
 30
0
 40
0.3999999096
100
AcDbArc
 50
224.438835
 51
308.907766
  0
LINE
  5
35
330
0
100
AcDbEntity
  8
Spur
 62
     7
100
AcDbLine
 10
-2.8920843717
 20
2.9492962107
 30
0
 11
-3.3005329381
 21
3.3658247948
 31
0
  0
SPLINE
  5
36
330
0
100
AcDbEntity
  8
Spur
 62
     7
100
AcDbSpline
 70
     8
 71
     3
 72
     8
 73
     4
 74
     0
 40
0
 40
0
 40
0
 40
0
 40
1
 40
1
 40
1
 40
1
 10
-3.3005329381
 20
3.3658247948
 30
0
 10
-3.3309373782
 20
3.3921984457
 30
0
 10
-3.4258336418
 20
3.4661192569
 30
0
 10
-3.619041496
 20
3.5466543074
 30
0
  0
SPLINE
  5
37
330
0
100
AcDbEntity
  8
Spur
 62
     7
100
AcDbSpline
 70
     8
 71
     3
 72
     8
 73
     4
 74
     0
 40
0
 40
0
 40
0
 40
0
 40
1
 40
1
 40
1
 40
1
 10
-3.619041496
 20
3.5466543074
 30
0
 10
-3.8472344735
 20
3.6409240142
 30
0
 10
-4.2001851065
 20
3.735217078
 30
0
 10
-4.695770571
 20
3.7373946146
 30
0
  0
ARC
  5
38
330
0
100
AcDbEntity
  8
Spur
 62
     7
100
AcDbCircle
 10
0
 20
-0.0000000001
 30
0
 40
6.0015314513
100
AcDbArc
 50
141.483488
 51
146.516512
  0
SPLINE
  5
39
330
0
100
AcDbEntity
  8
Spur
 62
     7
100
AcDbSpline
 70
     8
 71
     3
 72
     8
 73
     4
 74
     0
 40
0
 40
0
 40
0
 40
0
 40
1
 40
1
 40
1
 40
1
 10
-5.0055464103
 20
3.31102475
 30
0
 10
-4.8503311192
 20
2.8403678604
 30
0
 10
-4.6515853427
 20
2.5338300201
 30
0
 10
-4.4914140157
 20
2.3459365433
 30
0
  0
SPLINE
  5
3A
330
0
100
AcDbEntity
  8
Spur
 62
     7
100
AcDbSpline
 70
     8
 71
     3
 72
     8
 73
     4
 74
     0
 40
0
 40
0
 40
0
 40
0
 40
1
 40
1
 40
1
 40
1
 10
-4.4914140157
 20
2.3459365433
 30
0
 10
-4.3551161207
 20
2.1870716539
 30
0
 10
-4.2554886934
 20
2.1196627309
 30
0
 10
-4.2210103722
 20
2.0988962963
 30
0
  0
LINE
  5
3B
330
0
100
AcDbEntity
  8
Spur
 62
     7
100
AcDbLine
 10
-4.2210103722
 20
2.0988962963
 30
0
 11
-3.6986505997
 21
1.8391530369
 31
0
  0
ARC
  5
3C
330
0
100
AcDbEntity
  8
Spur
 62
     7
100
AcDbCircle
 10
-3.8767474374
 20
1.4809890464
 30
0
 40
0.3999999096
100
AcDbArc
 50
339.092234
 51
63.561165
  0
ARC
  5
3D
330
0
100
AcDbEntity
  8
Spur
 62
     7
100
AcDbCircle
 10
0.0000000001
 20
0.0000000005
 30
0
 40
3.7499999999
100
AcDbArc
 50
159.092219
 51
164.907781
  0
ARC
  5
3E
330
0
100
AcDbEntity
  8
Spur
 62
     7
100
AcDbCircle
 10
-4.00685808
 20
1.0805496636
 30
0
 40
0.3999999096
100
AcDbArc
 50
260.438835
 51
344.907766
  0
LINE
  5
3F
330
0
100
AcDbEntity
  8
Spur
 62
     7
100
AcDbLine
 10
-4.0732982232
 20
0.6861062138
 30
0
 11
-4.6485694136
 21
0.7830048734
 31
0
  0
SPLINE
  5
40
330
0
100
AcDbEntity
  8
Spur
 62
     7
100
AcDbSpline
 70
     8
 71
     3
 72
     8
 73
     4
 74
     0
 40
0
 40
0
 40
0
 40
0
 40
1
 40
1
 40
1
 40
1
 10
-4.6485694136
 20
0.7830048734
 30
0
 10
-4.6886691654
 20
0.7864703236
 30
0
 10
-4.808891418
 20
0.7904948919
 30
0
 10
-5.0125371705
 20
0.7420843891
 30
0
  0
SPLINE
  5
41
330
0
100
AcDbEntity
  8
Spur
 62
     7
100
AcDbSpline
 70
     8
 71
     3
 72
     8
 73
     4
 74
     0
 40
0
 40
0
 40
0
 40
0
 40
1
 40
1
 40
1
 40
1
 10
-5.0125371705
 20
0.7420843891
 30
0
 10
-5.2525595107
 20
0.6842217171
 30
0
 10
-5.5935266432
 20
0.5530472313
 30
0
 10
-5.9957436301
 20
0.2635110681
 30
0
  0
ARC
  5
42
330
0
100
AcDbEntity
  8
Spur
 62
     7
100
AcDbCircle
 10
0
 20
0
 30
0
 40
6.0015314513
100
AcDbArc
 50
177.483488
 51
182.516512
  0
SPLINE
  5
43
330
0
100
AcDbEntity
  8
Spur
 62
     7
100
AcDbSpline
 70
     8
 71
     3
 72
     8
 73
     4
 74
     0
 40
0
 40
0
 40
0
 40
0
 40
1
 40
1
 40
1
 40
1
 10
-5.9957436301
 20
-0.2635110681
 30
0
 10
-5.5935266432
 20
-0.5530472313
 30
0
 10
-5.2525595107
 20
-0.6842217171
 30
0
 10
-5.0125371705
 20
-0.7420843891
 30
0
  0
SPLINE
  5
44
330
0
100
AcDbEntity
  8
Spur
 62
     7
100
AcDbSpline
 70
     8
 71
     3
 72
     8
 73
     4
 74
     0
 40
0
 40
0
 40
0
 40
0
 40
1
 40
1
 40
1
 40
1
 10
-5.0125371705
 20
-0.7420843891
 30
0
 10
-4.808891418
 20
-0.7904948919
 30
0
 10
-4.6886691654
 20
-0.7864703236
 30
0
 10
-4.6485694136
 20
-0.7830048734
 30
0
  0
LINE
  5
45
330
0
100
AcDbEntity
  8
Spur
 62
     7
100
AcDbLine
 10
-4.6485694136
 20
-0.7830048734
 30
0
 11
-4.0732982232
 21
-0.6861062138
 31
0
  0
ARC
  5
46
330
0
100
AcDbEntity
  8
Spur
 62
     7
100
AcDbCircle
 10
-4.0068580801
 20
-1.0805496636
 30
0
 40
0.3999999096
100
AcDbArc
 50
15.092234
 51
99.561165
  0
ARC
  5
47
330
0
100
AcDbEntity
  8
Spur
 62
     7
100
AcDbCircle
 10
-0.0000000001
 20
0.0000000004
 30
0
 40
3.75
100
AcDbArc
 50
195.092219
 51
200.907781
  0
ARC
  5
48
330
0
100
AcDbEntity
  8
Spur
 62
     7
100
AcDbCircle
 10
-3.8767474374
 20
-1.4809890464
 30
0
 40
0.3999999096
100
AcDbArc
 50
296.438835
 51
20.907766
  0
LINE
  5
49
330
0
100
AcDbEntity
  8
Spur
 62
     7
100
AcDbLine
 10
-3.6986505997
 20
-1.8391530369
 30
0
 11
-4.2210103722
 21
-2.0988962963
 31
0
  0
SPLINE
  5
4A
330
0
100
AcDbEntity
  8
Spur
 62
     7
100
AcDbSpline
 70
     8
 71
     3
 72
     8
 73
     4
 74
     0
 40
0
 40
0
 40
0
 40
0
 40
1
 40
1
 40
1
 40
1
 10
-4.2210103722
 20
-2.0988962963
 30
0
 10
-4.2554886934
 20
-2.1196627309
 30
0
 10
-4.3551161207
 20
-2.1870716539
 30
0
 10
-4.4914140157
 20
-2.3459365433
 30
0
  0
SPLINE
  5
4B
330
0
100
AcDbEntity
  8
Spur
 62
     7
100
AcDbSpline
 70
     8
 71
     3
 72
     8
 73
     4
 74
     0
 40
0
 40
0
 40
0
 40
0
 40
1
 40
1
 40
1
 40
1
 10
-4.4914140157
 20
-2.3459365433
 30
0
 10
-4.6515853427
 20
-2.5338300201
 30
0
 10
-4.8503311192
 20
-2.8403678604
 30
0
 10
-5.0055464103
 20
-3.31102475
 30
0
  0
ARC
  5
4C
330
0
100
AcDbEntity
  8
Spur
 62
     7
100
AcDbCircle
 10
0
 20
0.0000000001
 30
0
 40
6.0015314513
100
AcDbArc
 50
213.483488
 51
218.516512
  0
SPLINE
  5
4D
330
0
100
AcDbEntity
  8
Spur
 62
     7
100
AcDbSpline
 70
     8
 71
     3
 72
     8
 73
     4
 74
     0
 40
0
 40
0
 40
0
 40
0
 40
1
 40
1
 40
1
 40
1
 10
-4.695770571
 20
-3.7373946146
 30
0
 10
-4.2001851065
 20
-3.735217078
 30
0
 10
-3.8472344735
 20
-3.6409240142
 30
0
 10
-3.619041496
 20
-3.5466543074
 30
0
  0
SPLINE
  5
4E
330
0
100
AcDbEntity
  8
Spur
 62
     7
100
AcDbSpline
 70
     8
 71
     3
 72
     8
 73
     4
 74
     0
 40
0
 40
0
 40
0
 40
0
 40
1
 40
1
 40
1
 40
1
 10
-3.619041496
 20
-3.5466543074
 30
0
 10
-3.4258336418
 20
-3.4661192569
 30
0
 10
-3.3309373782
 20
-3.3921984457
 30
0
 10
-3.3005329381
 20
-3.3658247948
 30
0
  0
LINE
  5
4F
330
0
100
AcDbEntity
  8
Spur
 62
     7
100
AcDbLine
 10
-3.3005329381
 20
-3.3658247948
 30
0
 11
-2.8920843717
 21
-2.9492962107
 31
0
  0
ARC
  5
50
330
0
100
AcDbEntity
  8
Spur
 62
     7
100
AcDbCircle
 10
-2.6064851242
 20
-3.2293551287
 30
0
 40
0.3999999096
100
AcDbArc
 50
51.092234
 51
135.561165
  0
ARC
  5
51
330
0
100
AcDbEntity
  8
Spur
 62
     7
100
AcDbCircle
 10
-0.0000000003
 20
0.0000000001
 30
0
 40
3.7499999999
100
AcDbArc
 50
231.092219
 51
236.907781
  0
ARC
  5
52
330
0
100
AcDbEntity
  8
Spur
 62
     7
100
AcDbCircle
 10
-2.2658510395
 20
-3.4768402777
 30
0
 40
0.3999999096
100
AcDbArc
 50
332.438835
 51
56.907766
  0
LINE
  5
53
330
0
100
AcDbEntity
  8
Spur
 62
     7
100
AcDbLine
 10
-1.9112441596
 20
-3.661918338
 30
0
 11
-2.1811688355
 21
-4.1790904197
 31
0
  0
SPLINE
  5
54
330
0
100
AcDbEntity
  8
Spur
 62
     7
100
AcDbSpline
 70
     8
 71
     3
 72
     8
 73
     4
 74
     0
 40
0
 40
0
 40
0
 40
0
 40
1
 40
1
 40
1
 40
1
 10
-2.1811688355
 20
-4.1790904197
 30
0
 10
-2.1968561792
 20
-4.2161566669
 30
0
 10
-2.2378344903
 20
-4.3292511637
 30
0
 10
-2.2547233645
 20
-4.5378894517
 30
0
  0
SPLINE
  5
55
330
0
100
AcDbEntity
  8
Spur
 62
     7
100
AcDbSpline
 70
     8
 71
     3
 72
     8
 73
     4
 74
     0
 40
0
 40
0
 40
0
 40
0
 40
1
 40
1
 40
1
 40
1
 10
-2.2547233645
 20
-4.5378894517
 30
0
 10
-2.2738636754
 20
-4.7840448114
 30
0
 10
-2.2544739644
 20
-5.1488589699
 30
0
 10
-2.103400594
 20
-5.6208616512
 30
0
  0
ARC
  5
56
330
0
100
AcDbEntity
  8
Spur
 62
     7
100
AcDbCircle
 10
0.0000000003
 20
-0.0000000001
 30
0
 40
6.0015314513
100
AcDbArc
 50
249.483488
 51
254.516512
  0
SPLINE
  5
57
330
0
100
AcDbEntity
  8
Spur
 62
     7
100
AcDbSpline
 70
     8
 71
     3
 72
     8
 73
     4
 74
     0
 40
0
 40
0
 40
0
 40
0
 40
1
 40
1
 40
1
 40
1
 10
-1.6021727572
 20
-5.7837204477
 30
0
 10
-1.2025156181
 20
-5.4906609562
 30
0
 10
-0.9723966301
 20
-5.2069170884
 30
0
 10
-0.8431949767
 20
-4.9965228267
 30
0
  0
SPLINE
  5
58
330
0
100
AcDbEntity
  8
Spur
 62
     7
100
AcDbSpline
 70
     8
 71
     3
 72
     8
 73
     4
 74
     0
 40
0
 40
0
 40
0
 40
0
 40
1
 40
1
 40
1
 40
1
 10
-0.8431949767
 20
-4.9965228267
 30
0
 10
-0.7342238542
 20
-4.8178038748
 30
0
 10
-0.700900727
 20
-4.7022220581
 30
0
 10
-0.6918050612
 20
-4.6630140448
 30
0
  0
LINE
  5
59
330
0
100
AcDbEntity
  8
Spur
 62
     7
100
AcDbLine
 10
-0.6918050612
 20
-4.6630140448
 30
0
 11
-0.6061925886
 21
-4.085955298
 31
0
  0
ARC
  5
5A
330
0
100
AcDbEntity
  8
Spur
 62
     7
100
AcDbCircle
 10
-0.2105234421
 20
-4.1446566963
 30
0
 40
0.3999999096
100
AcDbArc
 50
87.092234
 51
171.561165
  0
ARC
  5
5B
330
0
100
AcDbEntity
  8
Spur
 62
     7
100
AcDbCircle
 10
0
 20
0
 30
0
 40
3.75
100
AcDbArc
 50
267.092219
 51
272.907781
  0
ARC
  5
5C
330
0
100
AcDbEntity
  8
Spur
 62
     7
100
AcDbCircle
 10
0.2105234421
 20
-4.1446566963
 30
0
 40
0.3999999096
100
AcDbArc
 50
8.438835
 51
92.907766
  0
LINE
  5
5D
330
0
100
AcDbEntity
  8
Spur
 62
     7
100
AcDbLine
 10
0.6061925886
 20
-4.085955298
 30
0
 11
0.6918050612
 21
-4.6630140448
 31
0
  0
SPLINE
  5
5E
330
0
100
AcDbEntity
  8
Spur
 62
     7
100
AcDbSpline
 70
     8
 71
     3
 72
     8
 73
     4
 74
     0
 40
0
 40
0
 40
0
 40
0
 40
1
 40
1
 40
1
 40
1
 10
0.6918050612
 20
-4.6630140448
 30
0
 10
0.700900727
 20
-4.7022220581
 30
0
 10
0.7342238542
 20
-4.8178038748
 30
0
 10
0.8431949767
 20
-4.9965228267
 30
0
  0
SPLINE
  5
5F
330
0
100
AcDbEntity
  8
Spur
 62
     7
100
AcDbSpline
 70
     8
 71
     3
 72
     8
 73
     4
 74
     0
 40
0
 40
0
 40
0
 40
0
 40
1
 40
1
 40
1
 40
1
 10
0.8431949767
 20
-4.9965228267
 30
0
 10
0.9723966301
 20
-5.2069170884
 30
0
 10
1.2025156181
 20
-5.4906609562
 30
0
 10
1.6021727572
 20
-5.7837204477
 30
0
  0
ARC
  5
60
330
0
100
AcDbEntity
  8
Spur
 62
     7
100
AcDbCircle
 10
-0.0000000003
 20
-0.0000000001
 30
0
 40
6.0015314513
100
AcDbArc
 50
285.483488
 51
290.516512
  0
SPLINE
  5
61
330
0
100
AcDbEntity
  8
Spur
 62
     7
100
AcDbSpline
 70
     8
 71
     3
 72
     8
 73
     4
 74
     0
 40
0
 40
0
 40
0
 40
0
 40
1
 40
1
 40
1
 40
1
 10
2.103400594
 20
-5.6208616512
 30
0
 10
2.2544739644
 20
-5.1488589699
 30
0
 10
2.2738636754
 20
-4.7840448114
 30
0
 10
2.2547233645
 20
-4.5378894517
 30
0
  0
SPLINE
  5
62
330
0
100
AcDbEntity
  8
Spur
 62
     7
100
AcDbSpline
 70
     8
 71
     3
 72
     8
 73
     4
 74
     0
 40
0
 40
0
 40
0
 40
0
 40
1
 40
1
 40
1
 40
1
 10
2.2547233645
 20
-4.5378894517
 30
0
 10
2.2378344903
 20
-4.3292511637
 30
0
 10
2.1968561792
 20
-4.2161566669
 30
0
 10
2.1811688355
 20
-4.1790904197
 30
0
  0
LINE
  5
63
330
0
100
AcDbEntity
  8
Spur
 62
     7
100
AcDbLine
 10
2.1811688355
 20
-4.1790904197
 30
0
 11
1.9112441596
 21
-3.661918338
 31
0
  0
ARC
  5
64
330
0
100
AcDbEntity
  8
Spur
 62
     7
100
AcDbCircle
 10
2.2658510395
 20
-3.4768402777
 30
0
 40
0.3999999096
100
AcDbArc
 50
123.092234
 51
207.561165
  0
ARC
  5
65
330
0
100
AcDbEntity
  8
Spur
 62
     7
100
AcDbCircle
 10
-0.0000000009
 20
-0.0000000007
 30
0
 40
3.7499999999
100
AcDbArc
 50
303.092219
 51
308.907781
  0
ARC
  5
66
330
0
100
AcDbEntity
  8
Spur
 62
     7
100
AcDbCircle
 10
2.6064851241
 20
-3.2293551286
 30
0
 40
0.3999999096
100
AcDbArc
 50
44.438835
 51
128.907766
  0
LINE
  5
67
330
0
100
AcDbEntity
  8
Spur
 62
     7
100
AcDbLine
 10
2.8920843717
 20
-2.9492962107
 30
0
 11
3.3005329381
 21
-3.3658247948
 31
0
  0
SPLINE
  5
68
330
0
100
AcDbEntity
  8
Spur
 62
     7
100
AcDbSpline
 70
     8
 71
     3
 72
     8
 73
     4
 74
     0
 40
0
 40
0
 40
0
 40
0
 40
1
 40
1
 40
1
 40
1
 10
3.3005329381
 20
-3.3658247948
 30
0
 10
3.3309373782
 20
-3.3921984457
 30
0
 10
3.4258336418
 20
-3.4661192569
 30
0
 10
3.619041496
 20
-3.5466543074
 30
0
  0
SPLINE
  5
69
330
0
100
AcDbEntity
  8
Spur
 62
     7
100
AcDbSpline
 70
     8
 71
     3
 72
     8
 73
     4
 74
     0
 40
0
 40
0
 40
0
 40
0
 40
1
 40
1
 40
1
 40
1
 10
3.619041496
 20
-3.5466543074
 30
0
 10
3.8472344735
 20
-3.6409240142
 30
0
 10
4.2001851065
 20
-3.735217078
 30
0
 10
4.695770571
 20
-3.7373946146
 30
0
  0
ARC
  5
6A
330
0
100
AcDbEntity
  8
Spur
 62
     7
100
AcDbCircle
 10
0
 20
0.0000000001
 30
0
 40
6.0015314513
100
AcDbArc
 50
321.483488
 51
326.516512
  0
SPLINE
  5
6B
330
0
100
AcDbEntity
  8
Spur
 62
     7
100
AcDbSpline
 70
     8
 71
     3
 72
     8
 73
     4
 74
     0
 40
0
 40
0
 40
0
 40
0
 40
1
 40
1
 40
1
 40
1
 10
5.0055464103
 20
-3.31102475
 30
0
 10
4.8503311192
 20
-2.8403678604
 30
0
 10
4.6515853427
 20
-2.5338300201
 30
0
 10
4.4914140157
 20
-2.3459365433
 30
0
  0
SPLINE
  5
6C
330
0
100
AcDbEntity
  8
Spur
 62
     7
100
AcDbSpline
 70
     8
 71
     3
 72
     8
 73
     4
 74
     0
 40
0
 40
0
 40
0
 40
0
 40
1
 40
1
 40
1
 40
1
 10
4.4914140157
 20
-2.3459365433
 30
0
 10
4.3551161207
 20
-2.1870716539
 30
0
 10
4.2554886934
 20
-2.1196627309
 30
0
 10
4.2210103722
 20
-2.0988962963
 30
0
  0
LINE
  5
6D
330
0
100
AcDbEntity
  8
Spur
 62
     7
100
AcDbLine
 10
4.2210103722
 20
-2.0988962963
 30
0
 11
3.6986505997
 21
-1.8391530369
 31
0
  0
ARC
  5
6E
330
0
100
AcDbEntity
  8
Spur
 62
     7
100
AcDbCircle
 10
3.8767474374
 20
-1.4809890464
 30
0
 40
0.3999999096
100
AcDbArc
 50
159.092234
 51
243.561165
  0
ENDSEC
  0
SECTION
  2
OBJECTS
  0
DICTIONARY
  5
83
330
0
100
AcDbDictionary
  3
ACAD_GROUP
350
84
  0
DICTIONARY
  5
84
330
83
100
AcDbDictionary
  0
ENDSEC
  0
EOF
