  0
SECTION
  2
HEADER
  9
$INSUNITS
 70
     4
  9
$MEASUREMENT
 70
     1
  9
$ACADVER
  1
AC1012
  9
$HANDSEED
  5
71
  0
ENDSEC
  0
SECTION
  2
TABLES
  0
TABLE
  2
LAYER
  5
4
330
0
100
AcDbSymbolTable
 70
     4
  0
LAYER
  5
5
330
4
100
AcDbSymbolTableRecord
100
AcDbLayerTableRecord
  2
1
 70
     0
 62
     7
  0
LAYER
  5
6
330
4
100
AcDbSymbolTableRecord
100
AcDbLayerTableRecord
  2
Spur
 70
     0
 62
     7
  6
Continuous
  0
LAYER
  5
9
330
4
100
AcDbSymbolTableRecord
100
AcDbLayerTableRecord
  2
decor
 70
     0
 62
     6
  6
Dash
  0
LAYER
  5
60
330
4
100
AcDbSymbolTableRecord
100
AcDbLayerTableRecord
  2
0
 70
     0
  6
Continuous
  0
ENDTAB
  0
TABLE
  2
LTYPE
  5
7
330
0
100
AcDbSymbolTable
 70
     4
  0
LTYPE
  5
8
330
7
100
AcDbSymbolTableRecord
100
AcDbLinetypeTableRecord
  2
Continuous
 70
     0
  3
_
 72
    65
 73
     0
 40
0
  0
LTYPE
  5
A
330
7
100
AcDbSymbolTableRecord
100
AcDbLinetypeTableRecord
  2
Dash
 70
     0
  3
_
 72
    65
 73
     0
 40
0
  0
LTYPE
  5
5E
330
7
100
AcDbSymbolTableRecord
100
AcDbLinetypeTableRecord
  2
BYBLOCK
 70
     0
  3
 
 72
    65
 73
     0
 40
0
  0
LTYPE
  5
5F
330
7
100
AcDbSymbolTableRecord
100
AcDbLinetypeTableRecord
  2
BYLAYER
 70
     0
  3
 
 72
    65
 73
     0
 40
0
  0
ENDTAB
  0
TABLE
  2
VPORT
  5
5B
330
0
100
AcDbSymbolTable
 70
     0
  0
ENDTAB
  0
TABLE
  2
VIEW
  5
5C
330
0
100
AcDbSymbolTable
 70
     0
  0
ENDTAB
  0
TABLE
  2
UCS
  5
5D
330
0
100
AcDbSymbolTable
 70
     0
  0
ENDTAB
  0
TABLE
  2
STYLE
  5
61
330
0
100
AcDbSymbolTable
 70
     1
  0
STYLE
  5
62
330
61
100
AcDbSymbolTableRecord
100
AcDbTextStyleTableRecord
  2
STANDARD
 70
     0
 40
0
 41
1
 50
0
 71
     0
 42
1
  0
ENDTAB
  0
TABLE
  2
APPID
  5
63
330
0
100
AcDbSymbolTable
 70
     1
  0
APPID
  5
64
330
63
100
AcDbSymbolTableRecord
100
AcDbRegAppTableRecord
  2
ACAD
 70
     0
  0
ENDTAB
  0
TABLE
  2
DIMSTYLE
  5
65
330
0
100
AcDbSymbolTable
 70
     0
  0
ENDTAB
  0
TABLE
  2
BLOCK_RECORD
  5
66
330
0
100
AcDbSymbolTable
 70
     2
  0
BLOCK_RECORD
  5
67
330
66
100
AcDbSymbolTableRecord
100
AcDbBlockTableRecord
  2
*MODEL_SPACE
  0
BLOCK_RECORD
  5
68
330
66
100
AcDbSymbolTableRecord
100
AcDbBlockTableRecord
  2
*PAPER_SPACE
  0
ENDTAB
  0
ENDSEC
  0
SECTION
  2
BLOCKS
  0
BLOCK
  5
6A
330
67
100
AcDbEntity
  8
0
100
AcDbBlockBegin
  2
*MODEL_SPACE
 70
     0
 10
0
 20
0
 30
0
  0
ENDBLK
  5
6B
330
67
100
AcDbEntity
  8
0
100
AcDbBlockEnd
  0
BLOCK
  5
6C
330
68
100
AcDbEntity
  8
0
100
AcDbBlockBegin
  2
*PAPER_SPACE
 70
     0
 10
0
 20
0
 30
0
  0
ENDBLK
  5
6D
330
68
100
AcDbEntity
  8
0
100
AcDbBlockEnd
  0
ENDSEC
  0
SECTION
  2
ENTITIES
  0
ARC
  5
B
330
0
100
AcDbEntity
  8
Spur
 62
     7
100
AcDbCircle
 10
-0.0000000001
 20
-0.0000000002
 30
0
 40
2.75
100
AcDbArc
 50
334.032601
 51
340.9674
  0
ARC
  5
C
330
0
100
AcDbEntity
  8
Spur
 62
     7
100
AcDbCircle
 10
2.9777994865
 20
-1.0272341946
 30
0
 40
0.3999999797
100
AcDbArc
 50
78.262747
 51
160.967396
  0
LINE
  5
D
330
0
100
AcDbEntity
  8
Spur
 62
     7
100
AcDbLine
 10
3.0591690581
 20
-0.6355979136
 30
0
 11
3.6952337733
 21
-0.7677519065
 31
0
  0
SPLINE
  5
E
330
0
100
AcDbEntity
  8
Spur
 62
     7
100
AcDbSpline
 70
     8
 71
     3
 72
     8
 73
     4
 74
     0
 40
0
 40
0
 40
0
 40
0
 40
1
 40
1
 40
1
 40
1
 10
3.6952337733
 20
-0.7677519065
 30
0
 10
3.7342529283
 20
-0.7722772167
 30
0
 10
3.8510402488
 20
-0.7789799134
 30
0
 10
4.0506603326
 20
-0.7308485656
 30
0
  0
SPLINE
  5
F
330
0
100
AcDbEntity
  8
Spur
 62
     7
100
AcDbSpline
 70
     8
 71
     3
 72
     8
 73
     4
 74
     0
 40
0
 40
0
 40
0
 40
0
 40
1
 40
1
 40
1
 40
1
 10
4.0506603326
 20
-0.7308485656
 30
0
 10
4.2846595251
 20
-0.673377986
 30
0
 10
4.6148229583
 20
-0.5396047811
 30
0
 10
4.9960868089
 20
-0.2389226019
 30
0
  0
ARC
  5
10
330
0
100
AcDbEntity
  8
Spur
 62
     7
100
AcDbCircle
 10
0
 20
0
 30
0
 40
5.0017964185
100
AcDbArc
 50
357.26209
 51
2.73791
  0
SPLINE
  5
11
330
0
100
AcDbEntity
  8
Spur
 62
     7
100
AcDbSpline
 70
     8
 71
     3
 72
     8
 73
     4
 74
     0
 40
0
 40
0
 40
0
 40
0
 40
1
 40
1
 40
1
 40
1
 10
4.9960868089
 20
0.2389226019
 30
0
 10
4.6148229583
 20
0.5396047811
 30
0
 10
4.2846595251
 20
0.673377986
 30
0
 10
4.0506603326
 20
0.7308485656
 30
0
  0
SPLINE
  5
12
330
0
100
AcDbEntity
  8
Spur
 62
     7
100
AcDbSpline
 70
     8
 71
     3
 72
     8
 73
     4
 74
     0
 40
0
 40
0
 40
0
 40
0
 40
1
 40
1
 40
1
 40
1
 10
4.0506603326
 20
0.7308485656
 30
0
 10
3.8510402488
 20
0.7789799134
 30
0
 10
3.7342529283
 20
0.7722772167
 30
0
 10
3.6952337733
 20
0.7677519065
 30
0
  0
LINE
  5
13
330
0
100
AcDbEntity
  8
Spur
 62
     7
100
AcDbLine
 10
3.6952337733
 20
0.7677519065
 30
0
 11
3.0591690581
 21
0.6355979136
 31
0
  0
ARC
  5
14
330
0
100
AcDbEntity
  8
Spur
 62
     7
100
AcDbCircle
 10
2.9777994866
 20
1.0272341946
 30
0
 40
0.3999999797
100
AcDbArc
 50
199.032604
 51
281.737253
  0
ARC
  5
15
330
0
100
AcDbEntity
  8
Spur
 62
     7
100
AcDbCircle
 10
0.0000000004
 20
-0.0000000004
 30
0
 40
2.7499999999
100
AcDbArc
 50
19.032601
 51
25.9674
  0
ARC
  5
16
330
0
100
AcDbEntity
  8
Spur
 62
     7
100
AcDbCircle
 10
2.8319864748
 20
1.3792579451
 30
0
 40
0.3999999797
100
AcDbArc
 50
123.262747
 51
205.967396
  0
LINE
  5
17
330
0
100
AcDbEntity
  8
Spur
 62
     7
100
AcDbLine
 10
2.6125947806
 20
1.713723591
 30
0
 11
3.1558074385
 21
2.0700422798
 31
0
  0
SPLINE
  5
18
330
0
100
AcDbEntity
  8
Spur
 62
     7
100
AcDbSpline
 70
     8
 71
     3
 72
     8
 73
     4
 74
     0
 40
0
 40
0
 40
0
 40
0
 40
1
 40
1
 40
1
 40
1
 10
3.1558074385
 20
2.0700422798
 30
0
 10
3.1865980252
 20
2.0944331114
 30
0
 10
3.2739186537
 20
2.1722746954
 30
0
 10
3.3810373662
 20
2.3474614127
 30
0
  0
SPLINE
  5
19
330
0
100
AcDbEntity
  8
Spur
 62
     7
100
AcDbSpline
 70
     8
 71
     3
 72
     8
 73
     4
 74
     0
 40
0
 40
0
 40
0
 40
0
 40
1
 40
1
 40
1
 40
1
 10
3.3810373662
 20
2.3474614127
 30
0
 10
3.5058619455
 20
2.5535616651
 30
0
 10
3.6447308077
 20
2.8816144079
 30
0
 10
3.701710654
 20
3.36382307
 30
0
  0
ARC
  5
1A
330
0
100
AcDbEntity
  8
Spur
 62
     7
100
AcDbCircle
 10
0
 20
0
 30
0
 40
5.0017964185
100
AcDbArc
 50
42.26209
 51
47.73791
  0
SPLINE
  5
1B
330
0
100
AcDbEntity
  8
Spur
 62
     7
100
AcDbSpline
 70
     8
 71
     3
 72
     8
 73
     4
 74
     0
 40
0
 40
0
 40
0
 40
0
 40
1
 40
1
 40
1
 40
1
 10
3.36382307
 20
3.701710654
 30
0
 10
2.8816144079
 20
3.6447308077
 30
0
 10
2.5535616651
 20
3.5058619455
 30
0
 10
2.3474614127
 20
3.3810373662
 30
0
  0
SPLINE
  5
1C
330
0
100
AcDbEntity
  8
Spur
 62
     7
100
AcDbSpline
 70
     8
 71
     3
 72
     8
 73
     4
 74
     0
 40
0
 40
0
 40
0
 40
0
 40
1
 40
1
 40
1
 40
1
 10
2.3474614127
 20
3.3810373662
 30
0
 10
2.1722746954
 20
3.2739186537
 30
0
 10
2.0944331114
 20
3.1865980252
 30
0
 10
2.0700422798
 20
3.1558074385
 30
0
  0
LINE
  5
1D
330
0
100
AcDbEntity
  8
Spur
 62
     7
100
AcDbLine
 10
2.0700422798
 20
3.1558074385
 30
0
 11
1.713723591
 21
2.6125947806
 31
0
  0
ARC
  5
1E
330
0
100
AcDbEntity
  8
Spur
 62
     7
100
AcDbCircle
 10
1.3792579451
 20
2.8319864748
 30
0
 40
0.3999999797
100
AcDbArc
 50
244.032604
 51
326.737253
  0
ARC
  5
1F
330
0
100
AcDbEntity
  8
Spur
 62
     7
100
AcDbCircle
 10
0.0000000002
 20
-0.0000000001
 30
0
 40
2.75
100
AcDbArc
 50
64.032601
 51
70.9674
  0
ARC
  5
20
330
0
100
AcDbEntity
  8
Spur
 62
     7
100
AcDbCircle
 10
1.0272341946
 20
2.9777994865
 30
0
 40
0.3999999797
100
AcDbArc
 50
168.262747
 51
250.967396
  0
LINE
  5
21
330
0
100
AcDbEntity
  8
Spur
 62
     7
100
AcDbLine
 10
0.6355979136
 20
3.0591690581
 30
0
 11
0.7677519065
 21
3.6952337733
 31
0
  0
SPLINE
  5
22
330
0
100
AcDbEntity
  8
Spur
 62
     7
100
AcDbSpline
 70
     8
 71
     3
 72
     8
 73
     4
 74
     0
 40
0
 40
0
 40
0
 40
0
 40
1
 40
1
 40
1
 40
1
 10
0.7677519065
 20
3.6952337733
 30
0
 10
0.7722772167
 20
3.7342529283
 30
0
 10
0.7789799134
 20
3.8510402488
 30
0
 10
0.7308485656
 20
4.0506603326
 30
0
  0
SPLINE
  5
23
330
0
100
AcDbEntity
  8
Spur
 62
     7
100
AcDbSpline
 70
     8
 71
     3
 72
     8
 73
     4
 74
     0
 40
0
 40
0
 40
0
 40
0
 40
1
 40
1
 40
1
 40
1
 10
0.7308485656
 20
4.0506603326
 30
0
 10
0.673377986
 20
4.2846595251
 30
0
 10
0.5396047811
 20
4.6148229583
 30
0
 10
0.2389226019
 20
4.9960868089
 30
0
  0
ARC
  5
24
330
0
100
AcDbEntity
  8
Spur
 62
     7
100
AcDbCircle
 10
0
 20
0
 30
0
 40
5.0017964185
100
AcDbArc
 50
87.26209
 51
92.73791
  0
SPLINE
  5
25
330
0
100
AcDbEntity
  8
Spur
 62
     7
100
AcDbSpline
 70
     8
 71
     3
 72
     8
 73
     4
 74
     0
 40
0
 40
0
 40
0
 40
0
 40
1
 40
1
 40
1
 40
1
 10
-0.2389226019
 20
4.9960868089
 30
0
 10
-0.5396047811
 20
4.6148229583
 30
0
 10
-0.673377986
 20
4.2846595251
 30
0
 10
-0.7308485656
 20
4.0506603326
 30
0
  0
SPLINE
  5
26
330
0
100
AcDbEntity
  8
Spur
 62
     7
100
AcDbSpline
 70
     8
 71
     3
 72
     8
 73
     4
 74
     0
 40
0
 40
0
 40
0
 40
0
 40
1
 40
1
 40
1
 40
1
 10
-0.7308485656
 20
4.0506603326
 30
0
 10
-0.7789799134
 20
3.8510402488
 30
0
 10
-0.7722772167
 20
3.7342529283
 30
0
 10
-0.7677519065
 20
3.6952337733
 30
0
  0
LINE
  5
27
330
0
100
AcDbEntity
  8
Spur
 62
     7
100
AcDbLine
 10
-0.7677519065
 20
3.6952337733
 30
0
 11
-0.6355979136
 21
3.0591690581
 31
0
  0
ARC
  5
28
330
0
100
AcDbEntity
  8
Spur
 62
     7
100
AcDbCircle
 10
-1.0272341946
 20
2.9777994866
 30
0
 40
0.3999999797
100
AcDbArc
 50
289.032604
 51
11.737253
  0
ARC
  5
29
330
0
100
AcDbEntity
  8
Spur
 62
     7
100
AcDbCircle
 10
0.0000000004
 20
0.0000000004
 30
0
 40
2.7499999999
100
AcDbArc
 50
109.032601
 51
115.9674
  0
ARC
  5
2A
330
0
100
AcDbEntity
  8
Spur
 62
     7
100
AcDbCircle
 10
-1.3792579451
 20
2.8319864748
 30
0
 40
0.3999999797
100
AcDbArc
 50
213.262747
 51
295.967396
  0
LINE
  5
2B
330
0
100
AcDbEntity
  8
Spur
 62
     7
100
AcDbLine
 10
-1.713723591
 20
2.6125947806
 30
0
 11
-2.0700422798
 21
3.1558074385
 31
0
  0
SPLINE
  5
2C
330
0
100
AcDbEntity
  8
Spur
 62
     7
100
AcDbSpline
 70
     8
 71
     3
 72
     8
 73
     4
 74
     0
 40
0
 40
0
 40
0
 40
0
 40
1
 40
1
 40
1
 40
1
 10
-2.0700422798
 20
3.1558074385
 30
0
 10
-2.0944331114
 20
3.1865980252
 30
0
 10
-2.1722746954
 20
3.2739186537
 30
0
 10
-2.3474614127
 20
3.3810373662
 30
0
  0
SPLINE
  5
2D
330
0
100
AcDbEntity
  8
Spur
 62
     7
100
AcDbSpline
 70
     8
 71
     3
 72
     8
 73
     4
 74
     0
 40
0
 40
0
 40
0
 40
0
 40
1
 40
1
 40
1
 40
1
 10
-2.3474614127
 20
3.3810373662
 30
0
 10
-2.5535616651
 20
3.5058619455
 30
0
 10
-2.8816144079
 20
3.6447308077
 30
0
 10
-3.36382307
 20
3.701710654
 30
0
  0
ARC
  5
2E
330
0
100
AcDbEntity
  8
Spur
 62
     7
100
AcDbCircle
 10
0
 20
0
 30
0
 40
5.0017964185
100
AcDbArc
 50
132.26209
 51
137.73791
  0
SPLINE
  5
2F
330
0
100
AcDbEntity
  8
Spur
 62
     7
100
AcDbSpline
 70
     8
 71
     3
 72
     8
 73
     4
 74
     0
 40
0
 40
0
 40
0
 40
0
 40
1
 40
1
 40
1
 40
1
 10
-3.701710654
 20
3.36382307
 30
0
 10
-3.6447308077
 20
2.8816144079
 30
0
 10
-3.5058619455
 20
2.5535616651
 30
0
 10
-3.3810373662
 20
2.3474614127
 30
0
  0
SPLINE
  5
30
330
0
100
AcDbEntity
  8
Spur
 62
     7
100
AcDbSpline
 70
     8
 71
     3
 72
     8
 73
     4
 74
     0
 40
0
 40
0
 40
0
 40
0
 40
1
 40
1
 40
1
 40
1
 10
-3.3810373662
 20
2.3474614127
 30
0
 10
-3.2739186537
 20
2.1722746954
 30
0
 10
-3.1865980252
 20
2.0944331114
 30
0
 10
-3.1558074385
 20
2.0700422798
 30
0
  0
LINE
  5
31
330
0
100
AcDbEntity
  8
Spur
 62
     7
100
AcDbLine
 10
-3.1558074385
 20
2.0700422798
 30
0
 11
-2.6125947806
 21
1.713723591
 31
0
  0
ARC
  5
32
330
0
100
AcDbEntity
  8
Spur
 62
     7
100
AcDbCircle
 10
-2.8319864748
 20
1.3792579451
 30
0
 40
0.3999999797
100
AcDbArc
 50
334.032604
 51
56.737253
  0
ARC
  5
33
330
0
100
AcDbEntity
  8
Spur
 62
     7
100
AcDbCircle
 10
0.0000000001
 20
0.0000000002
 30
0
 40
2.75
100
AcDbArc
 50
154.032601
 51
160.9674
  0
ARC
  5
34
330
0
100
AcDbEntity
  8
Spur
 62
     7
100
AcDbCircle
 10
-2.9777994865
 20
1.0272341946
 30
0
 40
0.3999999797
100
AcDbArc
 50
258.262747
 51
340.967396
  0
LINE
  5
35
330
0
100
AcDbEntity
  8
Spur
 62
     7
100
AcDbLine
 10
-3.0591690581
 20
0.6355979136
 30
0
 11
-3.6952337733
 21
0.7677519065
 31
0
  0
SPLINE
  5
36
330
0
100
AcDbEntity
  8
Spur
 62
     7
100
AcDbSpline
 70
     8
 71
     3
 72
     8
 73
     4
 74
     0
 40
0
 40
0
 40
0
 40
0
 40
1
 40
1
 40
1
 40
1
 10
-3.6952337733
 20
0.7677519065
 30
0
 10
-3.7342529283
 20
0.7722772167
 30
0
 10
-3.8510402488
 20
0.7789799134
 30
0
 10
-4.0506603326
 20
0.7308485656
 30
0
  0
SPLINE
  5
37
330
0
100
AcDbEntity
  8
Spur
 62
     7
100
AcDbSpline
 70
     8
 71
     3
 72
     8
 73
     4
 74
     0
 40
0
 40
0
 40
0
 40
0
 40
1
 40
1
 40
1
 40
1
 10
-4.0506603326
 20
0.7308485656
 30
0
 10
-4.2846595251
 20
0.673377986
 30
0
 10
-4.6148229583
 20
0.5396047811
 30
0
 10
-4.9960868089
 20
0.2389226019
 30
0
  0
ARC
  5
38
330
0
100
AcDbEntity
  8
Spur
 62
     7
100
AcDbCircle
 10
0
 20
0
 30
0
 40
5.0017964185
100
AcDbArc
 50
177.26209
 51
182.73791
  0
SPLINE
  5
39
330
0
100
AcDbEntity
  8
Spur
 62
     7
100
AcDbSpline
 70
     8
 71
     3
 72
     8
 73
     4
 74
     0
 40
0
 40
0
 40
0
 40
0
 40
1
 40
1
 40
1
 40
1
 10
-4.9960868089
 20
-0.2389226019
 30
0
 10
-4.6148229583
 20
-0.5396047811
 30
0
 10
-4.2846595251
 20
-0.673377986
 30
0
 10
-4.0506603326
 20
-0.7308485656
 30
0
  0
SPLINE
  5
3A
330
0
100
AcDbEntity
  8
Spur
 62
     7
100
AcDbSpline
 70
     8
 71
     3
 72
     8
 73
     4
 74
     0
 40
0
 40
0
 40
0
 40
0
 40
1
 40
1
 40
1
 40
1
 10
-4.0506603326
 20
-0.7308485656
 30
0
 10
-3.8510402488
 20
-0.7789799134
 30
0
 10
-3.7342529283
 20
-0.7722772167
 30
0
 10
-3.6952337733
 20
-0.7677519065
 30
0
  0
LINE
  5
3B
330
0
100
AcDbEntity
  8
Spur
 62
     7
100
AcDbLine
 10
-3.6952337733
 20
-0.7677519065
 30
0
 11
-3.0591690581
 21
-0.6355979136
 31
0
  0
ARC
  5
3C
330
0
100
AcDbEntity
  8
Spur
 62
     7
100
AcDbCircle
 10
-2.9777994866
 20
-1.0272341946
 30
0
 40
0.3999999797
100
AcDbArc
 50
19.032604
 51
101.737253
  0
ARC
  5
3D
330
0
100
AcDbEntity
  8
Spur
 62
     7
100
AcDbCircle
 10
-0.0000000004
 20
0.0000000004
 30
0
 40
2.7499999999
100
AcDbArc
 50
199.032601
 51
205.9674
  0
ARC
  5
3E
330
0
100
AcDbEntity
  8
Spur
 62
     7
100
AcDbCircle
 10
-2.8319864748
 20
-1.3792579451
 30
0
 40
0.3999999797
100
AcDbArc
 50
303.262747
 51
25.967396
  0
LINE
  5
3F
330
0
100
AcDbEntity
  8
Spur
 62
     7
100
AcDbLine
 10
-2.6125947806
 20
-1.713723591
 30
0
 11
-3.1558074385
 21
-2.0700422798
 31
0
  0
SPLINE
  5
40
330
0
100
AcDbEntity
  8
Spur
 62
     7
100
AcDbSpline
 70
     8
 71
     3
 72
     8
 73
     4
 74
     0
 40
0
 40
0
 40
0
 40
0
 40
1
 40
1
 40
1
 40
1
 10
-3.1558074385
 20
-2.0700422798
 30
0
 10
-3.1865980252
 20
-2.0944331114
 30
0
 10
-3.2739186537
 20
-2.1722746954
 30
0
 10
-3.3810373662
 20
-2.3474614127
 30
0
  0
SPLINE
  5
41
330
0
100
AcDbEntity
  8
Spur
 62
     7
100
AcDbSpline
 70
     8
 71
     3
 72
     8
 73
     4
 74
     0
 40
0
 40
0
 40
0
 40
0
 40
1
 40
1
 40
1
 40
1
 10
-3.3810373662
 20
-2.3474614127
 30
0
 10
-3.5058619455
 20
-2.5535616651
 30
0
 10
-3.6447308077
 20
-2.8816144079
 30
0
 10
-3.701710654
 20
-3.36382307
 30
0
  0
ARC
  5
42
330
0
100
AcDbEntity
  8
Spur
 62
     7
100
AcDbCircle
 10
0
 20
0
 30
0
 40
5.0017964185
100
AcDbArc
 50
222.26209
 51
227.73791
  0
SPLINE
  5
43
330
0
100
AcDbEntity
  8
Spur
 62
     7
100
AcDbSpline
 70
     8
 71
     3
 72
     8
 73
     4
 74
     0
 40
0
 40
0
 40
0
 40
0
 40
1
 40
1
 40
1
 40
1
 10
-3.36382307
 20
-3.701710654
 30
0
 10
-2.8816144079
 20
-3.6447308077
 30
0
 10
-2.5535616651
 20
-3.5058619455
 30
0
 10
-2.3474614127
 20
-3.3810373662
 30
0
  0
SPLINE
  5
44
330
0
100
AcDbEntity
  8
Spur
 62
     7
100
AcDbSpline
 70
     8
 71
     3
 72
     8
 73
     4
 74
     0
 40
0
 40
0
 40
0
 40
0
 40
1
 40
1
 40
1
 40
1
 10
-2.3474614127
 20
-3.3810373662
 30
0
 10
-2.1722746954
 20
-3.2739186537
 30
0
 10
-2.0944331114
 20
-3.1865980252
 30
0
 10
-2.0700422798
 20
-3.1558074385
 30
0
  0
LINE
  5
45
330
0
100
AcDbEntity
  8
Spur
 62
     7
100
AcDbLine
 10
-2.0700422798
 20
-3.1558074385
 30
0
 11
-1.713723591
 21
-2.6125947806
 31
0
  0
ARC
  5
46
330
0
100
AcDbEntity
  8
Spur
 62
     7
100
AcDbCircle
 10
-1.3792579451
 20
-2.8319864748
 30
0
 40
0.3999999797
100
AcDbArc
 50
64.032604
 51
146.737253
  0
ARC
  5
47
330
0
100
AcDbEntity
  8
Spur
 62
     7
100
AcDbCircle
 10
-0.0000000002
 20
0.0000000001
 30
0
 40
2.75
100
AcDbArc
 50
244.032601
 51
250.9674
  0
ARC
  5
48
330
0
100
AcDbEntity
  8
Spur
 62
     7
100
AcDbCircle
 10
-1.0272341946
 20
-2.9777994865
 30
0
 40
0.3999999797
100
AcDbArc
 50
348.262747
 51
70.967396
  0
LINE
  5
49
330
0
100
AcDbEntity
  8
Spur
 62
     7
100
AcDbLine
 10
-0.6355979136
 20
-3.0591690581
 30
0
 11
-0.7677519065
 21
-3.6952337733
 31
0
  0
SPLINE
  5
4A
330
0
100
AcDbEntity
  8
Spur
 62
     7
100
AcDbSpline
 70
     8
 71
     3
 72
     8
 73
     4
 74
     0
 40
0
 40
0
 40
0
 40
0
 40
1
 40
1
 40
1
 40
1
 10
-0.7677519065
 20
-3.6952337733
 30
0
 10
-0.7722772167
 20
-3.7342529283
 30
0
 10
-0.7789799134
 20
-3.8510402488
 30
0
 10
-0.7308485656
 20
-4.0506603326
 30
0
  0
SPLINE
  5
4B
330
0
100
AcDbEntity
  8
Spur
 62
     7
100
AcDbSpline
 70
     8
 71
     3
 72
     8
 73
     4
 74
     0
 40
0
 40
0
 40
0
 40
0
 40
1
 40
1
 40
1
 40
1
 10
-0.7308485656
 20
-4.0506603326
 30
0
 10
-0.673377986
 20
-4.2846595251
 30
0
 10
-0.5396047811
 20
-4.6148229583
 30
0
 10
-0.2389226019
 20
-4.9960868089
 30
0
  0
ARC
  5
4C
330
0
100
AcDbEntity
  8
Spur
 62
     7
100
AcDbCircle
 10
0
 20
0
 30
0
 40
5.0017964185
100
AcDbArc
 50
267.26209
 51
272.73791
  0
SPLINE
  5
4D
330
0
100
AcDbEntity
  8
Spur
 62
     7
100
AcDbSpline
 70
     8
 71
     3
 72
     8
 73
     4
 74
     0
 40
0
 40
0
 40
0
 40
0
 40
1
 40
1
 40
1
 40
1
 10
0.2389226019
 20
-4.9960868089
 30
0
 10
0.5396047811
 20
-4.6148229583
 30
0
 10
0.673377986
 20
-4.2846595251
 30
0
 10
0.7308485656
 20
-4.0506603326
 30
0
  0
SPLINE
  5
4E
330
0
100
AcDbEntity
  8
Spur
 62
     7
100
AcDbSpline
 70
     8
 71
     3
 72
     8
 73
     4
 74
     0
 40
0
 40
0
 40
0
 40
0
 40
1
 40
1
 40
1
 40
1
 10
0.7308485656
 20
-4.0506603326
 30
0
 10
0.7789799134
 20
-3.8510402488
 30
0
 10
0.7722772167
 20
-3.7342529283
 30
0
 10
0.7677519065
 20
-3.6952337733
 30
0
  0
LINE
  5
4F
330
0
100
AcDbEntity
  8
Spur
 62
     7
100
AcDbLine
 10
0.7677519065
 20
-3.6952337733
 30
0
 11
0.6355979136
 21
-3.0591690581
 31
0
  0
ARC
  5
50
330
0
100
AcDbEntity
  8
Spur
 62
     7
100
AcDbCircle
 10
1.0272341946
 20
-2.9777994866
 30
0
 40
0.3999999797
100
AcDbArc
 50
109.032604
 51
191.737253
  0
ARC
  5
51
330
0
100
AcDbEntity
  8
Spur
 62
     7
100
AcDbCircle
 10
-0.0000000004
 20
-0.0000000004
 30
0
 40
2.7499999999
100
AcDbArc
 50
289.032601
 51
295.9674
  0
ARC
  5
52
330
0
100
AcDbEntity
  8
Spur
 62
     7
100
AcDbCircle
 10
1.3792579451
 20
-2.8319864748
 30
0
 40
0.3999999797
100
AcDbArc
 50
33.262747
 51
115.967396
  0
LINE
  5
53
330
0
100
AcDbEntity
  8
Spur
 62
     7
100
AcDbLine
 10
1.713723591
 20
-2.6125947806
 30
0
 11
2.0700422798
 21
-3.1558074385
 31
0
  0
SPLINE
  5
54
330
0
100
AcDbEntity
  8
Spur
 62
     7
100
AcDbSpline
 70
     8
 71
     3
 72
     8
 73
     4
 74
     0
 40
0
 40
0
 40
0
 40
0
 40
1
 40
1
 40
1
 40
1
 10
2.0700422798
 20
-3.1558074385
 30
0
 10
2.0944331114
 20
-3.1865980252
 30
0
 10
2.1722746954
 20
-3.2739186537
 30
0
 10
2.3474614127
 20
-3.3810373662
 30
0
  0
SPLINE
  5
55
330
0
100
AcDbEntity
  8
Spur
 62
     7
100
AcDbSpline
 70
     8
 71
     3
 72
     8
 73
     4
 74
     0
 40
0
 40
0
 40
0
 40
0
 40
1
 40
1
 40
1
 40
1
 10
2.3474614127
 20
-3.3810373662
 30
0
 10
2.5535616651
 20
-3.5058619455
 30
0
 10
2.8816144079
 20
-3.6447308077
 30
0
 10
3.36382307
 20
-3.701710654
 30
0
  0
ARC
  5
56
330
0
100
AcDbEntity
  8
Spur
 62
     7
100
AcDbCircle
 10
0
 20
0
 30
0
 40
5.0017964185
100
AcDbArc
 50
312.26209
 51
317.73791
  0
SPLINE
  5
57
330
0
100
AcDbEntity
  8
Spur
 62
     7
100
AcDbSpline
 70
     8
 71
     3
 72
     8
 73
     4
 74
     0
 40
0
 40
0
 40
0
 40
0
 40
1
 40
1
 40
1
 40
1
 10
3.701710654
 20
-3.36382307
 30
0
 10
3.6447308077
 20
-2.8816144079
 30
0
 10
3.5058619455
 20
-2.5535616651
 30
0
 10
3.3810373662
 20
-2.3474614127
 30
0
  0
SPLINE
  5
58
330
0
100
AcDbEntity
  8
Spur
 62
     7
100
AcDbSpline
 70
     8
 71
     3
 72
     8
 73
     4
 74
     0
 40
0
 40
0
 40
0
 40
0
 40
1
 40
1
 40
1
 40
1
 10
3.3810373662
 20
-2.3474614127
 30
0
 10
3.2739186537
 20
-2.1722746954
 30
0
 10
3.1865980252
 20
-2.0944331114
 30
0
 10
3.1558074385
 20
-2.0700422798
 30
0
  0
LINE
  5
59
330
0
100
AcDbEntity
  8
Spur
 62
     7
100
AcDbLine
 10
3.1558074385
 20
-2.0700422798
 30
0
 11
2.6125947806
 21
-1.713723591
 31
0
  0
ARC
  5
5A
330
0
100
AcDbEntity
  8
Spur
 62
     7
100
AcDbCircle
 10
2.8319864748
 20
-1.3792579451
 30
0
 40
0.3999999797
100
AcDbArc
 50
154.032604
 51
236.737253
  0
ENDSEC
  0
SECTION
  2
OBJECTS
  0
DICTIONARY
  5
6F
330
0
100
AcDbDictionary
  3
ACAD_GROUP
350
70
  0
DICTIONARY
  5
70
330
6F
100
AcDbDictionary
  0
ENDSEC
  0
EOF
