  0
SECTION
  2
HEADER
  9
$INSUNITS
 70
     4
  9
$MEASUREMENT
 70
     1
  9
$ACADVER
  1
AC1012
  9
$HANDSEED
  5
99
  0
ENDSEC
  0
SECTION
  2
TABLES
  0
TABLE
  2
LAYER
  5
4
330
0
100
AcDbSymbolTable
 70
     4
  0
LAYER
  5
5
330
4
100
AcDbSymbolTableRecord
100
AcDbLayerTableRecord
  2
1
 70
     0
 62
     7
  0
LAYER
  5
6
330
4
100
AcDbSymbolTableRecord
100
AcDbLayerTableRecord
  2
Spur
 70
     0
 62
     7
  6
Continuous
  0
LAYER
  5
9
330
4
100
AcDbSymbolTableRecord
100
AcDbLayerTableRecord
  2
decor
 70
     0
 62
     6
  6
Dash
  0
LAYER
  5
88
330
4
100
AcDbSymbolTableRecord
100
AcDbLayerTableRecord
  2
0
 70
     0
  6
Continuous
  0
ENDTAB
  0
TABLE
  2
LTYPE
  5
7
330
0
100
AcDbSymbolTable
 70
     4
  0
LTYPE
  5
8
330
7
100
AcDbSymbolTableRecord
100
AcDbLinetypeTableRecord
  2
Continuous
 70
     0
  3
_
 72
    65
 73
     0
 40
0
  0
LTYPE
  5
A
330
7
100
AcDbSymbolTableRecord
100
AcDbLinetypeTableRecord
  2
Dash
 70
     0
  3
_
 72
    65
 73
     0
 40
0
  0
LTYPE
  5
86
330
7
100
AcDbSymbolTableRecord
100
AcDbLinetypeTableRecord
  2
BYBLOCK
 70
     0
  3
 
 72
    65
 73
     0
 40
0
  0
LTYPE
  5
87
330
7
100
AcDbSymbolTableRecord
100
AcDbLinetypeTableRecord
  2
BYLAYER
 70
     0
  3
 
 72
    65
 73
     0
 40
0
  0
ENDTAB
  0
TABLE
  2
VPORT
  5
83
330
0
100
AcDbSymbolTable
 70
     0
  0
ENDTAB
  0
TABLE
  2
VIEW
  5
84
330
0
100
AcDbSymbolTable
 70
     0
  0
ENDTAB
  0
TABLE
  2
UCS
  5
85
330
0
100
AcDbSymbolTable
 70
     0
  0
ENDTAB
  0
TABLE
  2
STYLE
  5
89
330
0
100
AcDbSymbolTable
 70
     1
  0
STYLE
  5
8A
330
89
100
AcDbSymbolTableRecord
100
AcDbTextStyleTableRecord
  2
STANDARD
 70
     0
 40
0
 41
1
 50
0
 71
     0
 42
1
  0
ENDTAB
  0
TABLE
  2
APPID
  5
8B
330
0
100
AcDbSymbolTable
 70
     1
  0
APPID
  5
8C
330
8B
100
AcDbSymbolTableRecord
100
AcDbRegAppTableRecord
  2
ACAD
 70
     0
  0
ENDTAB
  0
TABLE
  2
DIMSTYLE
  5
8D
330
0
100
AcDbSymbolTable
 70
     0
  0
ENDTAB
  0
TABLE
  2
BLOCK_RECORD
  5
8E
330
0
100
AcDbSymbolTable
 70
     2
  0
BLOCK_RECORD
  5
8F
330
8E
100
AcDbSymbolTableRecord
100
AcDbBlockTableRecord
  2
*MODEL_SPACE
  0
BLOCK_RECORD
  5
90
330
8E
100
AcDbSymbolTableRecord
100
AcDbBlockTableRecord
  2
*PAPER_SPACE
  0
ENDTAB
  0
ENDSEC
  0
SECTION
  2
BLOCKS
  0
BLOCK
  5
92
330
8F
100
AcDbEntity
  8
0
100
AcDbBlockBegin
  2
*MODEL_SPACE
 70
     0
 10
0
 20
0
 30
0
  0
ENDBLK
  5
93
330
8F
100
AcDbEntity
  8
0
100
AcDbBlockEnd
  0
BLOCK
  5
94
330
90
100
AcDbEntity
  8
0
100
AcDbBlockBegin
  2
*PAPER_SPACE
 70
     0
 10
0
 20
0
 30
0
  0
ENDBLK
  5
95
330
90
100
AcDbEntity
  8
0
100
AcDbBlockEnd
  0
ENDSEC
  0
SECTION
  2
ENTITIES
  0
ARC
  5
B
330
0
100
AcDbEntity
  8
Spur
 62
     7
100
AcDbCircle
 10
0.0000000001
 20
0.0000000002
 30
0
 40
9.5
100
AcDbArc
 50
340.544284
 51
349.455716
  0
ARC
  5
C
330
0
100
AcDbEntity
  8
Spur
 62
     7
100
AcDbCircle
 10
9.7328260608
 20
-1.8116548604
 30
0
 40
0.3999998213
100
AcDbArc
 50
81.771299
 51
169.45569
  0
LINE
  5
D
330
0
100
AcDbEntity
  8
Spur
 62
     7
100
AcDbLine
 10
9.7900759234
 20
-1.4157731732
 30
0
 11
11.1917836717
 21
-1.618478468
 31
0
  0
SPLINE
  5
E
330
0
100
AcDbEntity
  8
Spur
 62
     7
100
AcDbSpline
 70
     8
 71
     3
 72
     8
 73
     4
 74
     0
 40
0
 40
0
 40
0
 40
0
 40
1
 40
1
 40
1
 40
1
 10
11.1917836717
 20
-1.618478468
 30
0
 10
11.2745029278
 20
-1.6241986639
 30
0
 10
11.5228261135
 20
-1.6291929202
 30
0
 10
11.9415146441
 20
-1.5322344245
 30
0
  0
SPLINE
  5
F
330
0
100
AcDbEntity
  8
Spur
 62
     7
100
AcDbSpline
 70
     8
 71
     3
 72
     8
 73
     4
 74
     0
 40
0
 40
0
 40
0
 40
0
 40
1
 40
1
 40
1
 40
1
 10
11.9415146441
 20
-1.5322344245
 30
0
 10
12.4367447491
 20
-1.4162266271
 30
0
 10
13.1437703311
 20
-1.1570833183
 30
0
 10
13.9902629348
 20
-0.5909462226
 30
0
  0
ARC
  5
10
330
0
100
AcDbEntity
  8
Spur
 62
     7
100
AcDbCircle
 10
0
 20
0
 30
0
 40
14.0027381045
100
AcDbArc
 50
357.581274
 51
2.418726
  0
SPLINE
  5
11
330
0
100
AcDbEntity
  8
Spur
 62
     7
100
AcDbSpline
 70
     8
 71
     3
 72
     8
 73
     4
 74
     0
 40
0
 40
0
 40
0
 40
0
 40
1
 40
1
 40
1
 40
1
 10
13.9902629348
 20
0.5909462226
 30
0
 10
13.1437703311
 20
1.1570833183
 30
0
 10
12.4367447491
 20
1.4162266271
 30
0
 10
11.9415146441
 20
1.5322344245
 30
0
  0
SPLINE
  5
12
330
0
100
AcDbEntity
  8
Spur
 62
     7
100
AcDbSpline
 70
     8
 71
     3
 72
     8
 73
     4
 74
     0
 40
0
 40
0
 40
0
 40
0
 40
1
 40
1
 40
1
 40
1
 10
11.9415146441
 20
1.5322344245
 30
0
 10
11.5228261135
 20
1.6291929202
 30
0
 10
11.2745029278
 20
1.6241986639
 30
0
 10
11.1917836717
 20
1.618478468
 30
0
  0
LINE
  5
13
330
0
100
AcDbEntity
  8
Spur
 62
     7
100
AcDbLine
 10
11.1917836717
 20
1.618478468
 30
0
 11
9.7900759234
 21
1.4157731732
 31
0
  0
ARC
  5
14
330
0
100
AcDbEntity
  8
Spur
 62
     7
100
AcDbCircle
 10
9.7328260607
 20
1.8116548604
 30
0
 40
0.3999998213
100
AcDbArc
 50
190.54431
 51
278.228701
  0
ARC
  5
15
330
0
100
AcDbEntity
  8
Spur
 62
     7
100
AcDbCircle
 10
-0.0000000001
 20
0.0000000004
 30
0
 40
9.5
100
AcDbArc
 50
10.544284
 51
19.455716
  0
ARC
  5
16
330
0
100
AcDbEntity
  8
Spur
 62
     7
100
AcDbCircle
 10
9.3347020495
 20
3.2974738984
 30
0
 40
0.3999998213
100
AcDbArc
 50
111.771299
 51
199.45569
  0
LINE
  5
17
330
0
100
AcDbEntity
  8
Spur
 62
     7
100
AcDbLine
 10
9.1863410412
 20
3.6689424277
 30
0
 11
10.5016082074
 21
4.1942483671
 31
0
  0
SPLINE
  5
18
330
0
100
AcDbEntity
  8
Spur
 62
     7
100
AcDbSpline
 70
     8
 71
     3
 72
     8
 73
     4
 74
     0
 40
0
 40
0
 40
0
 40
0
 40
1
 40
1
 40
1
 40
1
 10
10.5016082074
 20
4.1942483671
 30
0
 10
10.5761052825
 20
4.2306541602
 30
0
 10
10.7936565978
 20
4.3504906002
 30
0
 10
11.1077722537
 20
4.6438033859
 30
0
  0
SPLINE
  5
19
330
0
100
AcDbEntity
  8
Spur
 62
     7
100
AcDbSpline
 70
     8
 71
     3
 72
     8
 73
     4
 74
     0
 40
0
 40
0
 40
0
 40
0
 40
1
 40
1
 40
1
 40
1
 10
11.1077722537
 20
4.6438033859
 30
0
 10
11.4786502067
 20
4.991884138
 30
0
 10
11.9613806674
 20
5.5698216176
 30
0
 10
12.4113962185
 20
6.4833570264
 30
0
  0
ARC
  5
1A
330
0
100
AcDbEntity
  8
Spur
 62
     7
100
AcDbCircle
 10
0.0000000003
 20
-0.0000000004
 30
0
 40
14.0027381045
100
AcDbArc
 50
27.581274
 51
32.418726
  0
SPLINE
  5
1B
330
0
100
AcDbEntity
  8
Spur
 62
     7
100
AcDbSpline
 70
     8
 71
     3
 72
     8
 73
     4
 74
     0
 40
0
 40
0
 40
0
 40
0
 40
1
 40
1
 40
1
 40
1
 10
11.8204499959
 20
7.5069059084
 30
0
 10
10.8042973491
 20
7.5739487135
 30
0
 10
10.0624235796
 20
7.4448606111
 30
0
 10
9.5755378292
 20
7.2977112582
 30
0
  0
SPLINE
  5
1C
330
0
100
AcDbEntity
  8
Spur
 62
     7
100
AcDbSpline
 70
     8
 71
     3
 72
     8
 73
     4
 74
     0
 40
0
 40
0
 40
0
 40
0
 40
1
 40
1
 40
1
 40
1
 10
9.5755378292
 20
7.2977112582
 30
0
 10
9.1644636776
 20
7.1723355133
 30
0
 10
8.9519066186
 20
7.0438487676
 30
0
 10
8.8831297394
 20
6.9975353046
 30
0
  0
LINE
  5
1D
330
0
100
AcDbEntity
  8
Spur
 62
     7
100
AcDbLine
 10
8.8831297394
 20
6.9975353046
 30
0
 11
7.770567868
 21
6.1211334957
 31
0
  0
ARC
  5
1E
330
0
100
AcDbEntity
  8
Spur
 62
     7
100
AcDbCircle
 10
7.5230471891
 20
6.4353521625
 30
0
 40
0.3999998213
100
AcDbArc
 50
220.54431
 51
308.228701
  0
ARC
  5
1F
330
0
100
AcDbEntity
  8
Spur
 62
     7
100
AcDbCircle
 10
0.0000000001
 20
0.0000000001
 30
0
 40
9.4999999999
100
AcDbArc
 50
40.544284
 51
49.455716
  0
ARC
  5
20
330
0
100
AcDbEntity
  8
Spur
 62
     7
100
AcDbCircle
 10
6.4353521625
 20
7.5230471891
 30
0
 40
0.3999998213
100
AcDbArc
 50
141.771299
 51
229.45569
  0
LINE
  5
21
330
0
100
AcDbEntity
  8
Spur
 62
     7
100
AcDbLine
 10
6.1211334957
 20
7.770567868
 30
0
 11
6.9975353046
 21
8.8831297394
 31
0
  0
SPLINE
  5
22
330
0
100
AcDbEntity
  8
Spur
 62
     7
100
AcDbSpline
 70
     8
 71
     3
 72
     8
 73
     4
 74
     0
 40
0
 40
0
 40
0
 40
0
 40
1
 40
1
 40
1
 40
1
 10
6.9975353046
 20
8.8831297394
 30
0
 10
7.0438487676
 20
8.9519066186
 30
0
 10
7.1723355133
 20
9.1644636776
 30
0
 10
7.2977112582
 20
9.5755378292
 30
0
  0
SPLINE
  5
23
330
0
100
AcDbEntity
  8
Spur
 62
     7
100
AcDbSpline
 70
     8
 71
     3
 72
     8
 73
     4
 74
     0
 40
0
 40
0
 40
0
 40
0
 40
1
 40
1
 40
1
 40
1
 10
7.2977112582
 20
9.5755378292
 30
0
 10
7.4448606111
 20
10.0624235796
 30
0
 10
7.5739487135
 20
10.8042973491
 30
0
 10
7.5069059084
 20
11.8204499959
 30
0
  0
ARC
  5
24
330
0
100
AcDbEntity
  8
Spur
 62
     7
100
AcDbCircle
 10
-0.0000000004
 20
0.0000000003
 30
0
 40
14.0027381045
100
AcDbArc
 50
57.581274
 51
62.418726
  0
SPLINE
  5
25
330
0
100
AcDbEntity
  8
Spur
 62
     7
100
AcDbSpline
 70
     8
 71
     3
 72
     8
 73
     4
 74
     0
 40
0
 40
0
 40
0
 40
0
 40
1
 40
1
 40
1
 40
1
 10
6.4833570264
 20
12.4113962185
 30
0
 10
5.5698216176
 20
11.9613806674
 30
0
 10
4.991884138
 20
11.4786502067
 30
0
 10
4.6438033859
 20
11.1077722537
 30
0
  0
SPLINE
  5
26
330
0
100
AcDbEntity
  8
Spur
 62
     7
100
AcDbSpline
 70
     8
 71
     3
 72
     8
 73
     4
 74
     0
 40
0
 40
0
 40
0
 40
0
 40
1
 40
1
 40
1
 40
1
 10
4.6438033859
 20
11.1077722537
 30
0
 10
4.3504906002
 20
10.7936565978
 30
0
 10
4.2306541602
 20
10.5761052825
 30
0
 10
4.1942483671
 20
10.5016082074
 30
0
  0
LINE
  5
27
330
0
100
AcDbEntity
  8
Spur
 62
     7
100
AcDbLine
 10
4.1942483671
 20
10.5016082074
 30
0
 11
3.6689424277
 21
9.1863410412
 31
0
  0
ARC
  5
28
330
0
100
AcDbEntity
  8
Spur
 62
     7
100
AcDbCircle
 10
3.2974738984
 20
9.3347020494
 30
0
 40
0.3999998213
100
AcDbArc
 50
250.54431
 51
338.228701
  0
ARC
  5
29
330
0
100
AcDbEntity
  8
Spur
 62
     7
100
AcDbCircle
 10
-0.0000000002
 20
0
 30
0
 40
9.5
100
AcDbArc
 50
70.544284
 51
79.455716
  0
ARC
  5
2A
330
0
100
AcDbEntity
  8
Spur
 62
     7
100
AcDbCircle
 10
1.8116548604
 20
9.7328260607
 30
0
 40
0.3999998213
100
AcDbArc
 50
171.771299
 51
259.45569
  0
LINE
  5
2B
330
0
100
AcDbEntity
  8
Spur
 62
     7
100
AcDbLine
 10
1.4157731732
 20
9.7900759234
 30
0
 11
1.618478468
 21
11.1917836717
 31
0
  0
SPLINE
  5
2C
330
0
100
AcDbEntity
  8
Spur
 62
     7
100
AcDbSpline
 70
     8
 71
     3
 72
     8
 73
     4
 74
     0
 40
0
 40
0
 40
0
 40
0
 40
1
 40
1
 40
1
 40
1
 10
1.618478468
 20
11.1917836717
 30
0
 10
1.6241986639
 20
11.2745029278
 30
0
 10
1.6291929202
 20
11.5228261135
 30
0
 10
1.5322344245
 20
11.9415146441
 30
0
  0
SPLINE
  5
2D
330
0
100
AcDbEntity
  8
Spur
 62
     7
100
AcDbSpline
 70
     8
 71
     3
 72
     8
 73
     4
 74
     0
 40
0
 40
0
 40
0
 40
0
 40
1
 40
1
 40
1
 40
1
 10
1.5322344245
 20
11.9415146441
 30
0
 10
1.4162266271
 20
12.4367447491
 30
0
 10
1.1570833183
 20
13.1437703311
 30
0
 10
0.5909462226
 20
13.9902629348
 30
0
  0
ARC
  5
2E
330
0
100
AcDbEntity
  8
Spur
 62
     7
100
AcDbCircle
 10
0
 20
0
 30
0
 40
14.0027381045
100
AcDbArc
 50
87.581274
 51
92.418726
  0
SPLINE
  5
2F
330
0
100
AcDbEntity
  8
Spur
 62
     7
100
AcDbSpline
 70
     8
 71
     3
 72
     8
 73
     4
 74
     0
 40
0
 40
0
 40
0
 40
0
 40
1
 40
1
 40
1
 40
1
 10
-0.5909462226
 20
13.9902629348
 30
0
 10
-1.1570833183
 20
13.1437703311
 30
0
 10
-1.4162266271
 20
12.4367447491
 30
0
 10
-1.5322344245
 20
11.9415146441
 30
0
  0
SPLINE
  5
30
330
0
100
AcDbEntity
  8
Spur
 62
     7
100
AcDbSpline
 70
     8
 71
     3
 72
     8
 73
     4
 74
     0
 40
0
 40
0
 40
0
 40
0
 40
1
 40
1
 40
1
 40
1
 10
-1.5322344245
 20
11.9415146441
 30
0
 10
-1.6291929202
 20
11.5228261135
 30
0
 10
-1.6241986639
 20
11.2745029278
 30
0
 10
-1.618478468
 20
11.1917836717
 30
0
  0
LINE
  5
31
330
0
100
AcDbEntity
  8
Spur
 62
     7
100
AcDbLine
 10
-1.618478468
 20
11.1917836717
 30
0
 11
-1.4157731732
 21
9.7900759234
 31
0
  0
ARC
  5
32
330
0
100
AcDbEntity
  8
Spur
 62
     7
100
AcDbCircle
 10
-1.8116548604
 20
9.7328260607
 30
0
 40
0.3999998213
100
AcDbArc
 50
280.54431
 51
8.228701
  0
ARC
  5
33
330
0
100
AcDbEntity
  8
Spur
 62
     7
100
AcDbCircle
 10
-0.0000000004
 20
-0.0000000001
 30
0
 40
9.5
100
AcDbArc
 50
100.544284
 51
109.455716
  0
ARC
  5
34
330
0
100
AcDbEntity
  8
Spur
 62
     7
100
AcDbCircle
 10
-3.2974738984
 20
9.3347020495
 30
0
 40
0.3999998213
100
AcDbArc
 50
201.771299
 51
289.45569
  0
LINE
  5
35
330
0
100
AcDbEntity
  8
Spur
 62
     7
100
AcDbLine
 10
-3.6689424277
 20
9.1863410412
 30
0
 11
-4.1942483671
 21
10.5016082074
 31
0
  0
SPLINE
  5
36
330
0
100
AcDbEntity
  8
Spur
 62
     7
100
AcDbSpline
 70
     8
 71
     3
 72
     8
 73
     4
 74
     0
 40
0
 40
0
 40
0
 40
0
 40
1
 40
1
 40
1
 40
1
 10
-4.1942483671
 20
10.5016082074
 30
0
 10
-4.2306541602
 20
10.5761052825
 30
0
 10
-4.3504906002
 20
10.7936565978
 30
0
 10
-4.6438033859
 20
11.1077722537
 30
0
  0
SPLINE
  5
37
330
0
100
AcDbEntity
  8
Spur
 62
     7
100
AcDbSpline
 70
     8
 71
     3
 72
     8
 73
     4
 74
     0
 40
0
 40
0
 40
0
 40
0
 40
1
 40
1
 40
1
 40
1
 10
-4.6438033859
 20
11.1077722537
 30
0
 10
-4.991884138
 20
11.4786502067
 30
0
 10
-5.5698216176
 20
11.9613806674
 30
0
 10
-6.4833570264
 20
12.4113962185
 30
0
  0
ARC
  5
38
330
0
100
AcDbEntity
  8
Spur
 62
     7
100
AcDbCircle
 10
0.0000000004
 20
0.0000000003
 30
0
 40
14.0027381045
100
AcDbArc
 50
117.581274
 51
122.418726
  0
SPLINE
  5
39
330
0
100
AcDbEntity
  8
Spur
 62
     7
100
AcDbSpline
 70
     8
 71
     3
 72
     8
 73
     4
 74
     0
 40
0
 40
0
 40
0
 40
0
 40
1
 40
1
 40
1
 40
1
 10
-7.5069059084
 20
11.8204499959
 30
0
 10
-7.5739487135
 20
10.8042973491
 30
0
 10
-7.4448606111
 20
10.0624235796
 30
0
 10
-7.2977112582
 20
9.5755378292
 30
0
  0
SPLINE
  5
3A
330
0
100
AcDbEntity
  8
Spur
 62
     7
100
AcDbSpline
 70
     8
 71
     3
 72
     8
 73
     4
 74
     0
 40
0
 40
0
 40
0
 40
0
 40
1
 40
1
 40
1
 40
1
 10
-7.2977112582
 20
9.5755378292
 30
0
 10
-7.1723355133
 20
9.1644636776
 30
0
 10
-7.0438487676
 20
8.9519066186
 30
0
 10
-6.9975353046
 20
8.8831297394
 30
0
  0
LINE
  5
3B
330
0
100
AcDbEntity
  8
Spur
 62
     7
100
AcDbLine
 10
-6.9975353046
 20
8.8831297394
 30
0
 11
-6.1211334957
 21
7.770567868
 31
0
  0
ARC
  5
3C
330
0
100
AcDbEntity
  8
Spur
 62
     7
100
AcDbCircle
 10
-6.4353521625
 20
7.5230471891
 30
0
 40
0.3999998213
100
AcDbArc
 50
310.54431
 51
38.228701
  0
ARC
  5
3D
330
0
100
AcDbEntity
  8
Spur
 62
     7
100
AcDbCircle
 10
-0.0000000001
 20
0.0000000001
 30
0
 40
9.4999999999
100
AcDbArc
 50
130.544284
 51
139.455716
  0
ARC
  5
3E
330
0
100
AcDbEntity
  8
Spur
 62
     7
100
AcDbCircle
 10
-7.5230471891
 20
6.4353521625
 30
0
 40
0.3999998213
100
AcDbArc
 50
231.771299
 51
319.45569
  0
LINE
  5
3F
330
0
100
AcDbEntity
  8
Spur
 62
     7
100
AcDbLine
 10
-7.770567868
 20
6.1211334957
 30
0
 11
-8.8831297394
 21
6.9975353046
 31
0
  0
SPLINE
  5
40
330
0
100
AcDbEntity
  8
Spur
 62
     7
100
AcDbSpline
 70
     8
 71
     3
 72
     8
 73
     4
 74
     0
 40
0
 40
0
 40
0
 40
0
 40
1
 40
1
 40
1
 40
1
 10
-8.8831297394
 20
6.9975353046
 30
0
 10
-8.9519066186
 20
7.0438487676
 30
0
 10
-9.1644636776
 20
7.1723355133
 30
0
 10
-9.5755378292
 20
7.2977112582
 30
0
  0
SPLINE
  5
41
330
0
100
AcDbEntity
  8
Spur
 62
     7
100
AcDbSpline
 70
     8
 71
     3
 72
     8
 73
     4
 74
     0
 40
0
 40
0
 40
0
 40
0
 40
1
 40
1
 40
1
 40
1
 10
-9.5755378292
 20
7.2977112582
 30
0
 10
-10.0624235796
 20
7.4448606111
 30
0
 10
-10.8042973491
 20
7.5739487135
 30
0
 10
-11.8204499959
 20
7.5069059084
 30
0
  0
ARC
  5
42
330
0
100
AcDbEntity
  8
Spur
 62
     7
100
AcDbCircle
 10
-0.0000000003
 20
-0.0000000004
 30
0
 40
14.0027381045
100
AcDbArc
 50
147.581274
 51
152.418726
  0
SPLINE
  5
43
330
0
100
AcDbEntity
  8
Spur
 62
     7
100
AcDbSpline
 70
     8
 71
     3
 72
     8
 73
     4
 74
     0
 40
0
 40
0
 40
0
 40
0
 40
1
 40
1
 40
1
 40
1
 10
-12.4113962185
 20
6.4833570264
 30
0
 10
-11.9613806674
 20
5.5698216176
 30
0
 10
-11.4786502067
 20
4.991884138
 30
0
 10
-11.1077722537
 20
4.6438033859
 30
0
  0
SPLINE
  5
44
330
0
100
AcDbEntity
  8
Spur
 62
     7
100
AcDbSpline
 70
     8
 71
     3
 72
     8
 73
     4
 74
     0
 40
0
 40
0
 40
0
 40
0
 40
1
 40
1
 40
1
 40
1
 10
-11.1077722537
 20
4.6438033859
 30
0
 10
-10.7936565978
 20
4.3504906002
 30
0
 10
-10.5761052825
 20
4.2306541602
 30
0
 10
-10.5016082074
 20
4.1942483671
 30
0
  0
LINE
  5
45
330
0
100
AcDbEntity
  8
Spur
 62
     7
100
AcDbLine
 10
-10.5016082074
 20
4.1942483671
 30
0
 11
-9.1863410412
 21
3.6689424277
 31
0
  0
ARC
  5
46
330
0
100
AcDbEntity
  8
Spur
 62
     7
100
AcDbCircle
 10
-9.3347020494
 20
3.2974738984
 30
0
 40
0.3999998213
100
AcDbArc
 50
340.54431
 51
68.228701
  0
ARC
  5
47
330
0
100
AcDbEntity
  8
Spur
 62
     7
100
AcDbCircle
 10
0
 20
-0.0000000002
 30
0
 40
9.5
100
AcDbArc
 50
160.544284
 51
169.455716
  0
ARC
  5
48
330
0
100
AcDbEntity
  8
Spur
 62
     7
100
AcDbCircle
 10
-9.7328260607
 20
1.8116548604
 30
0
 40
0.3999998213
100
AcDbArc
 50
261.771299
 51
349.45569
  0
LINE
  5
49
330
0
100
AcDbEntity
  8
Spur
 62
     7
100
AcDbLine
 10
-9.7900759234
 20
1.4157731732
 30
0
 11
-11.1917836717
 21
1.618478468
 31
0
  0
SPLINE
  5
4A
330
0
100
AcDbEntity
  8
Spur
 62
     7
100
AcDbSpline
 70
     8
 71
     3
 72
     8
 73
     4
 74
     0
 40
0
 40
0
 40
0
 40
0
 40
1
 40
1
 40
1
 40
1
 10
-11.1917836717
 20
1.618478468
 30
0
 10
-11.2745029278
 20
1.6241986639
 30
0
 10
-11.5228261135
 20
1.6291929202
 30
0
 10
-11.9415146441
 20
1.5322344245
 30
0
  0
SPLINE
  5
4B
330
0
100
AcDbEntity
  8
Spur
 62
     7
100
AcDbSpline
 70
     8
 71
     3
 72
     8
 73
     4
 74
     0
 40
0
 40
0
 40
0
 40
0
 40
1
 40
1
 40
1
 40
1
 10
-11.9415146441
 20
1.5322344245
 30
0
 10
-12.4367447491
 20
1.4162266271
 30
0
 10
-13.1437703311
 20
1.1570833183
 30
0
 10
-13.9902629348
 20
0.5909462226
 30
0
  0
ARC
  5
4C
330
0
100
AcDbEntity
  8
Spur
 62
     7
100
AcDbCircle
 10
0
 20
0
 30
0
 40
14.0027381045
100
AcDbArc
 50
177.581274
 51
182.418726
  0
SPLINE
  5
4D
330
0
100
AcDbEntity
  8
Spur
 62
     7
100
AcDbSpline
 70
     8
 71
     3
 72
     8
 73
     4
 74
     0
 40
0
 40
0
 40
0
 40
0
 40
1
 40
1
 40
1
 40
1
 10
-13.9902629348
 20
-0.5909462226
 30
0
 10
-13.1437703311
 20
-1.1570833183
 30
0
 10
-12.4367447491
 20
-1.4162266271
 30
0
 10
-11.9415146441
 20
-1.5322344245
 30
0
  0
SPLINE
  5
4E
330
0
100
AcDbEntity
  8
Spur
 62
     7
100
AcDbSpline
 70
     8
 71
     3
 72
     8
 73
     4
 74
     0
 40
0
 40
0
 40
0
 40
0
 40
1
 40
1
 40
1
 40
1
 10
-11.9415146441
 20
-1.5322344245
 30
0
 10
-11.5228261135
 20
-1.6291929202
 30
0
 10
-11.2745029278
 20
-1.6241986639
 30
0
 10
-11.1917836717
 20
-1.618478468
 30
0
  0
LINE
  5
4F
330
0
100
AcDbEntity
  8
Spur
 62
     7
100
AcDbLine
 10
-11.1917836717
 20
-1.618478468
 30
0
 11
-9.7900759234
 21
-1.4157731732
 31
0
  0
ARC
  5
50
330
0
100
AcDbEntity
  8
Spur
 62
     7
100
AcDbCircle
 10
-9.7328260607
 20
-1.8116548604
 30
0
 40
0.3999998213
100
AcDbArc
 50
10.54431
 51
98.228701
  0
ARC
  5
51
330
0
100
AcDbEntity
  8
Spur
 62
     7
100
AcDbCircle
 10
0.0000000001
 20
-0.0000000004
 30
0
 40
9.5
100
AcDbArc
 50
190.544284
 51
199.455716
  0
ARC
  5
52
330
0
100
AcDbEntity
  8
Spur
 62
     7
100
AcDbCircle
 10
-9.3347020495
 20
-3.2974738984
 30
0
 40
0.3999998213
100
AcDbArc
 50
291.771299
 51
19.45569
  0
LINE
  5
53
330
0
100
AcDbEntity
  8
Spur
 62
     7
100
AcDbLine
 10
-9.1863410412
 20
-3.6689424277
 30
0
 11
-10.5016082074
 21
-4.1942483671
 31
0
  0
SPLINE
  5
54
330
0
100
AcDbEntity
  8
Spur
 62
     7
100
AcDbSpline
 70
     8
 71
     3
 72
     8
 73
     4
 74
     0
 40
0
 40
0
 40
0
 40
0
 40
1
 40
1
 40
1
 40
1
 10
-10.5016082074
 20
-4.1942483671
 30
0
 10
-10.5761052825
 20
-4.2306541602
 30
0
 10
-10.7936565978
 20
-4.3504906002
 30
0
 10
-11.1077722537
 20
-4.6438033859
 30
0
  0
SPLINE
  5
55
330
0
100
AcDbEntity
  8
Spur
 62
     7
100
AcDbSpline
 70
     8
 71
     3
 72
     8
 73
     4
 74
     0
 40
0
 40
0
 40
0
 40
0
 40
1
 40
1
 40
1
 40
1
 10
-11.1077722537
 20
-4.6438033859
 30
0
 10
-11.4786502067
 20
-4.991884138
 30
0
 10
-11.9613806674
 20
-5.5698216176
 30
0
 10
-12.4113962185
 20
-6.4833570264
 30
0
  0
ARC
  5
56
330
0
100
AcDbEntity
  8
Spur
 62
     7
100
AcDbCircle
 10
-0.0000000003
 20
0.0000000004
 30
0
 40
14.0027381045
100
AcDbArc
 50
207.581274
 51
212.418726
  0
SPLINE
  5
57
330
0
100
AcDbEntity
  8
Spur
 62
     7
100
AcDbSpline
 70
     8
 71
     3
 72
     8
 73
     4
 74
     0
 40
0
 40
0
 40
0
 40
0
 40
1
 40
1
 40
1
 40
1
 10
-11.8204499959
 20
-7.5069059084
 30
0
 10
-10.8042973491
 20
-7.5739487135
 30
0
 10
-10.0624235796
 20
-7.4448606111
 30
0
 10
-9.5755378292
 20
-7.2977112582
 30
0
  0
SPLINE
  5
58
330
0
100
AcDbEntity
  8
Spur
 62
     7
100
AcDbSpline
 70
     8
 71
     3
 72
     8
 73
     4
 74
     0
 40
0
 40
0
 40
0
 40
0
 40
1
 40
1
 40
1
 40
1
 10
-9.5755378292
 20
-7.2977112582
 30
0
 10
-9.1644636776
 20
-7.1723355133
 30
0
 10
-8.9519066186
 20
-7.0438487676
 30
0
 10
-8.8831297394
 20
-6.9975353046
 30
0
  0
LINE
  5
59
330
0
100
AcDbEntity
  8
Spur
 62
     7
100
AcDbLine
 10
-8.8831297394
 20
-6.9975353046
 30
0
 11
-7.770567868
 21
-6.1211334957
 31
0
  0
ARC
  5
5A
330
0
100
AcDbEntity
  8
Spur
 62
     7
100
AcDbCircle
 10
-7.5230471891
 20
-6.4353521625
 30
0
 40
0.3999998213
100
AcDbArc
 50
40.54431
 51
128.228701
  0
ARC
  5
5B
330
0
100
AcDbEntity
  8
Spur
 62
     7
100
AcDbCircle
 10
-0.0000000001
 20
-0.0000000001
 30
0
 40
9.4999999999
100
AcDbArc
 50
220.544284
 51
229.455716
  0
ARC
  5
5C
330
0
100
AcDbEntity
  8
Spur
 62
     7
100
AcDbCircle
 10
-6.4353521625
 20
-7.5230471891
 30
0
 40
0.3999998213
100
AcDbArc
 50
321.771299
 51
49.45569
  0
LINE
  5
5D
330
0
100
AcDbEntity
  8
Spur
 62
     7
100
AcDbLine
 10
-6.1211334957
 20
-7.770567868
 30
0
 11
-6.9975353046
 21
-8.8831297394
 31
0
  0
SPLINE
  5
5E
330
0
100
AcDbEntity
  8
Spur
 62
     7
100
AcDbSpline
 70
     8
 71
     3
 72
     8
 73
     4
 74
     0
 40
0
 40
0
 40
0
 40
0
 40
1
 40
1
 40
1
 40
1
 10
-6.9975353046
 20
-8.8831297394
 30
0
 10
-7.0438487676
 20
-8.9519066186
 30
0
 10
-7.1723355133
 20
-9.1644636776
 30
0
 10
-7.2977112582
 20
-9.5755378292
 30
0
  0
SPLINE
  5
5F
330
0
100
AcDbEntity
  8
Spur
 62
     7
100
AcDbSpline
 70
     8
 71
     3
 72
     8
 73
     4
 74
     0
 40
0
 40
0
 40
0
 40
0
 40
1
 40
1
 40
1
 40
1
 10
-7.2977112582
 20
-9.5755378292
 30
0
 10
-7.4448606111
 20
-10.0624235796
 30
0
 10
-7.5739487135
 20
-10.8042973491
 30
0
 10
-7.5069059084
 20
-11.8204499959
 30
0
  0
ARC
  5
60
330
0
100
AcDbEntity
  8
Spur
 62
     7
100
AcDbCircle
 10
0.0000000004
 20
-0.0000000003
 30
0
 40
14.0027381045
100
AcDbArc
 50
237.581274
 51
242.418726
  0
SPLINE
  5
61
330
0
100
AcDbEntity
  8
Spur
 62
     7
100
AcDbSpline
 70
     8
 71
     3
 72
     8
 73
     4
 74
     0
 40
0
 40
0
 40
0
 40
0
 40
1
 40
1
 40
1
 40
1
 10
-6.4833570264
 20
-12.4113962185
 30
0
 10
-5.5698216176
 20
-11.9613806674
 30
0
 10
-4.991884138
 20
-11.4786502067
 30
0
 10
-4.6438033859
 20
-11.1077722537
 30
0
  0
SPLINE
  5
62
330
0
100
AcDbEntity
  8
Spur
 62
     7
100
AcDbSpline
 70
     8
 71
     3
 72
     8
 73
     4
 74
     0
 40
0
 40
0
 40
0
 40
0
 40
1
 40
1
 40
1
 40
1
 10
-4.6438033859
 20
-11.1077722537
 30
0
 10
-4.3504906002
 20
-10.7936565978
 30
0
 10
-4.2306541602
 20
-10.5761052825
 30
0
 10
-4.1942483671
 20
-10.5016082074
 30
0
  0
LINE
  5
63
330
0
100
AcDbEntity
  8
Spur
 62
     7
100
AcDbLine
 10
-4.1942483671
 20
-10.5016082074
 30
0
 11
-3.6689424277
 21
-9.1863410412
 31
0
  0
ARC
  5
64
330
0
100
AcDbEntity
  8
Spur
 62
     7
100
AcDbCircle
 10
-3.2974738984
 20
-9.3347020495
 30
0
 40
0.3999998213
100
AcDbArc
 50
70.54431
 51
158.228701
  0
ARC
  5
65
330
0
100
AcDbEntity
  8
Spur
 62
     7
100
AcDbCircle
 10
0.0000000002
 20
-0.0000000001
 30
0
 40
9.5
100
AcDbArc
 50
250.544284
 51
259.455716
  0
ARC
  5
66
330
0
100
AcDbEntity
  8
Spur
 62
     7
100
AcDbCircle
 10
-1.8116548604
 20
-9.7328260608
 30
0
 40
0.3999998213
100
AcDbArc
 50
351.771299
 51
79.45569
  0
LINE
  5
67
330
0
100
AcDbEntity
  8
Spur
 62
     7
100
AcDbLine
 10
-1.4157731732
 20
-9.7900759234
 30
0
 11
-1.618478468
 21
-11.1917836717
 31
0
  0
SPLINE
  5
68
330
0
100
AcDbEntity
  8
Spur
 62
     7
100
AcDbSpline
 70
     8
 71
     3
 72
     8
 73
     4
 74
     0
 40
0
 40
0
 40
0
 40
0
 40
1
 40
1
 40
1
 40
1
 10
-1.618478468
 20
-11.1917836717
 30
0
 10
-1.6241986639
 20
-11.2745029278
 30
0
 10
-1.6291929202
 20
-11.5228261135
 30
0
 10
-1.5322344245
 20
-11.9415146441
 30
0
  0
SPLINE
  5
69
330
0
100
AcDbEntity
  8
Spur
 62
     7
100
AcDbSpline
 70
     8
 71
     3
 72
     8
 73
     4
 74
     0
 40
0
 40
0
 40
0
 40
0
 40
1
 40
1
 40
1
 40
1
 10
-1.5322344245
 20
-11.9415146441
 30
0
 10
-1.4162266271
 20
-12.4367447491
 30
0
 10
-1.1570833183
 20
-13.1437703311
 30
0
 10
-0.5909462226
 20
-13.9902629348
 30
0
  0
ARC
  5
6A
330
0
100
AcDbEntity
  8
Spur
 62
     7
100
AcDbCircle
 10
0
 20
0
 30
0
 40
14.0027381045
100
AcDbArc
 50
267.581274
 51
272.418726
  0
SPLINE
  5
6B
330
0
100
AcDbEntity
  8
Spur
 62
     7
100
AcDbSpline
 70
     8
 71
     3
 72
     8
 73
     4
 74
     0
 40
0
 40
0
 40
0
 40
0
 40
1
 40
1
 40
1
 40
1
 10
0.5909462226
 20
-13.9902629348
 30
0
 10
1.1570833183
 20
-13.1437703311
 30
0
 10
1.4162266271
 20
-12.4367447491
 30
0
 10
1.5322344245
 20
-11.9415146441
 30
0
  0
SPLINE
  5
6C
330
0
100
AcDbEntity
  8
Spur
 62
     7
100
AcDbSpline
 70
     8
 71
     3
 72
     8
 73
     4
 74
     0
 40
0
 40
0
 40
0
 40
0
 40
1
 40
1
 40
1
 40
1
 10
1.5322344245
 20
-11.9415146441
 30
0
 10
1.6291929202
 20
-11.5228261135
 30
0
 10
1.6241986639
 20
-11.2745029278
 30
0
 10
1.618478468
 20
-11.1917836717
 30
0
  0
LINE
  5
6D
330
0
100
AcDbEntity
  8
Spur
 62
     7
100
AcDbLine
 10
1.618478468
 20
-11.1917836717
 30
0
 11
1.4157731732
 21
-9.7900759234
 31
0
  0
ARC
  5
6E
330
0
100
AcDbEntity
  8
Spur
 62
     7
100
AcDbCircle
 10
1.8116548604
 20
-9.7328260607
 30
0
 40
0.3999998213
100
AcDbArc
 50
100.54431
 51
188.228701
  0
ARC
  5
6F
330
0
100
AcDbEntity
  8
Spur
 62
     7
100
AcDbCircle
 10
0.0000000004
 20
0.0000000001
 30
0
 40
9.5
100
AcDbArc
 50
280.544284
 51
289.455716
  0
ARC
  5
70
330
0
100
AcDbEntity
  8
Spur
 62
     7
100
AcDbCircle
 10
3.2974738984
 20
-9.3347020495
 30
0
 40
0.3999998213
100
AcDbArc
 50
21.771299
 51
109.45569
  0
LINE
  5
71
330
0
100
AcDbEntity
  8
Spur
 62
     7
100
AcDbLine
 10
3.6689424277
 20
-9.1863410412
 30
0
 11
4.1942483671
 21
-10.5016082074
 31
0
  0
SPLINE
  5
72
330
0
100
AcDbEntity
  8
Spur
 62
     7
100
AcDbSpline
 70
     8
 71
     3
 72
     8
 73
     4
 74
     0
 40
0
 40
0
 40
0
 40
0
 40
1
 40
1
 40
1
 40
1
 10
4.1942483671
 20
-10.5016082074
 30
0
 10
4.2306541602
 20
-10.5761052825
 30
0
 10
4.3504906002
 20
-10.7936565978
 30
0
 10
4.6438033859
 20
-11.1077722537
 30
0
  0
SPLINE
  5
73
330
0
100
AcDbEntity
  8
Spur
 62
     7
100
AcDbSpline
 70
     8
 71
     3
 72
     8
 73
     4
 74
     0
 40
0
 40
0
 40
0
 40
0
 40
1
 40
1
 40
1
 40
1
 10
4.6438033859
 20
-11.1077722537
 30
0
 10
4.991884138
 20
-11.4786502067
 30
0
 10
5.5698216176
 20
-11.9613806674
 30
0
 10
6.4833570264
 20
-12.4113962185
 30
0
  0
ARC
  5
74
330
0
100
AcDbEntity
  8
Spur
 62
     7
100
AcDbCircle
 10
-0.0000000004
 20
-0.0000000003
 30
0
 40
14.0027381045
100
AcDbArc
 50
297.581274
 51
302.418726
  0
SPLINE
  5
75
330
0
100
AcDbEntity
  8
Spur
 62
     7
100
AcDbSpline
 70
     8
 71
     3
 72
     8
 73
     4
 74
     0
 40
0
 40
0
 40
0
 40
0
 40
1
 40
1
 40
1
 40
1
 10
7.5069059084
 20
-11.8204499959
 30
0
 10
7.5739487135
 20
-10.8042973491
 30
0
 10
7.4448606111
 20
-10.0624235796
 30
0
 10
7.2977112582
 20
-9.5755378292
 30
0
  0
SPLINE
  5
76
330
0
100
AcDbEntity
  8
Spur
 62
     7
100
AcDbSpline
 70
     8
 71
     3
 72
     8
 73
     4
 74
     0
 40
0
 40
0
 40
0
 40
0
 40
1
 40
1
 40
1
 40
1
 10
7.2977112582
 20
-9.5755378292
 30
0
 10
7.1723355133
 20
-9.1644636776
 30
0
 10
7.0438487676
 20
-8.9519066186
 30
0
 10
6.9975353046
 20
-8.8831297394
 30
0
  0
LINE
  5
77
330
0
100
AcDbEntity
  8
Spur
 62
     7
100
AcDbLine
 10
6.9975353046
 20
-8.8831297394
 30
0
 11
6.1211334957
 21
-7.770567868
 31
0
  0
ARC
  5
78
330
0
100
AcDbEntity
  8
Spur
 62
     7
100
AcDbCircle
 10
6.4353521625
 20
-7.5230471891
 30
0
 40
0.3999998213
100
AcDbArc
 50
130.54431
 51
218.228701
  0
ARC
  5
79
330
0
100
AcDbEntity
  8
Spur
 62
     7
100
AcDbCircle
 10
0.0000000001
 20
-0.0000000001
 30
0
 40
9.4999999999
100
AcDbArc
 50
310.544284
 51
319.455716
  0
ARC
  5
7A
330
0
100
AcDbEntity
  8
Spur
 62
     7
100
AcDbCircle
 10
7.5230471891
 20
-6.4353521625
 30
0
 40
0.3999998213
100
AcDbArc
 50
51.771299
 51
139.45569
  0
LINE
  5
7B
330
0
100
AcDbEntity
  8
Spur
 62
     7
100
AcDbLine
 10
7.770567868
 20
-6.1211334957
 30
0
 11
8.8831297394
 21
-6.9975353046
 31
0
  0
SPLINE
  5
7C
330
0
100
AcDbEntity
  8
Spur
 62
     7
100
AcDbSpline
 70
     8
 71
     3
 72
     8
 73
     4
 74
     0
 40
0
 40
0
 40
0
 40
0
 40
1
 40
1
 40
1
 40
1
 10
8.8831297394
 20
-6.9975353046
 30
0
 10
8.9519066186
 20
-7.0438487676
 30
0
 10
9.1644636776
 20
-7.1723355133
 30
0
 10
9.5755378292
 20
-7.2977112582
 30
0
  0
SPLINE
  5
7D
330
0
100
AcDbEntity
  8
Spur
 62
     7
100
AcDbSpline
 70
     8
 71
     3
 72
     8
 73
     4
 74
     0
 40
0
 40
0
 40
0
 40
0
 40
1
 40
1
 40
1
 40
1
 10
9.5755378292
 20
-7.2977112582
 30
0
 10
10.0624235796
 20
-7.4448606111
 30
0
 10
10.8042973491
 20
-7.5739487135
 30
0
 10
11.8204499959
 20
-7.5069059084
 30
0
  0
ARC
  5
7E
330
0
100
AcDbEntity
  8
Spur
 62
     7
100
AcDbCircle
 10
0.0000000003
 20
0.0000000004
 30
0
 40
14.0027381045
100
AcDbArc
 50
327.581274
 51
332.418726
  0
SPLINE
  5
7F
330
0
100
AcDbEntity
  8
Spur
 62
     7
100
AcDbSpline
 70
     8
 71
     3
 72
     8
 73
     4
 74
     0
 40
0
 40
0
 40
0
 40
0
 40
1
 40
1
 40
1
 40
1
 10
12.4113962185
 20
-6.4833570264
 30
0
 10
11.9613806674
 20
-5.5698216176
 30
0
 10
11.4786502067
 20
-4.991884138
 30
0
 10
11.1077722537
 20
-4.6438033859
 30
0
  0
SPLINE
  5
80
330
0
100
AcDbEntity
  8
Spur
 62
     7
100
AcDbSpline
 70
     8
 71
     3
 72
     8
 73
     4
 74
     0
 40
0
 40
0
 40
0
 40
0
 40
1
 40
1
 40
1
 40
1
 10
11.1077722537
 20
-4.6438033859
 30
0
 10
10.7936565978
 20
-4.3504906002
 30
0
 10
10.5761052825
 20
-4.2306541602
 30
0
 10
10.5016082074
 20
-4.1942483671
 30
0
  0
LINE
  5
81
330
0
100
AcDbEntity
  8
Spur
 62
     7
100
AcDbLine
 10
10.5016082074
 20
-4.1942483671
 30
0
 11
9.1863410412
 21
-3.6689424277
 31
0
  0
ARC
  5
82
330
0
100
AcDbEntity
  8
Spur
 62
     7
100
AcDbCircle
 10
9.3347020495
 20
-3.2974738984
 30
0
 40
0.3999998213
100
AcDbArc
 50
160.54431
 51
248.228701
  0
ENDSEC
  0
SECTION
  2
OBJECTS
  0
DICTIONARY
  5
97
330
0
100
AcDbDictionary
  3
ACAD_GROUP
350
98
  0
DICTIONARY
  5
98
330
97
100
AcDbDictionary
  0
ENDSEC
  0
EOF
