  0
SECTION
  2
HEADER
  9
$INSUNITS
 70
     4
  9
$MEASUREMENT
 70
     1
  9
$ACADVER
  1
AC1012
  9
$HANDSEED
  5
C1
  0
ENDSEC
  0
SECTION
  2
TABLES
  0
TABLE
  2
LAYER
  5
4
330
0
100
AcDbSymbolTable
 70
     4
  0
LAYER
  5
5
330
4
100
AcDbSymbolTableRecord
100
AcDbLayerTableRecord
  2
1
 70
     0
 62
     7
  0
LAYER
  5
6
330
4
100
AcDbSymbolTableRecord
100
AcDbLayerTableRecord
  2
Spur
 70
     0
 62
     7
  6
Continuous
  0
LAYER
  5
9
330
4
100
AcDbSymbolTableRecord
100
AcDbLayerTableRecord
  2
decor
 70
     0
 62
     6
  6
Dash
  0
LAYER
  5
B0
330
4
100
AcDbSymbolTableRecord
100
AcDbLayerTableRecord
  2
0
 70
     0
  6
Continuous
  0
ENDTAB
  0
TABLE
  2
LTYPE
  5
7
330
0
100
AcDbSymbolTable
 70
     4
  0
LTYPE
  5
8
330
7
100
AcDbSymbolTableRecord
100
AcDbLinetypeTableRecord
  2
Continuous
 70
     0
  3
_
 72
    65
 73
     0
 40
0
  0
LTYPE
  5
A
330
7
100
AcDbSymbolTableRecord
100
AcDbLinetypeTableRecord
  2
Dash
 70
     0
  3
_
 72
    65
 73
     0
 40
0
  0
LTYPE
  5
AE
330
7
100
AcDbSymbolTableRecord
100
AcDbLinetypeTableRecord
  2
BYBLOCK
 70
     0
  3
 
 72
    65
 73
     0
 40
0
  0
LTYPE
  5
AF
330
7
100
AcDbSymbolTableRecord
100
AcDbLinetypeTableRecord
  2
BYLAYER
 70
     0
  3
 
 72
    65
 73
     0
 40
0
  0
ENDTAB
  0
TABLE
  2
VPORT
  5
AB
330
0
100
AcDbSymbolTable
 70
     0
  0
ENDTAB
  0
TABLE
  2
VIEW
  5
AC
330
0
100
AcDbSymbolTable
 70
     0
  0
ENDTAB
  0
TABLE
  2
UCS
  5
AD
330
0
100
AcDbSymbolTable
 70
     0
  0
ENDTAB
  0
TABLE
  2
STYLE
  5
B1
330
0
100
AcDbSymbolTable
 70
     1
  0
STYLE
  5
B2
330
B1
100
AcDbSymbolTableRecord
100
AcDbTextStyleTableRecord
  2
STANDARD
 70
     0
 40
0
 41
1
 50
0
 71
     0
 42
1
  0
ENDTAB
  0
TABLE
  2
APPID
  5
B3
330
0
100
AcDbSymbolTable
 70
     1
  0
APPID
  5
B4
330
B3
100
AcDbSymbolTableRecord
100
AcDbRegAppTableRecord
  2
ACAD
 70
     0
  0
ENDTAB
  0
TABLE
  2
DIMSTYLE
  5
B5
330
0
100
AcDbSymbolTable
 70
     0
  0
ENDTAB
  0
TABLE
  2
BLOCK_RECORD
  5
B6
330
0
100
AcDbSymbolTable
 70
     2
  0
BLOCK_RECORD
  5
B7
330
B6
100
AcDbSymbolTableRecord
100
AcDbBlockTableRecord
  2
*MODEL_SPACE
  0
BLOCK_RECORD
  5
B8
330
B6
100
AcDbSymbolTableRecord
100
AcDbBlockTableRecord
  2
*PAPER_SPACE
  0
ENDTAB
  0
ENDSEC
  0
SECTION
  2
BLOCKS
  0
BLOCK
  5
BA
330
B7
100
AcDbEntity
  8
0
100
AcDbBlockBegin
  2
*MODEL_SPACE
 70
     0
 10
0
 20
0
 30
0
  0
ENDBLK
  5
BB
330
B7
100
AcDbEntity
  8
0
100
AcDbBlockEnd
  0
BLOCK
  5
BC
330
B8
100
AcDbEntity
  8
0
100
AcDbBlockBegin
  2
*PAPER_SPACE
 70
     0
 10
0
 20
0
 30
0
  0
ENDBLK
  5
BD
330
B8
100
AcDbEntity
  8
0
100
AcDbBlockEnd
  0
ENDSEC
  0
SECTION
  2
ENTITIES
  0
ARC
  5
B
330
0
100
AcDbEntity
  8
Spur
 62
     7
100
AcDbCircle
 10
-0.0000000002
 20
-0.0000000002
 30
0
 40
6.7500000001
100
AcDbArc
 50
347.001884
 51
350.498116
  0
ARC
  5
C
330
0
100
AcDbEntity
  8
Spur
 62
     7
100
AcDbCircle
 10
7.0519032707
 20
-1.1803222669
 30
0
 40
0.4000000276
100
AcDbArc
 50
83.705153
 51
170.49812
  0
LINE
  5
D
330
0
100
AcDbEntity
  8
Spur
 62
     7
100
AcDbLine
 10
7.0957612397
 20
-0.7827339111
 30
0
 11
7.4889858133
 21
-0.8261105409
 31
0
  0
SPLINE
  5
E
330
0
100
AcDbEntity
  8
Spur
 62
     7
100
AcDbSpline
 70
     8
 71
     3
 72
     8
 73
     4
 74
     0
 40
0
 40
0
 40
0
 40
0
 40
1
 40
1
 40
1
 40
1
 10
7.4889858133
 20
-0.8261105409
 30
0
 10
7.5331821341
 20
-0.8280266465
 30
0
 10
7.6660613736
 20
-0.8279574239
 30
0
 10
7.8887755673
 20
-0.7775527682
 30
0
  0
SPLINE
  5
F
330
0
100
AcDbEntity
  8
Spur
 62
     7
100
AcDbSpline
 70
     8
 71
     3
 72
     8
 73
     4
 74
     0
 40
0
 40
0
 40
0
 40
0
 40
1
 40
1
 40
1
 40
1
 10
7.8887755673
 20
-0.7775527682
 30
0
 10
8.1533421169
 20
-0.7171674648
 30
0
 10
8.5332785603
 20
-0.5857641408
 30
0
 10
8.9960414175
 20
-0.3043105911
 30
0
  0
ARC
  5
10
330
0
100
AcDbEntity
  8
Spur
 62
     7
100
AcDbCircle
 10
0
 20
0
 30
0
 40
9.0011869285
100
AcDbArc
 50
358.062585
 51
1.937415
  0
SPLINE
  5
11
330
0
100
AcDbEntity
  8
Spur
 62
     7
100
AcDbSpline
 70
     8
 71
     3
 72
     8
 73
     4
 74
     0
 40
0
 40
0
 40
0
 40
0
 40
1
 40
1
 40
1
 40
1
 10
8.9960414175
 20
0.3043105911
 30
0
 10
8.5332785603
 20
0.5857641408
 30
0
 10
8.1533421169
 20
0.7171674648
 30
0
 10
7.8887755673
 20
0.7775527682
 30
0
  0
SPLINE
  5
12
330
0
100
AcDbEntity
  8
Spur
 62
     7
100
AcDbSpline
 70
     8
 71
     3
 72
     8
 73
     4
 74
     0
 40
0
 40
0
 40
0
 40
0
 40
1
 40
1
 40
1
 40
1
 10
7.8887755673
 20
0.7775527682
 30
0
 10
7.6660613736
 20
0.8279574239
 30
0
 10
7.5331821341
 20
0.8280266465
 30
0
 10
7.4889858133
 20
0.8261105409
 30
0
  0
LINE
  5
13
330
0
100
AcDbEntity
  8
Spur
 62
     7
100
AcDbLine
 10
7.4889858133
 20
0.8261105409
 30
0
 11
7.0957612397
 21
0.7827339111
 31
0
  0
ARC
  5
14
330
0
100
AcDbEntity
  8
Spur
 62
     7
100
AcDbCircle
 10
7.0519032708
 20
1.1803222669
 30
0
 40
0.4000000276
100
AcDbArc
 50
189.50188
 51
276.294847
  0
ARC
  5
15
330
0
100
AcDbEntity
  8
Spur
 62
     7
100
AcDbCircle
 10
0.0000000002
 20
-0.0000000014
 30
0
 40
6.75
100
AcDbArc
 50
9.501884
 51
12.998116
  0
ARC
  5
16
330
0
100
AcDbEntity
  8
Spur
 62
     7
100
AcDbCircle
 10
6.9667988735
 20
1.6081709642
 30
0
 40
0.4000000276
100
AcDbArc
 50
106.205153
 51
192.99812
  0
LINE
  5
17
330
0
100
AcDbEntity
  8
Spur
 62
     7
100
AcDbLine
 10
6.8551678767
 20
1.9922784266
 30
0
 11
7.2350595295
 21
2.1026841756
 31
0
  0
SPLINE
  5
18
330
0
100
AcDbEntity
  8
Spur
 62
     7
100
AcDbSpline
 70
     8
 71
     3
 72
     8
 73
     4
 74
     0
 40
0
 40
0
 40
0
 40
0
 40
1
 40
1
 40
1
 40
1
 10
7.2350595295
 20
2.1026841756
 30
0
 10
7.2766248675
 20
2.1178271246
 30
0
 10
7.3993627869
 20
2.1687417614
 30
0
 10
7.5858348454
 20
2.3005386233
 30
0
  0
SPLINE
  5
19
330
0
100
AcDbEntity
  8
Spur
 62
     7
100
AcDbSpline
 70
     8
 71
     3
 72
     8
 73
     4
 74
     0
 40
0
 40
0
 40
0
 40
0
 40
1
 40
1
 40
1
 40
1
 10
7.5858348454
 20
2.3005386233
 30
0
 10
7.8071540104
 20
2.4575726044
 30
0
 10
8.107883639
 20
2.7243688282
 30
0
 10
8.4277131608
 20
3.1614896807
 30
0
  0
ARC
  5
1A
330
0
100
AcDbEntity
  8
Spur
 62
     7
100
AcDbCircle
 10
0.0000000004
 20
-0.000000001
 30
0
 40
9.0011869285
100
AcDbArc
 50
20.562585
 51
24.437415
  0
SPLINE
  5
1B
330
0
100
AcDbEntity
  8
Spur
 62
     7
100
AcDbSpline
 70
     8
 71
     3
 72
     8
 73
     4
 74
     0
 40
0
 40
0
 40
0
 40
0
 40
1
 40
1
 40
1
 40
1
 10
8.1948039177
 20
3.723782334
 30
0
 10
7.6595591751
 20
3.8067198293
 30
0
 10
7.2582577964
 20
3.7827252887
 30
0
 10
6.990721721
 20
3.7372687992
 30
0
  0
SPLINE
  5
1C
330
0
100
AcDbEntity
  8
Spur
 62
     7
100
AcDbSpline
 70
     8
 71
     3
 72
     8
 73
     4
 74
     0
 40
0
 40
0
 40
0
 40
0
 40
1
 40
1
 40
1
 40
1
 10
6.990721721
 20
3.7372687992
 30
0
 10
6.7656716092
 20
3.6986075969
 30
0
 10
6.6428807092
 20
3.6478208668
 30
0
 10
6.6027818949
 20
3.6291374163
 30
0
  0
LINE
  5
1D
330
0
100
AcDbEntity
  8
Spur
 62
     7
100
AcDbLine
 10
6.6027818949
 20
3.6291374163
 30
0
 11
6.2560892772
 21
3.4385821063
 31
0
  0
ARC
  5
1E
330
0
100
AcDbEntity
  8
Spur
 62
     7
100
AcDbCircle
 10
6.0634193207
 20
3.7891221325
 30
0
 40
0.4000000276
100
AcDbArc
 50
212.00188
 51
298.794847
  0
ARC
  5
1F
330
0
100
AcDbEntity
  8
Spur
 62
     7
100
AcDbCircle
 10
-0.0000000004
 20
0.0000000003
 30
0
 40
6.7500000001
100
AcDbArc
 50
32.001884
 51
35.498116
  0
ARC
  5
20
330
0
100
AcDbEntity
  8
Spur
 62
     7
100
AcDbCircle
 10
5.8210625019
 20
4.1518347442
 30
0
 40
0.4000000276
100
AcDbArc
 50
128.705153
 51
215.49812
  0
LINE
  5
21
330
0
100
AcDbEntity
  8
Spur
 62
     7
100
AcDbLine
 10
5.5709373467
 20
4.4639844339
 30
0
 11
5.8796610183
 21
4.7113642873
 31
0
  0
SPLINE
  5
22
330
0
100
AcDbEntity
  8
Spur
 62
     7
100
AcDbSpline
 70
     8
 71
     3
 72
     8
 73
     4
 74
     0
 40
0
 40
0
 40
0
 40
0
 40
1
 40
1
 40
1
 40
1
 10
5.8796610183
 20
4.7113642873
 30
0
 10
5.9122674277
 20
4.7412609142
 30
0
 10
6.0061782912
 20
4.8352696733
 30
0
 10
6.128019534
 20
5.0283938638
 30
0
  0
SPLINE
  5
23
330
0
100
AcDbEntity
  8
Spur
 62
     7
100
AcDbSpline
 70
     8
 71
     3
 72
     8
 73
     4
 74
     0
 40
0
 40
0
 40
0
 40
0
 40
1
 40
1
 40
1
 40
1
 10
6.128019534
 20
5.0283938638
 30
0
 10
6.2723974778
 20
5.2581695226
 30
0
 10
6.4481369319
 20
5.6197413396
 30
0
 10
6.5763419727
 20
6.1459818076
 30
0
  0
ARC
  5
24
330
0
100
AcDbEntity
  8
Spur
 62
     7
100
AcDbCircle
 10
0
 20
0
 30
0
 40
9.0011869285
100
AcDbArc
 50
43.062585
 51
46.937415
  0
SPLINE
  5
25
330
0
100
AcDbEntity
  8
Spur
 62
     7
100
AcDbSpline
 70
     8
 71
     3
 72
     8
 73
     4
 74
     0
 40
0
 40
0
 40
0
 40
0
 40
1
 40
1
 40
1
 40
1
 10
6.1459818076
 20
6.5763419727
 30
0
 10
5.6197413396
 20
6.4481369319
 30
0
 10
5.2581695226
 20
6.2723974778
 30
0
 10
5.0283938638
 20
6.128019534
 30
0
  0
SPLINE
  5
26
330
0
100
AcDbEntity
  8
Spur
 62
     7
100
AcDbSpline
 70
     8
 71
     3
 72
     8
 73
     4
 74
     0
 40
0
 40
0
 40
0
 40
0
 40
1
 40
1
 40
1
 40
1
 10
5.0283938638
 20
6.128019534
 30
0
 10
4.8352696733
 20
6.0061782912
 30
0
 10
4.7412609142
 20
5.9122674277
 30
0
 10
4.7113642873
 20
5.8796610183
 30
0
  0
LINE
  5
27
330
0
100
AcDbEntity
  8
Spur
 62
     7
100
AcDbLine
 10
4.7113642873
 20
5.8796610183
 30
0
 11
4.4639844339
 21
5.5709373467
 31
0
  0
ARC
  5
28
330
0
100
AcDbEntity
  8
Spur
 62
     7
100
AcDbCircle
 10
4.1518347442
 20
5.8210625019
 30
0
 40
0.4000000276
100
AcDbArc
 50
234.50188
 51
321.294847
  0
ARC
  5
29
330
0
100
AcDbEntity
  8
Spur
 62
     7
100
AcDbCircle
 10
0.0000000004
 20
-0.0000000003
 30
0
 40
6.75
100
AcDbArc
 50
54.501884
 51
57.998116
  0
ARC
  5
2A
330
0
100
AcDbEntity
  8
Spur
 62
     7
100
AcDbCircle
 10
3.7891221325
 20
6.0634193207
 30
0
 40
0.4000000276
100
AcDbArc
 50
151.205153
 51
237.99812
  0
LINE
  5
2B
330
0
100
AcDbEntity
  8
Spur
 62
     7
100
AcDbLine
 10
3.4385821063
 20
6.2560892772
 30
0
 11
3.6291374163
 21
6.6027818949
 31
0
  0
SPLINE
  5
2C
330
0
100
AcDbEntity
  8
Spur
 62
     7
100
AcDbSpline
 70
     8
 71
     3
 72
     8
 73
     4
 74
     0
 40
0
 40
0
 40
0
 40
0
 40
1
 40
1
 40
1
 40
1
 10
3.6291374163
 20
6.6027818949
 30
0
 10
3.6478208668
 20
6.6428807092
 30
0
 10
3.6986075969
 20
6.7656716092
 30
0
 10
3.7372687992
 20
6.990721721
 30
0
  0
SPLINE
  5
2D
330
0
100
AcDbEntity
  8
Spur
 62
     7
100
AcDbSpline
 70
     8
 71
     3
 72
     8
 73
     4
 74
     0
 40
0
 40
0
 40
0
 40
0
 40
1
 40
1
 40
1
 40
1
 10
3.7372687992
 20
6.990721721
 30
0
 10
3.7827252887
 20
7.2582577964
 30
0
 10
3.8067198293
 20
7.6595591751
 30
0
 10
3.723782334
 20
8.1948039177
 30
0
  0
ARC
  5
2E
330
0
100
AcDbEntity
  8
Spur
 62
     7
100
AcDbCircle
 10
-0.000000001
 20
0.0000000004
 30
0
 40
9.0011869285
100
AcDbArc
 50
65.562585
 51
69.437415
  0
SPLINE
  5
2F
330
0
100
AcDbEntity
  8
Spur
 62
     7
100
AcDbSpline
 70
     8
 71
     3
 72
     8
 73
     4
 74
     0
 40
0
 40
0
 40
0
 40
0
 40
1
 40
1
 40
1
 40
1
 10
3.1614896807
 20
8.4277131608
 30
0
 10
2.7243688282
 20
8.107883639
 30
0
 10
2.4575726044
 20
7.8071540104
 30
0
 10
2.3005386233
 20
7.5858348454
 30
0
  0
SPLINE
  5
30
330
0
100
AcDbEntity
  8
Spur
 62
     7
100
AcDbSpline
 70
     8
 71
     3
 72
     8
 73
     4
 74
     0
 40
0
 40
0
 40
0
 40
0
 40
1
 40
1
 40
1
 40
1
 10
2.3005386233
 20
7.5858348454
 30
0
 10
2.1687417614
 20
7.3993627869
 30
0
 10
2.1178271246
 20
7.2766248675
 30
0
 10
2.1026841756
 20
7.2350595295
 30
0
  0
LINE
  5
31
330
0
100
AcDbEntity
  8
Spur
 62
     7
100
AcDbLine
 10
2.1026841756
 20
7.2350595295
 30
0
 11
1.9922784266
 21
6.8551678767
 31
0
  0
ARC
  5
32
330
0
100
AcDbEntity
  8
Spur
 62
     7
100
AcDbCircle
 10
1.6081709642
 20
6.9667988735
 30
0
 40
0.4000000276
100
AcDbArc
 50
257.00188
 51
343.794847
  0
ARC
  5
33
330
0
100
AcDbEntity
  8
Spur
 62
     7
100
AcDbCircle
 10
0.0000000002
 20
-0.0000000002
 30
0
 40
6.7500000001
100
AcDbArc
 50
77.001884
 51
80.498116
  0
ARC
  5
34
330
0
100
AcDbEntity
  8
Spur
 62
     7
100
AcDbCircle
 10
1.1803222669
 20
7.0519032707
 30
0
 40
0.4000000276
100
AcDbArc
 50
173.705153
 51
260.49812
  0
LINE
  5
35
330
0
100
AcDbEntity
  8
Spur
 62
     7
100
AcDbLine
 10
0.7827339111
 20
7.0957612397
 30
0
 11
0.8261105409
 21
7.4889858133
 31
0
  0
SPLINE
  5
36
330
0
100
AcDbEntity
  8
Spur
 62
     7
100
AcDbSpline
 70
     8
 71
     3
 72
     8
 73
     4
 74
     0
 40
0
 40
0
 40
0
 40
0
 40
1
 40
1
 40
1
 40
1
 10
0.8261105409
 20
7.4889858133
 30
0
 10
0.8280266465
 20
7.5331821341
 30
0
 10
0.8279574239
 20
7.6660613736
 30
0
 10
0.7775527682
 20
7.8887755673
 30
0
  0
SPLINE
  5
37
330
0
100
AcDbEntity
  8
Spur
 62
     7
100
AcDbSpline
 70
     8
 71
     3
 72
     8
 73
     4
 74
     0
 40
0
 40
0
 40
0
 40
0
 40
1
 40
1
 40
1
 40
1
 10
0.7775527682
 20
7.8887755673
 30
0
 10
0.7171674648
 20
8.1533421169
 30
0
 10
0.5857641408
 20
8.5332785603
 30
0
 10
0.3043105911
 20
8.9960414175
 30
0
  0
ARC
  5
38
330
0
100
AcDbEntity
  8
Spur
 62
     7
100
AcDbCircle
 10
0
 20
0
 30
0
 40
9.0011869285
100
AcDbArc
 50
88.062585
 51
91.937415
  0
SPLINE
  5
39
330
0
100
AcDbEntity
  8
Spur
 62
     7
100
AcDbSpline
 70
     8
 71
     3
 72
     8
 73
     4
 74
     0
 40
0
 40
0
 40
0
 40
0
 40
1
 40
1
 40
1
 40
1
 10
-0.3043105911
 20
8.9960414175
 30
0
 10
-0.5857641408
 20
8.5332785603
 30
0
 10
-0.7171674648
 20
8.1533421169
 30
0
 10
-0.7775527682
 20
7.8887755673
 30
0
  0
SPLINE
  5
3A
330
0
100
AcDbEntity
  8
Spur
 62
     7
100
AcDbSpline
 70
     8
 71
     3
 72
     8
 73
     4
 74
     0
 40
0
 40
0
 40
0
 40
0
 40
1
 40
1
 40
1
 40
1
 10
-0.7775527682
 20
7.8887755673
 30
0
 10
-0.8279574239
 20
7.6660613736
 30
0
 10
-0.8280266465
 20
7.5331821341
 30
0
 10
-0.8261105409
 20
7.4889858133
 30
0
  0
LINE
  5
3B
330
0
100
AcDbEntity
  8
Spur
 62
     7
100
AcDbLine
 10
-0.8261105409
 20
7.4889858133
 30
0
 11
-0.7827339111
 21
7.0957612397
 31
0
  0
ARC
  5
3C
330
0
100
AcDbEntity
  8
Spur
 62
     7
100
AcDbCircle
 10
-1.1803222669
 20
7.0519032708
 30
0
 40
0.4000000276
100
AcDbArc
 50
279.50188
 51
6.294847
  0
ARC
  5
3D
330
0
100
AcDbEntity
  8
Spur
 62
     7
100
AcDbCircle
 10
0.0000000014
 20
0.0000000002
 30
0
 40
6.75
100
AcDbArc
 50
99.501884
 51
102.998116
  0
ARC
  5
3E
330
0
100
AcDbEntity
  8
Spur
 62
     7
100
AcDbCircle
 10
-1.6081709642
 20
6.9667988735
 30
0
 40
0.4000000276
100
AcDbArc
 50
196.205153
 51
282.99812
  0
LINE
  5
3F
330
0
100
AcDbEntity
  8
Spur
 62
     7
100
AcDbLine
 10
-1.9922784266
 20
6.8551678767
 30
0
 11
-2.1026841756
 21
7.2350595295
 31
0
  0
SPLINE
  5
40
330
0
100
AcDbEntity
  8
Spur
 62
     7
100
AcDbSpline
 70
     8
 71
     3
 72
     8
 73
     4
 74
     0
 40
0
 40
0
 40
0
 40
0
 40
1
 40
1
 40
1
 40
1
 10
-2.1026841756
 20
7.2350595295
 30
0
 10
-2.1178271246
 20
7.2766248675
 30
0
 10
-2.1687417614
 20
7.3993627869
 30
0
 10
-2.3005386233
 20
7.5858348454
 30
0
  0
SPLINE
  5
41
330
0
100
AcDbEntity
  8
Spur
 62
     7
100
AcDbSpline
 70
     8
 71
     3
 72
     8
 73
     4
 74
     0
 40
0
 40
0
 40
0
 40
0
 40
1
 40
1
 40
1
 40
1
 10
-2.3005386233
 20
7.5858348454
 30
0
 10
-2.4575726044
 20
7.8071540104
 30
0
 10
-2.7243688282
 20
8.107883639
 30
0
 10
-3.1614896807
 20
8.4277131608
 30
0
  0
ARC
  5
42
330
0
100
AcDbEntity
  8
Spur
 62
     7
100
AcDbCircle
 10
0.000000001
 20
0.0000000004
 30
0
 40
9.0011869285
100
AcDbArc
 50
110.562585
 51
114.437415
  0
SPLINE
  5
43
330
0
100
AcDbEntity
  8
Spur
 62
     7
100
AcDbSpline
 70
     8
 71
     3
 72
     8
 73
     4
 74
     0
 40
0
 40
0
 40
0
 40
0
 40
1
 40
1
 40
1
 40
1
 10
-3.723782334
 20
8.1948039177
 30
0
 10
-3.8067198293
 20
7.6595591751
 30
0
 10
-3.7827252887
 20
7.2582577964
 30
0
 10
-3.7372687992
 20
6.990721721
 30
0
  0
SPLINE
  5
44
330
0
100
AcDbEntity
  8
Spur
 62
     7
100
AcDbSpline
 70
     8
 71
     3
 72
     8
 73
     4
 74
     0
 40
0
 40
0
 40
0
 40
0
 40
1
 40
1
 40
1
 40
1
 10
-3.7372687992
 20
6.990721721
 30
0
 10
-3.6986075969
 20
6.7656716092
 30
0
 10
-3.6478208668
 20
6.6428807092
 30
0
 10
-3.6291374163
 20
6.6027818949
 30
0
  0
LINE
  5
45
330
0
100
AcDbEntity
  8
Spur
 62
     7
100
AcDbLine
 10
-3.6291374163
 20
6.6027818949
 30
0
 11
-3.4385821063
 21
6.2560892772
 31
0
  0
ARC
  5
46
330
0
100
AcDbEntity
  8
Spur
 62
     7
100
AcDbCircle
 10
-3.7891221325
 20
6.0634193207
 30
0
 40
0.4000000276
100
AcDbArc
 50
302.00188
 51
28.794847
  0
ARC
  5
47
330
0
100
AcDbEntity
  8
Spur
 62
     7
100
AcDbCircle
 10
-0.0000000003
 20
-0.0000000004
 30
0
 40
6.7500000001
100
AcDbArc
 50
122.001884
 51
125.498116
  0
ARC
  5
48
330
0
100
AcDbEntity
  8
Spur
 62
     7
100
AcDbCircle
 10
-4.1518347442
 20
5.8210625019
 30
0
 40
0.4000000276
100
AcDbArc
 50
218.705153
 51
305.49812
  0
LINE
  5
49
330
0
100
AcDbEntity
  8
Spur
 62
     7
100
AcDbLine
 10
-4.4639844339
 20
5.5709373467
 30
0
 11
-4.7113642873
 21
5.8796610183
 31
0
  0
SPLINE
  5
4A
330
0
100
AcDbEntity
  8
Spur
 62
     7
100
AcDbSpline
 70
     8
 71
     3
 72
     8
 73
     4
 74
     0
 40
0
 40
0
 40
0
 40
0
 40
1
 40
1
 40
1
 40
1
 10
-4.7113642873
 20
5.8796610183
 30
0
 10
-4.7412609142
 20
5.9122674277
 30
0
 10
-4.8352696733
 20
6.0061782912
 30
0
 10
-5.0283938638
 20
6.128019534
 30
0
  0
SPLINE
  5
4B
330
0
100
AcDbEntity
  8
Spur
 62
     7
100
AcDbSpline
 70
     8
 71
     3
 72
     8
 73
     4
 74
     0
 40
0
 40
0
 40
0
 40
0
 40
1
 40
1
 40
1
 40
1
 10
-5.0283938638
 20
6.128019534
 30
0
 10
-5.2581695226
 20
6.2723974778
 30
0
 10
-5.6197413396
 20
6.4481369319
 30
0
 10
-6.1459818076
 20
6.5763419727
 30
0
  0
ARC
  5
4C
330
0
100
AcDbEntity
  8
Spur
 62
     7
100
AcDbCircle
 10
0
 20
0
 30
0
 40
9.0011869285
100
AcDbArc
 50
133.062585
 51
136.937415
  0
SPLINE
  5
4D
330
0
100
AcDbEntity
  8
Spur
 62
     7
100
AcDbSpline
 70
     8
 71
     3
 72
     8
 73
     4
 74
     0
 40
0
 40
0
 40
0
 40
0
 40
1
 40
1
 40
1
 40
1
 10
-6.5763419727
 20
6.1459818076
 30
0
 10
-6.4481369319
 20
5.6197413396
 30
0
 10
-6.2723974778
 20
5.2581695226
 30
0
 10
-6.128019534
 20
5.0283938638
 30
0
  0
SPLINE
  5
4E
330
0
100
AcDbEntity
  8
Spur
 62
     7
100
AcDbSpline
 70
     8
 71
     3
 72
     8
 73
     4
 74
     0
 40
0
 40
0
 40
0
 40
0
 40
1
 40
1
 40
1
 40
1
 10
-6.128019534
 20
5.0283938638
 30
0
 10
-6.0061782912
 20
4.8352696733
 30
0
 10
-5.9122674277
 20
4.7412609142
 30
0
 10
-5.8796610183
 20
4.7113642873
 30
0
  0
LINE
  5
4F
330
0
100
AcDbEntity
  8
Spur
 62
     7
100
AcDbLine
 10
-5.8796610183
 20
4.7113642873
 30
0
 11
-5.5709373467
 21
4.4639844339
 31
0
  0
ARC
  5
50
330
0
100
AcDbEntity
  8
Spur
 62
     7
100
AcDbCircle
 10
-5.8210625019
 20
4.1518347442
 30
0
 40
0.4000000276
100
AcDbArc
 50
324.50188
 51
51.294847
  0
ARC
  5
51
330
0
100
AcDbEntity
  8
Spur
 62
     7
100
AcDbCircle
 10
0.0000000003
 20
0.0000000004
 30
0
 40
6.75
100
AcDbArc
 50
144.501884
 51
147.998116
  0
ARC
  5
52
330
0
100
AcDbEntity
  8
Spur
 62
     7
100
AcDbCircle
 10
-6.0634193207
 20
3.7891221325
 30
0
 40
0.4000000276
100
AcDbArc
 50
241.205153
 51
327.99812
  0
LINE
  5
53
330
0
100
AcDbEntity
  8
Spur
 62
     7
100
AcDbLine
 10
-6.2560892772
 20
3.4385821063
 30
0
 11
-6.6027818949
 21
3.6291374163
 31
0
  0
SPLINE
  5
54
330
0
100
AcDbEntity
  8
Spur
 62
     7
100
AcDbSpline
 70
     8
 71
     3
 72
     8
 73
     4
 74
     0
 40
0
 40
0
 40
0
 40
0
 40
1
 40
1
 40
1
 40
1
 10
-6.6027818949
 20
3.6291374163
 30
0
 10
-6.6428807092
 20
3.6478208668
 30
0
 10
-6.7656716092
 20
3.6986075969
 30
0
 10
-6.990721721
 20
3.7372687992
 30
0
  0
SPLINE
  5
55
330
0
100
AcDbEntity
  8
Spur
 62
     7
100
AcDbSpline
 70
     8
 71
     3
 72
     8
 73
     4
 74
     0
 40
0
 40
0
 40
0
 40
0
 40
1
 40
1
 40
1
 40
1
 10
-6.990721721
 20
3.7372687992
 30
0
 10
-7.2582577964
 20
3.7827252887
 30
0
 10
-7.6595591751
 20
3.8067198293
 30
0
 10
-8.1948039177
 20
3.723782334
 30
0
  0
ARC
  5
56
330
0
100
AcDbEntity
  8
Spur
 62
     7
100
AcDbCircle
 10
-0.0000000004
 20
-0.000000001
 30
0
 40
9.0011869285
100
AcDbArc
 50
155.562585
 51
159.437415
  0
SPLINE
  5
57
330
0
100
AcDbEntity
  8
Spur
 62
     7
100
AcDbSpline
 70
     8
 71
     3
 72
     8
 73
     4
 74
     0
 40
0
 40
0
 40
0
 40
0
 40
1
 40
1
 40
1
 40
1
 10
-8.4277131608
 20
3.1614896807
 30
0
 10
-8.107883639
 20
2.7243688282
 30
0
 10
-7.8071540104
 20
2.4575726044
 30
0
 10
-7.5858348454
 20
2.3005386233
 30
0
  0
SPLINE
  5
58
330
0
100
AcDbEntity
  8
Spur
 62
     7
100
AcDbSpline
 70
     8
 71
     3
 72
     8
 73
     4
 74
     0
 40
0
 40
0
 40
0
 40
0
 40
1
 40
1
 40
1
 40
1
 10
-7.5858348454
 20
2.3005386233
 30
0
 10
-7.3993627869
 20
2.1687417614
 30
0
 10
-7.2766248675
 20
2.1178271246
 30
0
 10
-7.2350595295
 20
2.1026841756
 30
0
  0
LINE
  5
59
330
0
100
AcDbEntity
  8
Spur
 62
     7
100
AcDbLine
 10
-7.2350595295
 20
2.1026841756
 30
0
 11
-6.8551678767
 21
1.9922784266
 31
0
  0
ARC
  5
5A
330
0
100
AcDbEntity
  8
Spur
 62
     7
100
AcDbCircle
 10
-6.9667988735
 20
1.6081709642
 30
0
 40
0.4000000276
100
AcDbArc
 50
347.00188
 51
73.794847
  0
ARC
  5
5B
330
0
100
AcDbEntity
  8
Spur
 62
     7
100
AcDbCircle
 10
0.0000000002
 20
0.0000000002
 30
0
 40
6.7500000001
100
AcDbArc
 50
167.001884
 51
170.498116
  0
ARC
  5
5C
330
0
100
AcDbEntity
  8
Spur
 62
     7
100
AcDbCircle
 10
-7.0519032707
 20
1.1803222669
 30
0
 40
0.4000000276
100
AcDbArc
 50
263.705153
 51
350.49812
  0
LINE
  5
5D
330
0
100
AcDbEntity
  8
Spur
 62
     7
100
AcDbLine
 10
-7.0957612397
 20
0.7827339111
 30
0
 11
-7.4889858133
 21
0.8261105409
 31
0
  0
SPLINE
  5
5E
330
0
100
AcDbEntity
  8
Spur
 62
     7
100
AcDbSpline
 70
     8
 71
     3
 72
     8
 73
     4
 74
     0
 40
0
 40
0
 40
0
 40
0
 40
1
 40
1
 40
1
 40
1
 10
-7.4889858133
 20
0.8261105409
 30
0
 10
-7.5331821341
 20
0.8280266465
 30
0
 10
-7.6660613736
 20
0.8279574239
 30
0
 10
-7.8887755673
 20
0.7775527682
 30
0
  0
SPLINE
  5
5F
330
0
100
AcDbEntity
  8
Spur
 62
     7
100
AcDbSpline
 70
     8
 71
     3
 72
     8
 73
     4
 74
     0
 40
0
 40
0
 40
0
 40
0
 40
1
 40
1
 40
1
 40
1
 10
-7.8887755673
 20
0.7775527682
 30
0
 10
-8.1533421169
 20
0.7171674648
 30
0
 10
-8.5332785603
 20
0.5857641408
 30
0
 10
-8.9960414175
 20
0.3043105911
 30
0
  0
ARC
  5
60
330
0
100
AcDbEntity
  8
Spur
 62
     7
100
AcDbCircle
 10
0
 20
0
 30
0
 40
9.0011869285
100
AcDbArc
 50
178.062585
 51
181.937415
  0
SPLINE
  5
61
330
0
100
AcDbEntity
  8
Spur
 62
     7
100
AcDbSpline
 70
     8
 71
     3
 72
     8
 73
     4
 74
     0
 40
0
 40
0
 40
0
 40
0
 40
1
 40
1
 40
1
 40
1
 10
-8.9960414175
 20
-0.3043105911
 30
0
 10
-8.5332785603
 20
-0.5857641408
 30
0
 10
-8.1533421169
 20
-0.7171674648
 30
0
 10
-7.8887755673
 20
-0.7775527682
 30
0
  0
SPLINE
  5
62
330
0
100
AcDbEntity
  8
Spur
 62
     7
100
AcDbSpline
 70
     8
 71
     3
 72
     8
 73
     4
 74
     0
 40
0
 40
0
 40
0
 40
0
 40
1
 40
1
 40
1
 40
1
 10
-7.8887755673
 20
-0.7775527682
 30
0
 10
-7.6660613736
 20
-0.8279574239
 30
0
 10
-7.5331821341
 20
-0.8280266465
 30
0
 10
-7.4889858133
 20
-0.8261105409
 30
0
  0
LINE
  5
63
330
0
100
AcDbEntity
  8
Spur
 62
     7
100
AcDbLine
 10
-7.4889858133
 20
-0.8261105409
 30
0
 11
-7.0957612397
 21
-0.7827339111
 31
0
  0
ARC
  5
64
330
0
100
AcDbEntity
  8
Spur
 62
     7
100
AcDbCircle
 10
-7.0519032708
 20
-1.1803222669
 30
0
 40
0.4000000276
100
AcDbArc
 50
9.50188
 51
96.294847
  0
ARC
  5
65
330
0
100
AcDbEntity
  8
Spur
 62
     7
100
AcDbCircle
 10
-0.0000000002
 20
0.0000000014
 30
0
 40
6.75
100
AcDbArc
 50
189.501884
 51
192.998116
  0
ARC
  5
66
330
0
100
AcDbEntity
  8
Spur
 62
     7
100
AcDbCircle
 10
-6.9667988735
 20
-1.6081709642
 30
0
 40
0.4000000276
100
AcDbArc
 50
286.205153
 51
12.99812
  0
LINE
  5
67
330
0
100
AcDbEntity
  8
Spur
 62
     7
100
AcDbLine
 10
-6.8551678767
 20
-1.9922784266
 30
0
 11
-7.2350595295
 21
-2.1026841756
 31
0
  0
SPLINE
  5
68
330
0
100
AcDbEntity
  8
Spur
 62
     7
100
AcDbSpline
 70
     8
 71
     3
 72
     8
 73
     4
 74
     0
 40
0
 40
0
 40
0
 40
0
 40
1
 40
1
 40
1
 40
1
 10
-7.2350595295
 20
-2.1026841756
 30
0
 10
-7.2766248675
 20
-2.1178271246
 30
0
 10
-7.3993627869
 20
-2.1687417614
 30
0
 10
-7.5858348454
 20
-2.3005386233
 30
0
  0
SPLINE
  5
69
330
0
100
AcDbEntity
  8
Spur
 62
     7
100
AcDbSpline
 70
     8
 71
     3
 72
     8
 73
     4
 74
     0
 40
0
 40
0
 40
0
 40
0
 40
1
 40
1
 40
1
 40
1
 10
-7.5858348454
 20
-2.3005386233
 30
0
 10
-7.8071540104
 20
-2.4575726044
 30
0
 10
-8.107883639
 20
-2.7243688282
 30
0
 10
-8.4277131608
 20
-3.1614896807
 30
0
  0
ARC
  5
6A
330
0
100
AcDbEntity
  8
Spur
 62
     7
100
AcDbCircle
 10
-0.0000000004
 20
0.000000001
 30
0
 40
9.0011869285
100
AcDbArc
 50
200.562585
 51
204.437415
  0
SPLINE
  5
6B
330
0
100
AcDbEntity
  8
Spur
 62
     7
100
AcDbSpline
 70
     8
 71
     3
 72
     8
 73
     4
 74
     0
 40
0
 40
0
 40
0
 40
0
 40
1
 40
1
 40
1
 40
1
 10
-8.1948039177
 20
-3.723782334
 30
0
 10
-7.6595591751
 20
-3.8067198293
 30
0
 10
-7.2582577964
 20
-3.7827252887
 30
0
 10
-6.990721721
 20
-3.7372687992
 30
0
  0
SPLINE
  5
6C
330
0
100
AcDbEntity
  8
Spur
 62
     7
100
AcDbSpline
 70
     8
 71
     3
 72
     8
 73
     4
 74
     0
 40
0
 40
0
 40
0
 40
0
 40
1
 40
1
 40
1
 40
1
 10
-6.990721721
 20
-3.7372687992
 30
0
 10
-6.7656716092
 20
-3.6986075969
 30
0
 10
-6.6428807092
 20
-3.6478208668
 30
0
 10
-6.6027818949
 20
-3.6291374163
 30
0
  0
LINE
  5
6D
330
0
100
AcDbEntity
  8
Spur
 62
     7
100
AcDbLine
 10
-6.6027818949
 20
-3.6291374163
 30
0
 11
-6.2560892772
 21
-3.4385821063
 31
0
  0
ARC
  5
6E
330
0
100
AcDbEntity
  8
Spur
 62
     7
100
AcDbCircle
 10
-6.0634193207
 20
-3.7891221325
 30
0
 40
0.4000000276
100
AcDbArc
 50
32.00188
 51
118.794847
  0
ARC
  5
6F
330
0
100
AcDbEntity
  8
Spur
 62
     7
100
AcDbCircle
 10
0.0000000004
 20
-0.0000000003
 30
0
 40
6.7500000001
100
AcDbArc
 50
212.001884
 51
215.498116
  0
ARC
  5
70
330
0
100
AcDbEntity
  8
Spur
 62
     7
100
AcDbCircle
 10
-5.8210625019
 20
-4.1518347442
 30
0
 40
0.4000000276
100
AcDbArc
 50
308.705153
 51
35.49812
  0
LINE
  5
71
330
0
100
AcDbEntity
  8
Spur
 62
     7
100
AcDbLine
 10
-5.5709373467
 20
-4.4639844339
 30
0
 11
-5.8796610183
 21
-4.7113642873
 31
0
  0
SPLINE
  5
72
330
0
100
AcDbEntity
  8
Spur
 62
     7
100
AcDbSpline
 70
     8
 71
     3
 72
     8
 73
     4
 74
     0
 40
0
 40
0
 40
0
 40
0
 40
1
 40
1
 40
1
 40
1
 10
-5.8796610183
 20
-4.7113642873
 30
0
 10
-5.9122674277
 20
-4.7412609142
 30
0
 10
-6.0061782912
 20
-4.8352696733
 30
0
 10
-6.128019534
 20
-5.0283938638
 30
0
  0
SPLINE
  5
73
330
0
100
AcDbEntity
  8
Spur
 62
     7
100
AcDbSpline
 70
     8
 71
     3
 72
     8
 73
     4
 74
     0
 40
0
 40
0
 40
0
 40
0
 40
1
 40
1
 40
1
 40
1
 10
-6.128019534
 20
-5.0283938638
 30
0
 10
-6.2723974778
 20
-5.2581695226
 30
0
 10
-6.4481369319
 20
-5.6197413396
 30
0
 10
-6.5763419727
 20
-6.1459818076
 30
0
  0
ARC
  5
74
330
0
100
AcDbEntity
  8
Spur
 62
     7
100
AcDbCircle
 10
0
 20
0
 30
0
 40
9.0011869285
100
AcDbArc
 50
223.062585
 51
226.937415
  0
SPLINE
  5
75
330
0
100
AcDbEntity
  8
Spur
 62
     7
100
AcDbSpline
 70
     8
 71
     3
 72
     8
 73
     4
 74
     0
 40
0
 40
0
 40
0
 40
0
 40
1
 40
1
 40
1
 40
1
 10
-6.1459818076
 20
-6.5763419727
 30
0
 10
-5.6197413396
 20
-6.4481369319
 30
0
 10
-5.2581695226
 20
-6.2723974778
 30
0
 10
-5.0283938638
 20
-6.128019534
 30
0
  0
SPLINE
  5
76
330
0
100
AcDbEntity
  8
Spur
 62
     7
100
AcDbSpline
 70
     8
 71
     3
 72
     8
 73
     4
 74
     0
 40
0
 40
0
 40
0
 40
0
 40
1
 40
1
 40
1
 40
1
 10
-5.0283938638
 20
-6.128019534
 30
0
 10
-4.8352696733
 20
-6.0061782912
 30
0
 10
-4.7412609142
 20
-5.9122674277
 30
0
 10
-4.7113642873
 20
-5.8796610183
 30
0
  0
LINE
  5
77
330
0
100
AcDbEntity
  8
Spur
 62
     7
100
AcDbLine
 10
-4.7113642873
 20
-5.8796610183
 30
0
 11
-4.4639844339
 21
-5.5709373467
 31
0
  0
ARC
  5
78
330
0
100
AcDbEntity
  8
Spur
 62
     7
100
AcDbCircle
 10
-4.1518347442
 20
-5.8210625019
 30
0
 40
0.4000000276
100
AcDbArc
 50
54.50188
 51
141.294847
  0
ARC
  5
79
330
0
100
AcDbEntity
  8
Spur
 62
     7
100
AcDbCircle
 10
-0.0000000004
 20
0.0000000003
 30
0
 40
6.75
100
AcDbArc
 50
234.501884
 51
237.998116
  0
ARC
  5
7A
330
0
100
AcDbEntity
  8
Spur
 62
     7
100
AcDbCircle
 10
-3.7891221325
 20
-6.0634193207
 30
0
 40
0.4000000276
100
AcDbArc
 50
331.205153
 51
57.99812
  0
LINE
  5
7B
330
0
100
AcDbEntity
  8
Spur
 62
     7
100
AcDbLine
 10
-3.4385821063
 20
-6.2560892772
 30
0
 11
-3.6291374163
 21
-6.6027818949
 31
0
  0
SPLINE
  5
7C
330
0
100
AcDbEntity
  8
Spur
 62
     7
100
AcDbSpline
 70
     8
 71
     3
 72
     8
 73
     4
 74
     0
 40
0
 40
0
 40
0
 40
0
 40
1
 40
1
 40
1
 40
1
 10
-3.6291374163
 20
-6.6027818949
 30
0
 10
-3.6478208668
 20
-6.6428807092
 30
0
 10
-3.6986075969
 20
-6.7656716092
 30
0
 10
-3.7372687992
 20
-6.990721721
 30
0
  0
SPLINE
  5
7D
330
0
100
AcDbEntity
  8
Spur
 62
     7
100
AcDbSpline
 70
     8
 71
     3
 72
     8
 73
     4
 74
     0
 40
0
 40
0
 40
0
 40
0
 40
1
 40
1
 40
1
 40
1
 10
-3.7372687992
 20
-6.990721721
 30
0
 10
-3.7827252887
 20
-7.2582577964
 30
0
 10
-3.8067198293
 20
-7.6595591751
 30
0
 10
-3.723782334
 20
-8.1948039177
 30
0
  0
ARC
  5
7E
330
0
100
AcDbEntity
  8
Spur
 62
     7
100
AcDbCircle
 10
0.000000001
 20
-0.0000000004
 30
0
 40
9.0011869285
100
AcDbArc
 50
245.562585
 51
249.437415
  0
SPLINE
  5
7F
330
0
100
AcDbEntity
  8
Spur
 62
     7
100
AcDbSpline
 70
     8
 71
     3
 72
     8
 73
     4
 74
     0
 40
0
 40
0
 40
0
 40
0
 40
1
 40
1
 40
1
 40
1
 10
-3.1614896807
 20
-8.4277131608
 30
0
 10
-2.7243688282
 20
-8.107883639
 30
0
 10
-2.4575726044
 20
-7.8071540104
 30
0
 10
-2.3005386233
 20
-7.5858348454
 30
0
  0
SPLINE
  5
80
330
0
100
AcDbEntity
  8
Spur
 62
     7
100
AcDbSpline
 70
     8
 71
     3
 72
     8
 73
     4
 74
     0
 40
0
 40
0
 40
0
 40
0
 40
1
 40
1
 40
1
 40
1
 10
-2.3005386233
 20
-7.5858348454
 30
0
 10
-2.1687417614
 20
-7.3993627869
 30
0
 10
-2.1178271246
 20
-7.2766248675
 30
0
 10
-2.1026841756
 20
-7.2350595295
 30
0
  0
LINE
  5
81
330
0
100
AcDbEntity
  8
Spur
 62
     7
100
AcDbLine
 10
-2.1026841756
 20
-7.2350595295
 30
0
 11
-1.9922784266
 21
-6.8551678767
 31
0
  0
ARC
  5
82
330
0
100
AcDbEntity
  8
Spur
 62
     7
100
AcDbCircle
 10
-1.6081709642
 20
-6.9667988735
 30
0
 40
0.4000000276
100
AcDbArc
 50
77.00188
 51
163.794847
  0
ARC
  5
83
330
0
100
AcDbEntity
  8
Spur
 62
     7
100
AcDbCircle
 10
-0.0000000002
 20
0.0000000002
 30
0
 40
6.7500000001
100
AcDbArc
 50
257.001884
 51
260.498116
  0
ARC
  5
84
330
0
100
AcDbEntity
  8
Spur
 62
     7
100
AcDbCircle
 10
-1.1803222669
 20
-7.0519032707
 30
0
 40
0.4000000276
100
AcDbArc
 50
353.705153
 51
80.49812
  0
LINE
  5
85
330
0
100
AcDbEntity
  8
Spur
 62
     7
100
AcDbLine
 10
-0.7827339111
 20
-7.0957612397
 30
0
 11
-0.8261105409
 21
-7.4889858133
 31
0
  0
SPLINE
  5
86
330
0
100
AcDbEntity
  8
Spur
 62
     7
100
AcDbSpline
 70
     8
 71
     3
 72
     8
 73
     4
 74
     0
 40
0
 40
0
 40
0
 40
0
 40
1
 40
1
 40
1
 40
1
 10
-0.8261105409
 20
-7.4889858133
 30
0
 10
-0.8280266465
 20
-7.5331821341
 30
0
 10
-0.8279574239
 20
-7.6660613736
 30
0
 10
-0.7775527682
 20
-7.8887755673
 30
0
  0
SPLINE
  5
87
330
0
100
AcDbEntity
  8
Spur
 62
     7
100
AcDbSpline
 70
     8
 71
     3
 72
     8
 73
     4
 74
     0
 40
0
 40
0
 40
0
 40
0
 40
1
 40
1
 40
1
 40
1
 10
-0.7775527682
 20
-7.8887755673
 30
0
 10
-0.7171674648
 20
-8.1533421169
 30
0
 10
-0.5857641408
 20
-8.5332785603
 30
0
 10
-0.3043105911
 20
-8.9960414175
 30
0
  0
ARC
  5
88
330
0
100
AcDbEntity
  8
Spur
 62
     7
100
AcDbCircle
 10
0
 20
0
 30
0
 40
9.0011869285
100
AcDbArc
 50
268.062585
 51
271.937415
  0
SPLINE
  5
89
330
0
100
AcDbEntity
  8
Spur
 62
     7
100
AcDbSpline
 70
     8
 71
     3
 72
     8
 73
     4
 74
     0
 40
0
 40
0
 40
0
 40
0
 40
1
 40
1
 40
1
 40
1
 10
0.3043105911
 20
-8.9960414175
 30
0
 10
0.5857641408
 20
-8.5332785603
 30
0
 10
0.7171674648
 20
-8.1533421169
 30
0
 10
0.7775527682
 20
-7.8887755673
 30
0
  0
SPLINE
  5
8A
330
0
100
AcDbEntity
  8
Spur
 62
     7
100
AcDbSpline
 70
     8
 71
     3
 72
     8
 73
     4
 74
     0
 40
0
 40
0
 40
0
 40
0
 40
1
 40
1
 40
1
 40
1
 10
0.7775527682
 20
-7.8887755673
 30
0
 10
0.8279574239
 20
-7.6660613736
 30
0
 10
0.8280266465
 20
-7.5331821341
 30
0
 10
0.8261105409
 20
-7.4889858133
 30
0
  0
LINE
  5
8B
330
0
100
AcDbEntity
  8
Spur
 62
     7
100
AcDbLine
 10
0.8261105409
 20
-7.4889858133
 30
0
 11
0.7827339111
 21
-7.0957612397
 31
0
  0
ARC
  5
8C
330
0
100
AcDbEntity
  8
Spur
 62
     7
100
AcDbCircle
 10
1.1803222669
 20
-7.0519032708
 30
0
 40
0.4000000276
100
AcDbArc
 50
99.50188
 51
186.294847
  0
ARC
  5
8D
330
0
100
AcDbEntity
  8
Spur
 62
     7
100
AcDbCircle
 10
-0.0000000014
 20
-0.0000000002
 30
0
 40
6.75
100
AcDbArc
 50
279.501884
 51
282.998116
  0
ARC
  5
8E
330
0
100
AcDbEntity
  8
Spur
 62
     7
100
AcDbCircle
 10
1.6081709642
 20
-6.9667988735
 30
0
 40
0.4000000276
100
AcDbArc
 50
16.205153
 51
102.99812
  0
LINE
  5
8F
330
0
100
AcDbEntity
  8
Spur
 62
     7
100
AcDbLine
 10
1.9922784266
 20
-6.8551678767
 30
0
 11
2.1026841756
 21
-7.2350595295
 31
0
  0
SPLINE
  5
90
330
0
100
AcDbEntity
  8
Spur
 62
     7
100
AcDbSpline
 70
     8
 71
     3
 72
     8
 73
     4
 74
     0
 40
0
 40
0
 40
0
 40
0
 40
1
 40
1
 40
1
 40
1
 10
2.1026841756
 20
-7.2350595295
 30
0
 10
2.1178271246
 20
-7.2766248675
 30
0
 10
2.1687417614
 20
-7.3993627869
 30
0
 10
2.3005386233
 20
-7.5858348454
 30
0
  0
SPLINE
  5
91
330
0
100
AcDbEntity
  8
Spur
 62
     7
100
AcDbSpline
 70
     8
 71
     3
 72
     8
 73
     4
 74
     0
 40
0
 40
0
 40
0
 40
0
 40
1
 40
1
 40
1
 40
1
 10
2.3005386233
 20
-7.5858348454
 30
0
 10
2.4575726044
 20
-7.8071540104
 30
0
 10
2.7243688282
 20
-8.107883639
 30
0
 10
3.1614896807
 20
-8.4277131608
 30
0
  0
ARC
  5
92
330
0
100
AcDbEntity
  8
Spur
 62
     7
100
AcDbCircle
 10
-0.000000001
 20
-0.0000000004
 30
0
 40
9.0011869285
100
AcDbArc
 50
290.562585
 51
294.437415
  0
SPLINE
  5
93
330
0
100
AcDbEntity
  8
Spur
 62
     7
100
AcDbSpline
 70
     8
 71
     3
 72
     8
 73
     4
 74
     0
 40
0
 40
0
 40
0
 40
0
 40
1
 40
1
 40
1
 40
1
 10
3.723782334
 20
-8.1948039177
 30
0
 10
3.8067198293
 20
-7.6595591751
 30
0
 10
3.7827252887
 20
-7.2582577964
 30
0
 10
3.7372687992
 20
-6.990721721
 30
0
  0
SPLINE
  5
94
330
0
100
AcDbEntity
  8
Spur
 62
     7
100
AcDbSpline
 70
     8
 71
     3
 72
     8
 73
     4
 74
     0
 40
0
 40
0
 40
0
 40
0
 40
1
 40
1
 40
1
 40
1
 10
3.7372687992
 20
-6.990721721
 30
0
 10
3.6986075969
 20
-6.7656716092
 30
0
 10
3.6478208668
 20
-6.6428807092
 30
0
 10
3.6291374163
 20
-6.6027818949
 30
0
  0
LINE
  5
95
330
0
100
AcDbEntity
  8
Spur
 62
     7
100
AcDbLine
 10
3.6291374163
 20
-6.6027818949
 30
0
 11
3.4385821063
 21
-6.2560892772
 31
0
  0
ARC
  5
96
330
0
100
AcDbEntity
  8
Spur
 62
     7
100
AcDbCircle
 10
3.7891221325
 20
-6.0634193207
 30
0
 40
0.4000000276
100
AcDbArc
 50
122.00188
 51
208.794847
  0
ARC
  5
97
330
0
100
AcDbEntity
  8
Spur
 62
     7
100
AcDbCircle
 10
0.0000000003
 20
0.0000000004
 30
0
 40
6.7500000001
100
AcDbArc
 50
302.001884
 51
305.498116
  0
ARC
  5
98
330
0
100
AcDbEntity
  8
Spur
 62
     7
100
AcDbCircle
 10
4.1518347442
 20
-5.8210625019
 30
0
 40
0.4000000276
100
AcDbArc
 50
38.705153
 51
125.49812
  0
LINE
  5
99
330
0
100
AcDbEntity
  8
Spur
 62
     7
100
AcDbLine
 10
4.4639844339
 20
-5.5709373467
 30
0
 11
4.7113642873
 21
-5.8796610183
 31
0
  0
SPLINE
  5
9A
330
0
100
AcDbEntity
  8
Spur
 62
     7
100
AcDbSpline
 70
     8
 71
     3
 72
     8
 73
     4
 74
     0
 40
0
 40
0
 40
0
 40
0
 40
1
 40
1
 40
1
 40
1
 10
4.7113642873
 20
-5.8796610183
 30
0
 10
4.7412609142
 20
-5.9122674277
 30
0
 10
4.8352696733
 20
-6.0061782912
 30
0
 10
5.0283938638
 20
-6.128019534
 30
0
  0
SPLINE
  5
9B
330
0
100
AcDbEntity
  8
Spur
 62
     7
100
AcDbSpline
 70
     8
 71
     3
 72
     8
 73
     4
 74
     0
 40
0
 40
0
 40
0
 40
0
 40
1
 40
1
 40
1
 40
1
 10
5.0283938638
 20
-6.128019534
 30
0
 10
5.2581695226
 20
-6.2723974778
 30
0
 10
5.6197413396
 20
-6.4481369319
 30
0
 10
6.1459818076
 20
-6.5763419727
 30
0
  0
ARC
  5
9C
330
0
100
AcDbEntity
  8
Spur
 62
     7
100
AcDbCircle
 10
0
 20
0
 30
0
 40
9.0011869285
100
AcDbArc
 50
313.062585
 51
316.937415
  0
SPLINE
  5
9D
330
0
100
AcDbEntity
  8
Spur
 62
     7
100
AcDbSpline
 70
     8
 71
     3
 72
     8
 73
     4
 74
     0
 40
0
 40
0
 40
0
 40
0
 40
1
 40
1
 40
1
 40
1
 10
6.5763419727
 20
-6.1459818076
 30
0
 10
6.4481369319
 20
-5.6197413396
 30
0
 10
6.2723974778
 20
-5.2581695226
 30
0
 10
6.128019534
 20
-5.0283938638
 30
0
  0
SPLINE
  5
9E
330
0
100
AcDbEntity
  8
Spur
 62
     7
100
AcDbSpline
 70
     8
 71
     3
 72
     8
 73
     4
 74
     0
 40
0
 40
0
 40
0
 40
0
 40
1
 40
1
 40
1
 40
1
 10
6.128019534
 20
-5.0283938638
 30
0
 10
6.0061782912
 20
-4.8352696733
 30
0
 10
5.9122674277
 20
-4.7412609142
 30
0
 10
5.8796610183
 20
-4.7113642873
 30
0
  0
LINE
  5
9F
330
0
100
AcDbEntity
  8
Spur
 62
     7
100
AcDbLine
 10
5.8796610183
 20
-4.7113642873
 30
0
 11
5.5709373467
 21
-4.4639844339
 31
0
  0
ARC
  5
A0
330
0
100
AcDbEntity
  8
Spur
 62
     7
100
AcDbCircle
 10
5.8210625019
 20
-4.1518347442
 30
0
 40
0.4000000276
100
AcDbArc
 50
144.50188
 51
231.294847
  0
ARC
  5
A1
330
0
100
AcDbEntity
  8
Spur
 62
     7
100
AcDbCircle
 10
-0.0000000003
 20
-0.0000000004
 30
0
 40
6.75
100
AcDbArc
 50
324.501884
 51
327.998116
  0
ARC
  5
A2
330
0
100
AcDbEntity
  8
Spur
 62
     7
100
AcDbCircle
 10
6.0634193207
 20
-3.7891221325
 30
0
 40
0.4000000276
100
AcDbArc
 50
61.205153
 51
147.99812
  0
LINE
  5
A3
330
0
100
AcDbEntity
  8
Spur
 62
     7
100
AcDbLine
 10
6.2560892772
 20
-3.4385821063
 30
0
 11
6.6027818949
 21
-3.6291374163
 31
0
  0
SPLINE
  5
A4
330
0
100
AcDbEntity
  8
Spur
 62
     7
100
AcDbSpline
 70
     8
 71
     3
 72
     8
 73
     4
 74
     0
 40
0
 40
0
 40
0
 40
0
 40
1
 40
1
 40
1
 40
1
 10
6.6027818949
 20
-3.6291374163
 30
0
 10
6.6428807092
 20
-3.6478208668
 30
0
 10
6.7656716092
 20
-3.6986075969
 30
0
 10
6.990721721
 20
-3.7372687992
 30
0
  0
SPLINE
  5
A5
330
0
100
AcDbEntity
  8
Spur
 62
     7
100
AcDbSpline
 70
     8
 71
     3
 72
     8
 73
     4
 74
     0
 40
0
 40
0
 40
0
 40
0
 40
1
 40
1
 40
1
 40
1
 10
6.990721721
 20
-3.7372687992
 30
0
 10
7.2582577964
 20
-3.7827252887
 30
0
 10
7.6595591751
 20
-3.8067198293
 30
0
 10
8.1948039177
 20
-3.723782334
 30
0
  0
ARC
  5
A6
330
0
100
AcDbEntity
  8
Spur
 62
     7
100
AcDbCircle
 10
0.0000000004
 20
0.000000001
 30
0
 40
9.0011869285
100
AcDbArc
 50
335.562585
 51
339.437415
  0
SPLINE
  5
A7
330
0
100
AcDbEntity
  8
Spur
 62
     7
100
AcDbSpline
 70
     8
 71
     3
 72
     8
 73
     4
 74
     0
 40
0
 40
0
 40
0
 40
0
 40
1
 40
1
 40
1
 40
1
 10
8.4277131608
 20
-3.1614896807
 30
0
 10
8.107883639
 20
-2.7243688282
 30
0
 10
7.8071540104
 20
-2.4575726044
 30
0
 10
7.5858348454
 20
-2.3005386233
 30
0
  0
SPLINE
  5
A8
330
0
100
AcDbEntity
  8
Spur
 62
     7
100
AcDbSpline
 70
     8
 71
     3
 72
     8
 73
     4
 74
     0
 40
0
 40
0
 40
0
 40
0
 40
1
 40
1
 40
1
 40
1
 10
7.5858348454
 20
-2.3005386233
 30
0
 10
7.3993627869
 20
-2.1687417614
 30
0
 10
7.2766248675
 20
-2.1178271246
 30
0
 10
7.2350595295
 20
-2.1026841756
 30
0
  0
LINE
  5
A9
330
0
100
AcDbEntity
  8
Spur
 62
     7
100
AcDbLine
 10
7.2350595295
 20
-2.1026841756
 30
0
 11
6.8551678767
 21
-1.9922784266
 31
0
  0
ARC
  5
AA
330
0
100
AcDbEntity
  8
Spur
 62
     7
100
AcDbCircle
 10
6.9667988735
 20
-1.6081709642
 30
0
 40
0.4000000276
100
AcDbArc
 50
167.00188
 51
253.794847
  0
ENDSEC
  0
SECTION
  2
OBJECTS
  0
DICTIONARY
  5
BF
330
0
100
AcDbDictionary
  3
ACAD_GROUP
350
C0
  0
DICTIONARY
  5
C0
330
BF
100
AcDbDictionary
  0
ENDSEC
  0
EOF
