  0
SECTION
  2
HEADER
  9
$INSUNITS
 70
     4
  9
$MEASUREMENT
 70
     1
  9
$ACADVER
  1
AC1012
  9
$HANDSEED
  5
99
  0
ENDSEC
  0
SECTION
  2
TABLES
  0
TABLE
  2
LAYER
  5
4
330
0
100
AcDbSymbolTable
 70
     4
  0
LAYER
  5
5
330
4
100
AcDbSymbolTableRecord
100
AcDbLayerTableRecord
  2
1
 70
     0
 62
     7
  0
LAYER
  5
6
330
4
100
AcDbSymbolTableRecord
100
AcDbLayerTableRecord
  2
Spur
 70
     0
 62
     7
  6
Continuous
  0
LAYER
  5
9
330
4
100
AcDbSymbolTableRecord
100
AcDbLayerTableRecord
  2
decor
 70
     0
 62
     6
  6
Dash
  0
LAYER
  5
88
330
4
100
AcDbSymbolTableRecord
100
AcDbLayerTableRecord
  2
0
 70
     0
  6
Continuous
  0
ENDTAB
  0
TABLE
  2
LTYPE
  5
7
330
0
100
AcDbSymbolTable
 70
     4
  0
LTYPE
  5
8
330
7
100
AcDbSymbolTableRecord
100
AcDbLinetypeTableRecord
  2
Continuous
 70
     0
  3
_
 72
    65
 73
     0
 40
0
  0
LTYPE
  5
A
330
7
100
AcDbSymbolTableRecord
100
AcDbLinetypeTableRecord
  2
Dash
 70
     0
  3
_
 72
    65
 73
     0
 40
0
  0
LTYPE
  5
86
330
7
100
AcDbSymbolTableRecord
100
AcDbLinetypeTableRecord
  2
BYBLOCK
 70
     0
  3
 
 72
    65
 73
     0
 40
0
  0
LTYPE
  5
87
330
7
100
AcDbSymbolTableRecord
100
AcDbLinetypeTableRecord
  2
BYLAYER
 70
     0
  3
 
 72
    65
 73
     0
 40
0
  0
ENDTAB
  0
TABLE
  2
VPORT
  5
83
330
0
100
AcDbSymbolTable
 70
     0
  0
ENDTAB
  0
TABLE
  2
VIEW
  5
84
330
0
100
AcDbSymbolTable
 70
     0
  0
ENDTAB
  0
TABLE
  2
UCS
  5
85
330
0
100
AcDbSymbolTable
 70
     0
  0
ENDTAB
  0
TABLE
  2
STYLE
  5
89
330
0
100
AcDbSymbolTable
 70
     1
  0
STYLE
  5
8A
330
89
100
AcDbSymbolTableRecord
100
AcDbTextStyleTableRecord
  2
STANDARD
 70
     0
 40
0
 41
1
 50
0
 71
     0
 42
1
  0
ENDTAB
  0
TABLE
  2
APPID
  5
8B
330
0
100
AcDbSymbolTable
 70
     1
  0
APPID
  5
8C
330
8B
100
AcDbSymbolTableRecord
100
AcDbRegAppTableRecord
  2
ACAD
 70
     0
  0
ENDTAB
  0
TABLE
  2
DIMSTYLE
  5
8D
330
0
100
AcDbSymbolTable
 70
     0
  0
ENDTAB
  0
TABLE
  2
BLOCK_RECORD
  5
8E
330
0
100
AcDbSymbolTable
 70
     2
  0
BLOCK_RECORD
  5
8F
330
8E
100
AcDbSymbolTableRecord
100
AcDbBlockTableRecord
  2
*MODEL_SPACE
  0
BLOCK_RECORD
  5
90
330
8E
100
AcDbSymbolTableRecord
100
AcDbBlockTableRecord
  2
*PAPER_SPACE
  0
ENDTAB
  0
ENDSEC
  0
SECTION
  2
BLOCKS
  0
BLOCK
  5
92
330
8F
100
AcDbEntity
  8
0
100
AcDbBlockBegin
  2
*MODEL_SPACE
 70
     0
 10
0
 20
0
 30
0
  0
ENDBLK
  5
93
330
8F
100
AcDbEntity
  8
0
100
AcDbBlockEnd
  0
BLOCK
  5
94
330
90
100
AcDbEntity
  8
0
100
AcDbBlockBegin
  2
*PAPER_SPACE
 70
     0
 10
0
 20
0
 30
0
  0
ENDBLK
  5
95
330
90
100
AcDbEntity
  8
0
100
AcDbBlockEnd
  0
ENDSEC
  0
SECTION
  2
ENTITIES
  0
ARC
  5
B
330
0
100
AcDbEntity
  8
Spur
 62
     7
100
AcDbCircle
 10
-0.0000000001
 20
-0.0000000003
 30
0
 40
4.7500000001
100
AcDbArc
 50
342.563864
 51
347.436136
  0
ARC
  5
C
330
0
100
AcDbEntity
  8
Spur
 62
     7
100
AcDbCircle
 10
5.0266787256
 20
-1.1202677103
 30
0
 40
0.3999998789
100
AcDbArc
 50
81.890759
 51
167.436117
  0
LINE
  5
D
330
0
100
AcDbEntity
  8
Spur
 62
     7
100
AcDbLine
 10
5.0831030681
 20
-0.7242674619
 30
0
 11
5.5975668024
 21
-0.7975709811
 31
0
  0
SPLINE
  5
E
330
0
100
AcDbEntity
  8
Spur
 62
     7
100
AcDbSpline
 70
     8
 71
     3
 72
     8
 73
     4
 74
     0
 40
0
 40
0
 40
0
 40
0
 40
1
 40
1
 40
1
 40
1
 10
5.5975668024
 20
-0.7975709811
 30
0
 10
5.6389323033
 20
-0.800344845
 30
0
 10
5.7630988324
 20
-0.8025831117
 30
0
 10
5.9723415716
 20
-0.7536675216
 30
0
  0
SPLINE
  5
F
330
0
100
AcDbEntity
  8
Spur
 62
     7
100
AcDbSpline
 70
     8
 71
     3
 72
     8
 73
     4
 74
     0
 40
0
 40
0
 40
0
 40
0
 40
1
 40
1
 40
1
 40
1
 10
5.9723415716
 20
-0.7536675216
 30
0
 10
6.2198351577
 20
-0.6951475132
 30
0
 10
6.5730770452
 20
-0.5648391256
 30
0
 10
6.9957322769
 20
-0.2808887956
 30
0
  0
ARC
  5
10
330
0
100
AcDbEntity
  8
Spur
 62
     7
100
AcDbCircle
 10
0
 20
0
 30
0
 40
7.0013690522
100
AcDbArc
 50
357.700726
 51
2.299274
  0
SPLINE
  5
11
330
0
100
AcDbEntity
  8
Spur
 62
     7
100
AcDbSpline
 70
     8
 71
     3
 72
     8
 73
     4
 74
     0
 40
0
 40
0
 40
0
 40
0
 40
1
 40
1
 40
1
 40
1
 10
6.9957322769
 20
0.2808887956
 30
0
 10
6.5730770452
 20
0.5648391256
 30
0
 10
6.2198351577
 20
0.6951475132
 30
0
 10
5.9723415716
 20
0.7536675216
 30
0
  0
SPLINE
  5
12
330
0
100
AcDbEntity
  8
Spur
 62
     7
100
AcDbSpline
 70
     8
 71
     3
 72
     8
 73
     4
 74
     0
 40
0
 40
0
 40
0
 40
0
 40
1
 40
1
 40
1
 40
1
 10
5.9723415716
 20
0.7536675216
 30
0
 10
5.7630988324
 20
0.8025831117
 30
0
 10
5.6389323033
 20
0.800344845
 30
0
 10
5.5975668024
 20
0.7975709811
 30
0
  0
LINE
  5
13
330
0
100
AcDbEntity
  8
Spur
 62
     7
100
AcDbLine
 10
5.5975668024
 20
0.7975709811
 30
0
 11
5.0831030681
 21
0.7242674619
 31
0
  0
ARC
  5
14
330
0
100
AcDbEntity
  8
Spur
 62
     7
100
AcDbCircle
 10
5.0266787256
 20
1.1202677103
 30
0
 40
0.3999998789
100
AcDbArc
 50
192.563883
 51
278.109241
  0
ARC
  5
15
330
0
100
AcDbEntity
  8
Spur
 62
     7
100
AcDbCircle
 10
-0.0000000002
 20
0.0000000002
 30
0
 40
4.7500000002
100
AcDbArc
 50
12.563864
 51
17.436136
  0
ARC
  5
16
330
0
100
AcDbEntity
  8
Spur
 62
     7
100
AcDbCircle
 10
4.9133653282
 20
1.5431590667
 30
0
 40
0.3999998789
100
AcDbArc
 50
111.890759
 51
197.436117
  0
LINE
  5
17
330
0
100
AcDbEntity
  8
Spur
 62
     7
100
AcDbLine
 10
4.764230118
 20
1.9143175129
 30
0
 11
5.2464205408
 21
2.1080666702
 31
0
  0
SPLINE
  5
18
330
0
100
AcDbEntity
  8
Spur
 62
     7
100
AcDbSpline
 70
     8
 71
     3
 72
     8
 73
     4
 74
     0
 40
0
 40
0
 40
0
 40
0
 40
1
 40
1
 40
1
 40
1
 10
5.2464205408
 20
2.1080666702
 30
0
 10
5.2836310474
 20
2.1263471841
 30
0
 10
5.3922815492
 20
2.1864920528
 30
0
 10
5.5490332819
 20
2.3334755661
 30
0
  0
SPLINE
  5
19
330
0
100
AcDbEntity
  8
Spur
 62
     7
100
AcDbSpline
 70
     8
 71
     3
 72
     8
 73
     4
 74
     0
 40
0
 40
0
 40
0
 40
0
 40
1
 40
1
 40
1
 40
1
 10
5.5490332819
 20
2.3334755661
 30
0
 10
5.7341090105
 20
2.507902173
 30
0
 10
5.974871265
 20
2.7973734908
 30
0
 10
6.1989262677
 20
3.2546093058
 30
0
  0
ARC
  5
1A
330
0
100
AcDbEntity
  8
Spur
 62
     7
100
AcDbCircle
 10
-0.0000000001
 20
0.0000000003
 30
0
 40
7.0013690522
100
AcDbArc
 50
27.700726
 51
32.299274
  0
SPLINE
  5
1B
330
0
100
AcDbEntity
  8
Spur
 62
     7
100
AcDbSpline
 70
     8
 71
     3
 72
     8
 73
     4
 74
     0
 40
0
 40
0
 40
0
 40
0
 40
1
 40
1
 40
1
 40
1
 10
5.9180374721
 20
3.7411229711
 30
0
 10
5.4100321394
 20
3.7757035544
 30
0
 10
5.0389614973
 20
3.7119329847
 30
0
 10
4.7953657603
 20
3.6388660055
 30
0
  0
SPLINE
  5
1C
330
0
100
AcDbEntity
  8
Spur
 62
     7
100
AcDbSpline
 70
     8
 71
     3
 72
     8
 73
     4
 74
     0
 40
0
 40
0
 40
0
 40
0
 40
1
 40
1
 40
1
 40
1
 10
4.7953657603
 20
3.6388660055
 30
0
 10
4.5896984375
 20
3.5766067796
 30
0
 10
4.4832862024
 20
3.5125851192
 30
0
 10
4.4488495597
 20
3.4895001322
 30
0
  0
LINE
  5
1D
330
0
100
AcDbEntity
  8
Spur
 62
     7
100
AcDbLine
 10
4.4488495597
 20
3.4895001322
 30
0
 11
4.0399626561
 21
3.1687855552
 31
0
  0
ARC
  5
1E
330
0
100
AcDbEntity
  8
Spur
 62
     7
100
AcDbCircle
 10
3.7930976179
 20
3.4835196589
 30
0
 40
0.3999998789
100
AcDbArc
 50
222.563883
 51
308.109241
  0
ARC
  5
1F
330
0
100
AcDbEntity
  8
Spur
 62
     7
100
AcDbCircle
 10
0
 20
0
 30
0
 40
4.7500000001
100
AcDbArc
 50
42.563864
 51
47.436136
  0
ARC
  5
20
330
0
100
AcDbEntity
  8
Spur
 62
     7
100
AcDbCircle
 10
3.4835196589
 20
3.7930976179
 30
0
 40
0.3999998789
100
AcDbArc
 50
141.890759
 51
227.436117
  0
LINE
  5
21
330
0
100
AcDbEntity
  8
Spur
 62
     7
100
AcDbLine
 10
3.1687855552
 20
4.0399626561
 30
0
 11
3.4895001322
 21
4.4488495597
 31
0
  0
SPLINE
  5
22
330
0
100
AcDbEntity
  8
Spur
 62
     7
100
AcDbSpline
 70
     8
 71
     3
 72
     8
 73
     4
 74
     0
 40
0
 40
0
 40
0
 40
0
 40
1
 40
1
 40
1
 40
1
 10
3.4895001322
 20
4.4488495597
 30
0
 10
3.5125851192
 20
4.4832862024
 30
0
 10
3.5766067796
 20
4.5896984375
 30
0
 10
3.6388660055
 20
4.7953657603
 30
0
  0
SPLINE
  5
23
330
0
100
AcDbEntity
  8
Spur
 62
     7
100
AcDbSpline
 70
     8
 71
     3
 72
     8
 73
     4
 74
     0
 40
0
 40
0
 40
0
 40
0
 40
1
 40
1
 40
1
 40
1
 10
3.6388660055
 20
4.7953657603
 30
0
 10
3.7119329847
 20
5.0389614973
 30
0
 10
3.7757035544
 20
5.4100321394
 30
0
 10
3.7411229711
 20
5.9180374721
 30
0
  0
ARC
  5
24
330
0
100
AcDbEntity
  8
Spur
 62
     7
100
AcDbCircle
 10
0.0000000003
 20
-0.0000000001
 30
0
 40
7.0013690522
100
AcDbArc
 50
57.700726
 51
62.299274
  0
SPLINE
  5
25
330
0
100
AcDbEntity
  8
Spur
 62
     7
100
AcDbSpline
 70
     8
 71
     3
 72
     8
 73
     4
 74
     0
 40
0
 40
0
 40
0
 40
0
 40
1
 40
1
 40
1
 40
1
 10
3.2546093058
 20
6.1989262677
 30
0
 10
2.7973734908
 20
5.974871265
 30
0
 10
2.507902173
 20
5.7341090105
 30
0
 10
2.3334755661
 20
5.5490332819
 30
0
  0
SPLINE
  5
26
330
0
100
AcDbEntity
  8
Spur
 62
     7
100
AcDbSpline
 70
     8
 71
     3
 72
     8
 73
     4
 74
     0
 40
0
 40
0
 40
0
 40
0
 40
1
 40
1
 40
1
 40
1
 10
2.3334755661
 20
5.5490332819
 30
0
 10
2.1864920528
 20
5.3922815492
 30
0
 10
2.1263471841
 20
5.2836310474
 30
0
 10
2.1080666702
 20
5.2464205408
 30
0
  0
LINE
  5
27
330
0
100
AcDbEntity
  8
Spur
 62
     7
100
AcDbLine
 10
2.1080666702
 20
5.2464205408
 30
0
 11
1.9143175129
 21
4.764230118
 31
0
  0
ARC
  5
28
330
0
100
AcDbEntity
  8
Spur
 62
     7
100
AcDbCircle
 10
1.5431590667
 20
4.9133653282
 30
0
 40
0.3999998789
100
AcDbArc
 50
252.563883
 51
338.109241
  0
ARC
  5
29
330
0
100
AcDbEntity
  8
Spur
 62
     7
100
AcDbCircle
 10
0.0000000003
 20
-0.0000000001
 30
0
 40
4.7500000001
100
AcDbArc
 50
72.563864
 51
77.436136
  0
ARC
  5
2A
330
0
100
AcDbEntity
  8
Spur
 62
     7
100
AcDbCircle
 10
1.1202677103
 20
5.0266787256
 30
0
 40
0.3999998789
100
AcDbArc
 50
171.890759
 51
257.436117
  0
LINE
  5
2B
330
0
100
AcDbEntity
  8
Spur
 62
     7
100
AcDbLine
 10
0.7242674619
 20
5.0831030681
 30
0
 11
0.7975709811
 21
5.5975668024
 31
0
  0
SPLINE
  5
2C
330
0
100
AcDbEntity
  8
Spur
 62
     7
100
AcDbSpline
 70
     8
 71
     3
 72
     8
 73
     4
 74
     0
 40
0
 40
0
 40
0
 40
0
 40
1
 40
1
 40
1
 40
1
 10
0.7975709811
 20
5.5975668024
 30
0
 10
0.800344845
 20
5.6389323033
 30
0
 10
0.8025831117
 20
5.7630988324
 30
0
 10
0.7536675216
 20
5.9723415716
 30
0
  0
SPLINE
  5
2D
330
0
100
AcDbEntity
  8
Spur
 62
     7
100
AcDbSpline
 70
     8
 71
     3
 72
     8
 73
     4
 74
     0
 40
0
 40
0
 40
0
 40
0
 40
1
 40
1
 40
1
 40
1
 10
0.7536675216
 20
5.9723415716
 30
0
 10
0.6951475132
 20
6.2198351577
 30
0
 10
0.5648391256
 20
6.5730770452
 30
0
 10
0.2808887956
 20
6.9957322769
 30
0
  0
ARC
  5
2E
330
0
100
AcDbEntity
  8
Spur
 62
     7
100
AcDbCircle
 10
0
 20
0
 30
0
 40
7.0013690522
100
AcDbArc
 50
87.700726
 51
92.299274
  0
SPLINE
  5
2F
330
0
100
AcDbEntity
  8
Spur
 62
     7
100
AcDbSpline
 70
     8
 71
     3
 72
     8
 73
     4
 74
     0
 40
0
 40
0
 40
0
 40
0
 40
1
 40
1
 40
1
 40
1
 10
-0.2808887956
 20
6.9957322769
 30
0
 10
-0.5648391256
 20
6.5730770452
 30
0
 10
-0.6951475132
 20
6.2198351577
 30
0
 10
-0.7536675216
 20
5.9723415716
 30
0
  0
SPLINE
  5
30
330
0
100
AcDbEntity
  8
Spur
 62
     7
100
AcDbSpline
 70
     8
 71
     3
 72
     8
 73
     4
 74
     0
 40
0
 40
0
 40
0
 40
0
 40
1
 40
1
 40
1
 40
1
 10
-0.7536675216
 20
5.9723415716
 30
0
 10
-0.8025831117
 20
5.7630988324
 30
0
 10
-0.800344845
 20
5.6389323033
 30
0
 10
-0.7975709811
 20
5.5975668024
 30
0
  0
LINE
  5
31
330
0
100
AcDbEntity
  8
Spur
 62
     7
100
AcDbLine
 10
-0.7975709811
 20
5.5975668024
 30
0
 11
-0.7242674619
 21
5.0831030681
 31
0
  0
ARC
  5
32
330
0
100
AcDbEntity
  8
Spur
 62
     7
100
AcDbCircle
 10
-1.1202677103
 20
5.0266787256
 30
0
 40
0.3999998789
100
AcDbArc
 50
282.563883
 51
8.109241
  0
ARC
  5
33
330
0
100
AcDbEntity
  8
Spur
 62
     7
100
AcDbCircle
 10
-0.0000000002
 20
-0.0000000002
 30
0
 40
4.7500000002
100
AcDbArc
 50
102.563864
 51
107.436136
  0
ARC
  5
34
330
0
100
AcDbEntity
  8
Spur
 62
     7
100
AcDbCircle
 10
-1.5431590667
 20
4.9133653282
 30
0
 40
0.3999998789
100
AcDbArc
 50
201.890759
 51
287.436117
  0
LINE
  5
35
330
0
100
AcDbEntity
  8
Spur
 62
     7
100
AcDbLine
 10
-1.9143175129
 20
4.764230118
 30
0
 11
-2.1080666702
 21
5.2464205408
 31
0
  0
SPLINE
  5
36
330
0
100
AcDbEntity
  8
Spur
 62
     7
100
AcDbSpline
 70
     8
 71
     3
 72
     8
 73
     4
 74
     0
 40
0
 40
0
 40
0
 40
0
 40
1
 40
1
 40
1
 40
1
 10
-2.1080666702
 20
5.2464205408
 30
0
 10
-2.1263471841
 20
5.2836310474
 30
0
 10
-2.1864920528
 20
5.3922815492
 30
0
 10
-2.3334755661
 20
5.5490332819
 30
0
  0
SPLINE
  5
37
330
0
100
AcDbEntity
  8
Spur
 62
     7
100
AcDbSpline
 70
     8
 71
     3
 72
     8
 73
     4
 74
     0
 40
0
 40
0
 40
0
 40
0
 40
1
 40
1
 40
1
 40
1
 10
-2.3334755661
 20
5.5490332819
 30
0
 10
-2.507902173
 20
5.7341090105
 30
0
 10
-2.7973734908
 20
5.974871265
 30
0
 10
-3.2546093058
 20
6.1989262677
 30
0
  0
ARC
  5
38
330
0
100
AcDbEntity
  8
Spur
 62
     7
100
AcDbCircle
 10
-0.0000000003
 20
-0.0000000001
 30
0
 40
7.0013690522
100
AcDbArc
 50
117.700726
 51
122.299274
  0
SPLINE
  5
39
330
0
100
AcDbEntity
  8
Spur
 62
     7
100
AcDbSpline
 70
     8
 71
     3
 72
     8
 73
     4
 74
     0
 40
0
 40
0
 40
0
 40
0
 40
1
 40
1
 40
1
 40
1
 10
-3.7411229711
 20
5.9180374721
 30
0
 10
-3.7757035544
 20
5.4100321394
 30
0
 10
-3.7119329847
 20
5.0389614973
 30
0
 10
-3.6388660055
 20
4.7953657603
 30
0
  0
SPLINE
  5
3A
330
0
100
AcDbEntity
  8
Spur
 62
     7
100
AcDbSpline
 70
     8
 71
     3
 72
     8
 73
     4
 74
     0
 40
0
 40
0
 40
0
 40
0
 40
1
 40
1
 40
1
 40
1
 10
-3.6388660055
 20
4.7953657603
 30
0
 10
-3.5766067796
 20
4.5896984375
 30
0
 10
-3.5125851192
 20
4.4832862024
 30
0
 10
-3.4895001322
 20
4.4488495597
 30
0
  0
LINE
  5
3B
330
0
100
AcDbEntity
  8
Spur
 62
     7
100
AcDbLine
 10
-3.4895001322
 20
4.4488495597
 30
0
 11
-3.1687855552
 21
4.0399626561
 31
0
  0
ARC
  5
3C
330
0
100
AcDbEntity
  8
Spur
 62
     7
100
AcDbCircle
 10
-3.4835196589
 20
3.7930976179
 30
0
 40
0.3999998789
100
AcDbArc
 50
312.563883
 51
38.109241
  0
ARC
  5
3D
330
0
100
AcDbEntity
  8
Spur
 62
     7
100
AcDbCircle
 10
0
 20
0
 30
0
 40
4.7500000001
100
AcDbArc
 50
132.563864
 51
137.436136
  0
ARC
  5
3E
330
0
100
AcDbEntity
  8
Spur
 62
     7
100
AcDbCircle
 10
-3.7930976179
 20
3.4835196589
 30
0
 40
0.3999998789
100
AcDbArc
 50
231.890759
 51
317.436117
  0
LINE
  5
3F
330
0
100
AcDbEntity
  8
Spur
 62
     7
100
AcDbLine
 10
-4.0399626561
 20
3.1687855552
 30
0
 11
-4.4488495597
 21
3.4895001322
 31
0
  0
SPLINE
  5
40
330
0
100
AcDbEntity
  8
Spur
 62
     7
100
AcDbSpline
 70
     8
 71
     3
 72
     8
 73
     4
 74
     0
 40
0
 40
0
 40
0
 40
0
 40
1
 40
1
 40
1
 40
1
 10
-4.4488495597
 20
3.4895001322
 30
0
 10
-4.4832862024
 20
3.5125851192
 30
0
 10
-4.5896984375
 20
3.5766067796
 30
0
 10
-4.7953657603
 20
3.6388660055
 30
0
  0
SPLINE
  5
41
330
0
100
AcDbEntity
  8
Spur
 62
     7
100
AcDbSpline
 70
     8
 71
     3
 72
     8
 73
     4
 74
     0
 40
0
 40
0
 40
0
 40
0
 40
1
 40
1
 40
1
 40
1
 10
-4.7953657603
 20
3.6388660055
 30
0
 10
-5.0389614973
 20
3.7119329847
 30
0
 10
-5.4100321394
 20
3.7757035544
 30
0
 10
-5.9180374721
 20
3.7411229711
 30
0
  0
ARC
  5
42
330
0
100
AcDbEntity
  8
Spur
 62
     7
100
AcDbCircle
 10
0.0000000001
 20
0.0000000003
 30
0
 40
7.0013690522
100
AcDbArc
 50
147.700726
 51
152.299274
  0
SPLINE
  5
43
330
0
100
AcDbEntity
  8
Spur
 62
     7
100
AcDbSpline
 70
     8
 71
     3
 72
     8
 73
     4
 74
     0
 40
0
 40
0
 40
0
 40
0
 40
1
 40
1
 40
1
 40
1
 10
-6.1989262677
 20
3.2546093058
 30
0
 10
-5.974871265
 20
2.7973734908
 30
0
 10
-5.7341090105
 20
2.507902173
 30
0
 10
-5.5490332819
 20
2.3334755661
 30
0
  0
SPLINE
  5
44
330
0
100
AcDbEntity
  8
Spur
 62
     7
100
AcDbSpline
 70
     8
 71
     3
 72
     8
 73
     4
 74
     0
 40
0
 40
0
 40
0
 40
0
 40
1
 40
1
 40
1
 40
1
 10
-5.5490332819
 20
2.3334755661
 30
0
 10
-5.3922815492
 20
2.1864920528
 30
0
 10
-5.2836310474
 20
2.1263471841
 30
0
 10
-5.2464205408
 20
2.1080666702
 30
0
  0
LINE
  5
45
330
0
100
AcDbEntity
  8
Spur
 62
     7
100
AcDbLine
 10
-5.2464205408
 20
2.1080666702
 30
0
 11
-4.764230118
 21
1.9143175129
 31
0
  0
ARC
  5
46
330
0
100
AcDbEntity
  8
Spur
 62
     7
100
AcDbCircle
 10
-4.9133653282
 20
1.5431590667
 30
0
 40
0.3999998789
100
AcDbArc
 50
342.563883
 51
68.109241
  0
ARC
  5
47
330
0
100
AcDbEntity
  8
Spur
 62
     7
100
AcDbCircle
 10
-0.0000000001
 20
-0.0000000008
 30
0
 40
4.7500000002
100
AcDbArc
 50
162.563864
 51
167.436136
  0
ARC
  5
48
330
0
100
AcDbEntity
  8
Spur
 62
     7
100
AcDbCircle
 10
-5.0266787257
 20
1.1202677103
 30
0
 40
0.3999998789
100
AcDbArc
 50
261.890759
 51
347.436117
  0
LINE
  5
49
330
0
100
AcDbEntity
  8
Spur
 62
     7
100
AcDbLine
 10
-5.0831030681
 20
0.7242674619
 30
0
 11
-5.5975668024
 21
0.7975709811
 31
0
  0
SPLINE
  5
4A
330
0
100
AcDbEntity
  8
Spur
 62
     7
100
AcDbSpline
 70
     8
 71
     3
 72
     8
 73
     4
 74
     0
 40
0
 40
0
 40
0
 40
0
 40
1
 40
1
 40
1
 40
1
 10
-5.5975668024
 20
0.7975709811
 30
0
 10
-5.6389323033
 20
0.800344845
 30
0
 10
-5.7630988324
 20
0.8025831117
 30
0
 10
-5.9723415716
 20
0.7536675216
 30
0
  0
SPLINE
  5
4B
330
0
100
AcDbEntity
  8
Spur
 62
     7
100
AcDbSpline
 70
     8
 71
     3
 72
     8
 73
     4
 74
     0
 40
0
 40
0
 40
0
 40
0
 40
1
 40
1
 40
1
 40
1
 10
-5.9723415716
 20
0.7536675216
 30
0
 10
-6.2198351577
 20
0.6951475132
 30
0
 10
-6.5730770452
 20
0.5648391256
 30
0
 10
-6.9957322769
 20
0.2808887956
 30
0
  0
ARC
  5
4C
330
0
100
AcDbEntity
  8
Spur
 62
     7
100
AcDbCircle
 10
0
 20
0
 30
0
 40
7.0013690522
100
AcDbArc
 50
177.700726
 51
182.299274
  0
SPLINE
  5
4D
330
0
100
AcDbEntity
  8
Spur
 62
     7
100
AcDbSpline
 70
     8
 71
     3
 72
     8
 73
     4
 74
     0
 40
0
 40
0
 40
0
 40
0
 40
1
 40
1
 40
1
 40
1
 10
-6.9957322769
 20
-0.2808887956
 30
0
 10
-6.5730770452
 20
-0.5648391256
 30
0
 10
-6.2198351577
 20
-0.6951475132
 30
0
 10
-5.9723415716
 20
-0.7536675216
 30
0
  0
SPLINE
  5
4E
330
0
100
AcDbEntity
  8
Spur
 62
     7
100
AcDbSpline
 70
     8
 71
     3
 72
     8
 73
     4
 74
     0
 40
0
 40
0
 40
0
 40
0
 40
1
 40
1
 40
1
 40
1
 10
-5.9723415716
 20
-0.7536675216
 30
0
 10
-5.7630988324
 20
-0.8025831117
 30
0
 10
-5.6389323033
 20
-0.800344845
 30
0
 10
-5.5975668024
 20
-0.7975709811
 30
0
  0
LINE
  5
4F
330
0
100
AcDbEntity
  8
Spur
 62
     7
100
AcDbLine
 10
-5.5975668024
 20
-0.7975709811
 30
0
 11
-5.0831030681
 21
-0.7242674619
 31
0
  0
ARC
  5
50
330
0
100
AcDbEntity
  8
Spur
 62
     7
100
AcDbCircle
 10
-5.0266787256
 20
-1.1202677103
 30
0
 40
0.3999998789
100
AcDbArc
 50
12.563883
 51
98.109241
  0
ARC
  5
51
330
0
100
AcDbEntity
  8
Spur
 62
     7
100
AcDbCircle
 10
0.0000000002
 20
-0.0000000002
 30
0
 40
4.7500000002
100
AcDbArc
 50
192.563864
 51
197.436136
  0
ARC
  5
52
330
0
100
AcDbEntity
  8
Spur
 62
     7
100
AcDbCircle
 10
-4.9133653282
 20
-1.5431590667
 30
0
 40
0.3999998789
100
AcDbArc
 50
291.890759
 51
17.436117
  0
LINE
  5
53
330
0
100
AcDbEntity
  8
Spur
 62
     7
100
AcDbLine
 10
-4.764230118
 20
-1.9143175129
 30
0
 11
-5.2464205408
 21
-2.1080666702
 31
0
  0
SPLINE
  5
54
330
0
100
AcDbEntity
  8
Spur
 62
     7
100
AcDbSpline
 70
     8
 71
     3
 72
     8
 73
     4
 74
     0
 40
0
 40
0
 40
0
 40
0
 40
1
 40
1
 40
1
 40
1
 10
-5.2464205408
 20
-2.1080666702
 30
0
 10
-5.2836310474
 20
-2.1263471841
 30
0
 10
-5.3922815492
 20
-2.1864920528
 30
0
 10
-5.5490332819
 20
-2.3334755661
 30
0
  0
SPLINE
  5
55
330
0
100
AcDbEntity
  8
Spur
 62
     7
100
AcDbSpline
 70
     8
 71
     3
 72
     8
 73
     4
 74
     0
 40
0
 40
0
 40
0
 40
0
 40
1
 40
1
 40
1
 40
1
 10
-5.5490332819
 20
-2.3334755661
 30
0
 10
-5.7341090105
 20
-2.507902173
 30
0
 10
-5.974871265
 20
-2.7973734908
 30
0
 10
-6.1989262677
 20
-3.2546093058
 30
0
  0
ARC
  5
56
330
0
100
AcDbEntity
  8
Spur
 62
     7
100
AcDbCircle
 10
0.0000000001
 20
-0.0000000003
 30
0
 40
7.0013690522
100
AcDbArc
 50
207.700726
 51
212.299274
  0
SPLINE
  5
57
330
0
100
AcDbEntity
  8
Spur
 62
     7
100
AcDbSpline
 70
     8
 71
     3
 72
     8
 73
     4
 74
     0
 40
0
 40
0
 40
0
 40
0
 40
1
 40
1
 40
1
 40
1
 10
-5.9180374721
 20
-3.7411229711
 30
0
 10
-5.4100321394
 20
-3.7757035544
 30
0
 10
-5.0389614973
 20
-3.7119329847
 30
0
 10
-4.7953657603
 20
-3.6388660055
 30
0
  0
SPLINE
  5
58
330
0
100
AcDbEntity
  8
Spur
 62
     7
100
AcDbSpline
 70
     8
 71
     3
 72
     8
 73
     4
 74
     0
 40
0
 40
0
 40
0
 40
0
 40
1
 40
1
 40
1
 40
1
 10
-4.7953657603
 20
-3.6388660055
 30
0
 10
-4.5896984375
 20
-3.5766067796
 30
0
 10
-4.4832862024
 20
-3.5125851192
 30
0
 10
-4.4488495597
 20
-3.4895001322
 30
0
  0
LINE
  5
59
330
0
100
AcDbEntity
  8
Spur
 62
     7
100
AcDbLine
 10
-4.4488495597
 20
-3.4895001322
 30
0
 11
-4.0399626561
 21
-3.1687855552
 31
0
  0
ARC
  5
5A
330
0
100
AcDbEntity
  8
Spur
 62
     7
100
AcDbCircle
 10
-3.7930976179
 20
-3.4835196589
 30
0
 40
0.3999998789
100
AcDbArc
 50
42.563883
 51
128.109241
  0
ARC
  5
5B
330
0
100
AcDbEntity
  8
Spur
 62
     7
100
AcDbCircle
 10
0
 20
0
 30
0
 40
4.7500000001
100
AcDbArc
 50
222.563864
 51
227.436136
  0
ARC
  5
5C
330
0
100
AcDbEntity
  8
Spur
 62
     7
100
AcDbCircle
 10
-3.4835196589
 20
-3.7930976179
 30
0
 40
0.3999998789
100
AcDbArc
 50
321.890759
 51
47.436117
  0
LINE
  5
5D
330
0
100
AcDbEntity
  8
Spur
 62
     7
100
AcDbLine
 10
-3.1687855552
 20
-4.0399626561
 30
0
 11
-3.4895001322
 21
-4.4488495597
 31
0
  0
SPLINE
  5
5E
330
0
100
AcDbEntity
  8
Spur
 62
     7
100
AcDbSpline
 70
     8
 71
     3
 72
     8
 73
     4
 74
     0
 40
0
 40
0
 40
0
 40
0
 40
1
 40
1
 40
1
 40
1
 10
-3.4895001322
 20
-4.4488495597
 30
0
 10
-3.5125851192
 20
-4.4832862024
 30
0
 10
-3.5766067796
 20
-4.5896984375
 30
0
 10
-3.6388660055
 20
-4.7953657603
 30
0
  0
SPLINE
  5
5F
330
0
100
AcDbEntity
  8
Spur
 62
     7
100
AcDbSpline
 70
     8
 71
     3
 72
     8
 73
     4
 74
     0
 40
0
 40
0
 40
0
 40
0
 40
1
 40
1
 40
1
 40
1
 10
-3.6388660055
 20
-4.7953657603
 30
0
 10
-3.7119329847
 20
-5.0389614973
 30
0
 10
-3.7757035544
 20
-5.4100321394
 30
0
 10
-3.7411229711
 20
-5.9180374721
 30
0
  0
ARC
  5
60
330
0
100
AcDbEntity
  8
Spur
 62
     7
100
AcDbCircle
 10
-0.0000000003
 20
0.0000000001
 30
0
 40
7.0013690522
100
AcDbArc
 50
237.700726
 51
242.299274
  0
SPLINE
  5
61
330
0
100
AcDbEntity
  8
Spur
 62
     7
100
AcDbSpline
 70
     8
 71
     3
 72
     8
 73
     4
 74
     0
 40
0
 40
0
 40
0
 40
0
 40
1
 40
1
 40
1
 40
1
 10
-3.2546093058
 20
-6.1989262677
 30
0
 10
-2.7973734908
 20
-5.974871265
 30
0
 10
-2.507902173
 20
-5.7341090105
 30
0
 10
-2.3334755661
 20
-5.5490332819
 30
0
  0
SPLINE
  5
62
330
0
100
AcDbEntity
  8
Spur
 62
     7
100
AcDbSpline
 70
     8
 71
     3
 72
     8
 73
     4
 74
     0
 40
0
 40
0
 40
0
 40
0
 40
1
 40
1
 40
1
 40
1
 10
-2.3334755661
 20
-5.5490332819
 30
0
 10
-2.1864920528
 20
-5.3922815492
 30
0
 10
-2.1263471841
 20
-5.2836310474
 30
0
 10
-2.1080666702
 20
-5.2464205408
 30
0
  0
LINE
  5
63
330
0
100
AcDbEntity
  8
Spur
 62
     7
100
AcDbLine
 10
-2.1080666702
 20
-5.2464205408
 30
0
 11
-1.9143175129
 21
-4.764230118
 31
0
  0
ARC
  5
64
330
0
100
AcDbEntity
  8
Spur
 62
     7
100
AcDbCircle
 10
-1.5431590667
 20
-4.9133653282
 30
0
 40
0.3999998789
100
AcDbArc
 50
72.563883
 51
158.109241
  0
ARC
  5
65
330
0
100
AcDbEntity
  8
Spur
 62
     7
100
AcDbCircle
 10
-0.0000000003
 20
0.0000000001
 30
0
 40
4.7500000001
100
AcDbArc
 50
252.563864
 51
257.436136
  0
ARC
  5
66
330
0
100
AcDbEntity
  8
Spur
 62
     7
100
AcDbCircle
 10
-1.1202677103
 20
-5.0266787256
 30
0
 40
0.3999998789
100
AcDbArc
 50
351.890759
 51
77.436117
  0
LINE
  5
67
330
0
100
AcDbEntity
  8
Spur
 62
     7
100
AcDbLine
 10
-0.7242674619
 20
-5.0831030681
 30
0
 11
-0.7975709811
 21
-5.5975668024
 31
0
  0
SPLINE
  5
68
330
0
100
AcDbEntity
  8
Spur
 62
     7
100
AcDbSpline
 70
     8
 71
     3
 72
     8
 73
     4
 74
     0
 40
0
 40
0
 40
0
 40
0
 40
1
 40
1
 40
1
 40
1
 10
-0.7975709811
 20
-5.5975668024
 30
0
 10
-0.800344845
 20
-5.6389323033
 30
0
 10
-0.8025831117
 20
-5.7630988324
 30
0
 10
-0.7536675216
 20
-5.9723415716
 30
0
  0
SPLINE
  5
69
330
0
100
AcDbEntity
  8
Spur
 62
     7
100
AcDbSpline
 70
     8
 71
     3
 72
     8
 73
     4
 74
     0
 40
0
 40
0
 40
0
 40
0
 40
1
 40
1
 40
1
 40
1
 10
-0.7536675216
 20
-5.9723415716
 30
0
 10
-0.6951475132
 20
-6.2198351577
 30
0
 10
-0.5648391256
 20
-6.5730770452
 30
0
 10
-0.2808887956
 20
-6.9957322769
 30
0
  0
ARC
  5
6A
330
0
100
AcDbEntity
  8
Spur
 62
     7
100
AcDbCircle
 10
0
 20
0
 30
0
 40
7.0013690522
100
AcDbArc
 50
267.700726
 51
272.299274
  0
SPLINE
  5
6B
330
0
100
AcDbEntity
  8
Spur
 62
     7
100
AcDbSpline
 70
     8
 71
     3
 72
     8
 73
     4
 74
     0
 40
0
 40
0
 40
0
 40
0
 40
1
 40
1
 40
1
 40
1
 10
0.2808887956
 20
-6.9957322769
 30
0
 10
0.5648391256
 20
-6.5730770452
 30
0
 10
0.6951475132
 20
-6.2198351577
 30
0
 10
0.7536675216
 20
-5.9723415716
 30
0
  0
SPLINE
  5
6C
330
0
100
AcDbEntity
  8
Spur
 62
     7
100
AcDbSpline
 70
     8
 71
     3
 72
     8
 73
     4
 74
     0
 40
0
 40
0
 40
0
 40
0
 40
1
 40
1
 40
1
 40
1
 10
0.7536675216
 20
-5.9723415716
 30
0
 10
0.8025831117
 20
-5.7630988324
 30
0
 10
0.800344845
 20
-5.6389323033
 30
0
 10
0.7975709811
 20
-5.5975668024
 30
0
  0
LINE
  5
6D
330
0
100
AcDbEntity
  8
Spur
 62
     7
100
AcDbLine
 10
0.7975709811
 20
-5.5975668024
 30
0
 11
0.7242674619
 21
-5.0831030681
 31
0
  0
ARC
  5
6E
330
0
100
AcDbEntity
  8
Spur
 62
     7
100
AcDbCircle
 10
1.1202677103
 20
-5.0266787256
 30
0
 40
0.3999998789
100
AcDbArc
 50
102.563883
 51
188.109241
  0
ARC
  5
6F
330
0
100
AcDbEntity
  8
Spur
 62
     7
100
AcDbCircle
 10
0.0000000002
 20
0.0000000002
 30
0
 40
4.7500000002
100
AcDbArc
 50
282.563864
 51
287.436136
  0
ARC
  5
70
330
0
100
AcDbEntity
  8
Spur
 62
     7
100
AcDbCircle
 10
1.5431590667
 20
-4.9133653282
 30
0
 40
0.3999998789
100
AcDbArc
 50
21.890759
 51
107.436117
  0
LINE
  5
71
330
0
100
AcDbEntity
  8
Spur
 62
     7
100
AcDbLine
 10
1.9143175129
 20
-4.764230118
 30
0
 11
2.1080666702
 21
-5.2464205408
 31
0
  0
SPLINE
  5
72
330
0
100
AcDbEntity
  8
Spur
 62
     7
100
AcDbSpline
 70
     8
 71
     3
 72
     8
 73
     4
 74
     0
 40
0
 40
0
 40
0
 40
0
 40
1
 40
1
 40
1
 40
1
 10
2.1080666702
 20
-5.2464205408
 30
0
 10
2.1263471841
 20
-5.2836310474
 30
0
 10
2.1864920528
 20
-5.3922815492
 30
0
 10
2.3334755661
 20
-5.5490332819
 30
0
  0
SPLINE
  5
73
330
0
100
AcDbEntity
  8
Spur
 62
     7
100
AcDbSpline
 70
     8
 71
     3
 72
     8
 73
     4
 74
     0
 40
0
 40
0
 40
0
 40
0
 40
1
 40
1
 40
1
 40
1
 10
2.3334755661
 20
-5.5490332819
 30
0
 10
2.507902173
 20
-5.7341090105
 30
0
 10
2.7973734908
 20
-5.974871265
 30
0
 10
3.2546093058
 20
-6.1989262677
 30
0
  0
ARC
  5
74
330
0
100
AcDbEntity
  8
Spur
 62
     7
100
AcDbCircle
 10
0.0000000003
 20
0.0000000001
 30
0
 40
7.0013690522
100
AcDbArc
 50
297.700726
 51
302.299274
  0
SPLINE
  5
75
330
0
100
AcDbEntity
  8
Spur
 62
     7
100
AcDbSpline
 70
     8
 71
     3
 72
     8
 73
     4
 74
     0
 40
0
 40
0
 40
0
 40
0
 40
1
 40
1
 40
1
 40
1
 10
3.7411229711
 20
-5.9180374721
 30
0
 10
3.7757035544
 20
-5.4100321394
 30
0
 10
3.7119329847
 20
-5.0389614973
 30
0
 10
3.6388660055
 20
-4.7953657603
 30
0
  0
SPLINE
  5
76
330
0
100
AcDbEntity
  8
Spur
 62
     7
100
AcDbSpline
 70
     8
 71
     3
 72
     8
 73
     4
 74
     0
 40
0
 40
0
 40
0
 40
0
 40
1
 40
1
 40
1
 40
1
 10
3.6388660055
 20
-4.7953657603
 30
0
 10
3.5766067796
 20
-4.5896984375
 30
0
 10
3.5125851192
 20
-4.4832862024
 30
0
 10
3.4895001322
 20
-4.4488495597
 30
0
  0
LINE
  5
77
330
0
100
AcDbEntity
  8
Spur
 62
     7
100
AcDbLine
 10
3.4895001322
 20
-4.4488495597
 30
0
 11
3.1687855552
 21
-4.0399626561
 31
0
  0
ARC
  5
78
330
0
100
AcDbEntity
  8
Spur
 62
     7
100
AcDbCircle
 10
3.4835196589
 20
-3.7930976179
 30
0
 40
0.3999998789
100
AcDbArc
 50
132.563883
 51
218.109241
  0
ARC
  5
79
330
0
100
AcDbEntity
  8
Spur
 62
     7
100
AcDbCircle
 10
0
 20
0
 30
0
 40
4.7500000001
100
AcDbArc
 50
312.563864
 51
317.436136
  0
ARC
  5
7A
330
0
100
AcDbEntity
  8
Spur
 62
     7
100
AcDbCircle
 10
3.7930976179
 20
-3.4835196589
 30
0
 40
0.3999998789
100
AcDbArc
 50
51.890759
 51
137.436117
  0
LINE
  5
7B
330
0
100
AcDbEntity
  8
Spur
 62
     7
100
AcDbLine
 10
4.0399626561
 20
-3.1687855552
 30
0
 11
4.4488495597
 21
-3.4895001322
 31
0
  0
SPLINE
  5
7C
330
0
100
AcDbEntity
  8
Spur
 62
     7
100
AcDbSpline
 70
     8
 71
     3
 72
     8
 73
     4
 74
     0
 40
0
 40
0
 40
0
 40
0
 40
1
 40
1
 40
1
 40
1
 10
4.4488495597
 20
-3.4895001322
 30
0
 10
4.4832862024
 20
-3.5125851192
 30
0
 10
4.5896984375
 20
-3.5766067796
 30
0
 10
4.7953657603
 20
-3.6388660055
 30
0
  0
SPLINE
  5
7D
330
0
100
AcDbEntity
  8
Spur
 62
     7
100
AcDbSpline
 70
     8
 71
     3
 72
     8
 73
     4
 74
     0
 40
0
 40
0
 40
0
 40
0
 40
1
 40
1
 40
1
 40
1
 10
4.7953657603
 20
-3.6388660055
 30
0
 10
5.0389614973
 20
-3.7119329847
 30
0
 10
5.4100321394
 20
-3.7757035544
 30
0
 10
5.9180374721
 20
-3.7411229711
 30
0
  0
ARC
  5
7E
330
0
100
AcDbEntity
  8
Spur
 62
     7
100
AcDbCircle
 10
-0.0000000001
 20
-0.0000000003
 30
0
 40
7.0013690522
100
AcDbArc
 50
327.700726
 51
332.299274
  0
SPLINE
  5
7F
330
0
100
AcDbEntity
  8
Spur
 62
     7
100
AcDbSpline
 70
     8
 71
     3
 72
     8
 73
     4
 74
     0
 40
0
 40
0
 40
0
 40
0
 40
1
 40
1
 40
1
 40
1
 10
6.1989262677
 20
-3.2546093058
 30
0
 10
5.974871265
 20
-2.7973734908
 30
0
 10
5.7341090105
 20
-2.507902173
 30
0
 10
5.5490332819
 20
-2.3334755661
 30
0
  0
SPLINE
  5
80
330
0
100
AcDbEntity
  8
Spur
 62
     7
100
AcDbSpline
 70
     8
 71
     3
 72
     8
 73
     4
 74
     0
 40
0
 40
0
 40
0
 40
0
 40
1
 40
1
 40
1
 40
1
 10
5.5490332819
 20
-2.3334755661
 30
0
 10
5.3922815492
 20
-2.1864920528
 30
0
 10
5.2836310474
 20
-2.1263471841
 30
0
 10
5.2464205408
 20
-2.1080666702
 30
0
  0
LINE
  5
81
330
0
100
AcDbEntity
  8
Spur
 62
     7
100
AcDbLine
 10
5.2464205408
 20
-2.1080666702
 30
0
 11
4.764230118
 21
-1.9143175129
 31
0
  0
ARC
  5
82
330
0
100
AcDbEntity
  8
Spur
 62
     7
100
AcDbCircle
 10
4.9133653282
 20
-1.5431590667
 30
0
 40
0.3999998789
100
AcDbArc
 50
162.563883
 51
248.109241
  0
ENDSEC
  0
SECTION
  2
OBJECTS
  0
DICTIONARY
  5
97
330
0
100
AcDbDictionary
  3
ACAD_GROUP
350
98
  0
DICTIONARY
  5
98
330
97
100
AcDbDictionary
  0
ENDSEC
  0
EOF
