  0
SECTION
  2
HEADER
  9
$INSUNITS
 70
     4
  9
$MEASUREMENT
 70
     1
  9
$ACADVER
  1
AC1012
  9
$HANDSEED
  5
279
  0
ENDSEC
  0
SECTION
  2
TABLES
  0
TABLE
  2
LAYER
  5
4
330
0
100
AcDbSymbolTable
 70
     4
  0
LAYER
  5
5
330
4
100
AcDbSymbolTableRecord
100
AcDbLayerTableRecord
  2
1
 70
     0
 62
     7
  0
LAYER
  5
6
330
4
100
AcDbSymbolTableRecord
100
AcDbLayerTableRecord
  2
Spur
 70
     0
 62
     7
  6
Continuous
  0
LAYER
  5
9
330
4
100
AcDbSymbolTableRecord
100
AcDbLayerTableRecord
  2
decor
 70
     0
 62
     6
  6
Dash
  0
LAYER
  5
268
330
4
100
AcDbSymbolTableRecord
100
AcDbLayerTableRecord
  2
0
 70
     0
  6
Continuous
  0
ENDTAB
  0
TABLE
  2
LTYPE
  5
7
330
0
100
AcDbSymbolTable
 70
     4
  0
LTYPE
  5
8
330
7
100
AcDbSymbolTableRecord
100
AcDbLinetypeTableRecord
  2
Continuous
 70
     0
  3
_
 72
    65
 73
     0
 40
0
  0
LTYPE
  5
A
330
7
100
AcDbSymbolTableRecord
100
AcDbLinetypeTableRecord
  2
Dash
 70
     0
  3
_
 72
    65
 73
     0
 40
0
  0
LTYPE
  5
266
330
7
100
AcDbSymbolTableRecord
100
AcDbLinetypeTableRecord
  2
BYBLOCK
 70
     0
  3
 
 72
    65
 73
     0
 40
0
  0
LTYPE
  5
267
330
7
100
AcDbSymbolTableRecord
100
AcDbLinetypeTableRecord
  2
BYLAYER
 70
     0
  3
 
 72
    65
 73
     0
 40
0
  0
ENDTAB
  0
TABLE
  2
VPORT
  5
263
330
0
100
AcDbSymbolTable
 70
     0
  0
ENDTAB
  0
TABLE
  2
VIEW
  5
264
330
0
100
AcDbSymbolTable
 70
     0
  0
ENDTAB
  0
TABLE
  2
UCS
  5
265
330
0
100
AcDbSymbolTable
 70
     0
  0
ENDTAB
  0
TABLE
  2
STYLE
  5
269
330
0
100
AcDbSymbolTable
 70
     1
  0
STYLE
  5
26A
330
269
100
AcDbSymbolTableRecord
100
AcDbTextStyleTableRecord
  2
STANDARD
 70
     0
 40
0
 41
1
 50
0
 71
     0
 42
1
  0
ENDTAB
  0
TABLE
  2
APPID
  5
26B
330
0
100
AcDbSymbolTable
 70
     1
  0
APPID
  5
26C
330
26B
100
AcDbSymbolTableRecord
100
AcDbRegAppTableRecord
  2
ACAD
 70
     0
  0
ENDTAB
  0
TABLE
  2
DIMSTYLE
  5
26D
330
0
100
AcDbSymbolTable
 70
     0
  0
ENDTAB
  0
TABLE
  2
BLOCK_RECORD
  5
26E
330
0
100
AcDbSymbolTable
 70
     2
  0
BLOCK_RECORD
  5
26F
330
26E
100
AcDbSymbolTableRecord
100
AcDbBlockTableRecord
  2
*MODEL_SPACE
  0
BLOCK_RECORD
  5
270
330
26E
100
AcDbSymbolTableRecord
100
AcDbBlockTableRecord
  2
*PAPER_SPACE
  0
ENDTAB
  0
ENDSEC
  0
SECTION
  2
BLOCKS
  0
BLOCK
  5
272
330
26F
100
AcDbEntity
  8
0
100
AcDbBlockBegin
  2
*MODEL_SPACE
 70
     0
 10
0
 20
0
 30
0
  0
ENDBLK
  5
273
330
26F
100
AcDbEntity
  8
0
100
AcDbBlockEnd
  0
BLOCK
  5
274
330
270
100
AcDbEntity
  8
0
100
AcDbBlockBegin
  2
*PAPER_SPACE
 70
     0
 10
0
 20
0
 30
0
  0
ENDBLK
  5
275
330
270
100
AcDbEntity
  8
0
100
AcDbBlockEnd
  0
ENDSEC
  0
SECTION
  2
ENTITIES
  0
ARC
  5
B
330
0
100
AcDbEntity
  8
Spur
 62
     7
100
AcDbCircle
 10
-0.0000000002
 20
-0.0000000083
 30
0
 40
48.7500022798
100
AcDbArc
 50
358.089368
 51
358.310632
  0
ARC
  5
C
330
0
100
AcDbEntity
  8
Spur
 62
     7
100
AcDbCircle
 10
49.1286347183
 20
-1.4489847682
 30
0
 40
0.3999957481
100
AcDbArc
 50
105.381459
 51
178.309862
  0
SPLINE
  5
D
330
0
100
AcDbEntity
  8
Spur
 62
     7
100
AcDbSpline
 70
     8
 71
     3
 72
     8
 73
     4
 74
     0
 40
0
 40
0
 40
0
 40
0
 40
1
 40
1
 40
1
 40
1
 10
49.0225381952
 20
-1.0633163533
 30
0
 10
49.8053915948
 20
-0.8335850918
 30
0
 10
50.3699491882
 20
-0.6380243345
 30
0
 10
50.9986741767
 20
-0.3780595323
 30
0
  0
ARC
  5
E
330
0
100
AcDbEntity
  8
Spur
 62
     7
100
AcDbCircle
 10
0
 20
0
 30
0
 40
51.0000754587
100
AcDbArc
 50
359.575267
 51
0.424733
  0
SPLINE
  5
F
330
0
100
AcDbEntity
  8
Spur
 62
     7
100
AcDbSpline
 70
     8
 71
     3
 72
     8
 73
     4
 74
     0
 40
0
 40
0
 40
0
 40
0
 40
1
 40
1
 40
1
 40
1
 10
50.9986741767
 20
0.3780595323
 30
0
 10
50.3699491882
 20
0.6380243345
 30
0
 10
49.8053915948
 20
0.8335850918
 30
0
 10
49.0225381952
 20
1.0633163533
 30
0
  0
ARC
  5
10
330
0
100
AcDbEntity
  8
Spur
 62
     7
100
AcDbCircle
 10
49.1286347183
 20
1.4489847682
 30
0
 40
0.3999957481
100
AcDbArc
 50
181.690138
 51
254.618541
  0
ARC
  5
11
330
0
100
AcDbEntity
  8
Spur
 62
     7
100
AcDbCircle
 10
-0.0000000002
 20
0.0000000083
 30
0
 40
48.7500022798
100
AcDbArc
 50
1.689368
 51
1.910632
  0
ARC
  5
12
330
0
100
AcDbEntity
  8
Spur
 62
     7
100
AcDbCircle
 10
49.1226730865
 20
1.63868697
 30
0
 40
0.3999957481
100
AcDbArc
 50
108.981459
 51
181.909862
  0
SPLINE
  5
13
330
0
100
AcDbEntity
  8
Spur
 62
     7
100
AcDbSpline
 70
     8
 71
     3
 72
     8
 73
     4
 74
     0
 40
0
 40
0
 40
0
 40
0
 40
1
 40
1
 40
1
 40
1
 10
48.9925696005
 20
2.0169325006
 30
0
 10
49.7594532724
 20
2.2953662116
 30
0
 10
50.3106174788
 20
2.525989939
 30
0
 10
50.9217784972
 20
2.8249197287
 30
0
  0
ARC
  5
14
330
0
100
AcDbEntity
  8
Spur
 62
     7
100
AcDbCircle
 10
0
 20
-0.0000000007
 30
0
 40
51.0000754587
100
AcDbArc
 50
3.175267
 51
4.024733
  0
SPLINE
  5
15
330
0
100
AcDbEntity
  8
Spur
 62
     7
100
AcDbSpline
 70
     8
 71
     3
 72
     8
 73
     4
 74
     0
 40
0
 40
0
 40
0
 40
0
 40
1
 40
1
 40
1
 40
1
 10
50.8743013883
 20
3.579546765
 30
0
 10
50.23049372
 20
3.7995206174
 30
0
 10
49.6547707905
 20
3.9592466156
 30
0
 10
48.859037228
 20
4.1393687833
 30
0
  0
ARC
  5
16
330
0
100
AcDbEntity
  8
Spur
 62
     7
100
AcDbCircle
 10
48.9407080736
 20
4.5309380255
 30
0
 40
0.3999957481
100
AcDbArc
 50
185.290138
 51
258.218541
  0
ARC
  5
17
330
0
100
AcDbEntity
  8
Spur
 62
     7
100
AcDbCircle
 10
-0.0000000004
 20
0.0000000041
 30
0
 40
48.7500022798
100
AcDbArc
 50
5.289368
 51
5.510632
  0
ARC
  5
18
330
0
100
AcDbEntity
  8
Spur
 62
     7
100
AcDbCircle
 10
48.9228467059
 20
4.7198915593
 30
0
 40
0.3999957481
100
AcDbArc
 50
112.581459
 51
185.509862
  0
SPLINE
  5
19
330
0
100
AcDbEntity
  8
Spur
 62
     7
100
AcDbSpline
 70
     8
 71
     3
 72
     8
 73
     4
 74
     0
 40
0
 40
0
 40
0
 40
0
 40
1
 40
1
 40
1
 40
1
 10
48.7692497161
 20
5.0892214433
 30
0
 10
49.5171371209
 20
5.4152587531
 30
0
 10
50.052732747
 20
5.6800352842
 30
0
 10
50.6439178219
 20
6.0167503221
 30
0
  0
ARC
  5
1A
330
0
100
AcDbEntity
  8
Spur
 62
     7
100
AcDbCircle
 10
-0.0000000002
 20
0.0000000014
 30
0
 40
51.0000754587
100
AcDbArc
 50
6.775267
 51
7.624733
  0
SPLINE
  5
1B
330
0
100
AcDbEntity
  8
Spur
 62
     7
100
AcDbSpline
 70
     8
 71
     3
 72
     8
 73
     4
 74
     0
 40
0
 40
0
 40
0
 40
0
 40
1
 40
1
 40
1
 40
1
 10
50.5491509746
 20
6.766907162
 30
0
 10
49.8928014411
 20
6.9460219283
 30
0
 10
49.3081852909
 20
7.0692828019
 30
0
 10
48.5027119623
 20
7.1990850158
 30
0
  0
ARC
  5
1C
330
0
100
AcDbEntity
  8
Spur
 62
     7
100
AcDbCircle
 10
48.5596348132
 20
7.5950097404
 30
0
 40
0.3999957481
100
AcDbArc
 50
188.890138
 51
261.818541
  0
ARC
  5
1D
330
0
100
AcDbEntity
  8
Spur
 62
     7
100
AcDbCircle
 10
0.0000000015
 20
-0.0000000091
 30
0
 40
48.7500022798
100
AcDbArc
 50
8.889368
 51
9.110632
  0
ARC
  5
1E
330
0
100
AcDbEntity
  8
Spur
 62
     7
100
AcDbCircle
 10
48.5299442002
 20
7.782468893
 30
0
 40
0.3999957481
100
AcDbArc
 50
116.181459
 51
189.109862
  0
SPLINE
  5
1F
330
0
100
AcDbEntity
  8
Spur
 62
     7
100
AcDbSpline
 70
     8
 71
     3
 72
     8
 73
     4
 74
     0
 40
0
 40
0
 40
0
 40
0
 40
1
 40
1
 40
1
 40
1
 10
48.3534598836
 20
8.141425554
 30
0
 10
49.0793994514
 20
8.5137797424
 30
0
 10
49.597312746
 20
8.8116641251
 30
0
 10
50.16618874
 20
9.1848355508
 30
0
  0
ARC
  5
20
330
0
100
AcDbEntity
  8
Spur
 62
     7
100
AcDbCircle
 10
-0.0000000001
 20
0.0000000007
 30
0
 40
51.0000754587
100
AcDbArc
 50
10.375267
 51
11.224733
  0
SPLINE
  5
21
330
0
100
AcDbEntity
  8
Spur
 62
     7
100
AcDbSpline
 70
     8
 71
     3
 72
     8
 73
     4
 74
     0
 40
0
 40
0
 40
0
 40
0
 40
1
 40
1
 40
1
 40
1
 10
50.0245061557
 20
9.927561668
 30
0
 10
49.3582050689
 20
10.0651104639
 30
0
 10
48.7670029108
 20
10.1514197586
 30
0
 10
47.9549686514
 20
10.2303897487
 30
0
  0
ARC
  5
22
330
0
100
AcDbEntity
  8
Spur
 62
     7
100
AcDbCircle
 10
47.9869188588
 20
10.6291074217
 30
0
 40
0.3999957481
100
AcDbArc
 50
192.490138
 51
265.418541
  0
ARC
  5
23
330
0
100
AcDbEntity
  8
Spur
 62
     7
100
AcDbCircle
 10
-0.0000000017
 20
0.0000000077
 30
0
 40
48.7500022798
100
AcDbArc
 50
12.489368
 51
12.710632
  0
ARC
  5
24
330
0
100
AcDbEntity
  8
Spur
 62
     7
100
AcDbCircle
 10
47.9455161759
 20
10.8143323774
 30
0
 40
0.3999957481
100
AcDbArc
 50
119.781459
 51
192.709862
  0
SPLINE
  5
25
330
0
100
AcDbEntity
  8
Spur
 62
     7
100
AcDbSpline
 70
     8
 71
     3
 72
     8
 73
     4
 74
     0
 40
0
 40
0
 40
0
 40
0
 40
1
 40
1
 40
1
 40
1
 10
47.7468410356
 20
11.1614991775
 30
0
 10
48.4479678146
 20
11.5787007326
 30
0
 10
48.9461548104
 20
11.9085173533
 30
0
 10
49.4904766299
 20
12.3166724297
 30
0
  0
ARC
  5
26
330
0
100
AcDbEntity
  8
Spur
 62
     7
100
AcDbCircle
 10
0.0000000006
 20
-0.0000000023
 30
0
 40
51.0000754587
100
AcDbArc
 50
13.975267
 51
14.824733
  0
SPLINE
  5
27
330
0
100
AcDbEntity
  8
Spur
 62
     7
100
AcDbSpline
 70
     8
 71
     3
 72
     8
 73
     4
 74
     0
 40
0
 40
0
 40
0
 40
0
 40
1
 40
1
 40
1
 40
1
 10
49.302437465
 20
13.0490366235
 30
0
 10
48.6288144108
 20
13.1444766069
 30
0
 10
48.0333594497
 20
13.1934936992
 30
0
 10
47.2179689877
 20
13.2213198071
 30
0
  0
ARC
  5
28
330
0
100
AcDbEntity
  8
Spur
 62
     7
100
AcDbCircle
 10
47.2248204589
 20
13.6212568719
 30
0
 40
0.3999957481
100
AcDbArc
 50
196.090138
 51
269.018541
  0
ARC
  5
29
330
0
100
AcDbEntity
  8
Spur
 62
     7
100
AcDbCircle
 10
-0.0000000003
 20
0.0000000018
 30
0
 40
48.7500022797
100
AcDbArc
 50
16.089368
 51
16.310632
  0
ARC
  5
2A
330
0
100
AcDbEntity
  8
Spur
 62
     7
100
AcDbCircle
 10
47.1718691035
 20
13.8035166326
 30
0
 40
0.3999957481
100
AcDbArc
 50
123.381459
 51
196.309862
  0
SPLINE
  5
2B
330
0
100
AcDbEntity
  8
Spur
 62
     7
100
AcDbSpline
 70
     8
 71
     3
 72
     8
 73
     4
 74
     0
 40
0
 40
0
 40
0
 40
0
 40
1
 40
1
 40
1
 40
1
 10
46.9517872194
 20
14.137523463
 30
0
 10
47.6253341825
 20
14.5979258808
 30
0
 10
48.1018287631
 20
14.9583731041
 30
0
 10
48.6194482185
 20
15.3999010294
 30
0
  0
ARC
  5
2C
330
0
100
AcDbEntity
  8
Spur
 62
     7
100
AcDbCircle
 10
-0.0000000008
 20
0.0000000023
 30
0
 40
51.0000754587
100
AcDbArc
 50
17.575267
 51
18.424733
  0
SPLINE
  5
2D
330
0
100
AcDbEntity
  8
Spur
 62
     7
100
AcDbSpline
 70
     8
 71
     3
 72
     8
 73
     4
 74
     0
 40
0
 40
0
 40
0
 40
0
 40
1
 40
1
 40
1
 40
1
 10
48.3857945778
 20
16.1190129929
 30
0
 10
47.7075080387
 20
16.1719675058
 30
0
 10
47.1101502632
 20
16.1834989477
 30
0
 10
46.2946215723
 20
16.1600713564
 30
0
  0
ARC
  5
2E
330
0
100
AcDbEntity
  8
Spur
 62
     7
100
AcDbCircle
 10
46.2763472675
 20
16.5596494442
 30
0
 40
0.3999957481
100
AcDbArc
 50
199.690138
 51
272.618541
  0
ARC
  5
2F
330
0
100
AcDbEntity
  8
Spur
 62
     7
100
AcDbCircle
 10
0.0000000038
 20
-0.0000000105
 30
0
 40
48.7500022798
100
AcDbArc
 50
19.689368
 51
19.910632
  0
ARC
  5
30
330
0
100
AcDbEntity
  8
Spur
 62
     7
100
AcDbCircle
 10
46.2120562145
 20
16.7382247137
 30
0
 40
0.3999957481
100
AcDbArc
 50
126.981459
 51
199.909862
  0
SPLINE
  5
31
330
0
100
AcDbEntity
  8
Spur
 62
     7
100
AcDbSpline
 70
     8
 71
     3
 72
     8
 73
     4
 74
     0
 40
0
 40
0
 40
0
 40
0
 40
1
 40
1
 40
1
 40
1
 10
45.9714361494
 20
17.0577534022
 30
0
 10
46.6147451143
 20
17.5595396848
 30
0
 10
47.0676667733
 20
17.94919499
 30
0
 10
47.5565410572
 20
18.4223532554
 30
0
  0
ARC
  5
32
330
0
100
AcDbEntity
  8
Spur
 62
     7
100
AcDbCircle
 10
-0.0000000008
 20
0.0000000019
 30
0
 40
51.0000754587
100
AcDbArc
 50
21.175267
 51
22.024733
  0
SPLINE
  5
33
330
0
100
AcDbEntity
  8
Spur
 62
     7
100
AcDbSpline
 70
     8
 71
     3
 72
     8
 73
     4
 74
     0
 40
0
 40
0
 40
0
 40
0
 40
1
 40
1
 40
1
 40
1
 10
47.2781950648
 20
19.1253749822
 30
0
 10
46.5979219278
 20
19.1356350373
 30
0
 10
46.0010188363
 20
19.1096353195
 30
0
 10
45.1885704355
 20
19.0350464869
 30
0
  0
ARC
  5
34
330
0
100
AcDbEntity
  8
Spur
 62
     7
100
AcDbCircle
 10
45.1452424752
 20
19.4326886456
 30
0
 40
0.3999957481
100
AcDbArc
 50
203.290138
 51
276.218541
  0
ARC
  5
35
330
0
100
AcDbEntity
  8
Spur
 62
     7
100
AcDbCircle
 10
-0.0000000003
 20
0.0000000006
 30
0
 40
48.7500022798
100
AcDbArc
 50
23.289368
 51
23.510632
  0
ARC
  5
36
330
0
100
AcDbEntity
  8
Spur
 62
     7
100
AcDbCircle
 10
45.0698654519
 20
19.606874669
 30
0
 40
0.3999957481
100
AcDbArc
 50
130.581459
 51
203.509862
  0
SPLINE
  5
37
330
0
100
AcDbEntity
  8
Spur
 62
     7
100
AcDbSpline
 70
     8
 71
     3
 72
     8
 73
     4
 74
     0
 40
0
 40
0
 40
0
 40
0
 40
1
 40
1
 40
1
 40
1
 10
44.8096568232
 20
19.9106641817
 30
0
 10
45.4201889435
 20
20.4518540078
 30
0
 10
45.847750206
 20
20.8691796035
 30
0
 10
46.3059499548
 20
21.3721008694
 30
0
  0
ARC
  5
38
330
0
100
AcDbEntity
  8
Spur
 62
     7
100
AcDbCircle
 10
0.0000000001
 20
-0.0000000003
 30
0
 40
51.0000754587
100
AcDbArc
 50
24.775267
 51
25.624733
  0
SPLINE
  5
39
330
0
100
AcDbEntity
  8
Spur
 62
     7
100
AcDbSpline
 70
     8
 71
     3
 72
     8
 73
     4
 74
     0
 40
0
 40
0
 40
0
 40
0
 40
1
 40
1
 40
1
 40
1
 10
45.9840101151
 20
22.056257854
 30
0
 10
45.3044351077
 20
22.0237829595
 30
0
 10
44.7103424038
 20
21.9603546909
 30
0
 10
43.9041806559
 20
21.8348989853
 30
0
  0
ARC
  5
3A
330
0
100
AcDbEntity
  8
Spur
 62
     7
100
AcDbCircle
 10
43.8359700358
 20
22.2290359029
 30
0
 40
0.3999957481
100
AcDbArc
 50
206.890138
 51
279.818541
  0
ARC
  5
3B
330
0
100
AcDbEntity
  8
Spur
 62
     7
100
AcDbCircle
 10
0.0000000052
 20
-0.0000000098
 30
0
 40
48.7500022797
100
AcDbArc
 50
26.889368
 51
27.110632
  0
ARC
  5
3C
330
0
100
AcDbEntity
  8
Spur
 62
     7
100
AcDbCircle
 10
43.7498045209
 20
22.3981452475
 30
0
 40
0.3999957481
100
AcDbArc
 50
134.181459
 51
207.109862
  0
SPLINE
  5
3D
330
0
100
AcDbEntity
  8
Spur
 62
     7
100
AcDbSpline
 70
     8
 71
     3
 72
     8
 73
     4
 74
     0
 40
0
 40
0
 40
0
 40
0
 40
1
 40
1
 40
1
 40
1
 10
43.4710342531
 20
22.6849966659
 30
0
 10
44.0463800374
 20
23.2634542065
 30
0
 10
44.4468935144
 20
23.7068030994
 30
0
 10
44.8726104231
 20
24.2375025653
 30
0
  0
ARC
  5
3E
330
0
100
AcDbEntity
  8
Spur
 62
     7
100
AcDbCircle
 10
-0.0000000022
 20
0.0000000039
 30
0
 40
51.0000754587
100
AcDbArc
 50
28.375267
 51
29.224733
  0
SPLINE
  5
3F
330
0
100
AcDbEntity
  8
Spur
 62
     7
100
AcDbSpline
 70
     8
 71
     3
 72
     8
 73
     4
 74
     0
 40
0
 40
0
 40
0
 40
0
 40
1
 40
1
 40
1
 40
1
 10
44.5083472857
 20
24.9000947526
 30
0
 10
43.8321523798
 20
24.8250130721
 30
0
 10
43.2432146761
 20
24.7244065752
 30
0
 10
42.4465211332
 20
24.5485791127
 30
0
  0
ARC
  5
40
330
0
100
AcDbEntity
  8
Spur
 62
     7
100
AcDbCircle
 10
42.3536970493
 20
24.9376553108
 30
0
 40
0.3999957481
100
AcDbArc
 50
210.490138
 51
283.418541
  0
ARC
  5
41
330
0
100
AcDbEntity
  8
Spur
 62
     7
100
AcDbCircle
 10
-0.0000000024
 20
0.0000000041
 30
0
 40
48.7500022798
100
AcDbArc
 50
30.489368
 51
30.710632
  0
ARC
  5
42
330
0
100
AcDbEntity
  8
Spur
 62
     7
100
AcDbCircle
 10
42.2570830988
 20
25.1010205794
 30
0
 40
0.3999957481
100
AcDbArc
 50
137.781459
 51
210.709862
  0
SPLINE
  5
43
330
0
100
AcDbEntity
  8
Spur
 62
     7
100
AcDbSpline
 70
     8
 71
     3
 72
     8
 73
     4
 74
     0
 40
0
 40
0
 40
0
 40
0
 40
1
 40
1
 40
1
 40
1
 10
41.9608513708
 20
25.3698018321
 30
0
 10
42.4987401921
 20
25.9832441796
 30
0
 10
42.87062524
 20
26.450866674
 30
0
 10
43.2621791985
 20
27.0072499117
 30
0
  0
ARC
  5
44
330
0
100
AcDbEntity
  8
Spur
 62
     7
100
AcDbCircle
 10
0.0000000007
 20
-0.0000000011
 30
0
 40
51.0000754587
100
AcDbArc
 50
31.975267
 51
32.824733
  0
SPLINE
  5
45
330
0
100
AcDbEntity
  8
Spur
 62
     7
100
AcDbSpline
 70
     8
 71
     3
 72
     8
 73
     4
 74
     0
 40
0
 40
0
 40
0
 40
0
 40
1
 40
1
 40
1
 40
1
 10
42.8570303435
 20
27.6456623529
 30
0
 10
42.1868841714
 20
27.5282701995
 30
0
 10
41.605425736
 20
27.3908825222
 30
0
 10
40.8213445836
 20
27.1653772136
 30
0
  0
ARC
  5
46
330
0
100
AcDbEntity
  8
Spur
 62
     7
100
AcDbCircle
 10
40.7042733701
 20
27.5478571863
 30
0
 40
0.3999957481
100
AcDbArc
 50
214.090138
 51
287.018541
  0
ARC
  5
47
330
0
100
AcDbEntity
  8
Spur
 62
     7
100
AcDbCircle
 10
-0.0000000015
 20
0.0000000025
 30
0
 40
48.7500022797
100
AcDbArc
 50
34.089368
 51
34.310632
  0
ARC
  5
48
330
0
100
AcDbEntity
  8
Spur
 62
     7
100
AcDbCircle
 10
40.5975922751
 20
27.7048336506
 30
0
 40
0.3999957481
100
AcDbArc
 50
141.381459
 51
214.309862
  0
SPLINE
  5
49
330
0
100
AcDbEntity
  8
Spur
 62
     7
100
AcDbSpline
 70
     8
 71
     3
 72
     8
 73
     4
 74
     0
 40
0
 40
0
 40
0
 40
0
 40
1
 40
1
 40
1
 40
1
 10
40.2850681783
 20
27.9544839809
 30
0
 10
40.7833772352
 20
28.6004901586
 30
0
 10
41.1251661935
 20
29.0905407621
 30
0
 10
41.4810119171
 20
29.670411981
 30
0
  0
ARC
  5
4A
330
0
100
AcDbEntity
  8
Spur
 62
     7
100
AcDbCircle
 10
-0.0000000008
 20
0.0000000011
 30
0
 40
51.0000754587
100
AcDbArc
 50
35.575267
 51
36.424733
  0
SPLINE
  5
4B
330
0
100
AcDbEntity
  8
Spur
 62
     7
100
AcDbSpline
 70
     8
 71
     3
 72
     8
 73
     4
 74
     0
 40
0
 40
0
 40
0
 40
0
 40
1
 40
1
 40
1
 40
1
 10
41.036576282
 20
30.282125154
 30
0
 10
40.3751236046
 20
30.122885821
 30
0
 10
39.8034391882
 20
29.9492591696
 30
0
 10
39.0350648363
 20
29.6749659813
 30
0
  0
ARC
  5
4C
330
0
100
AcDbEntity
  8
Spur
 62
     7
100
AcDbCircle
 10
38.89420852
 20
30.0493402548
 30
0
 40
0.3999957481
100
AcDbArc
 50
217.690138
 51
290.618541
  0
ARC
  5
4D
330
0
100
AcDbEntity
  8
Spur
 62
     7
100
AcDbCircle
 10
-0.0000000014
 20
0.000000002
 30
0
 40
48.7500022797
100
AcDbArc
 50
37.689368
 51
37.910632
  0
ARC
  5
4E
330
0
100
AcDbEntity
  8
Spur
 62
     7
100
AcDbCircle
 10
38.777881302
 20
30.1993084005
 30
0
 40
0.3999957481
100
AcDbArc
 50
144.981459
 51
217.909862
  0
SPLINE
  5
4F
330
0
100
AcDbEntity
  8
Spur
 62
     7
100
AcDbSpline
 70
     8
 71
     3
 72
     8
 73
     4
 74
     0
 40
0
 40
0
 40
0
 40
0
 40
1
 40
1
 40
1
 40
1
 10
38.4502982262
 20
30.4288425525
 30
0
 10
38.9070609204
 20
31.1048630691
 30
0
 10
39.2174049043
 20
31.615407776
 30
0
 10
39.5361380326
 20
32.2164784894
 30
0
  0
ARC
  5
50
330
0
100
AcDbEntity
  8
Spur
 62
     7
100
AcDbCircle
 10
0.0000000003
 20
-0.0000000004
 30
0
 40
51.0000754587
100
AcDbArc
 50
39.175267
 51
40.024733
  0
SPLINE
  5
51
330
0
100
AcDbEntity
  8
Spur
 62
     7
100
AcDbSpline
 70
     8
 71
     3
 72
     8
 73
     4
 74
     0
 40
0
 40
0
 40
0
 40
0
 40
1
 40
1
 40
1
 40
1
 10
39.0541696017
 20
32.7990782418
 30
0
 10
38.4040208706
 20
32.5986201739
 30
0
 10
37.8443666504
 20
32.3894397736
 30
0
 10
37.0947315216
 20
32.0674412155
 30
0
  0
ARC
  5
52
330
0
100
AcDbEntity
  8
Spur
 62
     7
100
AcDbCircle
 10
36.9306459979
 20
32.4322323056
 30
0
 40
0.3999957481
100
AcDbArc
 50
221.290138
 51
294.218541
  0
ARC
  5
53
330
0
100
AcDbEntity
  8
Spur
 62
     7
100
AcDbCircle
 10
0.0000000029
 20
-0.0000000032
 30
0
 40
48.7500022798
100
AcDbArc
 50
41.289368
 51
41.510632
  0
ARC
  5
54
330
0
100
AcDbEntity
  8
Spur
 62
     7
100
AcDbCircle
 10
36.8051317473
 20
32.574600277
 30
0
 40
0.3999957481
100
AcDbArc
 50
148.581459
 51
221.509862
  0
SPLINE
  5
55
330
0
100
AcDbEntity
  8
Spur
 62
     7
100
AcDbSpline
 70
     8
 71
     3
 72
     8
 73
     4
 74
     0
 40
0
 40
0
 40
0
 40
0
 40
1
 40
1
 40
1
 40
1
 10
36.4637825132
 20
32.7831123842
 30
0
 10
36.8771962112
 20
33.4864792957
 30
0
 10
37.1548704347
 20
34.0155032192
 30
0
 10
37.4352330736
 20
34.6354012755
 30
0
  0
ARC
  5
56
330
0
100
AcDbEntity
  8
Spur
 62
     7
100
AcDbCircle
 10
-0.0000000007
 20
0.0000000007
 30
0
 40
51.0000754587
100
AcDbArc
 50
42.775267
 51
43.624733
  0
SPLINE
  5
57
330
0
100
AcDbEntity
  8
Spur
 62
     7
100
AcDbSpline
 70
     8
 71
     3
 72
     8
 73
     4
 74
     0
 40
0
 40
0
 40
0
 40
0
 40
1
 40
1
 40
1
 40
1
 10
36.9176339562
 20
35.1865883522
 30
0
 10
36.2813550113
 20
34.9457026659
 30
0
 10
35.7359396869
 20
34.7017940561
 30
0
 10
35.0080022485
 20
34.3333609094
 30
0
  0
ARC
  5
58
330
0
100
AcDbEntity
  8
Spur
 62
     7
100
AcDbCircle
 10
34.821335088
 20
34.6871291523
 30
0
 40
0.3999957481
100
AcDbArc
 50
224.890138
 51
297.818541
  0
ARC
  5
59
330
0
100
AcDbEntity
  8
Spur
 62
     7
100
AcDbCircle
 10
0
 20
0
 30
0
 40
48.7500022798
100
AcDbArc
 50
44.889368
 51
45.110632
  0
ARC
  5
5A
330
0
100
AcDbEntity
  8
Spur
 62
     7
100
AcDbCircle
 10
34.6871291523
 20
34.821335088
 30
0
 40
0.3999957481
100
AcDbArc
 50
152.181459
 51
225.109862
  0
SPLINE
  5
5B
330
0
100
AcDbEntity
  8
Spur
 62
     7
100
AcDbSpline
 70
     8
 71
     3
 72
     8
 73
     4
 74
     0
 40
0
 40
0
 40
0
 40
0
 40
1
 40
1
 40
1
 40
1
 10
34.3333609094
 20
35.0080022485
 30
0
 10
34.7017940561
 20
35.7359396869
 30
0
 10
34.9457026659
 20
36.2813550113
 30
0
 10
35.1865883522
 20
36.9176339562
 30
0
  0
ARC
  5
5C
330
0
100
AcDbEntity
  8
Spur
 62
     7
100
AcDbCircle
 10
0.0000000007
 20
-0.0000000007
 30
0
 40
51.0000754587
100
AcDbArc
 50
46.375267
 51
47.224733
  0
SPLINE
  5
5D
330
0
100
AcDbEntity
  8
Spur
 62
     7
100
AcDbSpline
 70
     8
 71
     3
 72
     8
 73
     4
 74
     0
 40
0
 40
0
 40
0
 40
0
 40
1
 40
1
 40
1
 40
1
 10
34.6354012755
 20
37.4352330736
 30
0
 10
34.0155032192
 20
37.1548704347
 30
0
 10
33.4864792957
 20
36.8771962112
 30
0
 10
32.7831123842
 20
36.4637825132
 30
0
  0
ARC
  5
5E
330
0
100
AcDbEntity
  8
Spur
 62
     7
100
AcDbCircle
 10
32.574600277
 20
36.8051317473
 30
0
 40
0.3999957481
100
AcDbArc
 50
228.490138
 51
301.418541
  0
ARC
  5
5F
330
0
100
AcDbEntity
  8
Spur
 62
     7
100
AcDbCircle
 10
-0.0000000032
 20
0.0000000029
 30
0
 40
48.7500022798
100
AcDbArc
 50
48.489368
 51
48.710632
  0
ARC
  5
60
330
0
100
AcDbEntity
  8
Spur
 62
     7
100
AcDbCircle
 10
32.4322323056
 20
36.9306459979
 30
0
 40
0.3999957481
100
AcDbArc
 50
155.781459
 51
228.709862
  0
SPLINE
  5
61
330
0
100
AcDbEntity
  8
Spur
 62
     7
100
AcDbSpline
 70
     8
 71
     3
 72
     8
 73
     4
 74
     0
 40
0
 40
0
 40
0
 40
0
 40
1
 40
1
 40
1
 40
1
 10
32.0674412155
 20
37.0947315216
 30
0
 10
32.3894397736
 20
37.8443666504
 30
0
 10
32.5986201739
 20
38.4040208706
 30
0
 10
32.7990782418
 20
39.0541696017
 30
0
  0
ARC
  5
62
330
0
100
AcDbEntity
  8
Spur
 62
     7
100
AcDbCircle
 10
-0.0000000004
 20
0.0000000003
 30
0
 40
51.0000754587
100
AcDbArc
 50
49.975267
 51
50.824733
  0
SPLINE
  5
63
330
0
100
AcDbEntity
  8
Spur
 62
     7
100
AcDbSpline
 70
     8
 71
     3
 72
     8
 73
     4
 74
     0
 40
0
 40
0
 40
0
 40
0
 40
1
 40
1
 40
1
 40
1
 10
32.2164784894
 20
39.5361380326
 30
0
 10
31.615407776
 20
39.2174049043
 30
0
 10
31.1048630691
 20
38.9070609204
 30
0
 10
30.4288425525
 20
38.4502982262
 30
0
  0
ARC
  5
64
330
0
100
AcDbEntity
  8
Spur
 62
     7
100
AcDbCircle
 10
30.1993084005
 20
38.777881302
 30
0
 40
0.3999957481
100
AcDbArc
 50
232.090138
 51
305.018541
  0
ARC
  5
65
330
0
100
AcDbEntity
  8
Spur
 62
     7
100
AcDbCircle
 10
0.000000002
 20
-0.0000000014
 30
0
 40
48.7500022797
100
AcDbArc
 50
52.089368
 51
52.310632
  0
ARC
  5
66
330
0
100
AcDbEntity
  8
Spur
 62
     7
100
AcDbCircle
 10
30.0493402548
 20
38.89420852
 30
0
 40
0.3999957481
100
AcDbArc
 50
159.381459
 51
232.309862
  0
SPLINE
  5
67
330
0
100
AcDbEntity
  8
Spur
 62
     7
100
AcDbSpline
 70
     8
 71
     3
 72
     8
 73
     4
 74
     0
 40
0
 40
0
 40
0
 40
0
 40
1
 40
1
 40
1
 40
1
 10
29.6749659813
 20
39.0350648363
 30
0
 10
29.9492591696
 20
39.8034391882
 30
0
 10
30.122885821
 20
40.3751236046
 30
0
 10
30.282125154
 20
41.036576282
 30
0
  0
ARC
  5
68
330
0
100
AcDbEntity
  8
Spur
 62
     7
100
AcDbCircle
 10
0.0000000011
 20
-0.0000000008
 30
0
 40
51.0000754587
100
AcDbArc
 50
53.575267
 51
54.424733
  0
SPLINE
  5
69
330
0
100
AcDbEntity
  8
Spur
 62
     7
100
AcDbSpline
 70
     8
 71
     3
 72
     8
 73
     4
 74
     0
 40
0
 40
0
 40
0
 40
0
 40
1
 40
1
 40
1
 40
1
 10
29.670411981
 20
41.4810119171
 30
0
 10
29.0905407621
 20
41.1251661935
 30
0
 10
28.6004901586
 20
40.7833772352
 30
0
 10
27.9544839809
 20
40.2850681783
 30
0
  0
ARC
  5
6A
330
0
100
AcDbEntity
  8
Spur
 62
     7
100
AcDbCircle
 10
27.7048336506
 20
40.5975922751
 30
0
 40
0.3999957481
100
AcDbArc
 50
235.690138
 51
308.618541
  0
ARC
  5
6B
330
0
100
AcDbEntity
  8
Spur
 62
     7
100
AcDbCircle
 10
0.0000000025
 20
-0.0000000015
 30
0
 40
48.7500022797
100
AcDbArc
 50
55.689368
 51
55.910632
  0
ARC
  5
6C
330
0
100
AcDbEntity
  8
Spur
 62
     7
100
AcDbCircle
 10
27.5478571863
 20
40.7042733701
 30
0
 40
0.3999957481
100
AcDbArc
 50
162.981459
 51
235.909862
  0
SPLINE
  5
6D
330
0
100
AcDbEntity
  8
Spur
 62
     7
100
AcDbSpline
 70
     8
 71
     3
 72
     8
 73
     4
 74
     0
 40
0
 40
0
 40
0
 40
0
 40
1
 40
1
 40
1
 40
1
 10
27.1653772136
 20
40.8213445836
 30
0
 10
27.3908825222
 20
41.605425736
 30
0
 10
27.5282701995
 20
42.1868841714
 30
0
 10
27.6456623529
 20
42.8570303435
 30
0
  0
ARC
  5
6E
330
0
100
AcDbEntity
  8
Spur
 62
     7
100
AcDbCircle
 10
-0.0000000011
 20
0.0000000007
 30
0
 40
51.0000754587
100
AcDbArc
 50
57.175267
 51
58.024733
  0
SPLINE
  5
6F
330
0
100
AcDbEntity
  8
Spur
 62
     7
100
AcDbSpline
 70
     8
 71
     3
 72
     8
 73
     4
 74
     0
 40
0
 40
0
 40
0
 40
0
 40
1
 40
1
 40
1
 40
1
 10
27.0072499117
 20
43.2621791985
 30
0
 10
26.450866674
 20
42.87062524
 30
0
 10
25.9832441796
 20
42.4987401921
 30
0
 10
25.3698018321
 20
41.9608513708
 30
0
  0
ARC
  5
70
330
0
100
AcDbEntity
  8
Spur
 62
     7
100
AcDbCircle
 10
25.1010205794
 20
42.2570830988
 30
0
 40
0.3999957481
100
AcDbArc
 50
239.290138
 51
312.218541
  0
ARC
  5
71
330
0
100
AcDbEntity
  8
Spur
 62
     7
100
AcDbCircle
 10
0.0000000042
 20
-0.0000000023
 30
0
 40
48.7500022797
100
AcDbArc
 50
59.289368
 51
59.510632
  0
ARC
  5
72
330
0
100
AcDbEntity
  8
Spur
 62
     7
100
AcDbCircle
 10
24.9376553108
 20
42.3536970493
 30
0
 40
0.3999957481
100
AcDbArc
 50
166.581459
 51
239.509862
  0
SPLINE
  5
73
330
0
100
AcDbEntity
  8
Spur
 62
     7
100
AcDbSpline
 70
     8
 71
     3
 72
     8
 73
     4
 74
     0
 40
0
 40
0
 40
0
 40
0
 40
1
 40
1
 40
1
 40
1
 10
24.5485791127
 20
42.4465211332
 30
0
 10
24.7244065752
 20
43.2432146761
 30
0
 10
24.8250130721
 20
43.8321523798
 30
0
 10
24.9000947526
 20
44.5083472857
 30
0
  0
ARC
  5
74
330
0
100
AcDbEntity
  8
Spur
 62
     7
100
AcDbCircle
 10
0.0000000039
 20
-0.0000000022
 30
0
 40
51.0000754587
100
AcDbArc
 50
60.775267
 51
61.624733
  0
SPLINE
  5
75
330
0
100
AcDbEntity
  8
Spur
 62
     7
100
AcDbSpline
 70
     8
 71
     3
 72
     8
 73
     4
 74
     0
 40
0
 40
0
 40
0
 40
0
 40
1
 40
1
 40
1
 40
1
 10
24.2375025653
 20
44.8726104231
 30
0
 10
23.7068030994
 20
44.4468935144
 30
0
 10
23.2634542065
 20
44.0463800374
 30
0
 10
22.6849966659
 20
43.4710342531
 30
0
  0
ARC
  5
76
330
0
100
AcDbEntity
  8
Spur
 62
     7
100
AcDbCircle
 10
22.3981452475
 20
43.7498045209
 30
0
 40
0.3999957481
100
AcDbArc
 50
242.890138
 51
315.818541
  0
ARC
  5
77
330
0
100
AcDbEntity
  8
Spur
 62
     7
100
AcDbCircle
 10
0.0000000107
 20
-0.0000000054
 30
0
 40
48.7500022798
100
AcDbArc
 50
62.889368
 51
63.110632
  0
ARC
  5
78
330
0
100
AcDbEntity
  8
Spur
 62
     7
100
AcDbCircle
 10
22.2290359029
 20
43.8359700357
 30
0
 40
0.3999957481
100
AcDbArc
 50
170.181459
 51
243.109862
  0
SPLINE
  5
79
330
0
100
AcDbEntity
  8
Spur
 62
     7
100
AcDbSpline
 70
     8
 71
     3
 72
     8
 73
     4
 74
     0
 40
0
 40
0
 40
0
 40
0
 40
1
 40
1
 40
1
 40
1
 10
21.8348989853
 20
43.9041806559
 30
0
 10
21.9603546909
 20
44.7103424038
 30
0
 10
22.0237829595
 20
45.3044351077
 30
0
 10
22.056257854
 20
45.9840101151
 30
0
  0
ARC
  5
7A
330
0
100
AcDbEntity
  8
Spur
 62
     7
100
AcDbCircle
 10
-0.0000000003
 20
0.0000000001
 30
0
 40
51.0000754587
100
AcDbArc
 50
64.375267
 51
65.224733
  0
SPLINE
  5
7B
330
0
100
AcDbEntity
  8
Spur
 62
     7
100
AcDbSpline
 70
     8
 71
     3
 72
     8
 73
     4
 74
     0
 40
0
 40
0
 40
0
 40
0
 40
1
 40
1
 40
1
 40
1
 10
21.3721008694
 20
46.3059499548
 30
0
 10
20.8691796035
 20
45.847750206
 30
0
 10
20.4518540078
 20
45.4201889435
 30
0
 10
19.9106641817
 20
44.8096568232
 30
0
  0
ARC
  5
7C
330
0
100
AcDbEntity
  8
Spur
 62
     7
100
AcDbCircle
 10
19.606874669
 20
45.0698654519
 30
0
 40
0.3999957481
100
AcDbArc
 50
246.490138
 51
319.418541
  0
ARC
  5
7D
330
0
100
AcDbEntity
  8
Spur
 62
     7
100
AcDbCircle
 10
0.0000000006
 20
-0.0000000003
 30
0
 40
48.7500022798
100
AcDbArc
 50
66.489368
 51
66.710632
  0
ARC
  5
7E
330
0
100
AcDbEntity
  8
Spur
 62
     7
100
AcDbCircle
 10
19.4326886456
 20
45.1452424752
 30
0
 40
0.3999957481
100
AcDbArc
 50
173.781459
 51
246.709862
  0
SPLINE
  5
7F
330
0
100
AcDbEntity
  8
Spur
 62
     7
100
AcDbSpline
 70
     8
 71
     3
 72
     8
 73
     4
 74
     0
 40
0
 40
0
 40
0
 40
0
 40
1
 40
1
 40
1
 40
1
 10
19.0350464869
 20
45.1885704355
 30
0
 10
19.1096353195
 20
46.0010188363
 30
0
 10
19.1356350373
 20
46.5979219278
 30
0
 10
19.1253749822
 20
47.2781950648
 30
0
  0
ARC
  5
80
330
0
100
AcDbEntity
  8
Spur
 62
     7
100
AcDbCircle
 10
0.0000000019
 20
-0.0000000008
 30
0
 40
51.0000754587
100
AcDbArc
 50
67.975267
 51
68.824733
  0
SPLINE
  5
81
330
0
100
AcDbEntity
  8
Spur
 62
     7
100
AcDbSpline
 70
     8
 71
     3
 72
     8
 73
     4
 74
     0
 40
0
 40
0
 40
0
 40
0
 40
1
 40
1
 40
1
 40
1
 10
18.4223532554
 20
47.5565410572
 30
0
 10
17.94919499
 20
47.0676667733
 30
0
 10
17.5595396848
 20
46.6147451143
 30
0
 10
17.0577534022
 20
45.9714361494
 30
0
  0
ARC
  5
82
330
0
100
AcDbEntity
  8
Spur
 62
     7
100
AcDbCircle
 10
16.7382247138
 20
46.2120562146
 30
0
 40
0.3999957481
100
AcDbArc
 50
250.090138
 51
323.018541
  0
ARC
  5
83
330
0
100
AcDbEntity
  8
Spur
 62
     7
100
AcDbCircle
 10
-0.0000000105
 20
0.0000000039
 30
0
 40
48.7500022798
100
AcDbArc
 50
70.089368
 51
70.310632
  0
ARC
  5
84
330
0
100
AcDbEntity
  8
Spur
 62
     7
100
AcDbCircle
 10
16.5596494442
 20
46.2763472676
 30
0
 40
0.3999957481
100
AcDbArc
 50
177.381459
 51
250.309862
  0
SPLINE
  5
85
330
0
100
AcDbEntity
  8
Spur
 62
     7
100
AcDbSpline
 70
     8
 71
     3
 72
     8
 73
     4
 74
     0
 40
0
 40
0
 40
0
 40
0
 40
1
 40
1
 40
1
 40
1
 10
16.1600713564
 20
46.2946215723
 30
0
 10
16.1834989477
 20
47.1101502632
 30
0
 10
16.1719675058
 20
47.7075080387
 30
0
 10
16.1190129929
 20
48.3857945778
 30
0
  0
ARC
  5
86
330
0
100
AcDbEntity
  8
Spur
 62
     7
100
AcDbCircle
 10
0.0000000023
 20
-0.0000000008
 30
0
 40
51.0000754587
100
AcDbArc
 50
71.575267
 51
72.424733
  0
SPLINE
  5
87
330
0
100
AcDbEntity
  8
Spur
 62
     7
100
AcDbSpline
 70
     8
 71
     3
 72
     8
 73
     4
 74
     0
 40
0
 40
0
 40
0
 40
0
 40
1
 40
1
 40
1
 40
1
 10
15.3999010294
 20
48.6194482185
 30
0
 10
14.9583731041
 20
48.1018287631
 30
0
 10
14.5979258808
 20
47.6253341825
 30
0
 10
14.137523463
 20
46.9517872194
 30
0
  0
ARC
  5
88
330
0
100
AcDbEntity
  8
Spur
 62
     7
100
AcDbCircle
 10
13.8035166326
 20
47.1718691035
 30
0
 40
0.3999957481
100
AcDbArc
 50
253.690138
 51
326.618541
  0
ARC
  5
89
330
0
100
AcDbEntity
  8
Spur
 62
     7
100
AcDbCircle
 10
0.0000000017
 20
-0.0000000004
 30
0
 40
48.7500022798
100
AcDbArc
 50
73.689368
 51
73.910632
  0
ARC
  5
8A
330
0
100
AcDbEntity
  8
Spur
 62
     7
100
AcDbCircle
 10
13.6212568719
 20
47.2248204589
 30
0
 40
0.3999957481
100
AcDbArc
 50
180.981459
 51
253.909862
  0
SPLINE
  5
8B
330
0
100
AcDbEntity
  8
Spur
 62
     7
100
AcDbSpline
 70
     8
 71
     3
 72
     8
 73
     4
 74
     0
 40
0
 40
0
 40
0
 40
0
 40
1
 40
1
 40
1
 40
1
 10
13.2213198071
 20
47.2179689877
 30
0
 10
13.1934936992
 20
48.0333594497
 30
0
 10
13.1444766069
 20
48.6288144108
 30
0
 10
13.0490366235
 20
49.302437465
 30
0
  0
ARC
  5
8C
330
0
100
AcDbEntity
  8
Spur
 62
     7
100
AcDbCircle
 10
-0.0000000023
 20
0.0000000006
 30
0
 40
51.0000754587
100
AcDbArc
 50
75.175267
 51
76.024733
  0
SPLINE
  5
8D
330
0
100
AcDbEntity
  8
Spur
 62
     7
100
AcDbSpline
 70
     8
 71
     3
 72
     8
 73
     4
 74
     0
 40
0
 40
0
 40
0
 40
0
 40
1
 40
1
 40
1
 40
1
 10
12.3166724297
 20
49.4904766299
 30
0
 10
11.9085173533
 20
48.9461548104
 30
0
 10
11.5787007326
 20
48.4479678146
 30
0
 10
11.1614991775
 20
47.7468410356
 30
0
  0
ARC
  5
8E
330
0
100
AcDbEntity
  8
Spur
 62
     7
100
AcDbCircle
 10
10.8143323774
 20
47.9455161759
 30
0
 40
0.3999957481
100
AcDbArc
 50
257.290138
 51
330.218541
  0
ARC
  5
8F
330
0
100
AcDbEntity
  8
Spur
 62
     7
100
AcDbCircle
 10
0.0000000077
 20
-0.0000000017
 30
0
 40
48.7500022798
100
AcDbArc
 50
77.289368
 51
77.510632
  0
ARC
  5
90
330
0
100
AcDbEntity
  8
Spur
 62
     7
100
AcDbCircle
 10
10.6291074217
 20
47.9869188588
 30
0
 40
0.3999957481
100
AcDbArc
 50
184.581459
 51
257.509862
  0
SPLINE
  5
91
330
0
100
AcDbEntity
  8
Spur
 62
     7
100
AcDbSpline
 70
     8
 71
     3
 72
     8
 73
     4
 74
     0
 40
0
 40
0
 40
0
 40
0
 40
1
 40
1
 40
1
 40
1
 10
10.2303897487
 20
47.9549686514
 30
0
 10
10.1514197586
 20
48.7670029108
 30
0
 10
10.0651104639
 20
49.3582050689
 30
0
 10
9.927561668
 20
50.0245061557
 30
0
  0
ARC
  5
92
330
0
100
AcDbEntity
  8
Spur
 62
     7
100
AcDbCircle
 10
0.0000000007
 20
-0.0000000001
 30
0
 40
51.0000754587
100
AcDbArc
 50
78.775267
 51
79.624733
  0
SPLINE
  5
93
330
0
100
AcDbEntity
  8
Spur
 62
     7
100
AcDbSpline
 70
     8
 71
     3
 72
     8
 73
     4
 74
     0
 40
0
 40
0
 40
0
 40
0
 40
1
 40
1
 40
1
 40
1
 10
9.1848355508
 20
50.16618874
 30
0
 10
8.8116641251
 20
49.597312746
 30
0
 10
8.5137797424
 20
49.0793994514
 30
0
 10
8.141425554
 20
48.3534598836
 30
0
  0
ARC
  5
94
330
0
100
AcDbEntity
  8
Spur
 62
     7
100
AcDbCircle
 10
7.782468893
 20
48.5299442002
 30
0
 40
0.3999957481
100
AcDbArc
 50
260.890138
 51
333.818541
  0
ARC
  5
95
330
0
100
AcDbEntity
  8
Spur
 62
     7
100
AcDbCircle
 10
-0.0000000091
 20
0.0000000014
 30
0
 40
48.7500022799
100
AcDbArc
 50
80.889368
 51
81.110632
  0
ARC
  5
96
330
0
100
AcDbEntity
  8
Spur
 62
     7
100
AcDbCircle
 10
7.5950097404
 20
48.5596348132
 30
0
 40
0.3999957481
100
AcDbArc
 50
188.181459
 51
261.109862
  0
SPLINE
  5
97
330
0
100
AcDbEntity
  8
Spur
 62
     7
100
AcDbSpline
 70
     8
 71
     3
 72
     8
 73
     4
 74
     0
 40
0
 40
0
 40
0
 40
0
 40
1
 40
1
 40
1
 40
1
 10
7.1990850158
 20
48.5027119623
 30
0
 10
7.0692828019
 20
49.3081852909
 30
0
 10
6.9460219283
 20
49.8928014411
 30
0
 10
6.766907162
 20
50.5491509746
 30
0
  0
ARC
  5
98
330
0
100
AcDbEntity
  8
Spur
 62
     7
100
AcDbCircle
 10
0.0000000014
 20
-0.0000000002
 30
0
 40
51.0000754587
100
AcDbArc
 50
82.375267
 51
83.224733
  0
SPLINE
  5
99
330
0
100
AcDbEntity
  8
Spur
 62
     7
100
AcDbSpline
 70
     8
 71
     3
 72
     8
 73
     4
 74
     0
 40
0
 40
0
 40
0
 40
0
 40
1
 40
1
 40
1
 40
1
 10
6.0167503221
 20
50.6439178219
 30
0
 10
5.6800352842
 20
50.052732747
 30
0
 10
5.4152587531
 20
49.5171371209
 30
0
 10
5.0892214433
 20
48.7692497161
 30
0
  0
ARC
  5
9A
330
0
100
AcDbEntity
  8
Spur
 62
     7
100
AcDbCircle
 10
4.7198915593
 20
48.9228467059
 30
0
 40
0.3999957481
100
AcDbArc
 50
264.490138
 51
337.418541
  0
ARC
  5
9B
330
0
100
AcDbEntity
  8
Spur
 62
     7
100
AcDbCircle
 10
-0.0000000216
 20
0.0000000021
 30
0
 40
48.7500022798
100
AcDbArc
 50
84.489368
 51
84.710632
  0
ARC
  5
9C
330
0
100
AcDbEntity
  8
Spur
 62
     7
100
AcDbCircle
 10
4.5309380255
 20
48.9407080737
 30
0
 40
0.3999957481
100
AcDbArc
 50
191.781459
 51
264.709862
  0
SPLINE
  5
9D
330
0
100
AcDbEntity
  8
Spur
 62
     7
100
AcDbSpline
 70
     8
 71
     3
 72
     8
 73
     4
 74
     0
 40
0
 40
0
 40
0
 40
0
 40
1
 40
1
 40
1
 40
1
 10
4.1393687833
 20
48.859037228
 30
0
 10
3.9592466156
 20
49.6547707905
 30
0
 10
3.7995206174
 20
50.23049372
 30
0
 10
3.579546765
 20
50.8743013883
 30
0
  0
ARC
  5
9E
330
0
100
AcDbEntity
  8
Spur
 62
     7
100
AcDbCircle
 10
-0.0000000007
 20
0
 30
0
 40
51.0000754587
100
AcDbArc
 50
85.975267
 51
86.824733
  0
SPLINE
  5
9F
330
0
100
AcDbEntity
  8
Spur
 62
     7
100
AcDbSpline
 70
     8
 71
     3
 72
     8
 73
     4
 74
     0
 40
0
 40
0
 40
0
 40
0
 40
1
 40
1
 40
1
 40
1
 10
2.8249197287
 20
50.9217784972
 30
0
 10
2.525989939
 20
50.3106174788
 30
0
 10
2.2953662116
 20
49.7594532724
 30
0
 10
2.0169325006
 20
48.9925696005
 30
0
  0
ARC
  5
A0
330
0
100
AcDbEntity
  8
Spur
 62
     7
100
AcDbCircle
 10
1.63868697
 20
49.1226730865
 30
0
 40
0.3999957481
100
AcDbArc
 50
268.090138
 51
341.018541
  0
ARC
  5
A1
330
0
100
AcDbEntity
  8
Spur
 62
     7
100
AcDbCircle
 10
0.0000000083
 20
-0.0000000002
 30
0
 40
48.7500022798
100
AcDbArc
 50
88.089368
 51
88.310632
  0
ARC
  5
A2
330
0
100
AcDbEntity
  8
Spur
 62
     7
100
AcDbCircle
 10
1.4489847682
 20
49.1286347183
 30
0
 40
0.3999957481
100
AcDbArc
 50
195.381459
 51
268.309862
  0
SPLINE
  5
A3
330
0
100
AcDbEntity
  8
Spur
 62
     7
100
AcDbSpline
 70
     8
 71
     3
 72
     8
 73
     4
 74
     0
 40
0
 40
0
 40
0
 40
0
 40
1
 40
1
 40
1
 40
1
 10
1.0633163533
 20
49.0225381952
 30
0
 10
0.8335850918
 20
49.8053915948
 30
0
 10
0.6380243345
 20
50.3699491882
 30
0
 10
0.3780595323
 20
50.9986741767
 30
0
  0
ARC
  5
A4
330
0
100
AcDbEntity
  8
Spur
 62
     7
100
AcDbCircle
 10
0
 20
0
 30
0
 40
51.0000754587
100
AcDbArc
 50
89.575267
 51
90.424733
  0
SPLINE
  5
A5
330
0
100
AcDbEntity
  8
Spur
 62
     7
100
AcDbSpline
 70
     8
 71
     3
 72
     8
 73
     4
 74
     0
 40
0
 40
0
 40
0
 40
0
 40
1
 40
1
 40
1
 40
1
 10
-0.3780595323
 20
50.9986741767
 30
0
 10
-0.6380243345
 20
50.3699491882
 30
0
 10
-0.8335850918
 20
49.8053915948
 30
0
 10
-1.0633163533
 20
49.0225381952
 30
0
  0
ARC
  5
A6
330
0
100
AcDbEntity
  8
Spur
 62
     7
100
AcDbCircle
 10
-1.4489847682
 20
49.1286347183
 30
0
 40
0.3999957481
100
AcDbArc
 50
271.690138
 51
344.618541
  0
ARC
  5
A7
330
0
100
AcDbEntity
  8
Spur
 62
     7
100
AcDbCircle
 10
-0.0000000083
 20
-0.0000000002
 30
0
 40
48.7500022798
100
AcDbArc
 50
91.689368
 51
91.910632
  0
ARC
  5
A8
330
0
100
AcDbEntity
  8
Spur
 62
     7
100
AcDbCircle
 10
-1.63868697
 20
49.1226730865
 30
0
 40
0.3999957481
100
AcDbArc
 50
198.981459
 51
271.909862
  0
SPLINE
  5
A9
330
0
100
AcDbEntity
  8
Spur
 62
     7
100
AcDbSpline
 70
     8
 71
     3
 72
     8
 73
     4
 74
     0
 40
0
 40
0
 40
0
 40
0
 40
1
 40
1
 40
1
 40
1
 10
-2.0169325006
 20
48.9925696005
 30
0
 10
-2.2953662116
 20
49.7594532724
 30
0
 10
-2.525989939
 20
50.3106174788
 30
0
 10
-2.8249197287
 20
50.9217784972
 30
0
  0
ARC
  5
AA
330
0
100
AcDbEntity
  8
Spur
 62
     7
100
AcDbCircle
 10
0.0000000007
 20
0
 30
0
 40
51.0000754587
100
AcDbArc
 50
93.175267
 51
94.024733
  0
SPLINE
  5
AB
330
0
100
AcDbEntity
  8
Spur
 62
     7
100
AcDbSpline
 70
     8
 71
     3
 72
     8
 73
     4
 74
     0
 40
0
 40
0
 40
0
 40
0
 40
1
 40
1
 40
1
 40
1
 10
-3.579546765
 20
50.8743013883
 30
0
 10
-3.7995206174
 20
50.23049372
 30
0
 10
-3.9592466156
 20
49.6547707905
 30
0
 10
-4.1393687833
 20
48.859037228
 30
0
  0
ARC
  5
AC
330
0
100
AcDbEntity
  8
Spur
 62
     7
100
AcDbCircle
 10
-4.5309380255
 20
48.9407080736
 30
0
 40
0.3999957481
100
AcDbArc
 50
275.290138
 51
348.218541
  0
ARC
  5
AD
330
0
100
AcDbEntity
  8
Spur
 62
     7
100
AcDbCircle
 10
-0.0000000041
 20
-0.0000000004
 30
0
 40
48.7500022798
100
AcDbArc
 50
95.289368
 51
95.510632
  0
ARC
  5
AE
330
0
100
AcDbEntity
  8
Spur
 62
     7
100
AcDbCircle
 10
-4.7198915593
 20
48.9228467059
 30
0
 40
0.3999957481
100
AcDbArc
 50
202.581459
 51
275.509862
  0
SPLINE
  5
AF
330
0
100
AcDbEntity
  8
Spur
 62
     7
100
AcDbSpline
 70
     8
 71
     3
 72
     8
 73
     4
 74
     0
 40
0
 40
0
 40
0
 40
0
 40
1
 40
1
 40
1
 40
1
 10
-5.0892214433
 20
48.7692497161
 30
0
 10
-5.4152587531
 20
49.5171371209
 30
0
 10
-5.6800352842
 20
50.052732747
 30
0
 10
-6.0167503221
 20
50.6439178219
 30
0
  0
ARC
  5
B0
330
0
100
AcDbEntity
  8
Spur
 62
     7
100
AcDbCircle
 10
-0.0000000014
 20
-0.0000000002
 30
0
 40
51.0000754587
100
AcDbArc
 50
96.775267
 51
97.624733
  0
SPLINE
  5
B1
330
0
100
AcDbEntity
  8
Spur
 62
     7
100
AcDbSpline
 70
     8
 71
     3
 72
     8
 73
     4
 74
     0
 40
0
 40
0
 40
0
 40
0
 40
1
 40
1
 40
1
 40
1
 10
-6.766907162
 20
50.5491509746
 30
0
 10
-6.9460219283
 20
49.8928014411
 30
0
 10
-7.0692828019
 20
49.3081852909
 30
0
 10
-7.1990850158
 20
48.5027119623
 30
0
  0
ARC
  5
B2
330
0
100
AcDbEntity
  8
Spur
 62
     7
100
AcDbCircle
 10
-7.5950097404
 20
48.5596348132
 30
0
 40
0.3999957481
100
AcDbArc
 50
278.890138
 51
351.818541
  0
ARC
  5
B3
330
0
100
AcDbEntity
  8
Spur
 62
     7
100
AcDbCircle
 10
0.0000000091
 20
0.0000000015
 30
0
 40
48.7500022798
100
AcDbArc
 50
98.889368
 51
99.110632
  0
ARC
  5
B4
330
0
100
AcDbEntity
  8
Spur
 62
     7
100
AcDbCircle
 10
-7.782468893
 20
48.5299442002
 30
0
 40
0.3999957481
100
AcDbArc
 50
206.181459
 51
279.109862
  0
SPLINE
  5
B5
330
0
100
AcDbEntity
  8
Spur
 62
     7
100
AcDbSpline
 70
     8
 71
     3
 72
     8
 73
     4
 74
     0
 40
0
 40
0
 40
0
 40
0
 40
1
 40
1
 40
1
 40
1
 10
-8.141425554
 20
48.3534598836
 30
0
 10
-8.5137797424
 20
49.0793994514
 30
0
 10
-8.8116641251
 20
49.597312746
 30
0
 10
-9.1848355508
 20
50.16618874
 30
0
  0
ARC
  5
B6
330
0
100
AcDbEntity
  8
Spur
 62
     7
100
AcDbCircle
 10
-0.0000000007
 20
-0.0000000001
 30
0
 40
51.0000754587
100
AcDbArc
 50
100.375267
 51
101.224733
  0
SPLINE
  5
B7
330
0
100
AcDbEntity
  8
Spur
 62
     7
100
AcDbSpline
 70
     8
 71
     3
 72
     8
 73
     4
 74
     0
 40
0
 40
0
 40
0
 40
0
 40
1
 40
1
 40
1
 40
1
 10
-9.927561668
 20
50.0245061557
 30
0
 10
-10.0651104639
 20
49.3582050689
 30
0
 10
-10.1514197586
 20
48.7670029108
 30
0
 10
-10.2303897487
 20
47.9549686514
 30
0
  0
ARC
  5
B8
330
0
100
AcDbEntity
  8
Spur
 62
     7
100
AcDbCircle
 10
-10.6291074217
 20
47.9869188588
 30
0
 40
0.3999957481
100
AcDbArc
 50
282.490138
 51
355.418541
  0
ARC
  5
B9
330
0
100
AcDbEntity
  8
Spur
 62
     7
100
AcDbCircle
 10
-0.0000000077
 20
-0.0000000017
 30
0
 40
48.7500022798
100
AcDbArc
 50
102.489368
 51
102.710632
  0
ARC
  5
BA
330
0
100
AcDbEntity
  8
Spur
 62
     7
100
AcDbCircle
 10
-10.8143323774
 20
47.9455161759
 30
0
 40
0.3999957481
100
AcDbArc
 50
209.781459
 51
282.709862
  0
SPLINE
  5
BB
330
0
100
AcDbEntity
  8
Spur
 62
     7
100
AcDbSpline
 70
     8
 71
     3
 72
     8
 73
     4
 74
     0
 40
0
 40
0
 40
0
 40
0
 40
1
 40
1
 40
1
 40
1
 10
-11.1614991775
 20
47.7468410356
 30
0
 10
-11.5787007326
 20
48.4479678146
 30
0
 10
-11.9085173533
 20
48.9461548104
 30
0
 10
-12.3166724297
 20
49.4904766299
 30
0
  0
ARC
  5
BC
330
0
100
AcDbEntity
  8
Spur
 62
     7
100
AcDbCircle
 10
0.0000000023
 20
0.0000000006
 30
0
 40
51.0000754587
100
AcDbArc
 50
103.975267
 51
104.824733
  0
SPLINE
  5
BD
330
0
100
AcDbEntity
  8
Spur
 62
     7
100
AcDbSpline
 70
     8
 71
     3
 72
     8
 73
     4
 74
     0
 40
0
 40
0
 40
0
 40
0
 40
1
 40
1
 40
1
 40
1
 10
-13.0490366235
 20
49.302437465
 30
0
 10
-13.1444766069
 20
48.6288144108
 30
0
 10
-13.1934936992
 20
48.0333594497
 30
0
 10
-13.2213198071
 20
47.2179689877
 30
0
  0
ARC
  5
BE
330
0
100
AcDbEntity
  8
Spur
 62
     7
100
AcDbCircle
 10
-13.6212568719
 20
47.2248204589
 30
0
 40
0.3999957481
100
AcDbArc
 50
286.090138
 51
359.018541
  0
ARC
  5
BF
330
0
100
AcDbEntity
  8
Spur
 62
     7
100
AcDbCircle
 10
-0.0000000018
 20
-0.0000000003
 30
0
 40
48.7500022797
100
AcDbArc
 50
106.089368
 51
106.310632
  0
ARC
  5
C0
330
0
100
AcDbEntity
  8
Spur
 62
     7
100
AcDbCircle
 10
-13.8035166326
 20
47.1718691035
 30
0
 40
0.3999957481
100
AcDbArc
 50
213.381459
 51
286.309862
  0
SPLINE
  5
C1
330
0
100
AcDbEntity
  8
Spur
 62
     7
100
AcDbSpline
 70
     8
 71
     3
 72
     8
 73
     4
 74
     0
 40
0
 40
0
 40
0
 40
0
 40
1
 40
1
 40
1
 40
1
 10
-14.137523463
 20
46.9517872194
 30
0
 10
-14.5979258808
 20
47.6253341825
 30
0
 10
-14.9583731041
 20
48.1018287631
 30
0
 10
-15.3999010294
 20
48.6194482185
 30
0
  0
ARC
  5
C2
330
0
100
AcDbEntity
  8
Spur
 62
     7
100
AcDbCircle
 10
-0.0000000023
 20
-0.0000000008
 30
0
 40
51.0000754587
100
AcDbArc
 50
107.575267
 51
108.424733
  0
SPLINE
  5
C3
330
0
100
AcDbEntity
  8
Spur
 62
     7
100
AcDbSpline
 70
     8
 71
     3
 72
     8
 73
     4
 74
     0
 40
0
 40
0
 40
0
 40
0
 40
1
 40
1
 40
1
 40
1
 10
-16.1190129929
 20
48.3857945778
 30
0
 10
-16.1719675058
 20
47.7075080387
 30
0
 10
-16.1834989477
 20
47.1101502632
 30
0
 10
-16.1600713564
 20
46.2946215723
 30
0
  0
ARC
  5
C4
330
0
100
AcDbEntity
  8
Spur
 62
     7
100
AcDbCircle
 10
-16.5596494442
 20
46.2763472675
 30
0
 40
0.3999957481
100
AcDbArc
 50
289.690138
 51
2.618541
  0
ARC
  5
C5
330
0
100
AcDbEntity
  8
Spur
 62
     7
100
AcDbCircle
 10
0.0000000105
 20
0.0000000038
 30
0
 40
48.7500022798
100
AcDbArc
 50
109.689368
 51
109.910632
  0
ARC
  5
C6
330
0
100
AcDbEntity
  8
Spur
 62
     7
100
AcDbCircle
 10
-16.7382247137
 20
46.2120562145
 30
0
 40
0.3999957481
100
AcDbArc
 50
216.981459
 51
289.909862
  0
SPLINE
  5
C7
330
0
100
AcDbEntity
  8
Spur
 62
     7
100
AcDbSpline
 70
     8
 71
     3
 72
     8
 73
     4
 74
     0
 40
0
 40
0
 40
0
 40
0
 40
1
 40
1
 40
1
 40
1
 10
-17.0577534022
 20
45.9714361494
 30
0
 10
-17.5595396848
 20
46.6147451143
 30
0
 10
-17.94919499
 20
47.0676667733
 30
0
 10
-18.4223532554
 20
47.5565410572
 30
0
  0
ARC
  5
C8
330
0
100
AcDbEntity
  8
Spur
 62
     7
100
AcDbCircle
 10
-0.0000000019
 20
-0.0000000008
 30
0
 40
51.0000754587
100
AcDbArc
 50
111.175267
 51
112.024733
  0
SPLINE
  5
C9
330
0
100
AcDbEntity
  8
Spur
 62
     7
100
AcDbSpline
 70
     8
 71
     3
 72
     8
 73
     4
 74
     0
 40
0
 40
0
 40
0
 40
0
 40
1
 40
1
 40
1
 40
1
 10
-19.1253749822
 20
47.2781950648
 30
0
 10
-19.1356350373
 20
46.5979219278
 30
0
 10
-19.1096353195
 20
46.0010188363
 30
0
 10
-19.0350464869
 20
45.1885704355
 30
0
  0
ARC
  5
CA
330
0
100
AcDbEntity
  8
Spur
 62
     7
100
AcDbCircle
 10
-19.4326886456
 20
45.1452424752
 30
0
 40
0.3999957481
100
AcDbArc
 50
293.290138
 51
6.218541
  0
ARC
  5
CB
330
0
100
AcDbEntity
  8
Spur
 62
     7
100
AcDbCircle
 10
-0.0000000006
 20
-0.0000000003
 30
0
 40
48.7500022798
100
AcDbArc
 50
113.289368
 51
113.510632
  0
ARC
  5
CC
330
0
100
AcDbEntity
  8
Spur
 62
     7
100
AcDbCircle
 10
-19.606874669
 20
45.0698654519
 30
0
 40
0.3999957481
100
AcDbArc
 50
220.581459
 51
293.509862
  0
SPLINE
  5
CD
330
0
100
AcDbEntity
  8
Spur
 62
     7
100
AcDbSpline
 70
     8
 71
     3
 72
     8
 73
     4
 74
     0
 40
0
 40
0
 40
0
 40
0
 40
1
 40
1
 40
1
 40
1
 10
-19.9106641817
 20
44.8096568232
 30
0
 10
-20.4518540078
 20
45.4201889435
 30
0
 10
-20.8691796035
 20
45.847750206
 30
0
 10
-21.3721008694
 20
46.3059499548
 30
0
  0
ARC
  5
CE
330
0
100
AcDbEntity
  8
Spur
 62
     7
100
AcDbCircle
 10
0.0000000003
 20
0.0000000001
 30
0
 40
51.0000754587
100
AcDbArc
 50
114.775267
 51
115.624733
  0
SPLINE
  5
CF
330
0
100
AcDbEntity
  8
Spur
 62
     7
100
AcDbSpline
 70
     8
 71
     3
 72
     8
 73
     4
 74
     0
 40
0
 40
0
 40
0
 40
0
 40
1
 40
1
 40
1
 40
1
 10
-22.056257854
 20
45.9840101151
 30
0
 10
-22.0237829595
 20
45.3044351077
 30
0
 10
-21.9603546909
 20
44.7103424038
 30
0
 10
-21.8348989853
 20
43.9041806559
 30
0
  0
ARC
  5
D0
330
0
100
AcDbEntity
  8
Spur
 62
     7
100
AcDbCircle
 10
-22.2290359029
 20
43.8359700358
 30
0
 40
0.3999957481
100
AcDbArc
 50
296.890138
 51
9.818541
  0
ARC
  5
D1
330
0
100
AcDbEntity
  8
Spur
 62
     7
100
AcDbCircle
 10
0.0000000098
 20
0.0000000052
 30
0
 40
48.7500022797
100
AcDbArc
 50
116.889368
 51
117.110632
  0
ARC
  5
D2
330
0
100
AcDbEntity
  8
Spur
 62
     7
100
AcDbCircle
 10
-22.3981452475
 20
43.7498045209
 30
0
 40
0.3999957481
100
AcDbArc
 50
224.181459
 51
297.109862
  0
SPLINE
  5
D3
330
0
100
AcDbEntity
  8
Spur
 62
     7
100
AcDbSpline
 70
     8
 71
     3
 72
     8
 73
     4
 74
     0
 40
0
 40
0
 40
0
 40
0
 40
1
 40
1
 40
1
 40
1
 10
-22.6849966659
 20
43.4710342531
 30
0
 10
-23.2634542065
 20
44.0463800374
 30
0
 10
-23.7068030994
 20
44.4468935144
 30
0
 10
-24.2375025653
 20
44.8726104231
 30
0
  0
ARC
  5
D4
330
0
100
AcDbEntity
  8
Spur
 62
     7
100
AcDbCircle
 10
-0.0000000039
 20
-0.0000000022
 30
0
 40
51.0000754587
100
AcDbArc
 50
118.375267
 51
119.224733
  0
SPLINE
  5
D5
330
0
100
AcDbEntity
  8
Spur
 62
     7
100
AcDbSpline
 70
     8
 71
     3
 72
     8
 73
     4
 74
     0
 40
0
 40
0
 40
0
 40
0
 40
1
 40
1
 40
1
 40
1
 10
-24.9000947526
 20
44.5083472857
 30
0
 10
-24.8250130721
 20
43.8321523798
 30
0
 10
-24.7244065752
 20
43.2432146761
 30
0
 10
-24.5485791127
 20
42.4465211332
 30
0
  0
ARC
  5
D6
330
0
100
AcDbEntity
  8
Spur
 62
     7
100
AcDbCircle
 10
-24.9376553108
 20
42.3536970493
 30
0
 40
0.3999957481
100
AcDbArc
 50
300.490138
 51
13.418541
  0
ARC
  5
D7
330
0
100
AcDbEntity
  8
Spur
 62
     7
100
AcDbCircle
 10
-0.0000000041
 20
-0.0000000024
 30
0
 40
48.7500022798
100
AcDbArc
 50
120.489368
 51
120.710632
  0
ARC
  5
D8
330
0
100
AcDbEntity
  8
Spur
 62
     7
100
AcDbCircle
 10
-25.1010205794
 20
42.2570830988
 30
0
 40
0.3999957481
100
AcDbArc
 50
227.781459
 51
300.709862
  0
SPLINE
  5
D9
330
0
100
AcDbEntity
  8
Spur
 62
     7
100
AcDbSpline
 70
     8
 71
     3
 72
     8
 73
     4
 74
     0
 40
0
 40
0
 40
0
 40
0
 40
1
 40
1
 40
1
 40
1
 10
-25.3698018321
 20
41.9608513708
 30
0
 10
-25.9832441796
 20
42.4987401921
 30
0
 10
-26.450866674
 20
42.87062524
 30
0
 10
-27.0072499117
 20
43.2621791985
 30
0
  0
ARC
  5
DA
330
0
100
AcDbEntity
  8
Spur
 62
     7
100
AcDbCircle
 10
0.0000000011
 20
0.0000000007
 30
0
 40
51.0000754587
100
AcDbArc
 50
121.975267
 51
122.824733
  0
SPLINE
  5
DB
330
0
100
AcDbEntity
  8
Spur
 62
     7
100
AcDbSpline
 70
     8
 71
     3
 72
     8
 73
     4
 74
     0
 40
0
 40
0
 40
0
 40
0
 40
1
 40
1
 40
1
 40
1
 10
-27.6456623529
 20
42.8570303435
 30
0
 10
-27.5282701995
 20
42.1868841714
 30
0
 10
-27.3908825222
 20
41.605425736
 30
0
 10
-27.1653772136
 20
40.8213445836
 30
0
  0
ARC
  5
DC
330
0
100
AcDbEntity
  8
Spur
 62
     7
100
AcDbCircle
 10
-27.5478571863
 20
40.7042733701
 30
0
 40
0.3999957481
100
AcDbArc
 50
304.090138
 51
17.018541
  0
ARC
  5
DD
330
0
100
AcDbEntity
  8
Spur
 62
     7
100
AcDbCircle
 10
-0.0000000025
 20
-0.0000000015
 30
0
 40
48.7500022797
100
AcDbArc
 50
124.089368
 51
124.310632
  0
ARC
  5
DE
330
0
100
AcDbEntity
  8
Spur
 62
     7
100
AcDbCircle
 10
-27.7048336506
 20
40.5975922751
 30
0
 40
0.3999957481
100
AcDbArc
 50
231.381459
 51
304.309862
  0
SPLINE
  5
DF
330
0
100
AcDbEntity
  8
Spur
 62
     7
100
AcDbSpline
 70
     8
 71
     3
 72
     8
 73
     4
 74
     0
 40
0
 40
0
 40
0
 40
0
 40
1
 40
1
 40
1
 40
1
 10
-27.9544839809
 20
40.2850681783
 30
0
 10
-28.6004901586
 20
40.7833772352
 30
0
 10
-29.0905407621
 20
41.1251661935
 30
0
 10
-29.670411981
 20
41.4810119171
 30
0
  0
ARC
  5
E0
330
0
100
AcDbEntity
  8
Spur
 62
     7
100
AcDbCircle
 10
-0.0000000011
 20
-0.0000000008
 30
0
 40
51.0000754587
100
AcDbArc
 50
125.575267
 51
126.424733
  0
SPLINE
  5
E1
330
0
100
AcDbEntity
  8
Spur
 62
     7
100
AcDbSpline
 70
     8
 71
     3
 72
     8
 73
     4
 74
     0
 40
0
 40
0
 40
0
 40
0
 40
1
 40
1
 40
1
 40
1
 10
-30.282125154
 20
41.036576282
 30
0
 10
-30.122885821
 20
40.3751236046
 30
0
 10
-29.9492591696
 20
39.8034391882
 30
0
 10
-29.6749659813
 20
39.0350648363
 30
0
  0
ARC
  5
E2
330
0
100
AcDbEntity
  8
Spur
 62
     7
100
AcDbCircle
 10
-30.0493402548
 20
38.89420852
 30
0
 40
0.3999957481
100
AcDbArc
 50
307.690138
 51
20.618541
  0
ARC
  5
E3
330
0
100
AcDbEntity
  8
Spur
 62
     7
100
AcDbCircle
 10
-0.000000002
 20
-0.0000000014
 30
0
 40
48.7500022797
100
AcDbArc
 50
127.689368
 51
127.910632
  0
ARC
  5
E4
330
0
100
AcDbEntity
  8
Spur
 62
     7
100
AcDbCircle
 10
-30.1993084005
 20
38.777881302
 30
0
 40
0.3999957481
100
AcDbArc
 50
234.981459
 51
307.909862
  0
SPLINE
  5
E5
330
0
100
AcDbEntity
  8
Spur
 62
     7
100
AcDbSpline
 70
     8
 71
     3
 72
     8
 73
     4
 74
     0
 40
0
 40
0
 40
0
 40
0
 40
1
 40
1
 40
1
 40
1
 10
-30.4288425525
 20
38.4502982262
 30
0
 10
-31.1048630691
 20
38.9070609204
 30
0
 10
-31.615407776
 20
39.2174049043
 30
0
 10
-32.2164784894
 20
39.5361380326
 30
0
  0
ARC
  5
E6
330
0
100
AcDbEntity
  8
Spur
 62
     7
100
AcDbCircle
 10
0.0000000004
 20
0.0000000003
 30
0
 40
51.0000754587
100
AcDbArc
 50
129.175267
 51
130.024733
  0
SPLINE
  5
E7
330
0
100
AcDbEntity
  8
Spur
 62
     7
100
AcDbSpline
 70
     8
 71
     3
 72
     8
 73
     4
 74
     0
 40
0
 40
0
 40
0
 40
0
 40
1
 40
1
 40
1
 40
1
 10
-32.7990782418
 20
39.0541696017
 30
0
 10
-32.5986201739
 20
38.4040208706
 30
0
 10
-32.3894397736
 20
37.8443666504
 30
0
 10
-32.0674412155
 20
37.0947315216
 30
0
  0
ARC
  5
E8
330
0
100
AcDbEntity
  8
Spur
 62
     7
100
AcDbCircle
 10
-32.4322323056
 20
36.9306459979
 30
0
 40
0.3999957481
100
AcDbArc
 50
311.290138
 51
24.218541
  0
ARC
  5
E9
330
0
100
AcDbEntity
  8
Spur
 62
     7
100
AcDbCircle
 10
0.0000000032
 20
0.0000000029
 30
0
 40
48.7500022798
100
AcDbArc
 50
131.289368
 51
131.510632
  0
ARC
  5
EA
330
0
100
AcDbEntity
  8
Spur
 62
     7
100
AcDbCircle
 10
-32.574600277
 20
36.8051317473
 30
0
 40
0.3999957481
100
AcDbArc
 50
238.581459
 51
311.509862
  0
SPLINE
  5
EB
330
0
100
AcDbEntity
  8
Spur
 62
     7
100
AcDbSpline
 70
     8
 71
     3
 72
     8
 73
     4
 74
     0
 40
0
 40
0
 40
0
 40
0
 40
1
 40
1
 40
1
 40
1
 10
-32.7831123842
 20
36.4637825132
 30
0
 10
-33.4864792957
 20
36.8771962112
 30
0
 10
-34.0155032192
 20
37.1548704347
 30
0
 10
-34.6354012755
 20
37.4352330736
 30
0
  0
ARC
  5
EC
330
0
100
AcDbEntity
  8
Spur
 62
     7
100
AcDbCircle
 10
-0.0000000007
 20
-0.0000000007
 30
0
 40
51.0000754587
100
AcDbArc
 50
132.775267
 51
133.624733
  0
SPLINE
  5
ED
330
0
100
AcDbEntity
  8
Spur
 62
     7
100
AcDbSpline
 70
     8
 71
     3
 72
     8
 73
     4
 74
     0
 40
0
 40
0
 40
0
 40
0
 40
1
 40
1
 40
1
 40
1
 10
-35.1865883522
 20
36.9176339562
 30
0
 10
-34.9457026659
 20
36.2813550113
 30
0
 10
-34.7017940561
 20
35.7359396869
 30
0
 10
-34.3333609094
 20
35.0080022485
 30
0
  0
ARC
  5
EE
330
0
100
AcDbEntity
  8
Spur
 62
     7
100
AcDbCircle
 10
-34.6871291523
 20
34.821335088
 30
0
 40
0.3999957481
100
AcDbArc
 50
314.890138
 51
27.818541
  0
ARC
  5
EF
330
0
100
AcDbEntity
  8
Spur
 62
     7
100
AcDbCircle
 10
0
 20
0
 30
0
 40
48.7500022798
100
AcDbArc
 50
134.889368
 51
135.110632
  0
ARC
  5
F0
330
0
100
AcDbEntity
  8
Spur
 62
     7
100
AcDbCircle
 10
-34.821335088
 20
34.6871291523
 30
0
 40
0.3999957481
100
AcDbArc
 50
242.181459
 51
315.109862
  0
SPLINE
  5
F1
330
0
100
AcDbEntity
  8
Spur
 62
     7
100
AcDbSpline
 70
     8
 71
     3
 72
     8
 73
     4
 74
     0
 40
0
 40
0
 40
0
 40
0
 40
1
 40
1
 40
1
 40
1
 10
-35.0080022485
 20
34.3333609094
 30
0
 10
-35.7359396869
 20
34.7017940561
 30
0
 10
-36.2813550113
 20
34.9457026659
 30
0
 10
-36.9176339562
 20
35.1865883522
 30
0
  0
ARC
  5
F2
330
0
100
AcDbEntity
  8
Spur
 62
     7
100
AcDbCircle
 10
0.0000000007
 20
0.0000000007
 30
0
 40
51.0000754587
100
AcDbArc
 50
136.375267
 51
137.224733
  0
SPLINE
  5
F3
330
0
100
AcDbEntity
  8
Spur
 62
     7
100
AcDbSpline
 70
     8
 71
     3
 72
     8
 73
     4
 74
     0
 40
0
 40
0
 40
0
 40
0
 40
1
 40
1
 40
1
 40
1
 10
-37.4352330736
 20
34.6354012755
 30
0
 10
-37.1548704347
 20
34.0155032192
 30
0
 10
-36.8771962112
 20
33.4864792957
 30
0
 10
-36.4637825132
 20
32.7831123842
 30
0
  0
ARC
  5
F4
330
0
100
AcDbEntity
  8
Spur
 62
     7
100
AcDbCircle
 10
-36.8051317473
 20
32.574600277
 30
0
 40
0.3999957481
100
AcDbArc
 50
318.490138
 51
31.418541
  0
ARC
  5
F5
330
0
100
AcDbEntity
  8
Spur
 62
     7
100
AcDbCircle
 10
-0.0000000029
 20
-0.0000000032
 30
0
 40
48.7500022798
100
AcDbArc
 50
138.489368
 51
138.710632
  0
ARC
  5
F6
330
0
100
AcDbEntity
  8
Spur
 62
     7
100
AcDbCircle
 10
-36.9306459979
 20
32.4322323056
 30
0
 40
0.3999957481
100
AcDbArc
 50
245.781459
 51
318.709862
  0
SPLINE
  5
F7
330
0
100
AcDbEntity
  8
Spur
 62
     7
100
AcDbSpline
 70
     8
 71
     3
 72
     8
 73
     4
 74
     0
 40
0
 40
0
 40
0
 40
0
 40
1
 40
1
 40
1
 40
1
 10
-37.0947315216
 20
32.0674412155
 30
0
 10
-37.8443666504
 20
32.3894397736
 30
0
 10
-38.4040208706
 20
32.5986201739
 30
0
 10
-39.0541696017
 20
32.7990782418
 30
0
  0
ARC
  5
F8
330
0
100
AcDbEntity
  8
Spur
 62
     7
100
AcDbCircle
 10
-0.0000000003
 20
-0.0000000004
 30
0
 40
51.0000754587
100
AcDbArc
 50
139.975267
 51
140.824733
  0
SPLINE
  5
F9
330
0
100
AcDbEntity
  8
Spur
 62
     7
100
AcDbSpline
 70
     8
 71
     3
 72
     8
 73
     4
 74
     0
 40
0
 40
0
 40
0
 40
0
 40
1
 40
1
 40
1
 40
1
 10
-39.5361380326
 20
32.2164784894
 30
0
 10
-39.2174049043
 20
31.615407776
 30
0
 10
-38.9070609204
 20
31.1048630691
 30
0
 10
-38.4502982262
 20
30.4288425525
 30
0
  0
ARC
  5
FA
330
0
100
AcDbEntity
  8
Spur
 62
     7
100
AcDbCircle
 10
-38.777881302
 20
30.1993084005
 30
0
 40
0.3999957481
100
AcDbArc
 50
322.090138
 51
35.018541
  0
ARC
  5
FB
330
0
100
AcDbEntity
  8
Spur
 62
     7
100
AcDbCircle
 10
0.0000000014
 20
0.000000002
 30
0
 40
48.7500022797
100
AcDbArc
 50
142.089368
 51
142.310632
  0
ARC
  5
FC
330
0
100
AcDbEntity
  8
Spur
 62
     7
100
AcDbCircle
 10
-38.89420852
 20
30.0493402548
 30
0
 40
0.3999957481
100
AcDbArc
 50
249.381459
 51
322.309862
  0
SPLINE
  5
FD
330
0
100
AcDbEntity
  8
Spur
 62
     7
100
AcDbSpline
 70
     8
 71
     3
 72
     8
 73
     4
 74
     0
 40
0
 40
0
 40
0
 40
0
 40
1
 40
1
 40
1
 40
1
 10
-39.0350648363
 20
29.6749659813
 30
0
 10
-39.8034391882
 20
29.9492591696
 30
0
 10
-40.3751236046
 20
30.122885821
 30
0
 10
-41.036576282
 20
30.282125154
 30
0
  0
ARC
  5
FE
330
0
100
AcDbEntity
  8
Spur
 62
     7
100
AcDbCircle
 10
0.0000000008
 20
0.0000000011
 30
0
 40
51.0000754587
100
AcDbArc
 50
143.575267
 51
144.424733
  0
SPLINE
  5
FF
330
0
100
AcDbEntity
  8
Spur
 62
     7
100
AcDbSpline
 70
     8
 71
     3
 72
     8
 73
     4
 74
     0
 40
0
 40
0
 40
0
 40
0
 40
1
 40
1
 40
1
 40
1
 10
-41.4810119171
 20
29.670411981
 30
0
 10
-41.1251661935
 20
29.0905407621
 30
0
 10
-40.7833772352
 20
28.6004901586
 30
0
 10
-40.2850681783
 20
27.9544839809
 30
0
  0
ARC
  5
100
330
0
100
AcDbEntity
  8
Spur
 62
     7
100
AcDbCircle
 10
-40.5975922751
 20
27.7048336506
 30
0
 40
0.3999957481
100
AcDbArc
 50
325.690138
 51
38.618541
  0
ARC
  5
101
330
0
100
AcDbEntity
  8
Spur
 62
     7
100
AcDbCircle
 10
0.0000000015
 20
0.0000000025
 30
0
 40
48.7500022797
100
AcDbArc
 50
145.689368
 51
145.910632
  0
ARC
  5
102
330
0
100
AcDbEntity
  8
Spur
 62
     7
100
AcDbCircle
 10
-40.7042733701
 20
27.5478571863
 30
0
 40
0.3999957481
100
AcDbArc
 50
252.981459
 51
325.909862
  0
SPLINE
  5
103
330
0
100
AcDbEntity
  8
Spur
 62
     7
100
AcDbSpline
 70
     8
 71
     3
 72
     8
 73
     4
 74
     0
 40
0
 40
0
 40
0
 40
0
 40
1
 40
1
 40
1
 40
1
 10
-40.8213445836
 20
27.1653772136
 30
0
 10
-41.605425736
 20
27.3908825222
 30
0
 10
-42.1868841714
 20
27.5282701995
 30
0
 10
-42.8570303435
 20
27.6456623529
 30
0
  0
ARC
  5
104
330
0
100
AcDbEntity
  8
Spur
 62
     7
100
AcDbCircle
 10
-0.0000000007
 20
-0.0000000011
 30
0
 40
51.0000754587
100
AcDbArc
 50
147.175267
 51
148.024733
  0
SPLINE
  5
105
330
0
100
AcDbEntity
  8
Spur
 62
     7
100
AcDbSpline
 70
     8
 71
     3
 72
     8
 73
     4
 74
     0
 40
0
 40
0
 40
0
 40
0
 40
1
 40
1
 40
1
 40
1
 10
-43.2621791985
 20
27.0072499117
 30
0
 10
-42.87062524
 20
26.450866674
 30
0
 10
-42.4987401921
 20
25.9832441796
 30
0
 10
-41.9608513708
 20
25.3698018321
 30
0
  0
ARC
  5
106
330
0
100
AcDbEntity
  8
Spur
 62
     7
100
AcDbCircle
 10
-42.2570830988
 20
25.1010205794
 30
0
 40
0.3999957481
100
AcDbArc
 50
329.290138
 51
42.218541
  0
ARC
  5
107
330
0
100
AcDbEntity
  8
Spur
 62
     7
100
AcDbCircle
 10
0.0000000023
 20
0.0000000042
 30
0
 40
48.7500022797
100
AcDbArc
 50
149.289368
 51
149.510632
  0
ARC
  5
108
330
0
100
AcDbEntity
  8
Spur
 62
     7
100
AcDbCircle
 10
-42.3536970493
 20
24.9376553108
 30
0
 40
0.3999957481
100
AcDbArc
 50
256.581459
 51
329.509862
  0
SPLINE
  5
109
330
0
100
AcDbEntity
  8
Spur
 62
     7
100
AcDbSpline
 70
     8
 71
     3
 72
     8
 73
     4
 74
     0
 40
0
 40
0
 40
0
 40
0
 40
1
 40
1
 40
1
 40
1
 10
-42.4465211332
 20
24.5485791127
 30
0
 10
-43.2432146761
 20
24.7244065752
 30
0
 10
-43.8321523798
 20
24.8250130721
 30
0
 10
-44.5083472857
 20
24.9000947526
 30
0
  0
ARC
  5
10A
330
0
100
AcDbEntity
  8
Spur
 62
     7
100
AcDbCircle
 10
0.0000000022
 20
0.0000000039
 30
0
 40
51.0000754587
100
AcDbArc
 50
150.775267
 51
151.624733
  0
SPLINE
  5
10B
330
0
100
AcDbEntity
  8
Spur
 62
     7
100
AcDbSpline
 70
     8
 71
     3
 72
     8
 73
     4
 74
     0
 40
0
 40
0
 40
0
 40
0
 40
1
 40
1
 40
1
 40
1
 10
-44.8726104231
 20
24.2375025653
 30
0
 10
-44.4468935144
 20
23.7068030994
 30
0
 10
-44.0463800374
 20
23.2634542065
 30
0
 10
-43.4710342531
 20
22.6849966659
 30
0
  0
ARC
  5
10C
330
0
100
AcDbEntity
  8
Spur
 62
     7
100
AcDbCircle
 10
-43.7498045209
 20
22.3981452475
 30
0
 40
0.3999957481
100
AcDbArc
 50
332.890138
 51
45.818541
  0
ARC
  5
10D
330
0
100
AcDbEntity
  8
Spur
 62
     7
100
AcDbCircle
 10
0.0000000054
 20
0.0000000107
 30
0
 40
48.7500022798
100
AcDbArc
 50
152.889368
 51
153.110632
  0
ARC
  5
10E
330
0
100
AcDbEntity
  8
Spur
 62
     7
100
AcDbCircle
 10
-43.8359700357
 20
22.2290359029
 30
0
 40
0.3999957481
100
AcDbArc
 50
260.181459
 51
333.109862
  0
SPLINE
  5
10F
330
0
100
AcDbEntity
  8
Spur
 62
     7
100
AcDbSpline
 70
     8
 71
     3
 72
     8
 73
     4
 74
     0
 40
0
 40
0
 40
0
 40
0
 40
1
 40
1
 40
1
 40
1
 10
-43.9041806559
 20
21.8348989853
 30
0
 10
-44.7103424038
 20
21.9603546909
 30
0
 10
-45.3044351077
 20
22.0237829595
 30
0
 10
-45.9840101151
 20
22.056257854
 30
0
  0
ARC
  5
110
330
0
100
AcDbEntity
  8
Spur
 62
     7
100
AcDbCircle
 10
-0.0000000001
 20
-0.0000000003
 30
0
 40
51.0000754587
100
AcDbArc
 50
154.375267
 51
155.224733
  0
SPLINE
  5
111
330
0
100
AcDbEntity
  8
Spur
 62
     7
100
AcDbSpline
 70
     8
 71
     3
 72
     8
 73
     4
 74
     0
 40
0
 40
0
 40
0
 40
0
 40
1
 40
1
 40
1
 40
1
 10
-46.3059499548
 20
21.3721008694
 30
0
 10
-45.847750206
 20
20.8691796035
 30
0
 10
-45.4201889435
 20
20.4518540078
 30
0
 10
-44.8096568232
 20
19.9106641817
 30
0
  0
ARC
  5
112
330
0
100
AcDbEntity
  8
Spur
 62
     7
100
AcDbCircle
 10
-45.0698654519
 20
19.606874669
 30
0
 40
0.3999957481
100
AcDbArc
 50
336.490138
 51
49.418541
  0
ARC
  5
113
330
0
100
AcDbEntity
  8
Spur
 62
     7
100
AcDbCircle
 10
0.0000000003
 20
0.0000000006
 30
0
 40
48.7500022798
100
AcDbArc
 50
156.489368
 51
156.710632
  0
ARC
  5
114
330
0
100
AcDbEntity
  8
Spur
 62
     7
100
AcDbCircle
 10
-45.1452424752
 20
19.4326886456
 30
0
 40
0.3999957481
100
AcDbArc
 50
263.781459
 51
336.709862
  0
SPLINE
  5
115
330
0
100
AcDbEntity
  8
Spur
 62
     7
100
AcDbSpline
 70
     8
 71
     3
 72
     8
 73
     4
 74
     0
 40
0
 40
0
 40
0
 40
0
 40
1
 40
1
 40
1
 40
1
 10
-45.1885704355
 20
19.0350464869
 30
0
 10
-46.0010188363
 20
19.1096353195
 30
0
 10
-46.5979219278
 20
19.1356350373
 30
0
 10
-47.2781950648
 20
19.1253749822
 30
0
  0
ARC
  5
116
330
0
100
AcDbEntity
  8
Spur
 62
     7
100
AcDbCircle
 10
0.0000000008
 20
0.0000000019
 30
0
 40
51.0000754587
100
AcDbArc
 50
157.975267
 51
158.824733
  0
SPLINE
  5
117
330
0
100
AcDbEntity
  8
Spur
 62
     7
100
AcDbSpline
 70
     8
 71
     3
 72
     8
 73
     4
 74
     0
 40
0
 40
0
 40
0
 40
0
 40
1
 40
1
 40
1
 40
1
 10
-47.5565410572
 20
18.4223532554
 30
0
 10
-47.0676667733
 20
17.94919499
 30
0
 10
-46.6147451143
 20
17.5595396848
 30
0
 10
-45.9714361494
 20
17.0577534022
 30
0
  0
ARC
  5
118
330
0
100
AcDbEntity
  8
Spur
 62
     7
100
AcDbCircle
 10
-46.2120562146
 20
16.7382247138
 30
0
 40
0.3999957481
100
AcDbArc
 50
340.090138
 51
53.018541
  0
ARC
  5
119
330
0
100
AcDbEntity
  8
Spur
 62
     7
100
AcDbCircle
 10
-0.0000000039
 20
-0.0000000105
 30
0
 40
48.7500022798
100
AcDbArc
 50
160.089368
 51
160.310632
  0
ARC
  5
11A
330
0
100
AcDbEntity
  8
Spur
 62
     7
100
AcDbCircle
 10
-46.2763472676
 20
16.5596494442
 30
0
 40
0.3999957481
100
AcDbArc
 50
267.381459
 51
340.309862
  0
SPLINE
  5
11B
330
0
100
AcDbEntity
  8
Spur
 62
     7
100
AcDbSpline
 70
     8
 71
     3
 72
     8
 73
     4
 74
     0
 40
0
 40
0
 40
0
 40
0
 40
1
 40
1
 40
1
 40
1
 10
-46.2946215723
 20
16.1600713564
 30
0
 10
-47.1101502632
 20
16.1834989477
 30
0
 10
-47.7075080387
 20
16.1719675058
 30
0
 10
-48.3857945778
 20
16.1190129929
 30
0
  0
ARC
  5
11C
330
0
100
AcDbEntity
  8
Spur
 62
     7
100
AcDbCircle
 10
0.0000000008
 20
0.0000000023
 30
0
 40
51.0000754587
100
AcDbArc
 50
161.575267
 51
162.424733
  0
SPLINE
  5
11D
330
0
100
AcDbEntity
  8
Spur
 62
     7
100
AcDbSpline
 70
     8
 71
     3
 72
     8
 73
     4
 74
     0
 40
0
 40
0
 40
0
 40
0
 40
1
 40
1
 40
1
 40
1
 10
-48.6194482185
 20
15.3999010294
 30
0
 10
-48.1018287631
 20
14.9583731041
 30
0
 10
-47.6253341825
 20
14.5979258808
 30
0
 10
-46.9517872194
 20
14.137523463
 30
0
  0
ARC
  5
11E
330
0
100
AcDbEntity
  8
Spur
 62
     7
100
AcDbCircle
 10
-47.1718691035
 20
13.8035166326
 30
0
 40
0.3999957481
100
AcDbArc
 50
343.690138
 51
56.618541
  0
ARC
  5
11F
330
0
100
AcDbEntity
  8
Spur
 62
     7
100
AcDbCircle
 10
0.0000000004
 20
0.0000000017
 30
0
 40
48.7500022798
100
AcDbArc
 50
163.689368
 51
163.910632
  0
ARC
  5
120
330
0
100
AcDbEntity
  8
Spur
 62
     7
100
AcDbCircle
 10
-47.2248204589
 20
13.6212568719
 30
0
 40
0.3999957481
100
AcDbArc
 50
270.981459
 51
343.909862
  0
SPLINE
  5
121
330
0
100
AcDbEntity
  8
Spur
 62
     7
100
AcDbSpline
 70
     8
 71
     3
 72
     8
 73
     4
 74
     0
 40
0
 40
0
 40
0
 40
0
 40
1
 40
1
 40
1
 40
1
 10
-47.2179689877
 20
13.2213198071
 30
0
 10
-48.0333594497
 20
13.1934936992
 30
0
 10
-48.6288144108
 20
13.1444766069
 30
0
 10
-49.302437465
 20
13.0490366235
 30
0
  0
ARC
  5
122
330
0
100
AcDbEntity
  8
Spur
 62
     7
100
AcDbCircle
 10
-0.0000000006
 20
-0.0000000023
 30
0
 40
51.0000754587
100
AcDbArc
 50
165.175267
 51
166.024733
  0
SPLINE
  5
123
330
0
100
AcDbEntity
  8
Spur
 62
     7
100
AcDbSpline
 70
     8
 71
     3
 72
     8
 73
     4
 74
     0
 40
0
 40
0
 40
0
 40
0
 40
1
 40
1
 40
1
 40
1
 10
-49.4904766299
 20
12.3166724297
 30
0
 10
-48.9461548104
 20
11.9085173533
 30
0
 10
-48.4479678146
 20
11.5787007326
 30
0
 10
-47.7468410356
 20
11.1614991775
 30
0
  0
ARC
  5
124
330
0
100
AcDbEntity
  8
Spur
 62
     7
100
AcDbCircle
 10
-47.9455161759
 20
10.8143323774
 30
0
 40
0.3999957481
100
AcDbArc
 50
347.290138
 51
60.218541
  0
ARC
  5
125
330
0
100
AcDbEntity
  8
Spur
 62
     7
100
AcDbCircle
 10
0.0000000017
 20
0.0000000077
 30
0
 40
48.7500022798
100
AcDbArc
 50
167.289368
 51
167.510632
  0
ARC
  5
126
330
0
100
AcDbEntity
  8
Spur
 62
     7
100
AcDbCircle
 10
-47.9869188588
 20
10.6291074217
 30
0
 40
0.3999957481
100
AcDbArc
 50
274.581459
 51
347.509862
  0
SPLINE
  5
127
330
0
100
AcDbEntity
  8
Spur
 62
     7
100
AcDbSpline
 70
     8
 71
     3
 72
     8
 73
     4
 74
     0
 40
0
 40
0
 40
0
 40
0
 40
1
 40
1
 40
1
 40
1
 10
-47.9549686514
 20
10.2303897487
 30
0
 10
-48.7670029108
 20
10.1514197586
 30
0
 10
-49.3582050689
 20
10.0651104639
 30
0
 10
-50.0245061557
 20
9.927561668
 30
0
  0
ARC
  5
128
330
0
100
AcDbEntity
  8
Spur
 62
     7
100
AcDbCircle
 10
0.0000000001
 20
0.0000000007
 30
0
 40
51.0000754587
100
AcDbArc
 50
168.775267
 51
169.624733
  0
SPLINE
  5
129
330
0
100
AcDbEntity
  8
Spur
 62
     7
100
AcDbSpline
 70
     8
 71
     3
 72
     8
 73
     4
 74
     0
 40
0
 40
0
 40
0
 40
0
 40
1
 40
1
 40
1
 40
1
 10
-50.16618874
 20
9.1848355508
 30
0
 10
-49.597312746
 20
8.8116641251
 30
0
 10
-49.0793994514
 20
8.5137797424
 30
0
 10
-48.3534598836
 20
8.141425554
 30
0
  0
ARC
  5
12A
330
0
100
AcDbEntity
  8
Spur
 62
     7
100
AcDbCircle
 10
-48.5299442002
 20
7.782468893
 30
0
 40
0.3999957481
100
AcDbArc
 50
350.890138
 51
63.818541
  0
ARC
  5
12B
330
0
100
AcDbEntity
  8
Spur
 62
     7
100
AcDbCircle
 10
-0.0000000014
 20
-0.0000000091
 30
0
 40
48.7500022799
100
AcDbArc
 50
170.889368
 51
171.110632
  0
ARC
  5
12C
330
0
100
AcDbEntity
  8
Spur
 62
     7
100
AcDbCircle
 10
-48.5596348132
 20
7.5950097404
 30
0
 40
0.3999957481
100
AcDbArc
 50
278.181459
 51
351.109862
  0
SPLINE
  5
12D
330
0
100
AcDbEntity
  8
Spur
 62
     7
100
AcDbSpline
 70
     8
 71
     3
 72
     8
 73
     4
 74
     0
 40
0
 40
0
 40
0
 40
0
 40
1
 40
1
 40
1
 40
1
 10
-48.5027119623
 20
7.1990850158
 30
0
 10
-49.3081852909
 20
7.0692828019
 30
0
 10
-49.8928014411
 20
6.9460219283
 30
0
 10
-50.5491509746
 20
6.766907162
 30
0
  0
ARC
  5
12E
330
0
100
AcDbEntity
  8
Spur
 62
     7
100
AcDbCircle
 10
0.0000000002
 20
0.0000000014
 30
0
 40
51.0000754587
100
AcDbArc
 50
172.375267
 51
173.224733
  0
SPLINE
  5
12F
330
0
100
AcDbEntity
  8
Spur
 62
     7
100
AcDbSpline
 70
     8
 71
     3
 72
     8
 73
     4
 74
     0
 40
0
 40
0
 40
0
 40
0
 40
1
 40
1
 40
1
 40
1
 10
-50.6439178219
 20
6.0167503221
 30
0
 10
-50.052732747
 20
5.6800352842
 30
0
 10
-49.5171371209
 20
5.4152587531
 30
0
 10
-48.7692497161
 20
5.0892214433
 30
0
  0
ARC
  5
130
330
0
100
AcDbEntity
  8
Spur
 62
     7
100
AcDbCircle
 10
-48.9228467059
 20
4.7198915593
 30
0
 40
0.3999957481
100
AcDbArc
 50
354.490138
 51
67.418541
  0
ARC
  5
131
330
0
100
AcDbEntity
  8
Spur
 62
     7
100
AcDbCircle
 10
-0.0000000021
 20
-0.0000000216
 30
0
 40
48.7500022798
100
AcDbArc
 50
174.489368
 51
174.710632
  0
ARC
  5
132
330
0
100
AcDbEntity
  8
Spur
 62
     7
100
AcDbCircle
 10
-48.9407080737
 20
4.5309380255
 30
0
 40
0.3999957481
100
AcDbArc
 50
281.781459
 51
354.709862
  0
SPLINE
  5
133
330
0
100
AcDbEntity
  8
Spur
 62
     7
100
AcDbSpline
 70
     8
 71
     3
 72
     8
 73
     4
 74
     0
 40
0
 40
0
 40
0
 40
0
 40
1
 40
1
 40
1
 40
1
 10
-48.859037228
 20
4.1393687833
 30
0
 10
-49.6547707905
 20
3.9592466156
 30
0
 10
-50.23049372
 20
3.7995206174
 30
0
 10
-50.8743013883
 20
3.579546765
 30
0
  0
ARC
  5
134
330
0
100
AcDbEntity
  8
Spur
 62
     7
100
AcDbCircle
 10
0
 20
-0.0000000007
 30
0
 40
51.0000754587
100
AcDbArc
 50
175.975267
 51
176.824733
  0
SPLINE
  5
135
330
0
100
AcDbEntity
  8
Spur
 62
     7
100
AcDbSpline
 70
     8
 71
     3
 72
     8
 73
     4
 74
     0
 40
0
 40
0
 40
0
 40
0
 40
1
 40
1
 40
1
 40
1
 10
-50.9217784972
 20
2.8249197287
 30
0
 10
-50.3106174788
 20
2.525989939
 30
0
 10
-49.7594532724
 20
2.2953662116
 30
0
 10
-48.9925696005
 20
2.0169325006
 30
0
  0
ARC
  5
136
330
0
100
AcDbEntity
  8
Spur
 62
     7
100
AcDbCircle
 10
-49.1226730865
 20
1.63868697
 30
0
 40
0.3999957481
100
AcDbArc
 50
358.090138
 51
71.018541
  0
ARC
  5
137
330
0
100
AcDbEntity
  8
Spur
 62
     7
100
AcDbCircle
 10
0.0000000002
 20
0.0000000083
 30
0
 40
48.7500022798
100
AcDbArc
 50
178.089368
 51
178.310632
  0
ARC
  5
138
330
0
100
AcDbEntity
  8
Spur
 62
     7
100
AcDbCircle
 10
-49.1286347183
 20
1.4489847682
 30
0
 40
0.3999957481
100
AcDbArc
 50
285.381459
 51
358.309862
  0
SPLINE
  5
139
330
0
100
AcDbEntity
  8
Spur
 62
     7
100
AcDbSpline
 70
     8
 71
     3
 72
     8
 73
     4
 74
     0
 40
0
 40
0
 40
0
 40
0
 40
1
 40
1
 40
1
 40
1
 10
-49.0225381952
 20
1.0633163533
 30
0
 10
-49.8053915948
 20
0.8335850918
 30
0
 10
-50.3699491882
 20
0.6380243345
 30
0
 10
-50.9986741767
 20
0.3780595323
 30
0
  0
ARC
  5
13A
330
0
100
AcDbEntity
  8
Spur
 62
     7
100
AcDbCircle
 10
0
 20
0
 30
0
 40
51.0000754587
100
AcDbArc
 50
179.575267
 51
180.424733
  0
SPLINE
  5
13B
330
0
100
AcDbEntity
  8
Spur
 62
     7
100
AcDbSpline
 70
     8
 71
     3
 72
     8
 73
     4
 74
     0
 40
0
 40
0
 40
0
 40
0
 40
1
 40
1
 40
1
 40
1
 10
-50.9986741767
 20
-0.3780595323
 30
0
 10
-50.3699491882
 20
-0.6380243345
 30
0
 10
-49.8053915948
 20
-0.8335850918
 30
0
 10
-49.0225381952
 20
-1.0633163533
 30
0
  0
ARC
  5
13C
330
0
100
AcDbEntity
  8
Spur
 62
     7
100
AcDbCircle
 10
-49.1286347183
 20
-1.4489847682
 30
0
 40
0.3999957481
100
AcDbArc
 50
1.690138
 51
74.618541
  0
ARC
  5
13D
330
0
100
AcDbEntity
  8
Spur
 62
     7
100
AcDbCircle
 10
0.0000000002
 20
-0.0000000083
 30
0
 40
48.7500022798
100
AcDbArc
 50
181.689368
 51
181.910632
  0
ARC
  5
13E
330
0
100
AcDbEntity
  8
Spur
 62
     7
100
AcDbCircle
 10
-49.1226730865
 20
-1.63868697
 30
0
 40
0.3999957481
100
AcDbArc
 50
288.981459
 51
1.909862
  0
SPLINE
  5
13F
330
0
100
AcDbEntity
  8
Spur
 62
     7
100
AcDbSpline
 70
     8
 71
     3
 72
     8
 73
     4
 74
     0
 40
0
 40
0
 40
0
 40
0
 40
1
 40
1
 40
1
 40
1
 10
-48.9925696005
 20
-2.0169325006
 30
0
 10
-49.7594532724
 20
-2.2953662116
 30
0
 10
-50.3106174788
 20
-2.525989939
 30
0
 10
-50.9217784972
 20
-2.8249197287
 30
0
  0
ARC
  5
140
330
0
100
AcDbEntity
  8
Spur
 62
     7
100
AcDbCircle
 10
0
 20
0.0000000007
 30
0
 40
51.0000754587
100
AcDbArc
 50
183.175267
 51
184.024733
  0
SPLINE
  5
141
330
0
100
AcDbEntity
  8
Spur
 62
     7
100
AcDbSpline
 70
     8
 71
     3
 72
     8
 73
     4
 74
     0
 40
0
 40
0
 40
0
 40
0
 40
1
 40
1
 40
1
 40
1
 10
-50.8743013883
 20
-3.579546765
 30
0
 10
-50.23049372
 20
-3.7995206174
 30
0
 10
-49.6547707905
 20
-3.9592466156
 30
0
 10
-48.859037228
 20
-4.1393687833
 30
0
  0
ARC
  5
142
330
0
100
AcDbEntity
  8
Spur
 62
     7
100
AcDbCircle
 10
-48.9407080736
 20
-4.5309380255
 30
0
 40
0.3999957481
100
AcDbArc
 50
5.290138
 51
78.218541
  0
ARC
  5
143
330
0
100
AcDbEntity
  8
Spur
 62
     7
100
AcDbCircle
 10
0.0000000004
 20
-0.0000000041
 30
0
 40
48.7500022798
100
AcDbArc
 50
185.289368
 51
185.510632
  0
ARC
  5
144
330
0
100
AcDbEntity
  8
Spur
 62
     7
100
AcDbCircle
 10
-48.9228467059
 20
-4.7198915593
 30
0
 40
0.3999957481
100
AcDbArc
 50
292.581459
 51
5.509862
  0
SPLINE
  5
145
330
0
100
AcDbEntity
  8
Spur
 62
     7
100
AcDbSpline
 70
     8
 71
     3
 72
     8
 73
     4
 74
     0
 40
0
 40
0
 40
0
 40
0
 40
1
 40
1
 40
1
 40
1
 10
-48.7692497161
 20
-5.0892214433
 30
0
 10
-49.5171371209
 20
-5.4152587531
 30
0
 10
-50.052732747
 20
-5.6800352842
 30
0
 10
-50.6439178219
 20
-6.0167503221
 30
0
  0
ARC
  5
146
330
0
100
AcDbEntity
  8
Spur
 62
     7
100
AcDbCircle
 10
0.0000000002
 20
-0.0000000014
 30
0
 40
51.0000754587
100
AcDbArc
 50
186.775267
 51
187.624733
  0
SPLINE
  5
147
330
0
100
AcDbEntity
  8
Spur
 62
     7
100
AcDbSpline
 70
     8
 71
     3
 72
     8
 73
     4
 74
     0
 40
0
 40
0
 40
0
 40
0
 40
1
 40
1
 40
1
 40
1
 10
-50.5491509746
 20
-6.766907162
 30
0
 10
-49.8928014411
 20
-6.9460219283
 30
0
 10
-49.3081852909
 20
-7.0692828019
 30
0
 10
-48.5027119623
 20
-7.1990850158
 30
0
  0
ARC
  5
148
330
0
100
AcDbEntity
  8
Spur
 62
     7
100
AcDbCircle
 10
-48.5596348132
 20
-7.5950097404
 30
0
 40
0.3999957481
100
AcDbArc
 50
8.890138
 51
81.818541
  0
ARC
  5
149
330
0
100
AcDbEntity
  8
Spur
 62
     7
100
AcDbCircle
 10
-0.0000000015
 20
0.0000000091
 30
0
 40
48.7500022798
100
AcDbArc
 50
188.889368
 51
189.110632
  0
ARC
  5
14A
330
0
100
AcDbEntity
  8
Spur
 62
     7
100
AcDbCircle
 10
-48.5299442002
 20
-7.782468893
 30
0
 40
0.3999957481
100
AcDbArc
 50
296.181459
 51
9.109862
  0
SPLINE
  5
14B
330
0
100
AcDbEntity
  8
Spur
 62
     7
100
AcDbSpline
 70
     8
 71
     3
 72
     8
 73
     4
 74
     0
 40
0
 40
0
 40
0
 40
0
 40
1
 40
1
 40
1
 40
1
 10
-48.3534598836
 20
-8.141425554
 30
0
 10
-49.0793994514
 20
-8.5137797424
 30
0
 10
-49.597312746
 20
-8.8116641251
 30
0
 10
-50.16618874
 20
-9.1848355508
 30
0
  0
ARC
  5
14C
330
0
100
AcDbEntity
  8
Spur
 62
     7
100
AcDbCircle
 10
0.0000000001
 20
-0.0000000007
 30
0
 40
51.0000754587
100
AcDbArc
 50
190.375267
 51
191.224733
  0
SPLINE
  5
14D
330
0
100
AcDbEntity
  8
Spur
 62
     7
100
AcDbSpline
 70
     8
 71
     3
 72
     8
 73
     4
 74
     0
 40
0
 40
0
 40
0
 40
0
 40
1
 40
1
 40
1
 40
1
 10
-50.0245061557
 20
-9.927561668
 30
0
 10
-49.3582050689
 20
-10.0651104639
 30
0
 10
-48.7670029108
 20
-10.1514197586
 30
0
 10
-47.9549686514
 20
-10.2303897487
 30
0
  0
ARC
  5
14E
330
0
100
AcDbEntity
  8
Spur
 62
     7
100
AcDbCircle
 10
-47.9869188588
 20
-10.6291074217
 30
0
 40
0.3999957481
100
AcDbArc
 50
12.490138
 51
85.418541
  0
ARC
  5
14F
330
0
100
AcDbEntity
  8
Spur
 62
     7
100
AcDbCircle
 10
0.0000000017
 20
-0.0000000077
 30
0
 40
48.7500022798
100
AcDbArc
 50
192.489368
 51
192.710632
  0
ARC
  5
150
330
0
100
AcDbEntity
  8
Spur
 62
     7
100
AcDbCircle
 10
-47.9455161759
 20
-10.8143323774
 30
0
 40
0.3999957481
100
AcDbArc
 50
299.781459
 51
12.709862
  0
SPLINE
  5
151
330
0
100
AcDbEntity
  8
Spur
 62
     7
100
AcDbSpline
 70
     8
 71
     3
 72
     8
 73
     4
 74
     0
 40
0
 40
0
 40
0
 40
0
 40
1
 40
1
 40
1
 40
1
 10
-47.7468410356
 20
-11.1614991775
 30
0
 10
-48.4479678146
 20
-11.5787007326
 30
0
 10
-48.9461548104
 20
-11.9085173533
 30
0
 10
-49.4904766299
 20
-12.3166724297
 30
0
  0
ARC
  5
152
330
0
100
AcDbEntity
  8
Spur
 62
     7
100
AcDbCircle
 10
-0.0000000006
 20
0.0000000023
 30
0
 40
51.0000754587
100
AcDbArc
 50
193.975267
 51
194.824733
  0
SPLINE
  5
153
330
0
100
AcDbEntity
  8
Spur
 62
     7
100
AcDbSpline
 70
     8
 71
     3
 72
     8
 73
     4
 74
     0
 40
0
 40
0
 40
0
 40
0
 40
1
 40
1
 40
1
 40
1
 10
-49.302437465
 20
-13.0490366235
 30
0
 10
-48.6288144108
 20
-13.1444766069
 30
0
 10
-48.0333594497
 20
-13.1934936992
 30
0
 10
-47.2179689877
 20
-13.2213198071
 30
0
  0
ARC
  5
154
330
0
100
AcDbEntity
  8
Spur
 62
     7
100
AcDbCircle
 10
-47.2248204589
 20
-13.6212568719
 30
0
 40
0.3999957481
100
AcDbArc
 50
16.090138
 51
89.018541
  0
ARC
  5
155
330
0
100
AcDbEntity
  8
Spur
 62
     7
100
AcDbCircle
 10
0.0000000003
 20
-0.0000000018
 30
0
 40
48.7500022797
100
AcDbArc
 50
196.089368
 51
196.310632
  0
ARC
  5
156
330
0
100
AcDbEntity
  8
Spur
 62
     7
100
AcDbCircle
 10
-47.1718691035
 20
-13.8035166326
 30
0
 40
0.3999957481
100
AcDbArc
 50
303.381459
 51
16.309862
  0
SPLINE
  5
157
330
0
100
AcDbEntity
  8
Spur
 62
     7
100
AcDbSpline
 70
     8
 71
     3
 72
     8
 73
     4
 74
     0
 40
0
 40
0
 40
0
 40
0
 40
1
 40
1
 40
1
 40
1
 10
-46.9517872194
 20
-14.137523463
 30
0
 10
-47.6253341825
 20
-14.5979258808
 30
0
 10
-48.1018287631
 20
-14.9583731041
 30
0
 10
-48.6194482185
 20
-15.3999010294
 30
0
  0
ARC
  5
158
330
0
100
AcDbEntity
  8
Spur
 62
     7
100
AcDbCircle
 10
0.0000000008
 20
-0.0000000023
 30
0
 40
51.0000754587
100
AcDbArc
 50
197.575267
 51
198.424733
  0
SPLINE
  5
159
330
0
100
AcDbEntity
  8
Spur
 62
     7
100
AcDbSpline
 70
     8
 71
     3
 72
     8
 73
     4
 74
     0
 40
0
 40
0
 40
0
 40
0
 40
1
 40
1
 40
1
 40
1
 10
-48.3857945778
 20
-16.1190129929
 30
0
 10
-47.7075080387
 20
-16.1719675058
 30
0
 10
-47.1101502632
 20
-16.1834989477
 30
0
 10
-46.2946215723
 20
-16.1600713564
 30
0
  0
ARC
  5
15A
330
0
100
AcDbEntity
  8
Spur
 62
     7
100
AcDbCircle
 10
-46.2763472675
 20
-16.5596494442
 30
0
 40
0.3999957481
100
AcDbArc
 50
19.690138
 51
92.618541
  0
ARC
  5
15B
330
0
100
AcDbEntity
  8
Spur
 62
     7
100
AcDbCircle
 10
-0.0000000038
 20
0.0000000105
 30
0
 40
48.7500022798
100
AcDbArc
 50
199.689368
 51
199.910632
  0
ARC
  5
15C
330
0
100
AcDbEntity
  8
Spur
 62
     7
100
AcDbCircle
 10
-46.2120562145
 20
-16.7382247137
 30
0
 40
0.3999957481
100
AcDbArc
 50
306.981459
 51
19.909862
  0
SPLINE
  5
15D
330
0
100
AcDbEntity
  8
Spur
 62
     7
100
AcDbSpline
 70
     8
 71
     3
 72
     8
 73
     4
 74
     0
 40
0
 40
0
 40
0
 40
0
 40
1
 40
1
 40
1
 40
1
 10
-45.9714361494
 20
-17.0577534022
 30
0
 10
-46.6147451143
 20
-17.5595396848
 30
0
 10
-47.0676667733
 20
-17.94919499
 30
0
 10
-47.5565410572
 20
-18.4223532554
 30
0
  0
ARC
  5
15E
330
0
100
AcDbEntity
  8
Spur
 62
     7
100
AcDbCircle
 10
0.0000000008
 20
-0.0000000019
 30
0
 40
51.0000754587
100
AcDbArc
 50
201.175267
 51
202.024733
  0
SPLINE
  5
15F
330
0
100
AcDbEntity
  8
Spur
 62
     7
100
AcDbSpline
 70
     8
 71
     3
 72
     8
 73
     4
 74
     0
 40
0
 40
0
 40
0
 40
0
 40
1
 40
1
 40
1
 40
1
 10
-47.2781950648
 20
-19.1253749822
 30
0
 10
-46.5979219278
 20
-19.1356350373
 30
0
 10
-46.0010188363
 20
-19.1096353195
 30
0
 10
-45.1885704355
 20
-19.0350464869
 30
0
  0
ARC
  5
160
330
0
100
AcDbEntity
  8
Spur
 62
     7
100
AcDbCircle
 10
-45.1452424752
 20
-19.4326886456
 30
0
 40
0.3999957481
100
AcDbArc
 50
23.290138
 51
96.218541
  0
ARC
  5
161
330
0
100
AcDbEntity
  8
Spur
 62
     7
100
AcDbCircle
 10
0.0000000003
 20
-0.0000000006
 30
0
 40
48.7500022798
100
AcDbArc
 50
203.289368
 51
203.510632
  0
ARC
  5
162
330
0
100
AcDbEntity
  8
Spur
 62
     7
100
AcDbCircle
 10
-45.0698654519
 20
-19.606874669
 30
0
 40
0.3999957481
100
AcDbArc
 50
310.581459
 51
23.509862
  0
SPLINE
  5
163
330
0
100
AcDbEntity
  8
Spur
 62
     7
100
AcDbSpline
 70
     8
 71
     3
 72
     8
 73
     4
 74
     0
 40
0
 40
0
 40
0
 40
0
 40
1
 40
1
 40
1
 40
1
 10
-44.8096568232
 20
-19.9106641817
 30
0
 10
-45.4201889435
 20
-20.4518540078
 30
0
 10
-45.847750206
 20
-20.8691796035
 30
0
 10
-46.3059499548
 20
-21.3721008694
 30
0
  0
ARC
  5
164
330
0
100
AcDbEntity
  8
Spur
 62
     7
100
AcDbCircle
 10
-0.0000000001
 20
0.0000000003
 30
0
 40
51.0000754587
100
AcDbArc
 50
204.775267
 51
205.624733
  0
SPLINE
  5
165
330
0
100
AcDbEntity
  8
Spur
 62
     7
100
AcDbSpline
 70
     8
 71
     3
 72
     8
 73
     4
 74
     0
 40
0
 40
0
 40
0
 40
0
 40
1
 40
1
 40
1
 40
1
 10
-45.9840101151
 20
-22.056257854
 30
0
 10
-45.3044351077
 20
-22.0237829595
 30
0
 10
-44.7103424038
 20
-21.9603546909
 30
0
 10
-43.9041806559
 20
-21.8348989853
 30
0
  0
ARC
  5
166
330
0
100
AcDbEntity
  8
Spur
 62
     7
100
AcDbCircle
 10
-43.8359700358
 20
-22.2290359029
 30
0
 40
0.3999957481
100
AcDbArc
 50
26.890138
 51
99.818541
  0
ARC
  5
167
330
0
100
AcDbEntity
  8
Spur
 62
     7
100
AcDbCircle
 10
-0.0000000052
 20
0.0000000098
 30
0
 40
48.7500022797
100
AcDbArc
 50
206.889368
 51
207.110632
  0
ARC
  5
168
330
0
100
AcDbEntity
  8
Spur
 62
     7
100
AcDbCircle
 10
-43.7498045209
 20
-22.3981452475
 30
0
 40
0.3999957481
100
AcDbArc
 50
314.181459
 51
27.109862
  0
SPLINE
  5
169
330
0
100
AcDbEntity
  8
Spur
 62
     7
100
AcDbSpline
 70
     8
 71
     3
 72
     8
 73
     4
 74
     0
 40
0
 40
0
 40
0
 40
0
 40
1
 40
1
 40
1
 40
1
 10
-43.4710342531
 20
-22.6849966659
 30
0
 10
-44.0463800374
 20
-23.2634542065
 30
0
 10
-44.4468935144
 20
-23.7068030994
 30
0
 10
-44.8726104231
 20
-24.2375025653
 30
0
  0
ARC
  5
16A
330
0
100
AcDbEntity
  8
Spur
 62
     7
100
AcDbCircle
 10
0.0000000022
 20
-0.0000000039
 30
0
 40
51.0000754587
100
AcDbArc
 50
208.375267
 51
209.224733
  0
SPLINE
  5
16B
330
0
100
AcDbEntity
  8
Spur
 62
     7
100
AcDbSpline
 70
     8
 71
     3
 72
     8
 73
     4
 74
     0
 40
0
 40
0
 40
0
 40
0
 40
1
 40
1
 40
1
 40
1
 10
-44.5083472857
 20
-24.9000947526
 30
0
 10
-43.8321523798
 20
-24.8250130721
 30
0
 10
-43.2432146761
 20
-24.7244065752
 30
0
 10
-42.4465211332
 20
-24.5485791127
 30
0
  0
ARC
  5
16C
330
0
100
AcDbEntity
  8
Spur
 62
     7
100
AcDbCircle
 10
-42.3536970493
 20
-24.9376553108
 30
0
 40
0.3999957481
100
AcDbArc
 50
30.490138
 51
103.418541
  0
ARC
  5
16D
330
0
100
AcDbEntity
  8
Spur
 62
     7
100
AcDbCircle
 10
0.0000000024
 20
-0.0000000041
 30
0
 40
48.7500022798
100
AcDbArc
 50
210.489368
 51
210.710632
  0
ARC
  5
16E
330
0
100
AcDbEntity
  8
Spur
 62
     7
100
AcDbCircle
 10
-42.2570830988
 20
-25.1010205794
 30
0
 40
0.3999957481
100
AcDbArc
 50
317.781459
 51
30.709862
  0
SPLINE
  5
16F
330
0
100
AcDbEntity
  8
Spur
 62
     7
100
AcDbSpline
 70
     8
 71
     3
 72
     8
 73
     4
 74
     0
 40
0
 40
0
 40
0
 40
0
 40
1
 40
1
 40
1
 40
1
 10
-41.9608513708
 20
-25.3698018321
 30
0
 10
-42.4987401921
 20
-25.9832441796
 30
0
 10
-42.87062524
 20
-26.450866674
 30
0
 10
-43.2621791985
 20
-27.0072499117
 30
0
  0
ARC
  5
170
330
0
100
AcDbEntity
  8
Spur
 62
     7
100
AcDbCircle
 10
-0.0000000007
 20
0.0000000011
 30
0
 40
51.0000754587
100
AcDbArc
 50
211.975267
 51
212.824733
  0
SPLINE
  5
171
330
0
100
AcDbEntity
  8
Spur
 62
     7
100
AcDbSpline
 70
     8
 71
     3
 72
     8
 73
     4
 74
     0
 40
0
 40
0
 40
0
 40
0
 40
1
 40
1
 40
1
 40
1
 10
-42.8570303435
 20
-27.6456623529
 30
0
 10
-42.1868841714
 20
-27.5282701995
 30
0
 10
-41.605425736
 20
-27.3908825222
 30
0
 10
-40.8213445836
 20
-27.1653772136
 30
0
  0
ARC
  5
172
330
0
100
AcDbEntity
  8
Spur
 62
     7
100
AcDbCircle
 10
-40.7042733701
 20
-27.5478571863
 30
0
 40
0.3999957481
100
AcDbArc
 50
34.090138
 51
107.018541
  0
ARC
  5
173
330
0
100
AcDbEntity
  8
Spur
 62
     7
100
AcDbCircle
 10
0.0000000015
 20
-0.0000000025
 30
0
 40
48.7500022797
100
AcDbArc
 50
214.089368
 51
214.310632
  0
ARC
  5
174
330
0
100
AcDbEntity
  8
Spur
 62
     7
100
AcDbCircle
 10
-40.5975922751
 20
-27.7048336506
 30
0
 40
0.3999957481
100
AcDbArc
 50
321.381459
 51
34.309862
  0
SPLINE
  5
175
330
0
100
AcDbEntity
  8
Spur
 62
     7
100
AcDbSpline
 70
     8
 71
     3
 72
     8
 73
     4
 74
     0
 40
0
 40
0
 40
0
 40
0
 40
1
 40
1
 40
1
 40
1
 10
-40.2850681783
 20
-27.9544839809
 30
0
 10
-40.7833772352
 20
-28.6004901586
 30
0
 10
-41.1251661935
 20
-29.0905407621
 30
0
 10
-41.4810119171
 20
-29.670411981
 30
0
  0
ARC
  5
176
330
0
100
AcDbEntity
  8
Spur
 62
     7
100
AcDbCircle
 10
0.0000000008
 20
-0.0000000011
 30
0
 40
51.0000754587
100
AcDbArc
 50
215.575267
 51
216.424733
  0
SPLINE
  5
177
330
0
100
AcDbEntity
  8
Spur
 62
     7
100
AcDbSpline
 70
     8
 71
     3
 72
     8
 73
     4
 74
     0
 40
0
 40
0
 40
0
 40
0
 40
1
 40
1
 40
1
 40
1
 10
-41.036576282
 20
-30.282125154
 30
0
 10
-40.3751236046
 20
-30.122885821
 30
0
 10
-39.8034391882
 20
-29.9492591696
 30
0
 10
-39.0350648363
 20
-29.6749659813
 30
0
  0
ARC
  5
178
330
0
100
AcDbEntity
  8
Spur
 62
     7
100
AcDbCircle
 10
-38.89420852
 20
-30.0493402548
 30
0
 40
0.3999957481
100
AcDbArc
 50
37.690138
 51
110.618541
  0
ARC
  5
179
330
0
100
AcDbEntity
  8
Spur
 62
     7
100
AcDbCircle
 10
0.0000000014
 20
-0.000000002
 30
0
 40
48.7500022797
100
AcDbArc
 50
217.689368
 51
217.910632
  0
ARC
  5
17A
330
0
100
AcDbEntity
  8
Spur
 62
     7
100
AcDbCircle
 10
-38.777881302
 20
-30.1993084005
 30
0
 40
0.3999957481
100
AcDbArc
 50
324.981459
 51
37.909862
  0
SPLINE
  5
17B
330
0
100
AcDbEntity
  8
Spur
 62
     7
100
AcDbSpline
 70
     8
 71
     3
 72
     8
 73
     4
 74
     0
 40
0
 40
0
 40
0
 40
0
 40
1
 40
1
 40
1
 40
1
 10
-38.4502982262
 20
-30.4288425525
 30
0
 10
-38.9070609204
 20
-31.1048630691
 30
0
 10
-39.2174049043
 20
-31.615407776
 30
0
 10
-39.5361380326
 20
-32.2164784894
 30
0
  0
ARC
  5
17C
330
0
100
AcDbEntity
  8
Spur
 62
     7
100
AcDbCircle
 10
-0.0000000003
 20
0.0000000004
 30
0
 40
51.0000754587
100
AcDbArc
 50
219.175267
 51
220.024733
  0
SPLINE
  5
17D
330
0
100
AcDbEntity
  8
Spur
 62
     7
100
AcDbSpline
 70
     8
 71
     3
 72
     8
 73
     4
 74
     0
 40
0
 40
0
 40
0
 40
0
 40
1
 40
1
 40
1
 40
1
 10
-39.0541696017
 20
-32.7990782418
 30
0
 10
-38.4040208706
 20
-32.5986201739
 30
0
 10
-37.8443666504
 20
-32.3894397736
 30
0
 10
-37.0947315216
 20
-32.0674412155
 30
0
  0
ARC
  5
17E
330
0
100
AcDbEntity
  8
Spur
 62
     7
100
AcDbCircle
 10
-36.9306459979
 20
-32.4322323056
 30
0
 40
0.3999957481
100
AcDbArc
 50
41.290138
 51
114.218541
  0
ARC
  5
17F
330
0
100
AcDbEntity
  8
Spur
 62
     7
100
AcDbCircle
 10
-0.0000000029
 20
0.0000000032
 30
0
 40
48.7500022798
100
AcDbArc
 50
221.289368
 51
221.510632
  0
ARC
  5
180
330
0
100
AcDbEntity
  8
Spur
 62
     7
100
AcDbCircle
 10
-36.8051317473
 20
-32.574600277
 30
0
 40
0.3999957481
100
AcDbArc
 50
328.581459
 51
41.509862
  0
SPLINE
  5
181
330
0
100
AcDbEntity
  8
Spur
 62
     7
100
AcDbSpline
 70
     8
 71
     3
 72
     8
 73
     4
 74
     0
 40
0
 40
0
 40
0
 40
0
 40
1
 40
1
 40
1
 40
1
 10
-36.4637825132
 20
-32.7831123842
 30
0
 10
-36.8771962112
 20
-33.4864792957
 30
0
 10
-37.1548704347
 20
-34.0155032192
 30
0
 10
-37.4352330736
 20
-34.6354012755
 30
0
  0
ARC
  5
182
330
0
100
AcDbEntity
  8
Spur
 62
     7
100
AcDbCircle
 10
0.0000000007
 20
-0.0000000007
 30
0
 40
51.0000754587
100
AcDbArc
 50
222.775267
 51
223.624733
  0
SPLINE
  5
183
330
0
100
AcDbEntity
  8
Spur
 62
     7
100
AcDbSpline
 70
     8
 71
     3
 72
     8
 73
     4
 74
     0
 40
0
 40
0
 40
0
 40
0
 40
1
 40
1
 40
1
 40
1
 10
-36.9176339562
 20
-35.1865883522
 30
0
 10
-36.2813550113
 20
-34.9457026659
 30
0
 10
-35.7359396869
 20
-34.7017940561
 30
0
 10
-35.0080022485
 20
-34.3333609094
 30
0
  0
ARC
  5
184
330
0
100
AcDbEntity
  8
Spur
 62
     7
100
AcDbCircle
 10
-34.821335088
 20
-34.6871291523
 30
0
 40
0.3999957481
100
AcDbArc
 50
44.890138
 51
117.818541
  0
ARC
  5
185
330
0
100
AcDbEntity
  8
Spur
 62
     7
100
AcDbCircle
 10
0
 20
0
 30
0
 40
48.7500022798
100
AcDbArc
 50
224.889368
 51
225.110632
  0
ARC
  5
186
330
0
100
AcDbEntity
  8
Spur
 62
     7
100
AcDbCircle
 10
-34.6871291523
 20
-34.821335088
 30
0
 40
0.3999957481
100
AcDbArc
 50
332.181459
 51
45.109862
  0
SPLINE
  5
187
330
0
100
AcDbEntity
  8
Spur
 62
     7
100
AcDbSpline
 70
     8
 71
     3
 72
     8
 73
     4
 74
     0
 40
0
 40
0
 40
0
 40
0
 40
1
 40
1
 40
1
 40
1
 10
-34.3333609094
 20
-35.0080022485
 30
0
 10
-34.7017940561
 20
-35.7359396869
 30
0
 10
-34.9457026659
 20
-36.2813550113
 30
0
 10
-35.1865883522
 20
-36.9176339562
 30
0
  0
ARC
  5
188
330
0
100
AcDbEntity
  8
Spur
 62
     7
100
AcDbCircle
 10
-0.0000000007
 20
0.0000000007
 30
0
 40
51.0000754587
100
AcDbArc
 50
226.375267
 51
227.224733
  0
SPLINE
  5
189
330
0
100
AcDbEntity
  8
Spur
 62
     7
100
AcDbSpline
 70
     8
 71
     3
 72
     8
 73
     4
 74
     0
 40
0
 40
0
 40
0
 40
0
 40
1
 40
1
 40
1
 40
1
 10
-34.6354012755
 20
-37.4352330736
 30
0
 10
-34.0155032192
 20
-37.1548704347
 30
0
 10
-33.4864792957
 20
-36.8771962112
 30
0
 10
-32.7831123842
 20
-36.4637825132
 30
0
  0
ARC
  5
18A
330
0
100
AcDbEntity
  8
Spur
 62
     7
100
AcDbCircle
 10
-32.574600277
 20
-36.8051317473
 30
0
 40
0.3999957481
100
AcDbArc
 50
48.490138
 51
121.418541
  0
ARC
  5
18B
330
0
100
AcDbEntity
  8
Spur
 62
     7
100
AcDbCircle
 10
0.0000000032
 20
-0.0000000029
 30
0
 40
48.7500022798
100
AcDbArc
 50
228.489368
 51
228.710632
  0
ARC
  5
18C
330
0
100
AcDbEntity
  8
Spur
 62
     7
100
AcDbCircle
 10
-32.4322323056
 20
-36.9306459979
 30
0
 40
0.3999957481
100
AcDbArc
 50
335.781459
 51
48.709862
  0
SPLINE
  5
18D
330
0
100
AcDbEntity
  8
Spur
 62
     7
100
AcDbSpline
 70
     8
 71
     3
 72
     8
 73
     4
 74
     0
 40
0
 40
0
 40
0
 40
0
 40
1
 40
1
 40
1
 40
1
 10
-32.0674412155
 20
-37.0947315216
 30
0
 10
-32.3894397736
 20
-37.8443666504
 30
0
 10
-32.5986201739
 20
-38.4040208706
 30
0
 10
-32.7990782418
 20
-39.0541696017
 30
0
  0
ARC
  5
18E
330
0
100
AcDbEntity
  8
Spur
 62
     7
100
AcDbCircle
 10
0.0000000004
 20
-0.0000000003
 30
0
 40
51.0000754587
100
AcDbArc
 50
229.975267
 51
230.824733
  0
SPLINE
  5
18F
330
0
100
AcDbEntity
  8
Spur
 62
     7
100
AcDbSpline
 70
     8
 71
     3
 72
     8
 73
     4
 74
     0
 40
0
 40
0
 40
0
 40
0
 40
1
 40
1
 40
1
 40
1
 10
-32.2164784894
 20
-39.5361380326
 30
0
 10
-31.615407776
 20
-39.2174049043
 30
0
 10
-31.1048630691
 20
-38.9070609204
 30
0
 10
-30.4288425525
 20
-38.4502982262
 30
0
  0
ARC
  5
190
330
0
100
AcDbEntity
  8
Spur
 62
     7
100
AcDbCircle
 10
-30.1993084005
 20
-38.777881302
 30
0
 40
0.3999957481
100
AcDbArc
 50
52.090138
 51
125.018541
  0
ARC
  5
191
330
0
100
AcDbEntity
  8
Spur
 62
     7
100
AcDbCircle
 10
-0.000000002
 20
0.0000000014
 30
0
 40
48.7500022797
100
AcDbArc
 50
232.089368
 51
232.310632
  0
ARC
  5
192
330
0
100
AcDbEntity
  8
Spur
 62
     7
100
AcDbCircle
 10
-30.0493402548
 20
-38.89420852
 30
0
 40
0.3999957481
100
AcDbArc
 50
339.381459
 51
52.309862
  0
SPLINE
  5
193
330
0
100
AcDbEntity
  8
Spur
 62
     7
100
AcDbSpline
 70
     8
 71
     3
 72
     8
 73
     4
 74
     0
 40
0
 40
0
 40
0
 40
0
 40
1
 40
1
 40
1
 40
1
 10
-29.6749659813
 20
-39.0350648363
 30
0
 10
-29.9492591696
 20
-39.8034391882
 30
0
 10
-30.122885821
 20
-40.3751236046
 30
0
 10
-30.282125154
 20
-41.036576282
 30
0
  0
ARC
  5
194
330
0
100
AcDbEntity
  8
Spur
 62
     7
100
AcDbCircle
 10
-0.0000000011
 20
0.0000000008
 30
0
 40
51.0000754587
100
AcDbArc
 50
233.575267
 51
234.424733
  0
SPLINE
  5
195
330
0
100
AcDbEntity
  8
Spur
 62
     7
100
AcDbSpline
 70
     8
 71
     3
 72
     8
 73
     4
 74
     0
 40
0
 40
0
 40
0
 40
0
 40
1
 40
1
 40
1
 40
1
 10
-29.670411981
 20
-41.4810119171
 30
0
 10
-29.0905407621
 20
-41.1251661935
 30
0
 10
-28.6004901586
 20
-40.7833772352
 30
0
 10
-27.9544839809
 20
-40.2850681783
 30
0
  0
ARC
  5
196
330
0
100
AcDbEntity
  8
Spur
 62
     7
100
AcDbCircle
 10
-27.7048336506
 20
-40.5975922751
 30
0
 40
0.3999957481
100
AcDbArc
 50
55.690138
 51
128.618541
  0
ARC
  5
197
330
0
100
AcDbEntity
  8
Spur
 62
     7
100
AcDbCircle
 10
-0.0000000025
 20
0.0000000015
 30
0
 40
48.7500022797
100
AcDbArc
 50
235.689368
 51
235.910632
  0
ARC
  5
198
330
0
100
AcDbEntity
  8
Spur
 62
     7
100
AcDbCircle
 10
-27.5478571863
 20
-40.7042733701
 30
0
 40
0.3999957481
100
AcDbArc
 50
342.981459
 51
55.909862
  0
SPLINE
  5
199
330
0
100
AcDbEntity
  8
Spur
 62
     7
100
AcDbSpline
 70
     8
 71
     3
 72
     8
 73
     4
 74
     0
 40
0
 40
0
 40
0
 40
0
 40
1
 40
1
 40
1
 40
1
 10
-27.1653772136
 20
-40.8213445836
 30
0
 10
-27.3908825222
 20
-41.605425736
 30
0
 10
-27.5282701995
 20
-42.1868841714
 30
0
 10
-27.6456623529
 20
-42.8570303435
 30
0
  0
ARC
  5
19A
330
0
100
AcDbEntity
  8
Spur
 62
     7
100
AcDbCircle
 10
0.0000000011
 20
-0.0000000007
 30
0
 40
51.0000754587
100
AcDbArc
 50
237.175267
 51
238.024733
  0
SPLINE
  5
19B
330
0
100
AcDbEntity
  8
Spur
 62
     7
100
AcDbSpline
 70
     8
 71
     3
 72
     8
 73
     4
 74
     0
 40
0
 40
0
 40
0
 40
0
 40
1
 40
1
 40
1
 40
1
 10
-27.0072499117
 20
-43.2621791985
 30
0
 10
-26.450866674
 20
-42.87062524
 30
0
 10
-25.9832441796
 20
-42.4987401921
 30
0
 10
-25.3698018321
 20
-41.9608513708
 30
0
  0
ARC
  5
19C
330
0
100
AcDbEntity
  8
Spur
 62
     7
100
AcDbCircle
 10
-25.1010205794
 20
-42.2570830988
 30
0
 40
0.3999957481
100
AcDbArc
 50
59.290138
 51
132.218541
  0
ARC
  5
19D
330
0
100
AcDbEntity
  8
Spur
 62
     7
100
AcDbCircle
 10
-0.0000000042
 20
0.0000000023
 30
0
 40
48.7500022797
100
AcDbArc
 50
239.289368
 51
239.510632
  0
ARC
  5
19E
330
0
100
AcDbEntity
  8
Spur
 62
     7
100
AcDbCircle
 10
-24.9376553108
 20
-42.3536970493
 30
0
 40
0.3999957481
100
AcDbArc
 50
346.581459
 51
59.509862
  0
SPLINE
  5
19F
330
0
100
AcDbEntity
  8
Spur
 62
     7
100
AcDbSpline
 70
     8
 71
     3
 72
     8
 73
     4
 74
     0
 40
0
 40
0
 40
0
 40
0
 40
1
 40
1
 40
1
 40
1
 10
-24.5485791127
 20
-42.4465211332
 30
0
 10
-24.7244065752
 20
-43.2432146761
 30
0
 10
-24.8250130721
 20
-43.8321523798
 30
0
 10
-24.9000947526
 20
-44.5083472857
 30
0
  0
ARC
  5
1A0
330
0
100
AcDbEntity
  8
Spur
 62
     7
100
AcDbCircle
 10
-0.0000000039
 20
0.0000000022
 30
0
 40
51.0000754587
100
AcDbArc
 50
240.775267
 51
241.624733
  0
SPLINE
  5
1A1
330
0
100
AcDbEntity
  8
Spur
 62
     7
100
AcDbSpline
 70
     8
 71
     3
 72
     8
 73
     4
 74
     0
 40
0
 40
0
 40
0
 40
0
 40
1
 40
1
 40
1
 40
1
 10
-24.2375025653
 20
-44.8726104231
 30
0
 10
-23.7068030994
 20
-44.4468935144
 30
0
 10
-23.2634542065
 20
-44.0463800374
 30
0
 10
-22.6849966659
 20
-43.4710342531
 30
0
  0
ARC
  5
1A2
330
0
100
AcDbEntity
  8
Spur
 62
     7
100
AcDbCircle
 10
-22.3981452475
 20
-43.7498045209
 30
0
 40
0.3999957481
100
AcDbArc
 50
62.890138
 51
135.818541
  0
ARC
  5
1A3
330
0
100
AcDbEntity
  8
Spur
 62
     7
100
AcDbCircle
 10
-0.0000000107
 20
0.0000000054
 30
0
 40
48.7500022798
100
AcDbArc
 50
242.889368
 51
243.110632
  0
ARC
  5
1A4
330
0
100
AcDbEntity
  8
Spur
 62
     7
100
AcDbCircle
 10
-22.2290359029
 20
-43.8359700357
 30
0
 40
0.3999957481
100
AcDbArc
 50
350.181459
 51
63.109862
  0
SPLINE
  5
1A5
330
0
100
AcDbEntity
  8
Spur
 62
     7
100
AcDbSpline
 70
     8
 71
     3
 72
     8
 73
     4
 74
     0
 40
0
 40
0
 40
0
 40
0
 40
1
 40
1
 40
1
 40
1
 10
-21.8348989853
 20
-43.9041806559
 30
0
 10
-21.9603546909
 20
-44.7103424038
 30
0
 10
-22.0237829595
 20
-45.3044351077
 30
0
 10
-22.056257854
 20
-45.9840101151
 30
0
  0
ARC
  5
1A6
330
0
100
AcDbEntity
  8
Spur
 62
     7
100
AcDbCircle
 10
0.0000000003
 20
-0.0000000001
 30
0
 40
51.0000754587
100
AcDbArc
 50
244.375267
 51
245.224733
  0
SPLINE
  5
1A7
330
0
100
AcDbEntity
  8
Spur
 62
     7
100
AcDbSpline
 70
     8
 71
     3
 72
     8
 73
     4
 74
     0
 40
0
 40
0
 40
0
 40
0
 40
1
 40
1
 40
1
 40
1
 10
-21.3721008694
 20
-46.3059499548
 30
0
 10
-20.8691796035
 20
-45.847750206
 30
0
 10
-20.4518540078
 20
-45.4201889435
 30
0
 10
-19.9106641817
 20
-44.8096568232
 30
0
  0
ARC
  5
1A8
330
0
100
AcDbEntity
  8
Spur
 62
     7
100
AcDbCircle
 10
-19.606874669
 20
-45.0698654519
 30
0
 40
0.3999957481
100
AcDbArc
 50
66.490138
 51
139.418541
  0
ARC
  5
1A9
330
0
100
AcDbEntity
  8
Spur
 62
     7
100
AcDbCircle
 10
-0.0000000006
 20
0.0000000003
 30
0
 40
48.7500022798
100
AcDbArc
 50
246.489368
 51
246.710632
  0
ARC
  5
1AA
330
0
100
AcDbEntity
  8
Spur
 62
     7
100
AcDbCircle
 10
-19.4326886456
 20
-45.1452424752
 30
0
 40
0.3999957481
100
AcDbArc
 50
353.781459
 51
66.709862
  0
SPLINE
  5
1AB
330
0
100
AcDbEntity
  8
Spur
 62
     7
100
AcDbSpline
 70
     8
 71
     3
 72
     8
 73
     4
 74
     0
 40
0
 40
0
 40
0
 40
0
 40
1
 40
1
 40
1
 40
1
 10
-19.0350464869
 20
-45.1885704355
 30
0
 10
-19.1096353195
 20
-46.0010188363
 30
0
 10
-19.1356350373
 20
-46.5979219278
 30
0
 10
-19.1253749822
 20
-47.2781950648
 30
0
  0
ARC
  5
1AC
330
0
100
AcDbEntity
  8
Spur
 62
     7
100
AcDbCircle
 10
-0.0000000019
 20
0.0000000008
 30
0
 40
51.0000754587
100
AcDbArc
 50
247.975267
 51
248.824733
  0
SPLINE
  5
1AD
330
0
100
AcDbEntity
  8
Spur
 62
     7
100
AcDbSpline
 70
     8
 71
     3
 72
     8
 73
     4
 74
     0
 40
0
 40
0
 40
0
 40
0
 40
1
 40
1
 40
1
 40
1
 10
-18.4223532554
 20
-47.5565410572
 30
0
 10
-17.94919499
 20
-47.0676667733
 30
0
 10
-17.5595396848
 20
-46.6147451143
 30
0
 10
-17.0577534022
 20
-45.9714361494
 30
0
  0
ARC
  5
1AE
330
0
100
AcDbEntity
  8
Spur
 62
     7
100
AcDbCircle
 10
-16.7382247138
 20
-46.2120562146
 30
0
 40
0.3999957481
100
AcDbArc
 50
70.090138
 51
143.018541
  0
ARC
  5
1AF
330
0
100
AcDbEntity
  8
Spur
 62
     7
100
AcDbCircle
 10
0.0000000105
 20
-0.0000000039
 30
0
 40
48.7500022798
100
AcDbArc
 50
250.089368
 51
250.310632
  0
ARC
  5
1B0
330
0
100
AcDbEntity
  8
Spur
 62
     7
100
AcDbCircle
 10
-16.5596494442
 20
-46.2763472676
 30
0
 40
0.3999957481
100
AcDbArc
 50
357.381459
 51
70.309862
  0
SPLINE
  5
1B1
330
0
100
AcDbEntity
  8
Spur
 62
     7
100
AcDbSpline
 70
     8
 71
     3
 72
     8
 73
     4
 74
     0
 40
0
 40
0
 40
0
 40
0
 40
1
 40
1
 40
1
 40
1
 10
-16.1600713564
 20
-46.2946215723
 30
0
 10
-16.1834989477
 20
-47.1101502632
 30
0
 10
-16.1719675058
 20
-47.7075080387
 30
0
 10
-16.1190129929
 20
-48.3857945778
 30
0
  0
ARC
  5
1B2
330
0
100
AcDbEntity
  8
Spur
 62
     7
100
AcDbCircle
 10
-0.0000000023
 20
0.0000000008
 30
0
 40
51.0000754587
100
AcDbArc
 50
251.575267
 51
252.424733
  0
SPLINE
  5
1B3
330
0
100
AcDbEntity
  8
Spur
 62
     7
100
AcDbSpline
 70
     8
 71
     3
 72
     8
 73
     4
 74
     0
 40
0
 40
0
 40
0
 40
0
 40
1
 40
1
 40
1
 40
1
 10
-15.3999010294
 20
-48.6194482185
 30
0
 10
-14.9583731041
 20
-48.1018287631
 30
0
 10
-14.5979258808
 20
-47.6253341825
 30
0
 10
-14.137523463
 20
-46.9517872194
 30
0
  0
ARC
  5
1B4
330
0
100
AcDbEntity
  8
Spur
 62
     7
100
AcDbCircle
 10
-13.8035166326
 20
-47.1718691035
 30
0
 40
0.3999957481
100
AcDbArc
 50
73.690138
 51
146.618541
  0
ARC
  5
1B5
330
0
100
AcDbEntity
  8
Spur
 62
     7
100
AcDbCircle
 10
-0.0000000017
 20
0.0000000004
 30
0
 40
48.7500022798
100
AcDbArc
 50
253.689368
 51
253.910632
  0
ARC
  5
1B6
330
0
100
AcDbEntity
  8
Spur
 62
     7
100
AcDbCircle
 10
-13.6212568719
 20
-47.2248204589
 30
0
 40
0.3999957481
100
AcDbArc
 50
0.981459
 51
73.909862
  0
SPLINE
  5
1B7
330
0
100
AcDbEntity
  8
Spur
 62
     7
100
AcDbSpline
 70
     8
 71
     3
 72
     8
 73
     4
 74
     0
 40
0
 40
0
 40
0
 40
0
 40
1
 40
1
 40
1
 40
1
 10
-13.2213198071
 20
-47.2179689877
 30
0
 10
-13.1934936992
 20
-48.0333594497
 30
0
 10
-13.1444766069
 20
-48.6288144108
 30
0
 10
-13.0490366235
 20
-49.302437465
 30
0
  0
ARC
  5
1B8
330
0
100
AcDbEntity
  8
Spur
 62
     7
100
AcDbCircle
 10
0.0000000023
 20
-0.0000000006
 30
0
 40
51.0000754587
100
AcDbArc
 50
255.175267
 51
256.024733
  0
SPLINE
  5
1B9
330
0
100
AcDbEntity
  8
Spur
 62
     7
100
AcDbSpline
 70
     8
 71
     3
 72
     8
 73
     4
 74
     0
 40
0
 40
0
 40
0
 40
0
 40
1
 40
1
 40
1
 40
1
 10
-12.3166724297
 20
-49.4904766299
 30
0
 10
-11.9085173533
 20
-48.9461548104
 30
0
 10
-11.5787007326
 20
-48.4479678146
 30
0
 10
-11.1614991775
 20
-47.7468410356
 30
0
  0
ARC
  5
1BA
330
0
100
AcDbEntity
  8
Spur
 62
     7
100
AcDbCircle
 10
-10.8143323774
 20
-47.9455161759
 30
0
 40
0.3999957481
100
AcDbArc
 50
77.290138
 51
150.218541
  0
ARC
  5
1BB
330
0
100
AcDbEntity
  8
Spur
 62
     7
100
AcDbCircle
 10
-0.0000000077
 20
0.0000000017
 30
0
 40
48.7500022798
100
AcDbArc
 50
257.289368
 51
257.510632
  0
ARC
  5
1BC
330
0
100
AcDbEntity
  8
Spur
 62
     7
100
AcDbCircle
 10
-10.6291074217
 20
-47.9869188588
 30
0
 40
0.3999957481
100
AcDbArc
 50
4.581459
 51
77.509862
  0
SPLINE
  5
1BD
330
0
100
AcDbEntity
  8
Spur
 62
     7
100
AcDbSpline
 70
     8
 71
     3
 72
     8
 73
     4
 74
     0
 40
0
 40
0
 40
0
 40
0
 40
1
 40
1
 40
1
 40
1
 10
-10.2303897487
 20
-47.9549686514
 30
0
 10
-10.1514197586
 20
-48.7670029108
 30
0
 10
-10.0651104639
 20
-49.3582050689
 30
0
 10
-9.927561668
 20
-50.0245061557
 30
0
  0
ARC
  5
1BE
330
0
100
AcDbEntity
  8
Spur
 62
     7
100
AcDbCircle
 10
-0.0000000007
 20
0.0000000001
 30
0
 40
51.0000754587
100
AcDbArc
 50
258.775267
 51
259.624733
  0
SPLINE
  5
1BF
330
0
100
AcDbEntity
  8
Spur
 62
     7
100
AcDbSpline
 70
     8
 71
     3
 72
     8
 73
     4
 74
     0
 40
0
 40
0
 40
0
 40
0
 40
1
 40
1
 40
1
 40
1
 10
-9.1848355508
 20
-50.16618874
 30
0
 10
-8.8116641251
 20
-49.597312746
 30
0
 10
-8.5137797424
 20
-49.0793994514
 30
0
 10
-8.141425554
 20
-48.3534598836
 30
0
  0
ARC
  5
1C0
330
0
100
AcDbEntity
  8
Spur
 62
     7
100
AcDbCircle
 10
-7.782468893
 20
-48.5299442002
 30
0
 40
0.3999957481
100
AcDbArc
 50
80.890138
 51
153.818541
  0
ARC
  5
1C1
330
0
100
AcDbEntity
  8
Spur
 62
     7
100
AcDbCircle
 10
0.0000000091
 20
-0.0000000014
 30
0
 40
48.7500022799
100
AcDbArc
 50
260.889368
 51
261.110632
  0
ARC
  5
1C2
330
0
100
AcDbEntity
  8
Spur
 62
     7
100
AcDbCircle
 10
-7.5950097404
 20
-48.5596348132
 30
0
 40
0.3999957481
100
AcDbArc
 50
8.181459
 51
81.109862
  0
SPLINE
  5
1C3
330
0
100
AcDbEntity
  8
Spur
 62
     7
100
AcDbSpline
 70
     8
 71
     3
 72
     8
 73
     4
 74
     0
 40
0
 40
0
 40
0
 40
0
 40
1
 40
1
 40
1
 40
1
 10
-7.1990850158
 20
-48.5027119623
 30
0
 10
-7.0692828019
 20
-49.3081852909
 30
0
 10
-6.9460219283
 20
-49.8928014411
 30
0
 10
-6.766907162
 20
-50.5491509746
 30
0
  0
ARC
  5
1C4
330
0
100
AcDbEntity
  8
Spur
 62
     7
100
AcDbCircle
 10
-0.0000000014
 20
0.0000000002
 30
0
 40
51.0000754587
100
AcDbArc
 50
262.375267
 51
263.224733
  0
SPLINE
  5
1C5
330
0
100
AcDbEntity
  8
Spur
 62
     7
100
AcDbSpline
 70
     8
 71
     3
 72
     8
 73
     4
 74
     0
 40
0
 40
0
 40
0
 40
0
 40
1
 40
1
 40
1
 40
1
 10
-6.0167503221
 20
-50.6439178219
 30
0
 10
-5.6800352842
 20
-50.052732747
 30
0
 10
-5.4152587531
 20
-49.5171371209
 30
0
 10
-5.0892214433
 20
-48.7692497161
 30
0
  0
ARC
  5
1C6
330
0
100
AcDbEntity
  8
Spur
 62
     7
100
AcDbCircle
 10
-4.7198915593
 20
-48.9228467059
 30
0
 40
0.3999957481
100
AcDbArc
 50
84.490138
 51
157.418541
  0
ARC
  5
1C7
330
0
100
AcDbEntity
  8
Spur
 62
     7
100
AcDbCircle
 10
0.0000000216
 20
-0.0000000021
 30
0
 40
48.7500022798
100
AcDbArc
 50
264.489368
 51
264.710632
  0
ARC
  5
1C8
330
0
100
AcDbEntity
  8
Spur
 62
     7
100
AcDbCircle
 10
-4.5309380255
 20
-48.9407080737
 30
0
 40
0.3999957481
100
AcDbArc
 50
11.781459
 51
84.709862
  0
SPLINE
  5
1C9
330
0
100
AcDbEntity
  8
Spur
 62
     7
100
AcDbSpline
 70
     8
 71
     3
 72
     8
 73
     4
 74
     0
 40
0
 40
0
 40
0
 40
0
 40
1
 40
1
 40
1
 40
1
 10
-4.1393687833
 20
-48.859037228
 30
0
 10
-3.9592466156
 20
-49.6547707905
 30
0
 10
-3.7995206174
 20
-50.23049372
 30
0
 10
-3.579546765
 20
-50.8743013883
 30
0
  0
ARC
  5
1CA
330
0
100
AcDbEntity
  8
Spur
 62
     7
100
AcDbCircle
 10
0.0000000007
 20
0
 30
0
 40
51.0000754587
100
AcDbArc
 50
265.975267
 51
266.824733
  0
SPLINE
  5
1CB
330
0
100
AcDbEntity
  8
Spur
 62
     7
100
AcDbSpline
 70
     8
 71
     3
 72
     8
 73
     4
 74
     0
 40
0
 40
0
 40
0
 40
0
 40
1
 40
1
 40
1
 40
1
 10
-2.8249197287
 20
-50.9217784972
 30
0
 10
-2.525989939
 20
-50.3106174788
 30
0
 10
-2.2953662116
 20
-49.7594532724
 30
0
 10
-2.0169325006
 20
-48.9925696005
 30
0
  0
ARC
  5
1CC
330
0
100
AcDbEntity
  8
Spur
 62
     7
100
AcDbCircle
 10
-1.63868697
 20
-49.1226730865
 30
0
 40
0.3999957481
100
AcDbArc
 50
88.090138
 51
161.018541
  0
ARC
  5
1CD
330
0
100
AcDbEntity
  8
Spur
 62
     7
100
AcDbCircle
 10
-0.0000000083
 20
0.0000000002
 30
0
 40
48.7500022798
100
AcDbArc
 50
268.089368
 51
268.310632
  0
ARC
  5
1CE
330
0
100
AcDbEntity
  8
Spur
 62
     7
100
AcDbCircle
 10
-1.4489847682
 20
-49.1286347183
 30
0
 40
0.3999957481
100
AcDbArc
 50
15.381459
 51
88.309862
  0
SPLINE
  5
1CF
330
0
100
AcDbEntity
  8
Spur
 62
     7
100
AcDbSpline
 70
     8
 71
     3
 72
     8
 73
     4
 74
     0
 40
0
 40
0
 40
0
 40
0
 40
1
 40
1
 40
1
 40
1
 10
-1.0633163533
 20
-49.0225381952
 30
0
 10
-0.8335850918
 20
-49.8053915948
 30
0
 10
-0.6380243345
 20
-50.3699491882
 30
0
 10
-0.3780595323
 20
-50.9986741767
 30
0
  0
ARC
  5
1D0
330
0
100
AcDbEntity
  8
Spur
 62
     7
100
AcDbCircle
 10
0
 20
0
 30
0
 40
51.0000754587
100
AcDbArc
 50
269.575267
 51
270.424733
  0
SPLINE
  5
1D1
330
0
100
AcDbEntity
  8
Spur
 62
     7
100
AcDbSpline
 70
     8
 71
     3
 72
     8
 73
     4
 74
     0
 40
0
 40
0
 40
0
 40
0
 40
1
 40
1
 40
1
 40
1
 10
0.3780595323
 20
-50.9986741767
 30
0
 10
0.6380243345
 20
-50.3699491882
 30
0
 10
0.8335850918
 20
-49.8053915948
 30
0
 10
1.0633163533
 20
-49.0225381952
 30
0
  0
ARC
  5
1D2
330
0
100
AcDbEntity
  8
Spur
 62
     7
100
AcDbCircle
 10
1.4489847682
 20
-49.1286347183
 30
0
 40
0.3999957481
100
AcDbArc
 50
91.690138
 51
164.618541
  0
ARC
  5
1D3
330
0
100
AcDbEntity
  8
Spur
 62
     7
100
AcDbCircle
 10
0.0000000083
 20
0.0000000002
 30
0
 40
48.7500022798
100
AcDbArc
 50
271.689368
 51
271.910632
  0
ARC
  5
1D4
330
0
100
AcDbEntity
  8
Spur
 62
     7
100
AcDbCircle
 10
1.63868697
 20
-49.1226730865
 30
0
 40
0.3999957481
100
AcDbArc
 50
18.981459
 51
91.909862
  0
SPLINE
  5
1D5
330
0
100
AcDbEntity
  8
Spur
 62
     7
100
AcDbSpline
 70
     8
 71
     3
 72
     8
 73
     4
 74
     0
 40
0
 40
0
 40
0
 40
0
 40
1
 40
1
 40
1
 40
1
 10
2.0169325006
 20
-48.9925696005
 30
0
 10
2.2953662116
 20
-49.7594532724
 30
0
 10
2.525989939
 20
-50.3106174788
 30
0
 10
2.8249197287
 20
-50.9217784972
 30
0
  0
ARC
  5
1D6
330
0
100
AcDbEntity
  8
Spur
 62
     7
100
AcDbCircle
 10
-0.0000000007
 20
0
 30
0
 40
51.0000754587
100
AcDbArc
 50
273.175267
 51
274.024733
  0
SPLINE
  5
1D7
330
0
100
AcDbEntity
  8
Spur
 62
     7
100
AcDbSpline
 70
     8
 71
     3
 72
     8
 73
     4
 74
     0
 40
0
 40
0
 40
0
 40
0
 40
1
 40
1
 40
1
 40
1
 10
3.579546765
 20
-50.8743013883
 30
0
 10
3.7995206174
 20
-50.23049372
 30
0
 10
3.9592466156
 20
-49.6547707905
 30
0
 10
4.1393687833
 20
-48.859037228
 30
0
  0
ARC
  5
1D8
330
0
100
AcDbEntity
  8
Spur
 62
     7
100
AcDbCircle
 10
4.5309380255
 20
-48.9407080736
 30
0
 40
0.3999957481
100
AcDbArc
 50
95.290138
 51
168.218541
  0
ARC
  5
1D9
330
0
100
AcDbEntity
  8
Spur
 62
     7
100
AcDbCircle
 10
0.0000000041
 20
0.0000000004
 30
0
 40
48.7500022798
100
AcDbArc
 50
275.289368
 51
275.510632
  0
ARC
  5
1DA
330
0
100
AcDbEntity
  8
Spur
 62
     7
100
AcDbCircle
 10
4.7198915593
 20
-48.9228467059
 30
0
 40
0.3999957481
100
AcDbArc
 50
22.581459
 51
95.509862
  0
SPLINE
  5
1DB
330
0
100
AcDbEntity
  8
Spur
 62
     7
100
AcDbSpline
 70
     8
 71
     3
 72
     8
 73
     4
 74
     0
 40
0
 40
0
 40
0
 40
0
 40
1
 40
1
 40
1
 40
1
 10
5.0892214433
 20
-48.7692497161
 30
0
 10
5.4152587531
 20
-49.5171371209
 30
0
 10
5.6800352842
 20
-50.052732747
 30
0
 10
6.0167503221
 20
-50.6439178219
 30
0
  0
ARC
  5
1DC
330
0
100
AcDbEntity
  8
Spur
 62
     7
100
AcDbCircle
 10
0.0000000014
 20
0.0000000002
 30
0
 40
51.0000754587
100
AcDbArc
 50
276.775267
 51
277.624733
  0
SPLINE
  5
1DD
330
0
100
AcDbEntity
  8
Spur
 62
     7
100
AcDbSpline
 70
     8
 71
     3
 72
     8
 73
     4
 74
     0
 40
0
 40
0
 40
0
 40
0
 40
1
 40
1
 40
1
 40
1
 10
6.766907162
 20
-50.5491509746
 30
0
 10
6.9460219283
 20
-49.8928014411
 30
0
 10
7.0692828019
 20
-49.3081852909
 30
0
 10
7.1990850158
 20
-48.5027119623
 30
0
  0
ARC
  5
1DE
330
0
100
AcDbEntity
  8
Spur
 62
     7
100
AcDbCircle
 10
7.5950097404
 20
-48.5596348132
 30
0
 40
0.3999957481
100
AcDbArc
 50
98.890138
 51
171.818541
  0
ARC
  5
1DF
330
0
100
AcDbEntity
  8
Spur
 62
     7
100
AcDbCircle
 10
-0.0000000091
 20
-0.0000000015
 30
0
 40
48.7500022798
100
AcDbArc
 50
278.889368
 51
279.110632
  0
ARC
  5
1E0
330
0
100
AcDbEntity
  8
Spur
 62
     7
100
AcDbCircle
 10
7.782468893
 20
-48.5299442002
 30
0
 40
0.3999957481
100
AcDbArc
 50
26.181459
 51
99.109862
  0
SPLINE
  5
1E1
330
0
100
AcDbEntity
  8
Spur
 62
     7
100
AcDbSpline
 70
     8
 71
     3
 72
     8
 73
     4
 74
     0
 40
0
 40
0
 40
0
 40
0
 40
1
 40
1
 40
1
 40
1
 10
8.141425554
 20
-48.3534598836
 30
0
 10
8.5137797424
 20
-49.0793994514
 30
0
 10
8.8116641251
 20
-49.597312746
 30
0
 10
9.1848355508
 20
-50.16618874
 30
0
  0
ARC
  5
1E2
330
0
100
AcDbEntity
  8
Spur
 62
     7
100
AcDbCircle
 10
0.0000000007
 20
0.0000000001
 30
0
 40
51.0000754587
100
AcDbArc
 50
280.375267
 51
281.224733
  0
SPLINE
  5
1E3
330
0
100
AcDbEntity
  8
Spur
 62
     7
100
AcDbSpline
 70
     8
 71
     3
 72
     8
 73
     4
 74
     0
 40
0
 40
0
 40
0
 40
0
 40
1
 40
1
 40
1
 40
1
 10
9.927561668
 20
-50.0245061557
 30
0
 10
10.0651104639
 20
-49.3582050689
 30
0
 10
10.1514197586
 20
-48.7670029108
 30
0
 10
10.2303897487
 20
-47.9549686514
 30
0
  0
ARC
  5
1E4
330
0
100
AcDbEntity
  8
Spur
 62
     7
100
AcDbCircle
 10
10.6291074217
 20
-47.9869188588
 30
0
 40
0.3999957481
100
AcDbArc
 50
102.490138
 51
175.418541
  0
ARC
  5
1E5
330
0
100
AcDbEntity
  8
Spur
 62
     7
100
AcDbCircle
 10
0.0000000077
 20
0.0000000017
 30
0
 40
48.7500022798
100
AcDbArc
 50
282.489368
 51
282.710632
  0
ARC
  5
1E6
330
0
100
AcDbEntity
  8
Spur
 62
     7
100
AcDbCircle
 10
10.8143323774
 20
-47.9455161759
 30
0
 40
0.3999957481
100
AcDbArc
 50
29.781459
 51
102.709862
  0
SPLINE
  5
1E7
330
0
100
AcDbEntity
  8
Spur
 62
     7
100
AcDbSpline
 70
     8
 71
     3
 72
     8
 73
     4
 74
     0
 40
0
 40
0
 40
0
 40
0
 40
1
 40
1
 40
1
 40
1
 10
11.1614991775
 20
-47.7468410356
 30
0
 10
11.5787007326
 20
-48.4479678146
 30
0
 10
11.9085173533
 20
-48.9461548104
 30
0
 10
12.3166724297
 20
-49.4904766299
 30
0
  0
ARC
  5
1E8
330
0
100
AcDbEntity
  8
Spur
 62
     7
100
AcDbCircle
 10
-0.0000000023
 20
-0.0000000006
 30
0
 40
51.0000754587
100
AcDbArc
 50
283.975267
 51
284.824733
  0
SPLINE
  5
1E9
330
0
100
AcDbEntity
  8
Spur
 62
     7
100
AcDbSpline
 70
     8
 71
     3
 72
     8
 73
     4
 74
     0
 40
0
 40
0
 40
0
 40
0
 40
1
 40
1
 40
1
 40
1
 10
13.0490366235
 20
-49.302437465
 30
0
 10
13.1444766069
 20
-48.6288144108
 30
0
 10
13.1934936992
 20
-48.0333594497
 30
0
 10
13.2213198071
 20
-47.2179689877
 30
0
  0
ARC
  5
1EA
330
0
100
AcDbEntity
  8
Spur
 62
     7
100
AcDbCircle
 10
13.6212568719
 20
-47.2248204589
 30
0
 40
0.3999957481
100
AcDbArc
 50
106.090138
 51
179.018541
  0
ARC
  5
1EB
330
0
100
AcDbEntity
  8
Spur
 62
     7
100
AcDbCircle
 10
0.0000000018
 20
0.0000000003
 30
0
 40
48.7500022797
100
AcDbArc
 50
286.089368
 51
286.310632
  0
ARC
  5
1EC
330
0
100
AcDbEntity
  8
Spur
 62
     7
100
AcDbCircle
 10
13.8035166326
 20
-47.1718691035
 30
0
 40
0.3999957481
100
AcDbArc
 50
33.381459
 51
106.309862
  0
SPLINE
  5
1ED
330
0
100
AcDbEntity
  8
Spur
 62
     7
100
AcDbSpline
 70
     8
 71
     3
 72
     8
 73
     4
 74
     0
 40
0
 40
0
 40
0
 40
0
 40
1
 40
1
 40
1
 40
1
 10
14.137523463
 20
-46.9517872194
 30
0
 10
14.5979258808
 20
-47.6253341825
 30
0
 10
14.9583731041
 20
-48.1018287631
 30
0
 10
15.3999010294
 20
-48.6194482185
 30
0
  0
ARC
  5
1EE
330
0
100
AcDbEntity
  8
Spur
 62
     7
100
AcDbCircle
 10
0.0000000023
 20
0.0000000008
 30
0
 40
51.0000754587
100
AcDbArc
 50
287.575267
 51
288.424733
  0
SPLINE
  5
1EF
330
0
100
AcDbEntity
  8
Spur
 62
     7
100
AcDbSpline
 70
     8
 71
     3
 72
     8
 73
     4
 74
     0
 40
0
 40
0
 40
0
 40
0
 40
1
 40
1
 40
1
 40
1
 10
16.1190129929
 20
-48.3857945778
 30
0
 10
16.1719675058
 20
-47.7075080387
 30
0
 10
16.1834989477
 20
-47.1101502632
 30
0
 10
16.1600713564
 20
-46.2946215723
 30
0
  0
ARC
  5
1F0
330
0
100
AcDbEntity
  8
Spur
 62
     7
100
AcDbCircle
 10
16.5596494442
 20
-46.2763472675
 30
0
 40
0.3999957481
100
AcDbArc
 50
109.690138
 51
182.618541
  0
ARC
  5
1F1
330
0
100
AcDbEntity
  8
Spur
 62
     7
100
AcDbCircle
 10
-0.0000000105
 20
-0.0000000038
 30
0
 40
48.7500022798
100
AcDbArc
 50
289.689368
 51
289.910632
  0
ARC
  5
1F2
330
0
100
AcDbEntity
  8
Spur
 62
     7
100
AcDbCircle
 10
16.7382247137
 20
-46.2120562145
 30
0
 40
0.3999957481
100
AcDbArc
 50
36.981459
 51
109.909862
  0
SPLINE
  5
1F3
330
0
100
AcDbEntity
  8
Spur
 62
     7
100
AcDbSpline
 70
     8
 71
     3
 72
     8
 73
     4
 74
     0
 40
0
 40
0
 40
0
 40
0
 40
1
 40
1
 40
1
 40
1
 10
17.0577534022
 20
-45.9714361494
 30
0
 10
17.5595396848
 20
-46.6147451143
 30
0
 10
17.94919499
 20
-47.0676667733
 30
0
 10
18.4223532554
 20
-47.5565410572
 30
0
  0
ARC
  5
1F4
330
0
100
AcDbEntity
  8
Spur
 62
     7
100
AcDbCircle
 10
0.0000000019
 20
0.0000000008
 30
0
 40
51.0000754587
100
AcDbArc
 50
291.175267
 51
292.024733
  0
SPLINE
  5
1F5
330
0
100
AcDbEntity
  8
Spur
 62
     7
100
AcDbSpline
 70
     8
 71
     3
 72
     8
 73
     4
 74
     0
 40
0
 40
0
 40
0
 40
0
 40
1
 40
1
 40
1
 40
1
 10
19.1253749822
 20
-47.2781950648
 30
0
 10
19.1356350373
 20
-46.5979219278
 30
0
 10
19.1096353195
 20
-46.0010188363
 30
0
 10
19.0350464869
 20
-45.1885704355
 30
0
  0
ARC
  5
1F6
330
0
100
AcDbEntity
  8
Spur
 62
     7
100
AcDbCircle
 10
19.4326886456
 20
-45.1452424752
 30
0
 40
0.3999957481
100
AcDbArc
 50
113.290138
 51
186.218541
  0
ARC
  5
1F7
330
0
100
AcDbEntity
  8
Spur
 62
     7
100
AcDbCircle
 10
0.0000000006
 20
0.0000000003
 30
0
 40
48.7500022798
100
AcDbArc
 50
293.289368
 51
293.510632
  0
ARC
  5
1F8
330
0
100
AcDbEntity
  8
Spur
 62
     7
100
AcDbCircle
 10
19.606874669
 20
-45.0698654519
 30
0
 40
0.3999957481
100
AcDbArc
 50
40.581459
 51
113.509862
  0
SPLINE
  5
1F9
330
0
100
AcDbEntity
  8
Spur
 62
     7
100
AcDbSpline
 70
     8
 71
     3
 72
     8
 73
     4
 74
     0
 40
0
 40
0
 40
0
 40
0
 40
1
 40
1
 40
1
 40
1
 10
19.9106641817
 20
-44.8096568232
 30
0
 10
20.4518540078
 20
-45.4201889435
 30
0
 10
20.8691796035
 20
-45.847750206
 30
0
 10
21.3721008694
 20
-46.3059499548
 30
0
  0
ARC
  5
1FA
330
0
100
AcDbEntity
  8
Spur
 62
     7
100
AcDbCircle
 10
-0.0000000003
 20
-0.0000000001
 30
0
 40
51.0000754587
100
AcDbArc
 50
294.775267
 51
295.624733
  0
SPLINE
  5
1FB
330
0
100
AcDbEntity
  8
Spur
 62
     7
100
AcDbSpline
 70
     8
 71
     3
 72
     8
 73
     4
 74
     0
 40
0
 40
0
 40
0
 40
0
 40
1
 40
1
 40
1
 40
1
 10
22.056257854
 20
-45.9840101151
 30
0
 10
22.0237829595
 20
-45.3044351077
 30
0
 10
21.9603546909
 20
-44.7103424038
 30
0
 10
21.8348989853
 20
-43.9041806559
 30
0
  0
ARC
  5
1FC
330
0
100
AcDbEntity
  8
Spur
 62
     7
100
AcDbCircle
 10
22.2290359029
 20
-43.8359700358
 30
0
 40
0.3999957481
100
AcDbArc
 50
116.890138
 51
189.818541
  0
ARC
  5
1FD
330
0
100
AcDbEntity
  8
Spur
 62
     7
100
AcDbCircle
 10
-0.0000000098
 20
-0.0000000052
 30
0
 40
48.7500022797
100
AcDbArc
 50
296.889368
 51
297.110632
  0
ARC
  5
1FE
330
0
100
AcDbEntity
  8
Spur
 62
     7
100
AcDbCircle
 10
22.3981452475
 20
-43.7498045209
 30
0
 40
0.3999957481
100
AcDbArc
 50
44.181459
 51
117.109862
  0
SPLINE
  5
1FF
330
0
100
AcDbEntity
  8
Spur
 62
     7
100
AcDbSpline
 70
     8
 71
     3
 72
     8
 73
     4
 74
     0
 40
0
 40
0
 40
0
 40
0
 40
1
 40
1
 40
1
 40
1
 10
22.6849966659
 20
-43.4710342531
 30
0
 10
23.2634542065
 20
-44.0463800374
 30
0
 10
23.7068030994
 20
-44.4468935144
 30
0
 10
24.2375025653
 20
-44.8726104231
 30
0
  0
ARC
  5
200
330
0
100
AcDbEntity
  8
Spur
 62
     7
100
AcDbCircle
 10
0.0000000039
 20
0.0000000022
 30
0
 40
51.0000754587
100
AcDbArc
 50
298.375267
 51
299.224733
  0
SPLINE
  5
201
330
0
100
AcDbEntity
  8
Spur
 62
     7
100
AcDbSpline
 70
     8
 71
     3
 72
     8
 73
     4
 74
     0
 40
0
 40
0
 40
0
 40
0
 40
1
 40
1
 40
1
 40
1
 10
24.9000947526
 20
-44.5083472857
 30
0
 10
24.8250130721
 20
-43.8321523798
 30
0
 10
24.7244065752
 20
-43.2432146761
 30
0
 10
24.5485791127
 20
-42.4465211332
 30
0
  0
ARC
  5
202
330
0
100
AcDbEntity
  8
Spur
 62
     7
100
AcDbCircle
 10
24.9376553108
 20
-42.3536970493
 30
0
 40
0.3999957481
100
AcDbArc
 50
120.490138
 51
193.418541
  0
ARC
  5
203
330
0
100
AcDbEntity
  8
Spur
 62
     7
100
AcDbCircle
 10
0.0000000041
 20
0.0000000024
 30
0
 40
48.7500022798
100
AcDbArc
 50
300.489368
 51
300.710632
  0
ARC
  5
204
330
0
100
AcDbEntity
  8
Spur
 62
     7
100
AcDbCircle
 10
25.1010205794
 20
-42.2570830988
 30
0
 40
0.3999957481
100
AcDbArc
 50
47.781459
 51
120.709862
  0
SPLINE
  5
205
330
0
100
AcDbEntity
  8
Spur
 62
     7
100
AcDbSpline
 70
     8
 71
     3
 72
     8
 73
     4
 74
     0
 40
0
 40
0
 40
0
 40
0
 40
1
 40
1
 40
1
 40
1
 10
25.3698018321
 20
-41.9608513708
 30
0
 10
25.9832441796
 20
-42.4987401921
 30
0
 10
26.450866674
 20
-42.87062524
 30
0
 10
27.0072499117
 20
-43.2621791985
 30
0
  0
ARC
  5
206
330
0
100
AcDbEntity
  8
Spur
 62
     7
100
AcDbCircle
 10
-0.0000000011
 20
-0.0000000007
 30
0
 40
51.0000754587
100
AcDbArc
 50
301.975267
 51
302.824733
  0
SPLINE
  5
207
330
0
100
AcDbEntity
  8
Spur
 62
     7
100
AcDbSpline
 70
     8
 71
     3
 72
     8
 73
     4
 74
     0
 40
0
 40
0
 40
0
 40
0
 40
1
 40
1
 40
1
 40
1
 10
27.6456623529
 20
-42.8570303435
 30
0
 10
27.5282701995
 20
-42.1868841714
 30
0
 10
27.3908825222
 20
-41.605425736
 30
0
 10
27.1653772136
 20
-40.8213445836
 30
0
  0
ARC
  5
208
330
0
100
AcDbEntity
  8
Spur
 62
     7
100
AcDbCircle
 10
27.5478571863
 20
-40.7042733701
 30
0
 40
0.3999957481
100
AcDbArc
 50
124.090138
 51
197.018541
  0
ARC
  5
209
330
0
100
AcDbEntity
  8
Spur
 62
     7
100
AcDbCircle
 10
0.0000000025
 20
0.0000000015
 30
0
 40
48.7500022797
100
AcDbArc
 50
304.089368
 51
304.310632
  0
ARC
  5
20A
330
0
100
AcDbEntity
  8
Spur
 62
     7
100
AcDbCircle
 10
27.7048336506
 20
-40.5975922751
 30
0
 40
0.3999957481
100
AcDbArc
 50
51.381459
 51
124.309862
  0
SPLINE
  5
20B
330
0
100
AcDbEntity
  8
Spur
 62
     7
100
AcDbSpline
 70
     8
 71
     3
 72
     8
 73
     4
 74
     0
 40
0
 40
0
 40
0
 40
0
 40
1
 40
1
 40
1
 40
1
 10
27.9544839809
 20
-40.2850681783
 30
0
 10
28.6004901586
 20
-40.7833772352
 30
0
 10
29.0905407621
 20
-41.1251661935
 30
0
 10
29.670411981
 20
-41.4810119171
 30
0
  0
ARC
  5
20C
330
0
100
AcDbEntity
  8
Spur
 62
     7
100
AcDbCircle
 10
0.0000000011
 20
0.0000000008
 30
0
 40
51.0000754587
100
AcDbArc
 50
305.575267
 51
306.424733
  0
SPLINE
  5
20D
330
0
100
AcDbEntity
  8
Spur
 62
     7
100
AcDbSpline
 70
     8
 71
     3
 72
     8
 73
     4
 74
     0
 40
0
 40
0
 40
0
 40
0
 40
1
 40
1
 40
1
 40
1
 10
30.282125154
 20
-41.036576282
 30
0
 10
30.122885821
 20
-40.3751236046
 30
0
 10
29.9492591696
 20
-39.8034391882
 30
0
 10
29.6749659813
 20
-39.0350648363
 30
0
  0
ARC
  5
20E
330
0
100
AcDbEntity
  8
Spur
 62
     7
100
AcDbCircle
 10
30.0493402548
 20
-38.89420852
 30
0
 40
0.3999957481
100
AcDbArc
 50
127.690138
 51
200.618541
  0
ARC
  5
20F
330
0
100
AcDbEntity
  8
Spur
 62
     7
100
AcDbCircle
 10
0.000000002
 20
0.0000000014
 30
0
 40
48.7500022797
100
AcDbArc
 50
307.689368
 51
307.910632
  0
ARC
  5
210
330
0
100
AcDbEntity
  8
Spur
 62
     7
100
AcDbCircle
 10
30.1993084005
 20
-38.777881302
 30
0
 40
0.3999957481
100
AcDbArc
 50
54.981459
 51
127.909862
  0
SPLINE
  5
211
330
0
100
AcDbEntity
  8
Spur
 62
     7
100
AcDbSpline
 70
     8
 71
     3
 72
     8
 73
     4
 74
     0
 40
0
 40
0
 40
0
 40
0
 40
1
 40
1
 40
1
 40
1
 10
30.4288425525
 20
-38.4502982262
 30
0
 10
31.1048630691
 20
-38.9070609204
 30
0
 10
31.615407776
 20
-39.2174049043
 30
0
 10
32.2164784894
 20
-39.5361380326
 30
0
  0
ARC
  5
212
330
0
100
AcDbEntity
  8
Spur
 62
     7
100
AcDbCircle
 10
-0.0000000004
 20
-0.0000000003
 30
0
 40
51.0000754587
100
AcDbArc
 50
309.175267
 51
310.024733
  0
SPLINE
  5
213
330
0
100
AcDbEntity
  8
Spur
 62
     7
100
AcDbSpline
 70
     8
 71
     3
 72
     8
 73
     4
 74
     0
 40
0
 40
0
 40
0
 40
0
 40
1
 40
1
 40
1
 40
1
 10
32.7990782418
 20
-39.0541696017
 30
0
 10
32.5986201739
 20
-38.4040208706
 30
0
 10
32.3894397736
 20
-37.8443666504
 30
0
 10
32.0674412155
 20
-37.0947315216
 30
0
  0
ARC
  5
214
330
0
100
AcDbEntity
  8
Spur
 62
     7
100
AcDbCircle
 10
32.4322323056
 20
-36.9306459979
 30
0
 40
0.3999957481
100
AcDbArc
 50
131.290138
 51
204.218541
  0
ARC
  5
215
330
0
100
AcDbEntity
  8
Spur
 62
     7
100
AcDbCircle
 10
-0.0000000032
 20
-0.0000000029
 30
0
 40
48.7500022798
100
AcDbArc
 50
311.289368
 51
311.510632
  0
ARC
  5
216
330
0
100
AcDbEntity
  8
Spur
 62
     7
100
AcDbCircle
 10
32.574600277
 20
-36.8051317473
 30
0
 40
0.3999957481
100
AcDbArc
 50
58.581459
 51
131.509862
  0
SPLINE
  5
217
330
0
100
AcDbEntity
  8
Spur
 62
     7
100
AcDbSpline
 70
     8
 71
     3
 72
     8
 73
     4
 74
     0
 40
0
 40
0
 40
0
 40
0
 40
1
 40
1
 40
1
 40
1
 10
32.7831123842
 20
-36.4637825132
 30
0
 10
33.4864792957
 20
-36.8771962112
 30
0
 10
34.0155032192
 20
-37.1548704347
 30
0
 10
34.6354012755
 20
-37.4352330736
 30
0
  0
ARC
  5
218
330
0
100
AcDbEntity
  8
Spur
 62
     7
100
AcDbCircle
 10
0.0000000007
 20
0.0000000007
 30
0
 40
51.0000754587
100
AcDbArc
 50
312.775267
 51
313.624733
  0
SPLINE
  5
219
330
0
100
AcDbEntity
  8
Spur
 62
     7
100
AcDbSpline
 70
     8
 71
     3
 72
     8
 73
     4
 74
     0
 40
0
 40
0
 40
0
 40
0
 40
1
 40
1
 40
1
 40
1
 10
35.1865883522
 20
-36.9176339562
 30
0
 10
34.9457026659
 20
-36.2813550113
 30
0
 10
34.7017940561
 20
-35.7359396869
 30
0
 10
34.3333609094
 20
-35.0080022485
 30
0
  0
ARC
  5
21A
330
0
100
AcDbEntity
  8
Spur
 62
     7
100
AcDbCircle
 10
34.6871291523
 20
-34.821335088
 30
0
 40
0.3999957481
100
AcDbArc
 50
134.890138
 51
207.818541
  0
ARC
  5
21B
330
0
100
AcDbEntity
  8
Spur
 62
     7
100
AcDbCircle
 10
0
 20
0
 30
0
 40
48.7500022798
100
AcDbArc
 50
314.889368
 51
315.110632
  0
ARC
  5
21C
330
0
100
AcDbEntity
  8
Spur
 62
     7
100
AcDbCircle
 10
34.821335088
 20
-34.6871291523
 30
0
 40
0.3999957481
100
AcDbArc
 50
62.181459
 51
135.109862
  0
SPLINE
  5
21D
330
0
100
AcDbEntity
  8
Spur
 62
     7
100
AcDbSpline
 70
     8
 71
     3
 72
     8
 73
     4
 74
     0
 40
0
 40
0
 40
0
 40
0
 40
1
 40
1
 40
1
 40
1
 10
35.0080022485
 20
-34.3333609094
 30
0
 10
35.7359396869
 20
-34.7017940561
 30
0
 10
36.2813550113
 20
-34.9457026659
 30
0
 10
36.9176339562
 20
-35.1865883522
 30
0
  0
ARC
  5
21E
330
0
100
AcDbEntity
  8
Spur
 62
     7
100
AcDbCircle
 10
-0.0000000007
 20
-0.0000000007
 30
0
 40
51.0000754587
100
AcDbArc
 50
316.375267
 51
317.224733
  0
SPLINE
  5
21F
330
0
100
AcDbEntity
  8
Spur
 62
     7
100
AcDbSpline
 70
     8
 71
     3
 72
     8
 73
     4
 74
     0
 40
0
 40
0
 40
0
 40
0
 40
1
 40
1
 40
1
 40
1
 10
37.4352330736
 20
-34.6354012755
 30
0
 10
37.1548704347
 20
-34.0155032192
 30
0
 10
36.8771962112
 20
-33.4864792957
 30
0
 10
36.4637825132
 20
-32.7831123842
 30
0
  0
ARC
  5
220
330
0
100
AcDbEntity
  8
Spur
 62
     7
100
AcDbCircle
 10
36.8051317473
 20
-32.574600277
 30
0
 40
0.3999957481
100
AcDbArc
 50
138.490138
 51
211.418541
  0
ARC
  5
221
330
0
100
AcDbEntity
  8
Spur
 62
     7
100
AcDbCircle
 10
0.0000000029
 20
0.0000000032
 30
0
 40
48.7500022798
100
AcDbArc
 50
318.489368
 51
318.710632
  0
ARC
  5
222
330
0
100
AcDbEntity
  8
Spur
 62
     7
100
AcDbCircle
 10
36.9306459979
 20
-32.4322323056
 30
0
 40
0.3999957481
100
AcDbArc
 50
65.781459
 51
138.709862
  0
SPLINE
  5
223
330
0
100
AcDbEntity
  8
Spur
 62
     7
100
AcDbSpline
 70
     8
 71
     3
 72
     8
 73
     4
 74
     0
 40
0
 40
0
 40
0
 40
0
 40
1
 40
1
 40
1
 40
1
 10
37.0947315216
 20
-32.0674412155
 30
0
 10
37.8443666504
 20
-32.3894397736
 30
0
 10
38.4040208706
 20
-32.5986201739
 30
0
 10
39.0541696017
 20
-32.7990782418
 30
0
  0
ARC
  5
224
330
0
100
AcDbEntity
  8
Spur
 62
     7
100
AcDbCircle
 10
0.0000000003
 20
0.0000000004
 30
0
 40
51.0000754587
100
AcDbArc
 50
319.975267
 51
320.824733
  0
SPLINE
  5
225
330
0
100
AcDbEntity
  8
Spur
 62
     7
100
AcDbSpline
 70
     8
 71
     3
 72
     8
 73
     4
 74
     0
 40
0
 40
0
 40
0
 40
0
 40
1
 40
1
 40
1
 40
1
 10
39.5361380326
 20
-32.2164784894
 30
0
 10
39.2174049043
 20
-31.615407776
 30
0
 10
38.9070609204
 20
-31.1048630691
 30
0
 10
38.4502982262
 20
-30.4288425525
 30
0
  0
ARC
  5
226
330
0
100
AcDbEntity
  8
Spur
 62
     7
100
AcDbCircle
 10
38.777881302
 20
-30.1993084005
 30
0
 40
0.3999957481
100
AcDbArc
 50
142.090138
 51
215.018541
  0
ARC
  5
227
330
0
100
AcDbEntity
  8
Spur
 62
     7
100
AcDbCircle
 10
-0.0000000014
 20
-0.000000002
 30
0
 40
48.7500022797
100
AcDbArc
 50
322.089368
 51
322.310632
  0
ARC
  5
228
330
0
100
AcDbEntity
  8
Spur
 62
     7
100
AcDbCircle
 10
38.89420852
 20
-30.0493402548
 30
0
 40
0.3999957481
100
AcDbArc
 50
69.381459
 51
142.309862
  0
SPLINE
  5
229
330
0
100
AcDbEntity
  8
Spur
 62
     7
100
AcDbSpline
 70
     8
 71
     3
 72
     8
 73
     4
 74
     0
 40
0
 40
0
 40
0
 40
0
 40
1
 40
1
 40
1
 40
1
 10
39.0350648363
 20
-29.6749659813
 30
0
 10
39.8034391882
 20
-29.9492591696
 30
0
 10
40.3751236046
 20
-30.122885821
 30
0
 10
41.036576282
 20
-30.282125154
 30
0
  0
ARC
  5
22A
330
0
100
AcDbEntity
  8
Spur
 62
     7
100
AcDbCircle
 10
-0.0000000008
 20
-0.0000000011
 30
0
 40
51.0000754587
100
AcDbArc
 50
323.575267
 51
324.424733
  0
SPLINE
  5
22B
330
0
100
AcDbEntity
  8
Spur
 62
     7
100
AcDbSpline
 70
     8
 71
     3
 72
     8
 73
     4
 74
     0
 40
0
 40
0
 40
0
 40
0
 40
1
 40
1
 40
1
 40
1
 10
41.4810119171
 20
-29.670411981
 30
0
 10
41.1251661935
 20
-29.0905407621
 30
0
 10
40.7833772352
 20
-28.6004901586
 30
0
 10
40.2850681783
 20
-27.9544839809
 30
0
  0
ARC
  5
22C
330
0
100
AcDbEntity
  8
Spur
 62
     7
100
AcDbCircle
 10
40.5975922751
 20
-27.7048336506
 30
0
 40
0.3999957481
100
AcDbArc
 50
145.690138
 51
218.618541
  0
ARC
  5
22D
330
0
100
AcDbEntity
  8
Spur
 62
     7
100
AcDbCircle
 10
-0.0000000015
 20
-0.0000000025
 30
0
 40
48.7500022797
100
AcDbArc
 50
325.689368
 51
325.910632
  0
ARC
  5
22E
330
0
100
AcDbEntity
  8
Spur
 62
     7
100
AcDbCircle
 10
40.7042733701
 20
-27.5478571863
 30
0
 40
0.3999957481
100
AcDbArc
 50
72.981459
 51
145.909862
  0
SPLINE
  5
22F
330
0
100
AcDbEntity
  8
Spur
 62
     7
100
AcDbSpline
 70
     8
 71
     3
 72
     8
 73
     4
 74
     0
 40
0
 40
0
 40
0
 40
0
 40
1
 40
1
 40
1
 40
1
 10
40.8213445836
 20
-27.1653772136
 30
0
 10
41.605425736
 20
-27.3908825222
 30
0
 10
42.1868841714
 20
-27.5282701995
 30
0
 10
42.8570303435
 20
-27.6456623529
 30
0
  0
ARC
  5
230
330
0
100
AcDbEntity
  8
Spur
 62
     7
100
AcDbCircle
 10
0.0000000007
 20
0.0000000011
 30
0
 40
51.0000754587
100
AcDbArc
 50
327.175267
 51
328.024733
  0
SPLINE
  5
231
330
0
100
AcDbEntity
  8
Spur
 62
     7
100
AcDbSpline
 70
     8
 71
     3
 72
     8
 73
     4
 74
     0
 40
0
 40
0
 40
0
 40
0
 40
1
 40
1
 40
1
 40
1
 10
43.2621791985
 20
-27.0072499117
 30
0
 10
42.87062524
 20
-26.450866674
 30
0
 10
42.4987401921
 20
-25.9832441796
 30
0
 10
41.9608513708
 20
-25.3698018321
 30
0
  0
ARC
  5
232
330
0
100
AcDbEntity
  8
Spur
 62
     7
100
AcDbCircle
 10
42.2570830988
 20
-25.1010205794
 30
0
 40
0.3999957481
100
AcDbArc
 50
149.290138
 51
222.218541
  0
ARC
  5
233
330
0
100
AcDbEntity
  8
Spur
 62
     7
100
AcDbCircle
 10
-0.0000000023
 20
-0.0000000042
 30
0
 40
48.7500022797
100
AcDbArc
 50
329.289368
 51
329.510632
  0
ARC
  5
234
330
0
100
AcDbEntity
  8
Spur
 62
     7
100
AcDbCircle
 10
42.3536970493
 20
-24.9376553108
 30
0
 40
0.3999957481
100
AcDbArc
 50
76.581459
 51
149.509862
  0
SPLINE
  5
235
330
0
100
AcDbEntity
  8
Spur
 62
     7
100
AcDbSpline
 70
     8
 71
     3
 72
     8
 73
     4
 74
     0
 40
0
 40
0
 40
0
 40
0
 40
1
 40
1
 40
1
 40
1
 10
42.4465211332
 20
-24.5485791127
 30
0
 10
43.2432146761
 20
-24.7244065752
 30
0
 10
43.8321523798
 20
-24.8250130721
 30
0
 10
44.5083472857
 20
-24.9000947526
 30
0
  0
ARC
  5
236
330
0
100
AcDbEntity
  8
Spur
 62
     7
100
AcDbCircle
 10
-0.0000000022
 20
-0.0000000039
 30
0
 40
51.0000754587
100
AcDbArc
 50
330.775267
 51
331.624733
  0
SPLINE
  5
237
330
0
100
AcDbEntity
  8
Spur
 62
     7
100
AcDbSpline
 70
     8
 71
     3
 72
     8
 73
     4
 74
     0
 40
0
 40
0
 40
0
 40
0
 40
1
 40
1
 40
1
 40
1
 10
44.8726104231
 20
-24.2375025653
 30
0
 10
44.4468935144
 20
-23.7068030994
 30
0
 10
44.0463800374
 20
-23.2634542065
 30
0
 10
43.4710342531
 20
-22.6849966659
 30
0
  0
ARC
  5
238
330
0
100
AcDbEntity
  8
Spur
 62
     7
100
AcDbCircle
 10
43.7498045209
 20
-22.3981452475
 30
0
 40
0.3999957481
100
AcDbArc
 50
152.890138
 51
225.818541
  0
ARC
  5
239
330
0
100
AcDbEntity
  8
Spur
 62
     7
100
AcDbCircle
 10
-0.0000000054
 20
-0.0000000107
 30
0
 40
48.7500022798
100
AcDbArc
 50
332.889368
 51
333.110632
  0
ARC
  5
23A
330
0
100
AcDbEntity
  8
Spur
 62
     7
100
AcDbCircle
 10
43.8359700357
 20
-22.2290359029
 30
0
 40
0.3999957481
100
AcDbArc
 50
80.181459
 51
153.109862
  0
SPLINE
  5
23B
330
0
100
AcDbEntity
  8
Spur
 62
     7
100
AcDbSpline
 70
     8
 71
     3
 72
     8
 73
     4
 74
     0
 40
0
 40
0
 40
0
 40
0
 40
1
 40
1
 40
1
 40
1
 10
43.9041806559
 20
-21.8348989853
 30
0
 10
44.7103424038
 20
-21.9603546909
 30
0
 10
45.3044351077
 20
-22.0237829595
 30
0
 10
45.9840101151
 20
-22.056257854
 30
0
  0
ARC
  5
23C
330
0
100
AcDbEntity
  8
Spur
 62
     7
100
AcDbCircle
 10
0.0000000001
 20
0.0000000003
 30
0
 40
51.0000754587
100
AcDbArc
 50
334.375267
 51
335.224733
  0
SPLINE
  5
23D
330
0
100
AcDbEntity
  8
Spur
 62
     7
100
AcDbSpline
 70
     8
 71
     3
 72
     8
 73
     4
 74
     0
 40
0
 40
0
 40
0
 40
0
 40
1
 40
1
 40
1
 40
1
 10
46.3059499548
 20
-21.3721008694
 30
0
 10
45.847750206
 20
-20.8691796035
 30
0
 10
45.4201889435
 20
-20.4518540078
 30
0
 10
44.8096568232
 20
-19.9106641817
 30
0
  0
ARC
  5
23E
330
0
100
AcDbEntity
  8
Spur
 62
     7
100
AcDbCircle
 10
45.0698654519
 20
-19.606874669
 30
0
 40
0.3999957481
100
AcDbArc
 50
156.490138
 51
229.418541
  0
ARC
  5
23F
330
0
100
AcDbEntity
  8
Spur
 62
     7
100
AcDbCircle
 10
-0.0000000003
 20
-0.0000000006
 30
0
 40
48.7500022798
100
AcDbArc
 50
336.489368
 51
336.710632
  0
ARC
  5
240
330
0
100
AcDbEntity
  8
Spur
 62
     7
100
AcDbCircle
 10
45.1452424752
 20
-19.4326886456
 30
0
 40
0.3999957481
100
AcDbArc
 50
83.781459
 51
156.709862
  0
SPLINE
  5
241
330
0
100
AcDbEntity
  8
Spur
 62
     7
100
AcDbSpline
 70
     8
 71
     3
 72
     8
 73
     4
 74
     0
 40
0
 40
0
 40
0
 40
0
 40
1
 40
1
 40
1
 40
1
 10
45.1885704355
 20
-19.0350464869
 30
0
 10
46.0010188363
 20
-19.1096353195
 30
0
 10
46.5979219278
 20
-19.1356350373
 30
0
 10
47.2781950648
 20
-19.1253749822
 30
0
  0
ARC
  5
242
330
0
100
AcDbEntity
  8
Spur
 62
     7
100
AcDbCircle
 10
-0.0000000008
 20
-0.0000000019
 30
0
 40
51.0000754587
100
AcDbArc
 50
337.975267
 51
338.824733
  0
SPLINE
  5
243
330
0
100
AcDbEntity
  8
Spur
 62
     7
100
AcDbSpline
 70
     8
 71
     3
 72
     8
 73
     4
 74
     0
 40
0
 40
0
 40
0
 40
0
 40
1
 40
1
 40
1
 40
1
 10
47.5565410572
 20
-18.4223532554
 30
0
 10
47.0676667733
 20
-17.94919499
 30
0
 10
46.6147451143
 20
-17.5595396848
 30
0
 10
45.9714361494
 20
-17.0577534022
 30
0
  0
ARC
  5
244
330
0
100
AcDbEntity
  8
Spur
 62
     7
100
AcDbCircle
 10
46.2120562146
 20
-16.7382247138
 30
0
 40
0.3999957481
100
AcDbArc
 50
160.090138
 51
233.018541
  0
ARC
  5
245
330
0
100
AcDbEntity
  8
Spur
 62
     7
100
AcDbCircle
 10
0.0000000039
 20
0.0000000105
 30
0
 40
48.7500022798
100
AcDbArc
 50
340.089368
 51
340.310632
  0
ARC
  5
246
330
0
100
AcDbEntity
  8
Spur
 62
     7
100
AcDbCircle
 10
46.2763472676
 20
-16.5596494442
 30
0
 40
0.3999957481
100
AcDbArc
 50
87.381459
 51
160.309862
  0
SPLINE
  5
247
330
0
100
AcDbEntity
  8
Spur
 62
     7
100
AcDbSpline
 70
     8
 71
     3
 72
     8
 73
     4
 74
     0
 40
0
 40
0
 40
0
 40
0
 40
1
 40
1
 40
1
 40
1
 10
46.2946215723
 20
-16.1600713564
 30
0
 10
47.1101502632
 20
-16.1834989477
 30
0
 10
47.7075080387
 20
-16.1719675058
 30
0
 10
48.3857945778
 20
-16.1190129929
 30
0
  0
ARC
  5
248
330
0
100
AcDbEntity
  8
Spur
 62
     7
100
AcDbCircle
 10
-0.0000000008
 20
-0.0000000023
 30
0
 40
51.0000754587
100
AcDbArc
 50
341.575267
 51
342.424733
  0
SPLINE
  5
249
330
0
100
AcDbEntity
  8
Spur
 62
     7
100
AcDbSpline
 70
     8
 71
     3
 72
     8
 73
     4
 74
     0
 40
0
 40
0
 40
0
 40
0
 40
1
 40
1
 40
1
 40
1
 10
48.6194482185
 20
-15.3999010294
 30
0
 10
48.1018287631
 20
-14.9583731041
 30
0
 10
47.6253341825
 20
-14.5979258808
 30
0
 10
46.9517872194
 20
-14.137523463
 30
0
  0
ARC
  5
24A
330
0
100
AcDbEntity
  8
Spur
 62
     7
100
AcDbCircle
 10
47.1718691035
 20
-13.8035166326
 30
0
 40
0.3999957481
100
AcDbArc
 50
163.690138
 51
236.618541
  0
ARC
  5
24B
330
0
100
AcDbEntity
  8
Spur
 62
     7
100
AcDbCircle
 10
-0.0000000004
 20
-0.0000000017
 30
0
 40
48.7500022798
100
AcDbArc
 50
343.689368
 51
343.910632
  0
ARC
  5
24C
330
0
100
AcDbEntity
  8
Spur
 62
     7
100
AcDbCircle
 10
47.2248204589
 20
-13.6212568719
 30
0
 40
0.3999957481
100
AcDbArc
 50
90.981459
 51
163.909862
  0
SPLINE
  5
24D
330
0
100
AcDbEntity
  8
Spur
 62
     7
100
AcDbSpline
 70
     8
 71
     3
 72
     8
 73
     4
 74
     0
 40
0
 40
0
 40
0
 40
0
 40
1
 40
1
 40
1
 40
1
 10
47.2179689877
 20
-13.2213198071
 30
0
 10
48.0333594497
 20
-13.1934936992
 30
0
 10
48.6288144108
 20
-13.1444766069
 30
0
 10
49.302437465
 20
-13.0490366235
 30
0
  0
ARC
  5
24E
330
0
100
AcDbEntity
  8
Spur
 62
     7
100
AcDbCircle
 10
0.0000000006
 20
0.0000000023
 30
0
 40
51.0000754587
100
AcDbArc
 50
345.175267
 51
346.024733
  0
SPLINE
  5
24F
330
0
100
AcDbEntity
  8
Spur
 62
     7
100
AcDbSpline
 70
     8
 71
     3
 72
     8
 73
     4
 74
     0
 40
0
 40
0
 40
0
 40
0
 40
1
 40
1
 40
1
 40
1
 10
49.4904766299
 20
-12.3166724297
 30
0
 10
48.9461548104
 20
-11.9085173533
 30
0
 10
48.4479678146
 20
-11.5787007326
 30
0
 10
47.7468410356
 20
-11.1614991775
 30
0
  0
ARC
  5
250
330
0
100
AcDbEntity
  8
Spur
 62
     7
100
AcDbCircle
 10
47.9455161759
 20
-10.8143323774
 30
0
 40
0.3999957481
100
AcDbArc
 50
167.290138
 51
240.218541
  0
ARC
  5
251
330
0
100
AcDbEntity
  8
Spur
 62
     7
100
AcDbCircle
 10
-0.0000000017
 20
-0.0000000077
 30
0
 40
48.7500022798
100
AcDbArc
 50
347.289368
 51
347.510632
  0
ARC
  5
252
330
0
100
AcDbEntity
  8
Spur
 62
     7
100
AcDbCircle
 10
47.9869188588
 20
-10.6291074217
 30
0
 40
0.3999957481
100
AcDbArc
 50
94.581459
 51
167.509862
  0
SPLINE
  5
253
330
0
100
AcDbEntity
  8
Spur
 62
     7
100
AcDbSpline
 70
     8
 71
     3
 72
     8
 73
     4
 74
     0
 40
0
 40
0
 40
0
 40
0
 40
1
 40
1
 40
1
 40
1
 10
47.9549686514
 20
-10.2303897487
 30
0
 10
48.7670029108
 20
-10.1514197586
 30
0
 10
49.3582050689
 20
-10.0651104639
 30
0
 10
50.0245061557
 20
-9.927561668
 30
0
  0
ARC
  5
254
330
0
100
AcDbEntity
  8
Spur
 62
     7
100
AcDbCircle
 10
-0.0000000001
 20
-0.0000000007
 30
0
 40
51.0000754587
100
AcDbArc
 50
348.775267
 51
349.624733
  0
SPLINE
  5
255
330
0
100
AcDbEntity
  8
Spur
 62
     7
100
AcDbSpline
 70
     8
 71
     3
 72
     8
 73
     4
 74
     0
 40
0
 40
0
 40
0
 40
0
 40
1
 40
1
 40
1
 40
1
 10
50.16618874
 20
-9.1848355508
 30
0
 10
49.597312746
 20
-8.8116641251
 30
0
 10
49.0793994514
 20
-8.5137797424
 30
0
 10
48.3534598836
 20
-8.141425554
 30
0
  0
ARC
  5
256
330
0
100
AcDbEntity
  8
Spur
 62
     7
100
AcDbCircle
 10
48.5299442002
 20
-7.782468893
 30
0
 40
0.3999957481
100
AcDbArc
 50
170.890138
 51
243.818541
  0
ARC
  5
257
330
0
100
AcDbEntity
  8
Spur
 62
     7
100
AcDbCircle
 10
0.0000000014
 20
0.0000000091
 30
0
 40
48.7500022799
100
AcDbArc
 50
350.889368
 51
351.110632
  0
ARC
  5
258
330
0
100
AcDbEntity
  8
Spur
 62
     7
100
AcDbCircle
 10
48.5596348132
 20
-7.5950097404
 30
0
 40
0.3999957481
100
AcDbArc
 50
98.181459
 51
171.109862
  0
SPLINE
  5
259
330
0
100
AcDbEntity
  8
Spur
 62
     7
100
AcDbSpline
 70
     8
 71
     3
 72
     8
 73
     4
 74
     0
 40
0
 40
0
 40
0
 40
0
 40
1
 40
1
 40
1
 40
1
 10
48.5027119623
 20
-7.1990850158
 30
0
 10
49.3081852909
 20
-7.0692828019
 30
0
 10
49.8928014411
 20
-6.9460219283
 30
0
 10
50.5491509746
 20
-6.766907162
 30
0
  0
ARC
  5
25A
330
0
100
AcDbEntity
  8
Spur
 62
     7
100
AcDbCircle
 10
-0.0000000002
 20
-0.0000000014
 30
0
 40
51.0000754587
100
AcDbArc
 50
352.375267
 51
353.224733
  0
SPLINE
  5
25B
330
0
100
AcDbEntity
  8
Spur
 62
     7
100
AcDbSpline
 70
     8
 71
     3
 72
     8
 73
     4
 74
     0
 40
0
 40
0
 40
0
 40
0
 40
1
 40
1
 40
1
 40
1
 10
50.6439178219
 20
-6.0167503221
 30
0
 10
50.052732747
 20
-5.6800352842
 30
0
 10
49.5171371209
 20
-5.4152587531
 30
0
 10
48.7692497161
 20
-5.0892214433
 30
0
  0
ARC
  5
25C
330
0
100
AcDbEntity
  8
Spur
 62
     7
100
AcDbCircle
 10
48.9228467059
 20
-4.7198915593
 30
0
 40
0.3999957481
100
AcDbArc
 50
174.490138
 51
247.418541
  0
ARC
  5
25D
330
0
100
AcDbEntity
  8
Spur
 62
     7
100
AcDbCircle
 10
0.0000000021
 20
0.0000000216
 30
0
 40
48.7500022798
100
AcDbArc
 50
354.489368
 51
354.710632
  0
ARC
  5
25E
330
0
100
AcDbEntity
  8
Spur
 62
     7
100
AcDbCircle
 10
48.9407080737
 20
-4.5309380255
 30
0
 40
0.3999957481
100
AcDbArc
 50
101.781459
 51
174.709862
  0
SPLINE
  5
25F
330
0
100
AcDbEntity
  8
Spur
 62
     7
100
AcDbSpline
 70
     8
 71
     3
 72
     8
 73
     4
 74
     0
 40
0
 40
0
 40
0
 40
0
 40
1
 40
1
 40
1
 40
1
 10
48.859037228
 20
-4.1393687833
 30
0
 10
49.6547707905
 20
-3.9592466156
 30
0
 10
50.23049372
 20
-3.7995206174
 30
0
 10
50.8743013883
 20
-3.579546765
 30
0
  0
ARC
  5
260
330
0
100
AcDbEntity
  8
Spur
 62
     7
100
AcDbCircle
 10
0
 20
0.0000000007
 30
0
 40
51.0000754587
100
AcDbArc
 50
355.975267
 51
356.824733
  0
SPLINE
  5
261
330
0
100
AcDbEntity
  8
Spur
 62
     7
100
AcDbSpline
 70
     8
 71
     3
 72
     8
 73
     4
 74
     0
 40
0
 40
0
 40
0
 40
0
 40
1
 40
1
 40
1
 40
1
 10
50.9217784972
 20
-2.8249197287
 30
0
 10
50.3106174788
 20
-2.525989939
 30
0
 10
49.7594532724
 20
-2.2953662116
 30
0
 10
48.9925696005
 20
-2.0169325006
 30
0
  0
ARC
  5
262
330
0
100
AcDbEntity
  8
Spur
 62
     7
100
AcDbCircle
 10
49.1226730865
 20
-1.63868697
 30
0
 40
0.3999957481
100
AcDbArc
 50
178.090138
 51
251.018541
  0
ENDSEC
  0
SECTION
  2
OBJECTS
  0
DICTIONARY
  5
277
330
0
100
AcDbDictionary
  3
ACAD_GROUP
350
278
  0
DICTIONARY
  5
278
330
277
100
AcDbDictionary
  0
ENDSEC
  0
EOF
